<?xml version="1.0" encoding="UTF-8" standalone="no"?>
<svg
   width="744pt"
   height="182pt"
   viewBox="0 0 744 182"
   version="1.1"
   id="svg33"
   xmlns="http://www.w3.org/2000/svg"
   xmlns:svg="http://www.w3.org/2000/svg">
  <defs
     id="defs33" />
  <g
     id="#e41819ff">
    <path
       fill="#e41819"
       opacity="1.00"
       d=" M 12.52 13.61 C 31.27 8.44 50.57 5.49 69.98 4.41 C 85.68 4.16 101.40 4.10 117.09 4.74 C 123.97 5.69 130.94 5.39 137.84 6.13 C 140.03 34.36 141.29 62.74 139.70 91.04 C 139.60 104.41 138.10 117.70 137.31 131.04 C 135.76 143.59 134.77 156.24 132.48 168.68 C 116.38 169.16 100.25 166.85 84.92 161.93 C 71.11 157.60 58.59 149.80 47.94 140.08 C 34.11 126.60 24.15 109.26 19.07 90.65 C 11.66 65.75 10.32 39.39 12.52 13.61 M 86.43 24.25 C 85.46 25.81 85.46 27.66 85.30 29.42 C 80.96 31.45 76.29 32.84 72.34 35.64 C 73.10 38.36 72.84 41.72 75.41 43.54 C 78.03 42.65 80.68 41.84 83.37 41.21 C 83.45 41.79 83.62 42.96 83.71 43.55 C 80.28 42.96 77.26 44.91 73.97 45.30 C 71.14 45.05 71.37 41.87 71.06 39.79 C 69.95 41.75 68.26 44.53 70.46 46.39 C 74.18 49.76 78.00 44.57 81.80 43.91 C 80.66 46.32 75.10 47.21 76.87 50.10 C 81.57 51.35 86.49 50.48 91.30 50.73 C 85.65 52.91 79.38 52.36 73.76 54.62 C 69.22 56.38 65.59 59.73 62.14 63.05 C 64.04 60.11 66.04 57.23 68.01 54.34 C 66.04 51.91 63.77 49.56 62.68 46.57 C 62.28 42.60 62.43 38.57 61.52 34.65 C 58.34 32.75 54.63 33.16 51.16 33.85 C 51.51 34.39 52.22 35.45 52.58 35.99 C 51.36 36.25 50.14 36.53 48.92 36.81 C 49.13 37.69 49.34 38.58 49.55 39.46 C 48.53 39.88 47.51 40.31 46.50 40.75 C 48.37 43.18 49.48 46.15 51.84 48.18 C 56.13 52.11 56.54 58.37 56.80 63.80 C 51.90 61.99 50.09 56.09 45.01 54.70 C 41.90 54.14 39.90 57.09 37.98 59.00 C 38.73 60.75 38.27 62.48 37.38 64.07 C 39.08 65.05 38.53 66.83 38.27 68.40 C 41.36 69.65 44.45 71.31 47.86 70.17 C 50.24 73.44 54.01 75.45 58.01 75.91 C 64.89 76.79 71.57 74.32 78.13 72.63 C 73.55 75.17 68.65 77.02 63.65 78.53 C 65.52 80.67 67.33 83.12 70.12 84.10 C 73.27 85.26 76.55 86.18 79.38 88.05 C 75.50 88.88 70.91 89.00 68.10 92.22 C 65.46 95.24 65.98 99.62 67.15 103.14 C 64.81 104.22 62.53 105.54 59.99 106.10 C 55.78 105.85 51.67 103.28 47.43 104.57 C 44.27 106.43 44.36 110.52 44.06 113.71 C 44.59 113.58 45.67 113.31 46.21 113.17 C 46.27 114.57 46.34 115.97 46.43 117.37 C 47.09 117.32 48.40 117.24 49.06 117.20 C 49.16 117.97 49.35 119.53 49.44 120.30 C 50.49 119.84 51.55 119.39 52.60 118.94 C 53.80 118.75 55.12 118.86 56.20 118.21 C 63.59 113.29 73.93 115.35 80.58 108.97 C 81.34 106.91 79.59 104.93 79.14 102.95 C 81.47 104.25 83.80 105.57 86.24 106.67 C 85.66 101.83 87.62 97.36 90.32 93.47 C 89.04 98.01 86.99 103.12 89.58 107.60 C 91.99 112.49 97.97 113.08 101.98 116.05 C 104.20 118.51 102.42 122.81 99.08 123.04 C 94.95 122.82 90.66 121.98 86.72 123.74 C 85.36 126.84 85.24 130.21 85.72 133.52 C 86.14 133.16 87.00 132.42 87.43 132.06 C 87.91 133.63 88.39 135.21 88.88 136.79 C 89.38 136.42 90.36 135.68 90.85 135.31 C 91.38 136.53 91.93 137.74 92.48 138.95 C 93.07 138.46 94.24 137.48 94.83 136.99 C 96.63 136.65 98.42 136.11 99.65 134.65 C 103.36 130.83 108.83 129.29 112.20 125.09 C 115.35 121.75 117.12 116.52 114.86 112.25 C 113.72 109.58 110.53 109.69 108.11 109.30 C 108.11 108.82 108.10 107.85 108.10 107.37 C 111.42 106.88 115.19 107.19 117.93 104.91 C 121.26 102.12 122.32 96.94 120.23 93.10 C 117.90 87.28 112.02 83.16 111.36 76.67 C 113.60 79.22 115.14 82.26 117.13 84.99 C 119.04 87.56 122.05 88.90 124.72 90.50 C 122.53 84.41 124.96 76.83 120.20 71.74 C 117.45 68.28 112.68 69.46 108.97 70.16 C 105.98 70.83 105.16 74.35 104.77 76.95 C 105.16 84.90 111.72 90.41 114.74 97.35 C 113.50 98.01 112.50 100.01 110.86 99.20 C 108.62 95.57 108.90 90.49 105.06 87.85 C 100.21 84.18 93.77 79.19 96.11 72.22 C 97.78 72.27 99.42 72.59 101.07 72.81 C 102.36 69.24 102.91 65.47 102.81 61.68 C 103.49 61.69 104.86 61.71 105.54 61.71 C 105.90 58.03 105.71 54.32 105.15 50.67 C 105.97 50.63 107.60 50.55 108.42 50.51 C 106.81 46.15 105.07 41.70 104.82 37.02 C 105.08 34.21 106.18 31.59 106.99 28.92 C 104.67 28.41 102.30 28.17 99.93 28.24 C 99.26 26.53 98.59 24.82 97.94 23.11 C 95.72 23.85 93.64 24.94 91.90 26.51 C 90.17 25.64 88.54 23.60 86.43 24.25 Z"
       id="path11" />
    <path
       fill="#e41819"
       opacity="1.00"
       d=" M 86.59 34.10 C 88.29 34.81 89.98 35.55 91.64 36.36 C 89.45 36.70 87.26 37.00 85.07 37.34 C 85.56 36.26 86.07 35.18 86.59 34.10 Z"
       id="path12" />
  </g>
  <path
     fill="#fffefe"
     opacity="1"
     d="m 188.21,19.64 c 20.71,0.03 41.42,0.01 62.13,0.01 0.06,5.82 0.11,11.64 0.28,17.46 -5.09,7.69 -10.26,15.34 -15.56,22.89 -5.25,6.9 -9.45,14.51 -14.65,21.45 -4.2,5.95 -8.18,12.06 -12.42,17.99 14.3,-3.84 29.21,-2.35 43.83,-2.63 -0.03,5.85 -0.01,11.71 -0.02,17.57 -21.4,-0.01 -42.79,-0.03 -64.19,0.01 -0.01,-5.84 -0.38,-11.68 -0.15,-17.52 4.97,-8.03 10.75,-15.55 16.02,-23.39 8.47,-13.18 17.84,-25.75 26.4,-38.88 -13.6,3.56 -27.79,2.48 -41.69,2.64 0.02,-5.87 0,-11.73 0.02,-17.6 z"
     id="path13"
     style="fill:#1a1a1a" />
  <path
     fill="#fffefe"
     opacity="1"
     d="m 86.43,24.25 c 2.11,-0.65 3.74,1.39 5.47,2.26 1.74,-1.57 3.82,-2.66 6.04,-3.4 0.65,1.71 1.32,3.42 1.99,5.13 2.37,-0.07 4.74,0.17 7.06,0.68 -0.81,2.67 -1.91,5.29 -2.17,8.1 0.25,4.68 1.99,9.13 3.6,13.49 -0.82,0.04 -2.45,0.12 -3.27,0.16 0.56,3.65 0.75,7.36 0.39,11.04 -0.68,0 -2.05,-0.02 -2.73,-0.03 0.1,3.79 -0.45,7.56 -1.74,11.13 -1.65,-0.22 -3.29,-0.54 -4.96,-0.59 -2.34,6.97 4.1,11.96 8.95,15.63 3.84,2.64 3.56,7.72 5.8,11.35 1.64,0.81 2.64,-1.19 3.88,-1.85 -3.02,-6.94 -9.58,-12.45 -9.97,-20.4 0.39,-2.6 1.21,-6.12 4.2,-6.79 3.71,-0.7 8.48,-1.88 11.23,1.58 4.76,5.09 2.33,12.67 4.52,18.76 -2.67,-1.6 -5.68,-2.94 -7.59,-5.51 -1.99,-2.73 -3.53,-5.77 -5.77,-8.32 0.66,6.49 6.54,10.61 8.87,16.43 2.09,3.84 1.03,9.02 -2.3,11.81 -2.74,2.28 -6.51,1.97 -9.83,2.46 0,0.48 0.01,1.45 0.01,1.93 2.42,0.39 5.61,0.28 6.75,2.95 2.26,4.27 0.49,9.5 -2.66,12.84 -3.37,4.2 -8.84,5.74 -12.55,9.56 -1.23,1.46 -3.02,2 -4.82,2.34 -0.59,0.49 -1.76,1.47 -2.35,1.96 -0.55,-1.21 -1.1,-2.42 -1.63,-3.64 -0.49,0.37 -1.47,1.11 -1.97,1.48 -0.49,-1.58 -0.97,-3.16 -1.45,-4.73 -0.43,0.36 -1.29,1.1 -1.71,1.46 -0.48,-3.31 -0.36,-6.68 1,-9.78 3.94,-1.76 8.23,-0.92 12.36,-0.7 3.34,-0.23 5.12,-4.53 2.9,-6.99 -4.01,-2.97 -9.99,-3.56 -12.4,-8.45 -2.59,-4.48 -0.54,-9.59 0.74,-14.13 -2.7,3.89 -4.66,8.36 -4.08,13.2 -2.44,-1.1 -4.77,-2.42 -7.1,-3.72 0.45,1.98 2.2,3.96 1.44,6.02 -6.65,6.38 -16.99,4.32 -24.38,9.24 -1.08,0.65 -2.4,0.54 -3.6,0.73 -1.05,0.45 -2.11,0.9 -3.16,1.36 -0.09,-0.77 -0.28,-2.33 -0.38,-3.1 -0.66,0.04 -1.97,0.12 -2.63,0.17 -0.09,-1.4 -0.16,-2.8 -0.22,-4.2 -0.54,0.14 -1.62,0.41 -2.15,0.54 0.3,-3.19 0.21,-7.28 3.37,-9.14 4.24,-1.29 8.35,1.28 12.56,1.53 2.54,-0.56 4.82,-1.88 7.16,-2.96 -1.17,-3.52 -1.69,-7.9 0.95,-10.92 2.81,-3.22 7.4,-3.34 11.28,-4.17 -2.83,-1.87 -6.11,-2.79 -9.26,-3.95 -2.79,-0.98 -4.6,-3.43 -6.47,-5.57 5,-1.51 9.9,-3.36 14.48,-5.9 -6.56,1.69 -13.24,4.16 -20.12,3.28 -4,-0.46 -7.77,-2.47 -10.15,-5.74 -3.41,1.14 -6.5,-0.52 -9.59,-1.77 0.26,-1.57 0.81,-3.35 -0.89,-4.33 0.89,-1.59 1.35,-3.32 0.6,-5.07 1.92,-1.91 3.92,-4.86 7.03,-4.3 5.08,1.39 6.89,7.29 11.79,9.1 -0.26,-5.43 -0.67,-11.69 -4.96,-15.62 -2.36,-2.03 -3.47,-5 -5.34,-7.43 1.01,-0.44 2.03,-0.87 3.05,-1.29 -0.21,-0.88 -0.42,-1.77 -0.63,-2.65 1.22,-0.28 2.44,-0.56 3.66,-0.82 -0.36,-0.54 -1.07,-1.6 -1.42,-2.14 3.47,-0.69 7.18,-1.1 10.36,0.8 0.91,3.92 0.76,7.95 1.16,11.92 1.09,2.99 3.36,5.34 5.33,7.77 -1.97,2.89 -3.97,5.77 -5.87,8.71 3.45,-3.32 7.08,-6.67 11.62,-8.43 5.62,-2.26 11.89,-1.71 17.54,-3.89 -4.81,-0.25 -9.73,0.62 -14.43,-0.63 -1.77,-2.89 3.79,-3.78 4.93,-6.19 -3.8,0.66 -7.62,5.85 -11.34,2.48 -2.2,-1.86 -0.51,-4.64 0.6,-6.6 0.31,2.08 0.08,5.26 2.91,5.51 3.29,-0.39 6.31,-2.34 9.74,-1.75 -0.09,-0.59 -0.26,-1.76 -0.34,-2.34 -2.69,0.63 -5.34,1.44 -7.96,2.33 -2.57,-1.82 -2.31,-5.18 -3.07,-7.9 3.95,-2.8 8.62,-4.19 12.96,-6.22 0.16,-1.76 0.16,-3.61 1.13,-5.17 m 0.16,9.85 c -0.52,1.08 -1.03,2.16 -1.52,3.24 2.19,-0.34 4.38,-0.64 6.57,-0.98 -1.66,-0.81 -3.35,-1.55 -5.05,-2.26 z"
     id="path14" />
  <path
     fill="#fffefe"
     opacity="1"
     d="m 264.55,52.84 c 9.68,-5.2 20.44,-8.75 31.48,-9.11 5.35,-0.03 11.39,0.92 15.1,5.17 4.76,5.11 5.77,12.44 6.02,19.14 0.05,15.44 -0.03,30.88 0.03,46.33 -6.2,0 -12.4,-0.01 -18.6,0.01 -0.21,-3.07 -0.42,-6.15 -0.56,-9.23 -4.6,4.47 -9.79,8.75 -16.16,10.31 -7.08,1.94 -15.66,-0.18 -19.86,-6.51 -3.87,-6.01 -4.03,-13.98 -1.42,-20.51 2.35,-5.7 7.81,-9.19 13.21,-11.59 7.45,-3.15 15.38,-4.85 23.12,-7.1 0.11,-3.92 0,-9.75 -5.02,-10.42 -9.42,-0.42 -18.72,2.56 -27.08,6.71 -0.18,-4.4 -0.26,-8.8 -0.26,-13.2 m 18.54,34.39 c -4.06,2.21 -5.31,9.26 -1.02,11.83 5.71,1.43 10.81,-2.74 14.77,-6.33 0,-3.65 0.02,-7.29 0,-10.94 -4.52,1.99 -9.35,3.22 -13.75,5.44 z"
     id="path15"
     style="fill:#1a1a1a" />
  <path
     fill="#fffefe"
     opacity="1"
     d="m 363.78,46.62 c 3.98,-2.46 8.76,-3.12 13.36,-2.87 -0.27,6.55 -0.28,13.12 -0.9,19.65 -3.7,-0.16 -7.61,-0.66 -11.08,0.92 -5.57,2.43 -9.71,7.42 -12.29,12.8 -0.42,12.4 -0.05,24.84 -0.18,37.26 -6.74,-0.02 -13.49,-0.03 -20.23,0.02 -0.01,-22.99 0.01,-45.98 -0.01,-68.97 6.46,0.02 12.92,0.01 19.38,0 -0.01,5.3 -0.05,10.59 0.01,15.89 2.66,-5.79 6.21,-11.53 11.94,-14.7 z"
     id="path16"
     style="fill:#1a1a1a" />
  <path
     fill="#fffefe"
     opacity="1"
     d="m 386.09,52.83 c 9.81,-5.23 20.68,-8.88 31.87,-9.1 5.54,-0.03 11.73,1.33 15.41,5.82 3.92,5.25 5.07,11.98 5.19,18.39 0.04,15.48 -0.02,30.95 0.03,46.43 -6.2,-0.02 -12.41,0.01 -18.61,-0.01 -0.18,-3.09 -0.39,-6.18 -0.61,-9.26 -4.71,4.93 -10.4,9.38 -17.28,10.62 -7.28,1.57 -16.01,-1.27 -19.48,-8.21 -4.17,-8.39 -2.89,-20.07 4.81,-26.03 8.98,-6.82 20.39,-8.59 30.96,-11.65 -0.08,-2.73 0.12,-5.65 -1.21,-8.14 -1.08,-1.68 -3.19,-2.47 -5.12,-2.5 -9.01,0.09 -17.75,2.89 -25.77,6.84 -0.17,-4.4 -0.2,-8.8 -0.19,-13.2 m 18.29,34.52 c -4.09,2.3 -5.22,9.92 -0.31,11.85 5.66,1 10.48,-2.97 14.31,-6.59 -0.06,-3.61 -0.06,-7.22 -0.03,-10.83 -4.56,2.09 -9.54,3.22 -13.97,5.57 z"
     id="path17"
     style="fill:#1a1a1a" />
  <path
     fill="#fffefe"
     opacity="1"
     d="m 459.7,54.66 c 10.9,-11.93 30.05,-13.86 44.27,-7.2 6.42,-2.19 13.28,-2.06 19.98,-2.01 -0.07,5.39 -0.31,10.77 -0.76,16.15 -3.13,0.02 -6.25,0.01 -9.37,-0.01 2.03,7.38 0.58,15.84 -4.71,21.55 -7.36,8.75 -19.28,12.11 -30.38,11.65 -2.01,1.54 -3.86,3.28 -5.3,5.37 4.55,2.17 9.71,1.45 14.59,1.77 8.19,0.39 16.87,0.72 24.16,4.95 5.29,2.95 7.96,9.24 7.77,15.12 0.11,8.75 -5.32,17.13 -13.21,20.82 -11.22,6.45 -24.66,7.01 -37.2,5.39 -4.57,-0.72 -9.25,-1.91 -13.04,-4.68 -4.93,-3.62 -6.32,-10.51 -4.94,-16.21 1.7,-5.38 6.32,-9.02 10.46,-12.53 -2.5,-1.29 -5.41,-2.42 -6.87,-4.99 -1.72,-3.51 -2.18,-8.06 0.17,-11.4 2.25,-3.05 5.56,-5.04 8.56,-7.27 -5.46,-3.46 -9.26,-9.43 -9.66,-15.93 -1.21,-7.22 0.26,-15.14 5.48,-20.54 m 19.74,5.12 c -9.53,1.77 -8.24,17.47 0.57,19.34 4.87,1.08 11.28,0.74 14.31,-3.83 2.37,-4.43 1.97,-11.04 -2.38,-14.13 -3.76,-2.11 -8.37,-2.48 -12.5,-1.38 m -1.25,57.44 c -2.94,2.5 -6.66,4.83 -7.63,8.82 -0.45,3.71 2.79,6.48 6.14,7.11 5.1,1.02 10.43,0.86 15.55,-0.03 4.39,-0.79 8.95,-4.24 8.72,-9.12 0.39,-3.01 -2.67,-4.76 -5.13,-5.46 -5.76,-1.49 -11.77,-1.05 -17.65,-1.32 z"
     id="path18"
     style="fill:#1a1a1a" />
  <path
     fill="#fffefe"
     opacity="1"
     d="m 554.49,44.67 c 9.76,-1.95 20.77,-1.08 28.97,5.02 7.34,5.37 11.38,14.27 12.29,23.16 1.5,10.24 -0.42,21.52 -7.31,29.55 -10.86,13.66 -31.51,17.57 -46.95,9.82 -7.28,-4.07 -12.41,-11.52 -14.32,-19.58 -2.25,-9.38 -2.23,-19.68 1.96,-28.54 4.93,-9.9 14.46,-17.35 25.36,-19.43 M 557.18,60 c -5.65,1.01 -8.74,6.73 -9.68,11.92 -1.58,8.31 -0.79,17.94 4.97,24.56 4.01,4.77 11.69,5.39 16.47,1.44 4.43,-3.66 5.79,-9.68 6.16,-15.16 0.16,-6.53 -0.9,-13.56 -5.15,-18.77 -2.92,-3.75 -8.26,-5.2 -12.77,-3.99 z"
     id="path19"
     style="fill:#1a1a1a" />
  <path
     fill="#fffefe"
     opacity="1"
     d="m 672.08,52.84 c 10.43,-5.43 21.97,-9.42 33.86,-9.06 5.2,0.22 10.7,2.06 13.97,6.33 3.85,4.83 4.28,11.3 4.68,17.22 0.1,15.69 0.01,31.38 0.04,47.07 -6.17,-0.05 -12.33,-0.04 -18.5,-0.01 -0.31,-3.1 -0.52,-6.2 -0.71,-9.3 -5.01,5.66 -11.81,10.15 -19.45,10.96 -6.73,0.61 -14.28,-2.29 -17.37,-8.62 -4.09,-8.4 -2.81,-19.99 4.84,-25.96 9.04,-6.75 20.42,-8.58 31,-11.66 -0.1,-2.72 0.05,-5.6 -1.22,-8.1 -0.95,-1.87 -3.23,-2.55 -5.19,-2.51 -9.02,0.03 -17.67,3 -25.75,6.81 -0.14,-4.39 -0.15,-8.78 -0.2,-13.17 m 18.34,34.5 c -4.08,2.29 -5.22,9.81 -0.44,11.89 5.43,0.77 10.76,-2.44 14.15,-6.5 0.62,-3.6 0.12,-7.32 0.26,-10.97 -4.5,2.24 -9.57,3.16 -13.97,5.58 z"
     id="path20"
     style="fill:#1a1a1a" />
  <path
     fill="#fffefe"
     opacity="1"
     d="m 604.1,45.44 c 17.04,0 34.08,0 51.12,0 -0.07,5.4 0.48,10.84 0.06,16.22 -10.52,13.37 -21.43,26.45 -32.13,39.68 11.01,-2.64 22.37,-2.2 33.6,-2.18 0,5.08 0,10.15 0,15.22 -17.67,-0.01 -35.33,-0.03 -53,0.01 -0.04,-5.44 -0.16,-10.87 -0.24,-16.31 10.56,-12.92 20.48,-26.35 31.2,-39.14 -9.99,2.6 -20.38,1.6 -30.58,1.82 0.01,-5.11 0.02,-10.22 -0.03,-15.32 z"
     id="path21"
     style="fill:#1a1a1a" />
  <path
     fill="#fffefe"
     opacity="1"
     d="m 197.63,134.22 c 1.11,-0.01 2.23,-0.02 3.36,-0.02 2.99,7.9 5.63,15.93 8.42,23.9 -0.86,0.01 -2.59,0.02 -3.45,0.03 -0.69,-2.01 -1.4,-4.01 -2.09,-6.02 -3.13,-0.13 -6.26,-0.2 -9.39,-0.22 -0.8,2.06 -1.55,4.14 -2.32,6.22 -0.92,0.01 -2.77,0.03 -3.69,0.05 3.02,-8 6.12,-15.95 9.16,-23.94 m 1.22,3.27 c -1.2,3.89 -2.37,7.78 -3.6,11.65 2.54,0 5.08,0 7.62,0.01 -1.27,-3.91 -2.61,-7.8 -4.02,-11.66 z"
     id="path22"
     style="fill:#1a1a1a" />
  <path
     fill="#fffefe"
     opacity="1"
     d="m 208.09,134.24 c 1.3,-0.03 2.61,-0.05 3.92,-0.06 1.98,3.71 3.79,7.53 6.12,11.05 2.05,-3.61 3.87,-7.34 5.79,-11.02 1.26,-0.01 2.52,-0.01 3.78,0 -2.47,4.55 -5.41,8.81 -8.27,13.12 -0.02,3.59 -0.01,7.19 -0.02,10.79 -1.07,0 -2.14,0 -3.21,0.01 -0.13,-3.36 0.22,-6.75 -0.22,-10.08 -2.23,-4.82 -5.37,-9.15 -7.89,-13.81 z"
     id="path23"
     style="fill:#1a1a1a" />
  <path
     fill="#fffefe"
     opacity="1"
     d="m 229.47,134.15 c 1.11,0.02 2.21,0.05 3.32,0.08 0.22,5.9 -0.59,11.9 0.63,17.73 1.22,5.18 10.03,4.85 11.07,-0.3 1.07,-5.76 0.42,-11.65 0.61,-17.46 0.75,0.01 2.27,0.03 3.02,0.04 -0.21,6.13 0.52,12.36 -0.62,18.43 -1.51,5.58 -8.59,6.95 -13.39,5.13 -3.02,-1.27 -4.3,-4.7 -4.48,-7.76 -0.36,-5.29 -0.1,-10.59 -0.16,-15.89 z"
     id="path24"
     style="fill:#1a1a1a" />
  <path
     fill="#fffefe"
     opacity="1"
     d="m 253.27,134.25 c 1.21,-0.03 2.42,-0.05 3.64,-0.07 4.35,6.44 9.28,12.48 13.33,19.13 -0.8,-6.35 -0.67,-12.74 -0.63,-19.12 0.78,0 2.33,-0.01 3.11,-0.01 0.02,7.96 0.03,15.92 0,23.88 -0.73,0.03 -2.2,0.09 -2.93,0.11 -4.54,-6.44 -9,-12.93 -13.73,-19.22 0.39,6.39 0.42,12.79 0.33,19.19 -0.78,-0.01 -2.33,-0.02 -3.1,-0.03 -0.03,-7.95 -0.01,-15.91 -0.02,-23.86 z"
     id="path25"
     style="fill:#1a1a1a" />
  <path
     fill="#fffefe"
     opacity="1"
     d="m 275.01,134.24 c 5.93,-0.05 11.86,0.01 17.79,-0.03 -0.01,1.03 -0.01,2.05 -0.01,3.08 -2.37,-0.03 -4.74,-0.04 -7.11,-0.07 -0.02,6.97 0.05,13.94 -0.04,20.91 -1.09,-0.01 -2.17,-0.01 -3.26,-0.01 -0.06,-6.97 -0.01,-13.93 -0.02,-20.89 -2.42,0.01 -4.83,0.03 -7.24,0.06 -0.04,-1.02 -0.08,-2.03 -0.11,-3.05 z"
     id="path26"
     style="fill:#1a1a1a" />
  <path
     fill="#fffefe"
     opacity="1"
     d="m 302.34,134.22 c 1.1,0 2.21,0 3.32,0.01 3.03,7.87 5.49,15.93 8.36,23.85 -0.88,0.02 -2.63,0.06 -3.51,0.08 -0.65,-2.09 -1.32,-4.18 -2.06,-6.24 -3.15,0 -6.31,-0.01 -9.46,0.13 -0.67,1.96 -1.34,3.92 -1.99,5.89 -0.96,0.08 -2.87,0.23 -3.83,0.3 2.97,-8.04 6.1,-16.02 9.17,-24.02 m 1.25,3.29 c -1.21,3.87 -2.44,7.74 -3.62,11.62 2.54,0 5.07,0.01 7.61,0.02 -1.28,-3.9 -2.66,-7.76 -3.99,-11.64 z"
     id="path27"
     style="fill:#1a1a1a" />
  <path
     fill="#fffefe"
     opacity="1"
     d="m 318.6,134.19 c 1.19,0 2.38,-0.01 3.58,-0.01 2.37,6.66 4.86,13.28 7.18,19.96 1.63,-6.86 4.26,-13.39 6.89,-19.91 1.17,-0.02 2.34,-0.03 3.51,-0.05 1.11,8.04 2.17,16.09 3.01,24.15 -0.81,-0.11 -2.44,-0.32 -3.25,-0.43 -1.18,-6.31 -1.38,-12.77 -2.37,-19.11 -1.96,6.48 -4.41,12.79 -6.84,19.11 -1,-0.06 -1.99,-0.12 -2.98,-0.18 -2.29,-6.3 -4.46,-12.64 -6.78,-18.93 -0.63,6.43 -0.93,12.9 -1.71,19.32 -0.83,0.01 -2.51,0.03 -3.34,0.03 0.99,-7.99 2.07,-15.96 3.1,-23.95 z"
     id="path28"
     style="fill:#1a1a1a" />
  <path
     fill="#fffefe"
     opacity="1"
     d="m 346.43,134.16 c 1.09,0.02 2.19,0.04 3.29,0.07 -0.04,7.98 0.03,15.95 -0.03,23.93 -0.82,-0.02 -2.45,-0.06 -3.27,-0.08 -0.02,-7.97 -0.06,-15.95 0.01,-23.92 z"
     id="path29"
     style="fill:#1a1a1a" />
  <path
     fill="#fffefe"
     opacity="1"
     d="m 354.64,134.21 c 4.24,0.01 8.49,0.01 12.74,0 -0.02,0.98 -0.03,1.96 -0.04,2.95 -3.11,-0.02 -6.21,-0.03 -9.31,0 -0.11,2.38 -0.13,4.76 -0.15,7.15 2.97,0.03 5.94,0.01 8.92,0.01 -0.02,0.97 -0.04,1.94 -0.06,2.9 -2.95,-0.04 -5.89,-0.04 -8.84,0.01 0,2.67 0,5.34 0.01,8.01 3.21,0.03 6.42,-0.01 9.63,-0.05 0.01,0.73 0.04,2.2 0.05,2.93 -4.31,0 -8.62,0.01 -12.93,0 -0.03,-7.97 0.03,-15.94 -0.02,-23.91 z"
     id="path30"
     style="fill:#1a1a1a" />
  <path
     fill="#fffefe"
     opacity="1"
     d="m 371.24,134.18 c 1.1,0.02 2.21,0.04 3.33,0.07 4.41,6.31 9.09,12.43 13.37,18.83 -0.43,-6.27 -0.58,-12.56 -0.49,-18.85 1.03,-0.02 2.06,-0.05 3.11,-0.07 0.03,7.98 0.06,15.95 -0.01,23.93 -0.72,0.02 -2.15,0.07 -2.87,0.09 -4.92,-6.29 -9.22,-13.04 -14.11,-19.36 0.56,6.42 0.65,12.85 0.59,19.29 -0.73,0 -2.18,0 -2.91,0 -0.05,-7.98 -0.03,-15.95 -0.01,-23.93 z"
     id="path31"
     style="fill:#1a1a1a" />
  <path
     fill="#fffefe"
     opacity="1"
     d="m 392.47,134.23 c 5.96,-0.01 11.92,0 17.89,-0.01 -0.03,1.01 -0.05,2.01 -0.06,3.02 -2.47,0 -4.94,0.02 -7.4,0.07 0.22,6.26 0.24,12.53 0.13,18.79 0.62,2.28 -2.02,1.93 -3.33,2.32 -0.1,-7.06 -0.03,-14.12 -0.04,-21.18 -2.38,0.01 -4.75,0.02 -7.13,0.04 -0.01,-0.77 -0.04,-2.29 -0.06,-3.05 z"
     id="path32"
     style="fill:#1a1a1a" />
  <path
     fill="#fffefe"
     opacity="1"
     d="m 419.49,134.73 c 4.55,-1.92 10.5,-0.99 13.43,3.23 2.86,4.75 2.97,11.1 -0.06,15.79 -4.1,5.7 -14.07,6.72 -18.37,0.74 -4.17,-6.33 -2.78,-16.95 5,-19.76 m -0.02,2.97 c -5.01,3.22 -5.12,11.05 -1.53,15.37 3.03,3.83 9.75,3.35 12.27,-0.81 2.14,-3.69 2.19,-8.75 -0.29,-12.29 -2.17,-3.4 -7.05,-4.38 -10.45,-2.27 z"
     id="path33"
     style="fill:#1a1a1a" />
</svg>
