<?xml version="1.0" encoding="UTF-8" standalone="no"?>
<svg
   width="503.16119pt"
   height="319.7012pt"
   viewBox="0 0 529.64336 336.52758"
   version="1.1"
   id="svg45"
   xmlns="http://www.w3.org/2000/svg"
   xmlns:svg="http://www.w3.org/2000/svg">
  <defs
     id="defs45" />
  <g
     id="g45"
     transform="translate(-22.448926,-50.16681)">
    <g
       id="#ffffffff">
      <path
         fill="#ffffff"
         opacity="1"
         d="m 453.3,93.99 c 1.02,-0.57 2.04,-1.13 3.08,-1.69 -5.45,3.42 -9.97,8.02 -14.33,12.69 23.1,6.84 43.28,23.89 52.85,46.12 3.27,9.06 5.71,18.62 4.62,28.33 -0.7,-4.14 -1,-8.33 -1.09,-12.52 -2.73,-0.08 -4.77,-2.05 -6.9,-3.49 -9.83,-7.47 -19.94,-14.78 -31.08,-20.19 -0.04,13.1 -1.65,26.12 -4.28,38.95 1.24,0.63 2.47,1.27 3.72,1.91 6.55,2.09 12.74,5.13 19.1,7.71 5.77,2.26 11.01,5.92 17.16,7.14 -0.02,-3.18 0.48,-6.35 1.96,-9.21 0.18,1.76 0.53,5.28 0.71,7.04 L 497,196.43 c 0.49,1.57 1,3.14 1.53,4.7 4.58,2.67 9.2,5.28 13.8,7.94 -2.85,-0.82 -5.61,-1.91 -8.21,-3.31 -2.43,-0.63 -4.86,-1.23 -7.31,-1.7 -6.73,18.08 -19.86,33.73 -36.78,43.08 -8.45,4.62 -17.53,8.66 -27.19,9.73 -8.38,2.59 -17.28,1.67 -25.91,1.66 -5.61,0.05 -10.96,-1.87 -16.48,-2.53 -0.11,5.23 -0.19,10.47 -0.11,15.71 l -1.89,0.24 c -0.21,-5.69 -1.13,-11.35 -0.89,-17.06 -22.5,-5.87 -42.3,-21.93 -52.45,-42.91 -5,-10.55 -7.82,-22.31 -7.46,-34.02 0.18,-7.22 2.52,-14.15 3.11,-21.31 -8.8,-0.09 -17.55,1.54 -26.36,0.79 1.81,-0.29 3.64,-0.54 5.47,-0.76 -0.1,-0.29 -0.3,-0.88 -0.4,-1.17 7.8,-1.7 15.82,-0.58 23.68,-1.59 0.71,-4 2.56,-7.66 4.75,-11.04 3.81,-5.69 7.29,-11.99 13.13,-15.88 1.72,-3.5 5.16,-5.49 8.03,-7.92 8.19,-6.66 18.09,-10.72 27.98,-14.09 4.99,-1.15 9.95,-2.52 15.05,-3.19 7.62,-0.76 15.3,-0.53 22.94,-0.27 4.85,0.16 9.5,1.74 14.31,2.24 2.9,-3.21 6.09,-6.14 9.27,-9.07 1.97,-1.23 3.91,-2.48 5.9,-3.7 -0.31,0.75 -0.91,2.24 -1.21,2.99 m -72.48,15.96 c -4.68,2.22 -9.66,3.9 -13.9,6.95 -3.26,2.16 -6.74,4.3 -8.69,7.85 9.01,-3.12 18.66,-3.1 28.07,-3.33 6.57,-6.55 13.88,-12.31 21.75,-17.23 -9.37,0 -18.53,2.47 -27.23,5.76 m 24.13,-1.01 c -0.94,0.81 -1.89,1.61 -2.84,2.4 -4.26,2.82 -7.99,6.33 -11.56,9.97 10.73,0.43 21.36,1.96 31.85,4.17 1.67,-1.41 2.83,-3.31 4.01,-5.13 3.09,-4.94 6.58,-9.65 10.66,-13.83 -7.51,-2.16 -15.37,-3.13 -23.17,-2.9 -3.71,-0.03 -6.97,2.32 -8.95,5.32 m 34.65,-1.66 c -5.04,6.17 -11.03,12.11 -13.52,19.85 11.1,1.3 21.06,6.79 31.36,10.75 -1.46,-8.18 -0.7,-16.63 -2.53,-24.73 -4.68,-2.87 -10.01,-4.57 -15.31,-5.87 m 16.57,6.36 c 0.14,1.81 0.3,3.63 0.48,5.44 3.96,6.35 2.24,14.3 3.78,21.33 0.68,0.06 2.03,0.18 2.71,0.24 0.7,0.8 1.42,1.6 2.15,2.41 2.79,0.91 5.46,2.19 7.9,3.85 7.76,5.11 15.67,10.2 22.26,16.81 0.57,0.12 1.71,0.37 2.28,0.49 -0.97,-4.29 -2.81,-8.29 -4.96,-12.1 -7.46,-16.44 -20.7,-30.03 -36.6,-38.47 m -98.27,12.08 c -2.97,-0.09 -5,2.24 -6.85,4.2 -4.15,4.69 -7.69,9.85 -11.28,14.97 -1.44,3.07 -2.87,6.15 -4.02,9.34 9.68,0.04 19.2,2.15 28.86,2.42 0.38,-1.28 0.78,-2.56 1.2,-3.83 2.4,-4.64 4.26,-9.56 7.13,-13.95 2.95,-5.25 7.3,-9.51 10.58,-14.55 -8.6,-0.57 -17.05,1.32 -25.62,1.4 m 29.51,-1.45 c -8.44,9.84 -16.29,20.71 -19.97,33.3 12.44,1.38 24.49,4.99 36.77,7.28 4.7,-12.59 10.23,-24.87 16.81,-36.59 -10.95,-2.75 -22.3,-4.44 -33.61,-3.99 m 36.57,4.71 c -6.86,11.74 -12.94,24.07 -16.86,37.11 15.77,3.94 31.02,9.65 46.36,14.95 2.7,-12.91 5,-26.16 3.85,-39.38 -10.48,-5.64 -21.82,-9.76 -33.35,-12.68 m -89.7,28.26 c -3.61,11.59 -4.58,24.03 -2.44,35.99 8.91,3.38 16.27,10.08 25.49,12.77 0.09,-5.65 -0.08,-11.29 0.22,-16.93 0.66,-9.9 2.65,-19.66 5.54,-29.13 -9.47,-1.94 -19.18,-2.35 -28.81,-2.7 m 31.74,2.87 c -4.61,15.48 -7.3,31.84 -5.65,47.99 9.81,4.63 19.96,8.59 30.34,11.73 1.97,-10.29 3.4,-20.71 6.34,-30.79 0.35,-1.36 0.7,-2.71 1.08,-4.05 0.15,-0.51 0.45,-1.53 0.6,-2.05 1.05,-5.11 3.19,-9.94 4.06,-15.09 -12.16,-3 -24.37,-5.88 -36.77,-7.74 m 39.8,8.99 c -2.44,7.93 -5.02,15.82 -6.83,23.92 -1.74,9.33 -5.1,18.54 -4.73,28.14 13.43,3.36 27.14,6.03 41.01,6.43 0.1,-0.66 0.3,-1.98 0.4,-2.64 4.68,-7.19 7.87,-15.22 11.45,-22.99 1.84,-6.02 4.15,-11.9 5.61,-18.04 -8.41,-3.42 -17,-6.36 -25.64,-9.12 -5.32,-1.74 -10.76,-3.08 -16.11,-4.7 -1.71,-0.4 -3.44,-0.71 -5.16,-1 m 49.06,16.1 c -0.73,6.93 -3.7,13.29 -6.02,19.78 -3.23,7.74 -6.84,15.33 -11.05,22.58 2.36,0.34 4.74,0.77 7.15,0.67 9.72,-0.5 19.36,-1.81 28.99,-3.12 3.06,-0.66 6.17,-1.02 9.25,-1.51 4.64,-6.57 8.47,-13.67 11.49,-21.11 -10.93,-6.44 -22.94,-10.71 -34.53,-15.78 -1.76,-0.52 -3.51,-1.04 -5.28,-1.51 m -121.67,10.65 c 0.48,6.35 3.04,12.32 6.03,17.86 5.68,9.66 13.01,18.57 22.17,25.11 0.4,0.34 1.19,1.03 1.58,1.37 -0.43,-2.81 -1,-5.59 -1.74,-8.32 -2.03,-7.18 -2.8,-14.61 -3.84,-21.97 -8.41,-4.05 -16.66,-8.52 -24.2,-14.05 m 27.99,15.99 c -0.06,10.43 3.03,20.43 5.4,30.47 6.8,4.35 14.17,8.68 22.36,9.52 l -1.87,-1.84 c 1.2,-0.08 2.41,-0.16 3.61,-0.24 -0.09,1.49 -0.45,3.49 1.58,3.73 8.13,1.99 16.63,3.29 24.99,2.14 0.29,-1.42 0.06,-3.06 1.03,-4.26 5.17,-6.64 10.24,-13.43 14.24,-20.87 -11.26,-1.32 -22.81,-2.05 -33.58,-5.77 -2.04,-0.27 -4.08,-0.47 -6.12,-0.63 -0.32,8.26 -2.12,16.42 -2.09,24.7 -0.65,0.16 -1.95,0.48 -2.6,0.65 -0.16,-8.97 1.13,-17.83 2.25,-26.69 -1.83,-0.51 -3.66,-1.03 -5.49,-1.54 -7.96,-2.98 -15.99,-5.79 -23.71,-9.37 m 97.8,17.94 c -7.65,1.08 -15.37,0.52 -23.06,0.79 -4.93,9.24 -11.28,17.67 -18.33,25.38 14.88,-0.17 29.39,-4.78 42.37,-11.91 1.01,-0.72 2.01,-1.44 3.04,-2.14 6.19,-3.74 11.12,-9.04 16.69,-13.57 -0.01,-0.73 -0.03,-2.21 -0.04,-2.94 -6.44,3.25 -13.7,3.32 -20.67,4.39 z"
         id="path2" />
      <path
         fill="#ffffff"
         opacity="1"
         d="m 357.41,307.62 c 1.93,0 3.87,-0.02 5.81,-0.05 -1.5,2.44 -3.1,4.81 -4.67,7.2 -1.29,0.02 -2.58,0.04 -3.87,0.07 0.91,-2.41 1.8,-4.82 2.73,-7.22 z"
         id="path3" />
      <path
         fill="#ffffff"
         opacity="1"
         d="m 49.55,326.45 c 0.88,-7 9.52,-11.07 15.64,-7.87 3.75,1.36 5.45,5.21 6.47,8.76 -2.02,-0.02 -4.04,-0.03 -6.06,-0.07 -0.78,-4.36 -7.05,-5.87 -9.41,-2.07 -1.67,4.05 -1.15,8.66 -0.81,12.93 0.11,2.86 2.66,5.35 5.59,4.95 2.46,-0.02 3.6,-2.56 4.77,-4.31 1.95,0.03 3.9,0.03 5.85,0.04 -0.82,2.29 -1.48,4.8 -3.31,6.55 -5.03,4.68 -14.75,3.72 -17.79,-2.8 -1.95,-5.09 -1.56,-10.8 -0.94,-16.11 z"
         id="path4" />
      <path
         fill="#ffffff"
         opacity="1"
         d="m 83.15,318.04 c 6.15,-2.24 13.89,2.36 14.31,9.05 0.41,5.34 0.96,11.09 -1.31,16.12 -4.08,7.1 -16.15,6.69 -19.62,-0.78 -1.72,-4.89 -1.31,-10.24 -0.91,-15.32 0.23,-4.29 3.49,-7.89 7.53,-9.07 m -1.32,8.73 c -0.89,4.84 -0.73,9.94 0.56,14.7 2.71,2.03 7.34,2.35 8.67,-1.41 1.05,-4.54 1.14,-9.49 0.01,-14.02 -1.27,-4.37 -8.69,-3.84 -9.24,0.73 z"
         id="path5" />
      <path
         fill="#ffffff"
         opacity="1"
         d="m 103.68,317.75 c 1.98,0.02 3.96,0.04 5.94,0.04 -0.03,8.32 0.01,16.64 0,24.96 4.49,0.01 8.98,0.06 13.47,-0.02 -0.01,1.72 0,3.46 0.02,5.19 -6.48,0.12 -12.97,0.05 -19.46,0.05 -0.01,-10.08 -0.02,-20.15 0.03,-30.22 z"
         id="path6" />
      <path
         fill="#ffffff"
         opacity="1"
         d="m 128.01,317.77 c 6.62,0 13.23,0.02 19.85,-0.02 0.01,1.85 0.01,3.7 0.02,5.56 -4.69,0.02 -9.38,-0.02 -14.06,0.06 0.05,2.25 0.08,4.51 0.08,6.77 3.97,-0.01 7.94,0 11.91,-0.01 -0.03,1.79 -0.08,3.6 -0.14,5.4 -3.93,-0.02 -7.86,-0.05 -11.79,-0.01 0.03,2.39 0.01,4.78 -0.05,7.17 4.68,0.13 9.37,0.1 14.05,0.04 0,1.73 0.02,3.48 0.04,5.22 -6.65,0.07 -13.29,0.02 -19.93,0.04 0.08,-10.07 -0.01,-20.15 0.02,-30.22 z"
         id="path7" />
      <path
         fill="#ffffff"
         opacity="1"
         d="m 152.59,327.17 c 0.25,-7.66 10.14,-12.21 16.42,-8.24 3.46,1.48 5.08,5.06 6.03,8.47 -1.93,-0.01 -3.85,0 -5.78,-0.04 -1.12,-1.52 -1.91,-3.88 -4.09,-4.07 -2.93,-1.1 -6.34,0.91 -6.57,4.07 -0.23,4.42 -0.74,9.09 0.66,13.36 1.87,3.45 6.24,2.32 8.95,0.58 0.32,-1.68 0.64,-3.36 0.93,-5.04 -1.9,-0.01 -3.8,-0.03 -5.7,-0.04 0.02,-1.63 0.05,-3.27 0.08,-4.89 3.78,-0.01 7.56,-0.01 11.35,0.02 -0.1,4.22 0.6,8.96 -1.99,12.64 -4.78,6.39 -16.52,5.56 -19.66,-2.06 -1.27,-4.79 -0.87,-9.86 -0.63,-14.76 z"
         id="path8" />
      <path
         fill="#ffffff"
         opacity="1"
         d="m 180.77,317.78 c 1.96,-0.02 3.91,-0.04 5.86,-0.07 0.14,10.08 0.04,20.16 0.02,30.24 -1.97,0 -3.95,-0.01 -5.92,-0.02 0.1,-10.05 -0.03,-20.1 0.04,-30.15 z"
         id="path9" />
      <path
         fill="#ffffff"
         opacity="1"
         d="m 200.22,318.18 c 5.14,-2 11.8,0.59 13.85,5.8 1.33,2.81 1.06,6 1.12,9.03 -0.06,3.52 0.12,7.3 -1.78,10.43 -4.12,6.71 -15.58,6.36 -19.28,-0.58 -1.49,-3.42 -1.18,-7.25 -1.23,-10.89 0.17,-3.35 -0.19,-7.12 1.99,-9.94 1.27,-1.86 3.25,-3.09 5.33,-3.85 m -0.89,8.04 c -0.8,5.03 -0.59,10.23 0.34,15.24 1.89,0.85 3.99,2.31 6.12,1.27 3.18,-1.05 3.4,-4.92 3.42,-7.72 -0.09,-3.12 0.47,-6.45 -0.85,-9.37 -1.42,-3.76 -8.11,-3.41 -9.03,0.58 z"
         id="path10" />
      <path
         fill="#ffffff"
         opacity="1"
         d="m 230.86,317.73 c 5.76,0.46 12.16,-1.18 17.39,1.94 4.5,2.77 4.7,8.6 4.54,13.3 0.19,4.93 -0.23,11.21 -5.18,13.81 -5.28,2.26 -11.22,0.8 -16.78,1.18 0.12,-10.07 0.06,-20.15 0.03,-30.23 m 5.97,5.58 c 0.09,6.48 0.05,12.95 0.02,19.43 3.11,-0.06 7.68,0.79 9.15,-2.81 1.3,-4.31 1.21,-9.07 0.18,-13.42 -1.04,-4.13 -6.17,-3.06 -9.35,-3.2 z"
         id="path11" />
      <path
         fill="#ffffff"
         opacity="1"
         d="m 258.61,317.74 c 6.63,0.07 13.26,0.05 19.9,0 0.01,1.85 0.01,3.71 0.01,5.56 -4.64,0.01 -9.28,0.01 -13.91,0.03 0.04,2.28 0.04,4.56 0,6.84 3.96,-0.08 7.92,-0.08 11.89,-0.02 0.01,1.77 0.01,3.54 0.02,5.32 -3.98,0.09 -7.96,0.04 -11.94,0.05 0.04,2.4 0.04,4.8 0.03,7.21 4.63,0.05 9.27,0.04 13.9,0.03 0.01,1.73 0.01,3.46 0.02,5.19 -6.62,0.06 -13.25,0.02 -19.87,0.01 -0.05,-10.07 0.01,-20.15 -0.05,-30.22 z"
         id="path12" />
      <path
         fill="#ffffff"
         opacity="1"
         d="m 295.92,320.84 c 3.53,-3.2 9.05,-4.58 13.39,-2.13 3.62,1.43 5.22,5.21 6.39,8.64 -1.97,0.04 -3.94,0.05 -5.91,0.05 -1.01,-1.35 -1.6,-3.29 -3.31,-3.91 -1.9,-0.88 -3.98,-0.04 -5.93,0.17 -2.62,5.47 -1.56,11.82 -0.94,17.63 2.08,1.05 4.51,2.76 6.82,1.25 2.63,-0.95 3.04,-3.81 3.37,-6.2 -1.96,-0.09 -3.91,-0.14 -5.86,-0.17 -0.01,-1.62 -0.01,-3.23 -0.01,-4.83 3.86,-0.01 7.73,-0.04 11.6,-0.02 -0.14,4.11 0.49,8.66 -1.84,12.31 -4.24,6.22 -15.18,6.29 -19.11,-0.3 -1.84,-3.11 -1.43,-6.89 -1.54,-10.35 -0.03,-4.17 -0.29,-8.92 2.88,-12.14 z"
         id="path13" />
      <path
         fill="#ffffff"
         opacity="1"
         d="m 321.36,347.97 c -0.04,-10.08 -0.11,-20.15 0.02,-30.23 6.61,0.04 13.22,0.08 19.84,-0.02 -0.01,1.87 0.01,3.74 0.03,5.62 -4.64,-0.06 -9.28,-0.02 -13.92,0 -0.02,2.28 -0.01,4.56 0.02,6.85 3.93,-0.07 7.87,-0.06 11.81,-0.02 -0.02,1.77 -0.02,3.54 -0.02,5.31 -3.93,0.04 -7.86,-0.03 -11.78,0.1 -0.05,2.38 -0.04,4.76 -0.01,7.15 4.63,0.07 9.26,0.07 13.9,0 -0.01,1.74 0.01,3.48 0.04,5.23 -6.65,0.01 -13.29,0.05 -19.93,0.01 z"
         id="path14" />
      <path
         fill="#ffffff"
         opacity="1"
         d="m 352.4,318.51 c 6.17,-3.14 15.08,1.32 15.45,8.46 0.11,4.95 0.68,10.1 -0.61,14.95 -3.1,7.77 -15.36,8.54 -19.75,1.55 -2.39,-4.41 -1.65,-9.64 -1.65,-14.45 -0.06,-4.41 2.3,-8.91 6.56,-10.51 m 1.2,5.03 c -2.67,4.72 -1.93,10.44 -1.45,15.61 0.75,4.65 7.9,5.3 9.44,0.81 0.77,-4.59 0.74,-9.38 -0.01,-13.97 -1.15,-3.31 -5.18,-3.11 -7.98,-2.45 z"
         id="path15" />
      <path
         fill="#ffffff"
         opacity="1"
         d="m 378.26,319.23 c 3.94,-2.53 9.2,-2.26 12.97,0.47 2.71,1.69 3.71,4.84 4.68,7.7 -2.03,0.01 -4.06,0.01 -6.08,0.01 -0.63,-1.23 -1.25,-2.45 -1.87,-3.67 -2.83,-0.74 -6.84,-1.39 -8.26,1.98 -1.26,5.06 -0.62,10.4 -0.03,15.52 2.63,2.16 5.91,2.09 8.83,0.55 0.7,-1.79 1.29,-3.62 1.8,-5.47 -2.1,-0.07 -4.2,-0.09 -6.3,-0.11 0.01,-1.64 0.02,-3.28 0.03,-4.91 3.91,0.04 7.83,0.03 11.74,0.02 0,4.02 0.36,8.32 -1.64,11.98 -3.74,5.99 -13.22,6.6 -18.13,1.79 -3.87,-4.03 -2.76,-10.05 -2.9,-15.12 -0.21,-4.11 1.16,-8.86 5.16,-10.74 z"
         id="path16" />
      <path
         fill="#ffffff"
         opacity="1"
         d="m 401.68,317.74 c 6.24,0.64 13.58,-1.69 18.84,2.76 4.47,4.27 3.01,12.29 -2.54,14.93 2.12,4.19 4.37,8.31 6.39,12.55 -2.31,0 -4.62,-0.01 -6.92,-0.02 -1.85,-3.99 -3.9,-7.88 -5.71,-11.89 -1.36,-0.05 -2.72,-0.1 -4.08,-0.14 -0.03,4.01 0.01,8.03 -0.01,12.04 -2.02,0 -4.04,-0.02 -6.05,-0.05 0.14,-10.06 -0.05,-20.12 0.08,-30.18 m 5.99,5.52 c -0.04,2.65 -0.04,5.31 0,7.97 2.66,-0.16 5.51,0.31 8.01,-0.85 2.13,-1.45 1.72,-4.63 0.25,-6.41 -2.64,-1.01 -5.51,-0.63 -8.26,-0.71 z"
         id="path17" />
      <path
         fill="#ffffff"
         opacity="1"
         d="m 436.89,317.75 c 1.54,0 3.09,0 4.65,0 3.58,10.08 7.26,20.12 10.97,30.15 -2.06,0.03 -4.11,0.06 -6.15,0.09 -0.63,-1.71 -1.25,-3.42 -1.85,-5.12 -3.52,0.04 -7.03,0.06 -10.54,-0.07 -0.64,1.72 -1.26,3.46 -1.85,5.2 -2.06,-0.02 -4.11,-0.04 -6.16,-0.09 3.57,-10.08 7.36,-20.08 10.93,-30.16 m -1.17,19.93 c 2.4,0.04 4.81,0.03 7.23,-0.03 -1.18,-3.5 -2.4,-7 -3.52,-10.51 -1.37,3.46 -2.61,6.98 -3.71,10.54 z"
         id="path18" />
      <path
         fill="#ffffff"
         opacity="1"
         d="m 456.12,317.79 c 6.61,-0.06 13.23,0.03 19.84,-0.05 0,1.85 0,3.69 0,5.55 -4.59,-0.01 -9.18,0.03 -13.76,0.03 -0.06,2.39 -0.08,4.79 -0.06,7.19 3.97,0.01 7.95,0 11.93,-0.03 -0.03,1.78 -0.05,3.57 -0.06,5.36 -3.96,-0.05 -7.91,-0.03 -11.87,0.03 0.04,4.02 -0.01,8.05 0.04,12.08 -2.02,0.02 -4.04,0.02 -6.05,0.03 0.02,-10.07 0.05,-20.13 -0.01,-30.19 z"
         id="path19" />
      <path
         fill="#ffffff"
         opacity="1"
         d="m 485.38,318.75 c 6.17,-3.61 15.51,0.96 15.79,8.29 0.52,4.99 0.68,10.19 -0.7,15.06 -3.32,7.93 -16.36,8.31 -20.08,0.51 -1.9,-4.64 -1.29,-9.84 -1.13,-14.73 0.13,-3.92 2.47,-7.61 6.12,-9.13 m 2.31,4.91 c -1.78,1.03 -2.41,3.22 -2.52,5.15 -0.23,4.33 -0.46,8.82 1.22,12.92 2.58,1.77 5.61,1.45 8.14,-0.25 1.14,-4.96 1.49,-10.24 0.34,-15.22 -0.62,-3.18 -4.67,-3.92 -7.18,-2.6 z"
         id="path20" />
      <path
         fill="#ffffff"
         opacity="1"
         d="m 510.22,319.13 c 5.13,-3.05 11.65,-1.56 16.13,1.97 -1.22,1.2 -2.44,2.41 -3.66,3.63 -2.94,-1.55 -6.76,-2.74 -9.8,-0.84 -1.52,0.84 -1.16,2.72 -1.07,4.16 2.01,2.57 5.68,1.72 8.47,2.67 3.95,0.5 6.96,4.29 6.58,8.26 0.48,4.97 -4.2,8.9 -8.87,9.13 -4.82,0.71 -9.64,-0.63 -13.6,-3.38 1.23,-1.39 2.51,-2.73 3.83,-4.04 3.47,1.95 8.09,3.69 11.73,1.16 1.78,-1.39 0.68,-3.85 0.18,-5.61 -3.39,-0.73 -7.08,-0.52 -10.21,-2.15 -5.7,-2.73 -5.25,-12.28 0.29,-14.96 z"
         id="path21" />
    </g>
    <g
       id="#e9981cff">
      <path
         fill="#e9981c"
         opacity="1"
         d="m 293.52,299.72 c -0.29,-80.38 -0.04,-160.76 -0.12,-241.14 80.93,0.03 161.87,0 242.81,0.02 1.58,-0.11 2.27,0.65 2.08,2.3 -0.11,71.36 -0.02,142.72 -0.05,214.08 0.09,8.21 -0.23,16.43 0.26,24.63 -81.66,0.22 -163.32,0 -244.98,0.11 M 453.3,93.99 c 0.3,-0.75 0.9,-2.24 1.21,-2.99 -1.99,1.22 -3.93,2.47 -5.9,3.7 -3.18,2.93 -6.37,5.86 -9.27,9.07 -4.81,-0.5 -9.46,-2.08 -14.31,-2.24 -7.64,-0.26 -15.32,-0.49 -22.94,0.27 -5.1,0.67 -10.06,2.04 -15.05,3.19 -9.89,3.37 -19.79,7.43 -27.98,14.09 -2.87,2.43 -6.31,4.42 -8.03,7.92 -5.84,3.89 -9.32,10.19 -13.13,15.88 -2.19,3.38 -4.04,7.04 -4.75,11.04 -7.86,1.01 -15.88,-0.11 -23.68,1.59 0.1,0.29 0.3,0.88 0.4,1.17 -1.83,0.22 -3.66,0.47 -5.47,0.76 8.81,0.75 17.56,-0.88 26.36,-0.79 -0.59,7.16 -2.93,14.09 -3.11,21.31 -0.36,11.71 2.46,23.47 7.46,34.02 10.15,20.98 29.95,37.04 52.45,42.91 -0.24,5.71 0.68,11.37 0.89,17.06 l 1.89,-0.24 c -0.08,-5.24 0,-10.48 0.11,-15.71 5.52,0.66 10.87,2.58 16.48,2.53 8.63,0.01 17.53,0.93 25.91,-1.66 9.66,-1.07 18.74,-5.11 27.19,-9.73 16.92,-9.35 30.05,-25 36.78,-43.08 2.45,0.47 4.88,1.07 7.31,1.7 2.6,1.4 5.36,2.49 8.21,3.31 -4.6,-2.66 -9.22,-5.27 -13.8,-7.94 -0.53,-1.56 -1.04,-3.13 -1.53,-4.7 l 1.82,0.35 c -0.18,-1.76 -0.53,-5.28 -0.71,-7.04 -1.48,2.86 -1.98,6.03 -1.96,9.21 -6.15,-1.22 -11.39,-4.88 -17.16,-7.14 -6.36,-2.58 -12.55,-5.62 -19.1,-7.71 -1.25,-0.64 -2.48,-1.28 -3.72,-1.91 2.63,-12.83 4.24,-25.85 4.28,-38.95 11.14,5.41 21.25,12.72 31.08,20.19 2.13,1.44 4.17,3.41 6.9,3.49 0.09,4.19 0.39,8.38 1.09,12.52 1.09,-9.71 -1.35,-19.27 -4.62,-28.33 -9.57,-22.23 -29.75,-39.28 -52.85,-46.12 4.36,-4.67 8.88,-9.27 14.33,-12.69 -1.04,0.56 -2.06,1.12 -3.08,1.69 z"
         id="path22" />
      <path
         fill="#e9981c"
         opacity="1"
         d="m 380.82,109.95 c 8.7,-3.29 17.86,-5.76 27.23,-5.76 -7.87,4.92 -15.18,10.68 -21.75,17.23 -9.41,0.23 -19.06,0.21 -28.07,3.33 1.95,-3.55 5.43,-5.69 8.69,-7.85 4.24,-3.05 9.22,-4.73 13.9,-6.95 z"
         id="path23" />
      <path
         fill="#e9981c"
         opacity="1"
         d="m 404.95,108.94 c 1.98,-3 5.24,-5.35 8.95,-5.32 7.8,-0.23 15.66,0.74 23.17,2.9 -4.08,4.18 -7.57,8.89 -10.66,13.83 -1.18,1.82 -2.34,3.72 -4.01,5.13 -10.49,-2.21 -21.12,-3.74 -31.85,-4.17 3.57,-3.64 7.3,-7.15 11.56,-9.97 0.95,-0.79 1.9,-1.59 2.84,-2.4 z"
         id="path24" />
      <path
         fill="#e9981c"
         opacity="1"
         d="m 439.6,107.28 c 5.3,1.3 10.63,3 15.31,5.87 1.83,8.1 1.07,16.55 2.53,24.73 -10.3,-3.96 -20.26,-9.45 -31.36,-10.75 2.49,-7.74 8.48,-13.68 13.52,-19.85 z"
         id="path25" />
      <path
         fill="#e9981c"
         opacity="1"
         d="m 456.17,113.64 c 15.9,8.44 29.14,22.03 36.6,38.47 2.15,3.81 3.99,7.81 4.96,12.1 -0.57,-0.12 -1.71,-0.37 -2.28,-0.49 -6.59,-6.61 -14.5,-11.7 -22.26,-16.81 -2.44,-1.66 -5.11,-2.94 -7.9,-3.85 -0.73,-0.81 -1.45,-1.61 -2.15,-2.41 -0.68,-0.06 -2.03,-0.18 -2.71,-0.24 -1.54,-7.03 0.18,-14.98 -3.78,-21.33 -0.18,-1.81 -0.34,-3.63 -0.48,-5.44 z"
         id="path26" />
      <path
         fill="#e9981c"
         opacity="1"
         d="m 357.9,125.72 c 8.57,-0.08 17.02,-1.97 25.62,-1.4 -3.28,5.04 -7.63,9.3 -10.58,14.55 -2.87,4.39 -4.73,9.31 -7.13,13.95 -0.42,1.27 -0.82,2.55 -1.2,3.83 -9.66,-0.27 -19.18,-2.38 -28.86,-2.42 1.15,-3.19 2.58,-6.27 4.02,-9.34 3.59,-5.12 7.13,-10.28 11.28,-14.97 1.85,-1.96 3.88,-4.29 6.85,-4.2 z"
         id="path27" />
      <path
         fill="#e9981c"
         opacity="1"
         d="m 387.41,124.27 c 11.31,-0.45 22.66,1.24 33.61,3.99 -6.58,11.72 -12.11,24 -16.81,36.59 -12.28,-2.29 -24.33,-5.9 -36.77,-7.28 3.68,-12.59 11.53,-23.46 19.97,-33.3 z"
         id="path28" />
      <path
         fill="#e9981c"
         opacity="1"
         d="m 423.98,128.98 c 11.53,2.92 22.87,7.04 33.35,12.68 1.15,13.22 -1.15,26.47 -3.85,39.38 -15.34,-5.3 -30.59,-11.01 -46.36,-14.95 3.92,-13.04 10,-25.37 16.86,-37.11 z"
         id="path29" />
      <path
         fill="#e9981c"
         opacity="1"
         d="m 334.28,157.24 c 9.63,0.35 19.34,0.76 28.81,2.7 -2.89,9.47 -4.88,19.23 -5.54,29.13 -0.3,5.64 -0.13,11.28 -0.22,16.93 -9.22,-2.69 -16.58,-9.39 -25.49,-12.77 -2.14,-11.96 -1.17,-24.4 2.44,-35.99 z"
         id="path30" />
      <path
         fill="#e9981c"
         opacity="1"
         d="m 366.02,160.11 c 12.4,1.86 24.61,4.74 36.77,7.74 -0.87,5.15 -3.01,9.98 -4.06,15.09 -0.15,0.52 -0.45,1.54 -0.6,2.05 -0.38,1.34 -0.73,2.69 -1.08,4.05 -2.94,10.08 -4.37,20.5 -6.34,30.79 -10.38,-3.14 -20.53,-7.1 -30.34,-11.73 -1.65,-16.15 1.04,-32.51 5.65,-47.99 z"
         id="path31" />
      <path
         fill="#e9981c"
         opacity="1"
         d="m 405.82,169.1 c 1.72,0.29 3.45,0.6 5.16,1 5.35,1.62 10.79,2.96 16.11,4.7 8.64,2.76 17.23,5.7 25.64,9.12 -1.46,6.14 -3.77,12.02 -5.61,18.04 -3.58,7.77 -6.77,15.8 -11.45,22.99 -0.1,0.66 -0.3,1.98 -0.4,2.64 -13.87,-0.4 -27.58,-3.07 -41.01,-6.43 -0.37,-9.6 2.99,-18.81 4.73,-28.14 1.81,-8.1 4.39,-15.99 6.83,-23.92 z"
         id="path32" />
      <path
         fill="#e9981c"
         opacity="1"
         d="m 454.88,185.2 c 1.77,0.47 3.52,0.99 5.28,1.51 11.59,5.07 23.6,9.34 34.53,15.78 -3.02,7.44 -6.85,14.54 -11.49,21.11 -3.08,0.49 -6.19,0.85 -9.25,1.51 -9.63,1.31 -19.27,2.62 -28.99,3.12 -2.41,0.1 -4.79,-0.33 -7.15,-0.67 4.21,-7.25 7.82,-14.84 11.05,-22.58 2.32,-6.49 5.29,-12.85 6.02,-19.78 z"
         id="path33" />
      <path
         fill="#e9981c"
         opacity="1"
         d="m 333.21,195.85 c 7.54,5.53 15.79,10 24.2,14.05 1.04,7.36 1.81,14.79 3.84,21.97 0.74,2.73 1.31,5.51 1.74,8.32 -0.39,-0.34 -1.18,-1.03 -1.58,-1.37 -9.16,-6.54 -16.49,-15.45 -22.17,-25.11 -2.99,-5.54 -5.55,-11.51 -6.03,-17.86 z"
         id="path34" />
      <path
         fill="#e9981c"
         opacity="1"
         d="m 361.2,211.84 c 7.72,3.58 15.75,6.39 23.71,9.37 1.83,0.51 3.66,1.03 5.49,1.54 -1.12,8.86 -2.41,17.72 -2.25,26.69 0.65,-0.17 1.95,-0.49 2.6,-0.65 -0.03,-8.28 1.77,-16.44 2.09,-24.7 2.04,0.16 4.08,0.36 6.12,0.63 10.77,3.72 22.32,4.45 33.58,5.77 -4,7.44 -9.07,14.23 -14.24,20.87 -0.97,1.2 -0.74,2.84 -1.03,4.26 -8.36,1.15 -16.86,-0.15 -24.99,-2.14 -2.03,-0.24 -1.67,-2.24 -1.58,-3.73 -1.2,0.08 -2.41,0.16 -3.61,0.24 l 1.87,1.84 c -8.19,-0.84 -15.56,-5.17 -22.36,-9.52 -2.37,-10.04 -5.46,-20.04 -5.4,-30.47 z"
         id="path35" />
      <path
         fill="#e9981c"
         opacity="1"
         d="m 459,229.78 c 6.97,-1.07 14.23,-1.14 20.67,-4.39 0.01,0.73 0.03,2.21 0.04,2.94 -5.57,4.53 -10.5,9.83 -16.69,13.57 -1.03,0.7 -2.03,1.42 -3.04,2.14 -12.98,7.13 -27.49,11.74 -42.37,11.91 7.05,-7.71 13.4,-16.14 18.33,-25.38 7.69,-0.27 15.41,0.29 23.06,-0.79 z"
         id="path36" />
      <path
         fill="#e9981c"
         opacity="1"
         d="m 293.43,362.63 c 81.68,-0.13 163.36,0.04 245.03,-0.09 -0.26,5.06 -0.19,10.13 -0.12,15.19 -3.11,0.47 -6.25,0.61 -9.39,0.53 -78.5,-0.15 -157.01,0.13 -235.51,-0.14 -0.09,-5.17 -0.01,-10.33 -0.01,-15.49 z"
         id="path37" />
    </g>
    <g
       id="#162156ff">
      <path
         fill="#162156"
         opacity="1"
         d="m 35.69,299.73 c 85.94,0.04 171.89,0.06 257.83,-0.01 81.66,-0.11 163.32,0.11 244.98,-0.11 0.66,15.77 0.1,31.59 0.29,47.38 -0.2,5.17 0.44,10.42 -0.33,15.55 -81.67,0.13 -163.35,-0.04 -245.03,0.09 -85.89,0.01 -171.77,0.02 -257.66,-0.01 -0.04,-20.96 0.1,-41.93 -0.08,-62.89 m 321.72,7.89 c -0.93,2.4 -1.82,4.81 -2.73,7.22 1.29,-0.03 2.58,-0.05 3.87,-0.07 1.57,-2.39 3.17,-4.76 4.67,-7.2 -1.94,0.03 -3.88,0.05 -5.81,0.05 M 49.55,326.45 c -0.62,5.31 -1.01,11.02 0.94,16.11 3.04,6.52 12.76,7.48 17.79,2.8 1.83,-1.75 2.49,-4.26 3.31,-6.55 -1.95,-0.01 -3.9,-0.01 -5.85,-0.04 -1.17,1.75 -2.31,4.29 -4.77,4.31 -2.93,0.4 -5.48,-2.09 -5.59,-4.95 -0.34,-4.27 -0.86,-8.88 0.81,-12.93 2.36,-3.8 8.63,-2.29 9.41,2.07 2.02,0.04 4.04,0.05 6.06,0.07 -1.02,-3.55 -2.72,-7.4 -6.47,-8.76 -6.12,-3.2 -14.76,0.87 -15.64,7.87 m 33.6,-8.41 c -4.04,1.18 -7.3,4.78 -7.53,9.07 -0.4,5.08 -0.81,10.43 0.91,15.32 3.47,7.47 15.54,7.88 19.62,0.78 2.27,-5.03 1.72,-10.78 1.31,-16.12 -0.42,-6.69 -8.16,-11.29 -14.31,-9.05 m 20.53,-0.29 c -0.05,10.07 -0.04,20.14 -0.03,30.22 6.49,0 12.98,0.07 19.46,-0.05 -0.02,-1.73 -0.03,-3.47 -0.02,-5.19 -4.49,0.08 -8.98,0.03 -13.47,0.02 0.01,-8.32 -0.03,-16.64 0,-24.96 -1.98,0 -3.96,-0.02 -5.94,-0.04 m 24.33,0.02 c -0.03,10.07 0.06,20.15 -0.02,30.22 6.64,-0.02 13.28,0.03 19.93,-0.04 -0.02,-1.74 -0.04,-3.49 -0.04,-5.22 -4.68,0.06 -9.37,0.09 -14.05,-0.04 0.06,-2.39 0.08,-4.78 0.05,-7.17 3.93,-0.04 7.86,-0.01 11.79,0.01 0.06,-1.8 0.11,-3.61 0.14,-5.4 -3.97,0.01 -7.94,0 -11.91,0.01 0,-2.26 -0.03,-4.52 -0.08,-6.77 4.68,-0.08 9.37,-0.04 14.06,-0.06 -0.01,-1.86 -0.01,-3.71 -0.02,-5.56 -6.62,0.04 -13.23,0.02 -19.85,0.02 m 24.58,9.4 c -0.24,4.9 -0.64,9.97 0.63,14.76 3.14,7.62 14.88,8.45 19.66,2.06 2.59,-3.68 1.89,-8.42 1.99,-12.64 -3.79,-0.03 -7.57,-0.03 -11.35,-0.02 -0.03,1.62 -0.06,3.26 -0.08,4.89 1.9,0.01 3.8,0.03 5.7,0.04 -0.29,1.68 -0.61,3.36 -0.93,5.04 -2.71,1.74 -7.08,2.87 -8.95,-0.58 -1.4,-4.27 -0.89,-8.94 -0.66,-13.36 0.23,-3.16 3.64,-5.17 6.57,-4.07 2.18,0.19 2.97,2.55 4.09,4.07 1.93,0.04 3.85,0.03 5.78,0.04 -0.95,-3.41 -2.57,-6.99 -6.03,-8.47 -6.28,-3.97 -16.17,0.58 -16.42,8.24 m 28.18,-9.39 c -0.07,10.05 0.06,20.1 -0.04,30.15 1.97,0.01 3.95,0.02 5.92,0.02 0.02,-10.08 0.12,-20.16 -0.02,-30.24 -1.95,0.03 -3.9,0.05 -5.86,0.07 m 19.45,0.4 c -2.08,0.76 -4.06,1.99 -5.33,3.85 -2.18,2.82 -1.82,6.59 -1.99,9.94 0.05,3.64 -0.26,7.47 1.23,10.89 3.7,6.94 15.16,7.29 19.28,0.58 1.9,-3.13 1.72,-6.91 1.78,-10.43 -0.06,-3.03 0.21,-6.22 -1.12,-9.03 -2.05,-5.21 -8.71,-7.8 -13.85,-5.8 m 30.64,-0.45 c 0.03,10.08 0.09,20.16 -0.03,30.23 5.56,-0.38 11.5,1.08 16.78,-1.18 4.95,-2.6 5.37,-8.88 5.18,-13.81 0.16,-4.7 -0.04,-10.53 -4.54,-13.3 -5.23,-3.12 -11.63,-1.48 -17.39,-1.94 m 27.75,0.01 c 0.06,10.07 0,20.15 0.05,30.22 6.62,0.01 13.25,0.05 19.87,-0.01 -0.01,-1.73 -0.01,-3.46 -0.02,-5.19 -4.63,0.01 -9.27,0.02 -13.9,-0.03 0.01,-2.41 0.01,-4.81 -0.03,-7.21 3.98,-0.01 7.96,0.04 11.94,-0.05 -0.01,-1.78 -0.01,-3.55 -0.02,-5.32 -3.97,-0.06 -7.93,-0.06 -11.89,0.02 0.04,-2.28 0.04,-4.56 0,-6.84 4.63,-0.02 9.27,-0.02 13.91,-0.03 0,-1.85 0,-3.71 -0.01,-5.56 -6.64,0.05 -13.27,0.07 -19.9,0 m 37.31,3.1 c -3.17,3.22 -2.91,7.97 -2.88,12.14 0.11,3.46 -0.3,7.24 1.54,10.35 3.93,6.59 14.87,6.52 19.11,0.3 2.33,-3.65 1.7,-8.2 1.84,-12.31 -3.87,-0.02 -7.74,0.01 -11.6,0.02 0,1.6 0,3.21 0.01,4.83 1.95,0.03 3.9,0.08 5.86,0.17 -0.33,2.39 -0.74,5.25 -3.37,6.2 -2.31,1.51 -4.74,-0.2 -6.82,-1.25 -0.62,-5.81 -1.68,-12.16 0.94,-17.63 1.95,-0.21 4.03,-1.05 5.93,-0.17 1.71,0.62 2.3,2.56 3.31,3.91 1.97,0 3.94,-0.01 5.91,-0.05 -1.17,-3.43 -2.77,-7.21 -6.39,-8.64 -4.34,-2.45 -9.86,-1.07 -13.39,2.13 m 25.44,27.13 c 6.64,0.04 13.28,0 19.93,-0.01 -0.03,-1.75 -0.05,-3.49 -0.04,-5.23 -4.64,0.07 -9.27,0.07 -13.9,0 -0.03,-2.39 -0.04,-4.77 0.01,-7.15 3.92,-0.13 7.85,-0.06 11.78,-0.1 0,-1.77 0,-3.54 0.02,-5.31 -3.94,-0.04 -7.88,-0.05 -11.81,0.02 -0.03,-2.29 -0.04,-4.57 -0.02,-6.85 4.64,-0.02 9.28,-0.06 13.92,0 -0.02,-1.88 -0.04,-3.75 -0.03,-5.62 -6.62,0.1 -13.23,0.06 -19.84,0.02 -0.13,10.08 -0.06,20.15 -0.02,30.23 m 31.04,-29.46 c -4.26,1.6 -6.62,6.1 -6.56,10.51 0,4.81 -0.74,10.04 1.65,14.45 4.39,6.99 16.65,6.22 19.75,-1.55 1.29,-4.85 0.72,-10 0.61,-14.95 -0.37,-7.14 -9.28,-11.6 -15.45,-8.46 m 25.86,0.72 c -4,1.88 -5.37,6.63 -5.16,10.74 0.14,5.07 -0.97,11.09 2.9,15.12 4.91,4.81 14.39,4.2 18.13,-1.79 2,-3.66 1.64,-7.96 1.64,-11.98 -3.91,0.01 -7.83,0.02 -11.74,-0.02 -0.01,1.63 -0.02,3.27 -0.03,4.91 2.1,0.02 4.2,0.04 6.3,0.11 -0.51,1.85 -1.1,3.68 -1.8,5.47 -2.92,1.54 -6.2,1.61 -8.83,-0.55 -0.59,-5.12 -1.23,-10.46 0.03,-15.52 1.42,-3.37 5.43,-2.72 8.26,-1.98 0.62,1.22 1.24,2.44 1.87,3.67 2.02,0 4.05,0 6.08,-0.01 -0.97,-2.86 -1.97,-6.01 -4.68,-7.7 -3.77,-2.73 -9.03,-3 -12.97,-0.47 m 23.42,-1.49 c -0.13,10.06 0.06,20.12 -0.08,30.18 2.01,0.03 4.03,0.05 6.05,0.05 0.02,-4.01 -0.02,-8.03 0.01,-12.04 1.36,0.04 2.72,0.09 4.08,0.14 1.81,4.01 3.86,7.9 5.71,11.89 2.3,0.01 4.61,0.02 6.92,0.02 -2.02,-4.24 -4.27,-8.36 -6.39,-12.55 5.55,-2.64 7.01,-10.66 2.54,-14.93 -5.26,-4.45 -12.6,-2.12 -18.84,-2.76 m 35.21,0.01 c -3.57,10.08 -7.36,20.08 -10.93,30.16 2.05,0.05 4.1,0.07 6.16,0.09 0.59,-1.74 1.21,-3.48 1.85,-5.2 3.51,0.13 7.02,0.11 10.54,0.07 0.6,1.7 1.22,3.41 1.85,5.12 2.04,-0.03 4.09,-0.06 6.15,-0.09 -3.71,-10.03 -7.39,-20.07 -10.97,-30.15 -1.56,0 -3.11,0 -4.65,0 m 19.23,0.04 c 0.06,10.06 0.03,20.12 0.01,30.19 2.01,-0.01 4.03,-0.01 6.05,-0.03 -0.05,-4.03 0,-8.06 -0.04,-12.08 3.96,-0.06 7.91,-0.08 11.87,-0.03 0.01,-1.79 0.03,-3.58 0.06,-5.36 -3.98,0.03 -7.96,0.04 -11.93,0.03 -0.02,-2.4 0,-4.8 0.06,-7.19 4.58,0 9.17,-0.04 13.76,-0.03 0,-1.86 0,-3.7 0,-5.55 -6.61,0.08 -13.23,-0.01 -19.84,0.05 m 29.26,0.96 c -3.65,1.52 -5.99,5.21 -6.12,9.13 -0.16,4.89 -0.77,10.09 1.13,14.73 3.72,7.8 16.76,7.42 20.08,-0.51 1.38,-4.87 1.22,-10.07 0.7,-15.06 -0.28,-7.33 -9.62,-11.9 -15.79,-8.29 m 24.84,0.38 c -5.54,2.68 -5.99,12.23 -0.29,14.96 3.13,1.63 6.82,1.42 10.21,2.15 0.5,1.76 1.6,4.22 -0.18,5.61 -3.64,2.53 -8.26,0.79 -11.73,-1.16 -1.32,1.31 -2.6,2.65 -3.83,4.04 3.96,2.75 8.78,4.09 13.6,3.38 4.67,-0.23 9.35,-4.16 8.87,-9.13 0.38,-3.97 -2.63,-7.76 -6.58,-8.26 -2.79,-0.95 -6.46,-0.1 -8.47,-2.67 -0.09,-1.44 -0.45,-3.32 1.07,-4.16 3.04,-1.9 6.86,-0.71 9.8,0.84 1.22,-1.22 2.44,-2.43 3.66,-3.63 -4.48,-3.53 -11,-5.02 -16.13,-1.97 z"
         id="path38" />
      <path
         fill="#162156"
         opacity="1"
         d="m 81.83,326.77 c 0.55,-4.57 7.97,-5.1 9.24,-0.73 1.13,4.53 1.04,9.48 -0.01,14.02 -1.33,3.76 -5.96,3.44 -8.67,1.41 -1.29,-4.76 -1.45,-9.86 -0.56,-14.7 z"
         id="path39" />
      <path
         fill="#162156"
         opacity="1"
         d="m 199.33,326.22 c 0.92,-3.99 7.61,-4.34 9.03,-0.58 1.32,2.92 0.76,6.25 0.85,9.37 -0.02,2.8 -0.24,6.67 -3.42,7.72 -2.13,1.04 -4.23,-0.42 -6.12,-1.27 -0.93,-5.01 -1.14,-10.21 -0.34,-15.24 z"
         id="path40" />
      <path
         fill="#162156"
         opacity="1"
         d="m 353.6,323.54 c 2.8,-0.66 6.83,-0.86 7.98,2.45 0.75,4.59 0.78,9.38 0.01,13.97 -1.54,4.49 -8.69,3.84 -9.44,-0.81 -0.48,-5.17 -1.22,-10.89 1.45,-15.61 z"
         id="path41" />
      <path
         fill="#162156"
         opacity="1"
         d="m 487.69,323.66 c 2.51,-1.32 6.56,-0.58 7.18,2.6 1.15,4.98 0.8,10.26 -0.34,15.22 -2.53,1.7 -5.56,2.02 -8.14,0.25 -1.68,-4.1 -1.45,-8.59 -1.22,-12.92 0.11,-1.93 0.74,-4.12 2.52,-5.15 z"
         id="path42" />
      <path
         fill="#162156"
         opacity="1"
         d="m 236.83,323.31 c 3.18,0.14 8.31,-0.93 9.35,3.2 1.03,4.35 1.12,9.11 -0.18,13.42 -1.47,3.6 -6.04,2.75 -9.15,2.81 0.03,-6.48 0.07,-12.95 -0.02,-19.43 z"
         id="path43" />
      <path
         fill="#162156"
         opacity="1"
         d="m 407.67,323.26 c 2.75,0.08 5.62,-0.3 8.26,0.71 1.47,1.78 1.88,4.96 -0.25,6.41 -2.5,1.16 -5.35,0.69 -8.01,0.85 -0.04,-2.66 -0.04,-5.32 0,-7.97 z"
         id="path44" />
      <path
         fill="#162156"
         opacity="1"
         d="m 435.72,337.68 c 1.1,-3.56 2.34,-7.08 3.71,-10.54 1.12,3.51 2.34,7.01 3.52,10.51 -2.42,0.06 -4.83,0.07 -7.23,0.03 z"
         id="path45" />
    </g>
  </g>
</svg>
