<?xml version="1.0" encoding="UTF-8" standalone="no"?>
<!-- Created with Inkscape (http://www.inkscape.org/) -->

<svg
   width="92mm"
   height="22mm"
   viewBox="0 0 92 22.000001"
   version="1.1"
   id="svg1"
   xmlns="http://www.w3.org/2000/svg"
   xmlns:svg="http://www.w3.org/2000/svg">
  <defs
     id="defs1" />
  <g
     id="layer1"
     transform="translate(-66.442627,-138.11029)">
    <g
       id="text1"
       style="font-weight:bold;font-size:12.7px;line-height:1;font-family:'Miriam Libre';-inkscape-font-specification:'Miriam Libre Bold';letter-spacing:-0.264583px;fill:#bcd35f;stroke-width:1.05833;stroke-linecap:round;stroke-linejoin:round;paint-order:stroke fill markers"
       aria-label="Geoinquietos">
      <path
         style="fill:#4daf5c"
         d="m 75.826093,153.07269 q -0.9144,0 -1.6891,-0.4445 -0.762,-0.4572 -1.2192,-1.2192 -0.4445,-0.7747 -0.4445,-1.6891 v -2.7051 q 0,-0.9144 0.4445,-1.6764 0.4572,-0.7747 1.2192,-1.2192 0.7747,-0.4572 1.6891,-0.4572 0.8001,0 1.4859,0.2921 0.6858,0.2794 1.1684,0.8255 0.0762,0.0889 0.0762,0.2159 0,0.127 -0.1016,0.254 l -0.5588,0.5842 q -0.1016,0.1016 -0.2032,0.1016 -0.127,0 -0.2286,-0.1143 -0.635,-0.6731 -1.6256,-0.6731 -0.4826,0 -0.9017,0.254 -0.4191,0.254 -0.6731,0.6858 -0.2413,0.4318 -0.2413,0.9271 v 2.7051 q 0,0.4953 0.2413,0.9271 0.254,0.4318 0.6731,0.6858 0.4191,0.254 0.9017,0.254 0.4826,0 0.9017,-0.2413 0.4191,-0.2413 0.6604,-0.6604 0.2413,-0.4191 0.2413,-0.9144 v -0.6223 h -1.7018 q -0.1143,0 -0.1905,-0.0762 -0.0762,-0.0762 -0.0762,-0.1905 v -0.9144 q 0,-0.1143 0.0762,-0.1905 0.0762,-0.0762 0.1905,-0.0762 h 2.6797 q 0.2286,0 0.381,0.1651 0.1651,0.1524 0.1651,0.381 v 1.4732 q 0,0.9144 -0.4572,1.6891 -0.4445,0.762 -1.2192,1.2192 -0.762,0.4445 -1.6637,0.4445 z m 7.634822,-0.1651 q -0.825499,0 -1.523999,-0.4064 -0.6858,-0.4064 -1.0922,-1.1049 -0.4064,-0.6985 -0.4064,-1.524 v -1.3716 q 0,-0.8255 0.4064,-1.524 0.4064,-0.6985 1.0922,-1.1049 0.6985,-0.4064 1.523999,-0.4064 0.8255,0 1.5113,0.4064 0.6985,0.4064 1.1049,1.1049 0.4064,0.6985 0.4064,1.524 v 0.8509 q 0,0.2286 -0.1651,0.3937 -0.1524,0.1524 -0.381,0.1524 h -3.975099 v 0.0635 q 0,0.6223 0.4318,1.0668 0.4445,0.4318 1.066799,0.4318 h 2.0193 q 0.1143,0 0.1905,0.0762 0.0762,0.0762 0.0762,0.1905 v 0.9144 q 0,0.1143 -0.0762,0.1905 -0.0762,0.0762 -0.1905,0.0762 z m 1.4986,-4.3815 v -0.1143 q 0,-0.6223 -0.4445,-1.0541 -0.4318,-0.4445 -1.0541,-0.4445 -0.622299,0 -1.066799,0.4445 -0.4318,0.4318 -0.4318,1.0541 v 0.1143 z m 5.729795,4.5466 q -0.8255,0 -1.524,-0.3937 -0.6858,-0.4064 -1.0922,-1.0922 -0.4064,-0.6858 -0.4064,-1.4859 v -1.6637 q 0,-0.8001 0.4064,-1.4859 0.4064,-0.6858 1.0922,-1.0795 0.6985,-0.4064 1.524,-0.4064 0.8255,0 1.5113,0.4064 0.6985,0.3937 1.1049,1.0795 0.4064,0.6858 0.4064,1.4859 v 1.6637 q 0,0.8001 -0.4064,1.4859 -0.4064,0.6858 -1.1049,1.0922 -0.6858,0.3937 -1.5113,0.3937 z m 0,-1.4732 q 0.6223,0 1.0541,-0.4318 0.4445,-0.4445 0.4445,-1.0668 v -1.6637 q 0,-0.6223 -0.4445,-1.0541 -0.4318,-0.4445 -1.0541,-0.4445 -0.6223,0 -1.0668,0.4445 -0.4318,0.4318 -0.4318,1.0541 v 1.6637 q 0,0.6223 0.4318,1.0668 0.4445,0.4318 1.0668,0.4318 z"
         id="path1" />
      <path
         style="fill:#023b41"
         d="m 96.330238,144.77959 q -0.1143,0 -0.1905,-0.0762 -0.0762,-0.0762 -0.0762,-0.1905 v -1.3843 q 0,-0.1143 0.0762,-0.1905 0.0762,-0.0762 0.1905,-0.0762 h 0.8636 q 0.1143,0 0.1905,0.0762 0.0762,0.0762 0.0762,0.1905 v 1.3843 q 0,0.1143 -0.0762,0.1905 -0.0762,0.0762 -0.1905,0.0762 z m 0.3048,8.128 q -0.2667,0 -0.4572,-0.1778 -0.1778,-0.1905 -0.1778,-0.4572 v -5.1943 h -1.0287 q -0.1143,0 -0.1905,-0.0762 -0.0762,-0.0762 -0.0762,-0.1905 v -0.9144 q 0,-0.1143 0.0762,-0.1905 0.0762,-0.0762 0.1905,-0.0762 h 1.9177 q 0.2667,0 0.4445,0.1905 0.1905,0.1778 0.1905,0.4445 v 5.1943 h 1.0287 q 0.1143,0 0.1905,0.0762 0.0762,0.0762 0.0762,0.1905 v 0.9144 q 0,0.1143 -0.0762,0.1905 -0.0762,0.0762 -0.1905,0.0762 z m 3.583512,0 q -0.1143,0 -0.1905,-0.0762 -0.0762,-0.0762 -0.0762,-0.1905 v -6.7437 q 0,-0.1143 0.0762,-0.1905 0.0762,-0.0762 0.1905,-0.0762 h 0.9906 q 0.1143,0 0.1905,0.0762 0.0762,0.0762 0.0762,0.1905 v 0.5969 q 0.3556,-0.4826 0.8382,-0.7493 0.4953,-0.2794 1.0795,-0.2794 0.7239,0 1.2954,0.3429 0.5842,0.3429 0.9144,0.9525 0.3302,0.6096 0.3302,1.3716 v 4.5085 q 0,0.1143 -0.0762,0.1905 -0.0762,0.0762 -0.1905,0.0762 h -0.9906 q -0.1143,0 -0.1905,-0.0762 -0.0762,-0.0762 -0.0762,-0.1905 v -4.318 q 0,-0.6731 -0.3429,-1.0287 -0.3429,-0.3683 -0.9652,-0.3683 -0.7493,0 -1.1938,0.4953 -0.4318,0.4826 -0.4318,1.3335 v 3.8862 q 0,0.1143 -0.0762,0.1905 -0.0762,0.0762 -0.1905,0.0762 z m 11.90202,2.4511 q -0.1143,0 -0.1905,-0.0762 -0.0762,-0.0762 -0.0762,-0.1905 v -2.7813 q -0.3556,0.3683 -0.8001,0.5715 -0.4318,0.1905 -0.9017,0.1905 -0.7747,0 -1.4224,-0.3937 -0.6477,-0.4064 -1.0287,-1.0795 -0.381,-0.6731 -0.381,-1.4478 v -1.7653 q 0,-0.7747 0.381,-1.4478 0.3937,-0.6731 1.0414,-1.0668 0.6604,-0.4064 1.4097,-0.4064 0.5588,0 1.0414,0.254 0.4953,0.254 0.8255,0.7493 v -0.5715 q 0,-0.1143 0.0762,-0.1905 0.0762,-0.0762 0.1905,-0.0762 h 0.8255 q 0.1143,0 0.1905,0.0762 0.0762,0.0762 0.0762,0.1905 v 9.1948 q 0,0.1143 -0.0762,0.1905 -0.0762,0.0762 -0.1905,0.0762 z m -1.778,-3.7465 q 0.6223,0 1.0668,-0.4318 0.4445,-0.4445 0.4445,-1.0668 v -1.6891 q 0,-0.6223 -0.4445,-1.0541 -0.4445,-0.4445 -1.0668,-0.4445 -0.6223,0 -1.0668,0.4445 -0.4318,0.4318 -0.4318,1.0541 v 1.6891 q 0,0.6223 0.4318,1.0668 0.4445,0.4318 1.0668,0.4318 z m 7.30462,1.4605 q -0.7239,0 -1.3081,-0.3429 -0.5715,-0.3429 -0.9017,-0.9525 -0.3302,-0.6096 -0.3302,-1.3716 v -4.5085 q 0,-0.1143 0.0762,-0.1905 0.0762,-0.0762 0.1905,-0.0762 h 0.9906 q 0.1143,0 0.1905,0.0762 0.0762,0.0762 0.0762,0.1905 v 4.318 q 0,0.6731 0.3429,1.0414 0.3429,0.3556 0.9652,0.3556 0.7493,0 1.1811,-0.4826 0.4445,-0.4953 0.4445,-1.3462 v -3.8862 q 0,-0.1143 0.0762,-0.1905 0.0762,-0.0762 0.1905,-0.0762 h 0.9906 q 0.1143,0 0.1905,0.0762 0.0762,0.0762 0.0762,0.1905 v 6.7437 q 0,0.1143 -0.0762,0.1905 -0.0762,0.0762 -0.1905,0.0762 h -0.9906 q -0.1143,0 -0.1905,-0.0762 -0.0762,-0.0762 -0.0762,-0.1905 v -0.5969 q -0.3556,0.4826 -0.8509,0.762 -0.4826,0.2667 -1.0668,0.2667 z m 6.33941,-8.2931 q -0.1143,0 -0.1905,-0.0762 -0.0762,-0.0762 -0.0762,-0.1905 v -1.3843 q 0,-0.1143 0.0762,-0.1905 0.0762,-0.0762 0.1905,-0.0762 h 0.8636 q 0.1143,0 0.1905,0.0762 0.0762,0.0762 0.0762,0.1905 v 1.3843 q 0,0.1143 -0.0762,0.1905 -0.0762,0.0762 -0.1905,0.0762 z m 0.3048,8.128 q -0.2667,0 -0.4572,-0.1778 -0.1778,-0.1905 -0.1778,-0.4572 v -5.1943 h -1.0287 q -0.1143,0 -0.1905,-0.0762 -0.0762,-0.0762 -0.0762,-0.1905 v -0.9144 q 0,-0.1143 0.0762,-0.1905 0.0762,-0.0762 0.1905,-0.0762 h 1.9177 q 0.2667,0 0.4445,0.1905 0.1905,0.1778 0.1905,0.4445 v 5.1943 h 1.0287 q 0.1143,0 0.1905,0.0762 0.0762,0.0762 0.0762,0.1905 v 0.9144 q 0,0.1143 -0.0762,0.1905 -0.0762,0.0762 -0.1905,0.0762 z m 5.94572,0 q -0.8255,0 -1.524,-0.4064 -0.6858,-0.4064 -1.0922,-1.1049 -0.4064,-0.6985 -0.4064,-1.524 v -1.3716 q 0,-0.8255 0.4064,-1.524 0.4064,-0.6985 1.0922,-1.1049 0.6985,-0.4064 1.524,-0.4064 0.8255,0 1.5113,0.4064 0.6985,0.4064 1.1049,1.1049 0.4064,0.6985 0.4064,1.524 v 0.8509 q 0,0.2286 -0.1651,0.3937 -0.1524,0.1524 -0.381,0.1524 h -3.9751 v 0.0635 q 0,0.6223 0.4318,1.0668 0.4445,0.4318 1.0668,0.4318 h 2.0193 q 0.1143,0 0.1905,0.0762 0.0762,0.0762 0.0762,0.1905 v 0.9144 q 0,0.1143 -0.0762,0.1905 -0.0762,0.0762 -0.1905,0.0762 z m 1.4986,-4.3815 v -0.1143 q 0,-0.6223 -0.4445,-1.0541 -0.4318,-0.4445 -1.0541,-0.4445 -0.6223,0 -1.0668,0.4445 -0.4318,0.4318 -0.4318,1.0541 v 0.1143 z m 5.66631,4.3815 q -0.9906,0 -1.6129,-0.6096 -0.6096,-0.6096 -0.6096,-1.6002 v -3.6449 h -0.8763 q -0.1143,0 -0.1905,-0.0762 -0.0762,-0.0762 -0.0762,-0.1905 v -0.889 q 0,-0.1143 0.0762,-0.1905 0.0762,-0.0762 0.1905,-0.0762 h 0.8763 v -1.3716 q 0,-0.1143 0.0762,-0.1905 0.0762,-0.0762 0.1905,-0.0762 h 0.9906 q 0.1143,0 0.1905,0.0762 0.0762,0.0762 0.0762,0.1905 v 1.3716 h 2.1463 q 0.1143,0 0.1905,0.0762 0.0762,0.0762 0.0762,0.1905 v 0.9017 q 0,0.1143 -0.0762,0.1905 -0.0762,0.0762 -0.1905,0.0762 h -2.1463 v 3.5687 q 0,0.381 0.2159,0.6096 0.2286,0.2286 0.5969,0.2286 l 1.3335,0.0127 q 0.1143,0 0.1905,0.0762 0.0762,0.0762 0.0762,0.1905 v 0.889 q 0,0.1143 -0.0762,0.1905 -0.0762,0.0762 -0.1905,0.0762 z m 5.64093,0.1651 q -0.8255,0 -1.524,-0.3937 -0.6858,-0.4064 -1.0922,-1.0922 -0.4064,-0.6858 -0.4064,-1.4859 v -1.6637 q 0,-0.8001 0.4064,-1.4859 0.4064,-0.6858 1.0922,-1.0795 0.6985,-0.4064 1.524,-0.4064 0.8255,0 1.5113,0.4064 0.6985,0.3937 1.1049,1.0795 0.4064,0.6858 0.4064,1.4859 v 1.6637 q 0,0.8001 -0.4064,1.4859 -0.4064,0.6858 -1.1049,1.0922 -0.6858,0.3937 -1.5113,0.3937 z m 0,-1.4732 q 0.6223,0 1.0541,-0.4318 0.4445,-0.4445 0.4445,-1.0668 v -1.6637 q 0,-0.6223 -0.4445,-1.0541 -0.4318,-0.4445 -1.0541,-0.4445 -0.6223,0 -1.0668,0.4445 -0.4318,0.4318 -0.4318,1.0541 v 1.6637 q 0,0.6223 0.4318,1.0668 0.4445,0.4318 1.0668,0.4318 z m 6.52993,1.4732 q -0.6858,0 -1.3208,-0.2159 -0.635,-0.2159 -1.1303,-0.5969 -0.0635,-0.0508 -0.0889,-0.127 -0.0127,-0.0889 0.0127,-0.1651 0.0889,-0.2032 0.4318,-0.8001 0.1016,-0.1524 0.254,-0.1524 0.0889,0 0.1778,0.0508 0.4572,0.3175 0.8509,0.4699 0.4064,0.1397 0.8509,0.1397 0.5334,0 0.8128,-0.1905 0.2794,-0.2032 0.2794,-0.5461 0,-0.2921 -0.2413,-0.4572 -0.2413,-0.1651 -0.9144,-0.4191 l -0.4572,-0.1778 q -0.5588,-0.2159 -0.9525,-0.4572 -0.3937,-0.254 -0.6731,-0.6858 -0.2667,-0.4318 -0.2667,-1.0795 0,-1.0033 0.6604,-1.5875 0.6731,-0.5969 1.778,-0.5969 0.6477,0 1.27,0.2159 0.6223,0.2032 1.0922,0.5715 0.0635,0.0508 0.0762,0.1397 0.0254,0.0762 0,0.1524 -0.1143,0.2667 -0.381,0.8001 -0.0762,0.1397 -0.2413,0.1397 -0.0889,0 -0.1778,-0.0508 -0.8763,-0.5715 -1.6256,-0.5715 -0.4318,0 -0.6858,0.1905 -0.2413,0.1778 -0.2413,0.508 0,0.3302 0.2794,0.5588 0.2794,0.2159 1.0287,0.508 0.7239,0.2794 1.1176,0.4826 0.4064,0.1905 0.7366,0.6223 0.3429,0.4191 0.3429,1.0922 0,0.6604 -0.3429,1.1684 -0.3302,0.508 -0.9398,0.7874 -0.5969,0.2794 -1.3716,0.2794 z"
         id="path2" />
    </g>
  </g>
</svg>
