<?xml version="1.0" encoding="UTF-8" standalone="no"?>
<svg
   xmlns:dc="http://purl.org/dc/elements/1.1/"
   xmlns:cc="http://creativecommons.org/ns#"
   xmlns:rdf="http://www.w3.org/1999/02/22-rdf-syntax-ns#"
   xmlns:svg="http://www.w3.org/2000/svg"
   xmlns="http://www.w3.org/2000/svg"
   xmlns:sodipodi="http://sodipodi.sourceforge.net/DTD/sodipodi-0.dtd"
   xmlns:inkscape="http://www.inkscape.org/namespaces/inkscape"
   viewBox="0 0 3753.3201 1119.1947"
   height="1119.1947"
   width="3753.3201"
   xml:space="preserve"
   id="svg2"
   version="1.1"
   sodipodi:docname="geomatico.svg"
   inkscape:version="1.0.2 (e86c870879, 2021-01-15, custom)"><sodipodi:namedview
     pagecolor="#ffffff"
     bordercolor="#666666"
     borderopacity="1"
     objecttolerance="10"
     gridtolerance="10"
     guidetolerance="10"
     inkscape:pageopacity="0"
     inkscape:pageshadow="2"
     inkscape:window-width="1920"
     inkscape:window-height="986"
     id="namedview37"
     showgrid="false"
     inkscape:zoom="0.26544857"
     inkscape:cx="3224.3463"
     inkscape:cy="519.38183"
     inkscape:window-x="-11"
     inkscape:window-y="1285"
     inkscape:window-maximized="1"
     inkscape:current-layer="svg2" /><metadata
     id="metadata8"><rdf:RDF><cc:Work
         rdf:about=""><dc:format>image/svg+xml</dc:format><dc:type
           rdf:resource="http://purl.org/dc/dcmitype/StillImage" /><dc:title></dc:title></cc:Work></rdf:RDF></metadata><defs
     id="defs6"><clipPath
       id="clipPath18"
       clipPathUnits="userSpaceOnUse"><path
         id="path16"
         d="M 0,839.396 H 2814.988 V 0 H 0 Z" /></clipPath></defs><g
     transform="matrix(1.1942397,0,0,-1.1942397,195.19057,1060.8174)"
     id="g10"><g
       id="g12"><g
         clip-path="url(#clipPath18)"
         id="g14"><g
           transform="translate(489.9268,765.8604)"
           id="g20"><path
             id="path22"
             style="fill:#73cad2;fill-opacity:1;fill-rule:nonzero;stroke:none"
             d="M 0,0 C -80.02,0 -135.593,-67.259 -101.74,-147.01 -69.466,-223.052 0,-312.738 0,-312.738 c 0,0 54.264,72.807 96.21,156.369 C 138.015,-73.089 80.014,0 0,0 m -0.844,-158.607 c -31.084,0 -56.286,24.921 -56.286,55.673 0,30.752 25.202,55.674 56.286,55.674 31.085,0 56.284,-24.922 56.284,-55.674 0,-30.752 -25.199,-55.673 -56.284,-55.673" /></g><g
           transform="translate(136.8799,508.9746)"
           id="g24"><path
             id="path26"
             style="fill:#98168b;fill-opacity:1;fill-rule:nonzero;stroke:none"
             d="m 0,0 c -24.728,-75.288 22.773,-148.352 109.906,-141.152 83.083,6.866 190.779,44.51 190.779,44.51 0,0 -53.238,73.55 -120.612,138.826 C 112.926,107.242 24.727,75.275 0,0 m 152.241,-49.817 c -9.61,-29.244 -41.36,-45.239 -70.924,-35.739 -29.564,9.501 -45.743,40.905 -36.139,70.148 9.603,29.256 41.36,45.253 70.925,35.752 29.564,-9.5 45.743,-40.905 36.138,-70.161" /></g><g
           transform="translate(274.7754,97.4453)"
           id="g28"><path
             id="path30"
             style="fill:#f5a92b;fill-opacity:1;fill-rule:nonzero;stroke:none"
             d="m 0,0 c 64.739,-46.518 149.665,-24.41 169.666,59.777 19.072,80.289 16.169,193.236 16.169,193.236 0,0 -87.17,-27.352 -170.752,-70.558 C -68.223,139.375 -64.734,46.531 0,0 M 94.93,127.83 C 120.081,109.762 125.655,74.943 107.381,50.061 89.113,25.189 53.913,19.68 28.762,37.746 3.615,55.826 -1.959,90.646 16.31,115.516 34.583,140.398 69.784,145.91 94.93,127.83" /></g><g
           transform="translate(713.0371,100.0156)"
           id="g32"><path
             id="path34"
             style="fill:#253166;fill-opacity:1;fill-rule:nonzero;stroke:none"
             d="m 0,0 c 64.736,46.518 69.727,133.25 -5.041,178.08 -71.29,42.761 -180.79,74.933 -180.79,74.933 0,0 -0.631,-90.468 15.084,-182.456 C -155.08,-21.111 -64.736,-46.531 0,0 m -93.563,128.801 c 25.156,18.08 60.355,12.57 78.621,-12.313 C 3.335,91.604 -2.249,56.785 -27.391,38.719 -52.546,20.639 -87.745,26.162 -106.01,51.031 c -18.278,24.883 -12.707,59.701 12.447,77.77" /></g><g
           transform="translate(846.0137,513.105)"
           id="g36"><path
             id="path38"
             style="fill:#d24458;fill-opacity:1;fill-rule:nonzero;stroke:none"
             d="m 0,0 c -24.729,75.288 -106.567,106.782 -172.777,50.291 -63.147,-53.858 -127.909,-146.92 -127.909,-146.92 0,0 86.777,-28.553 180.068,-42.197 C -27.624,-152.417 24.729,-75.275 0,0 m -152.754,-48.219 c -9.617,29.243 6.567,60.66 36.13,70.161 29.563,9.501 61.323,-6.509 70.929,-35.752 9.603,-29.243 -6.58,-60.647 -36.143,-70.148 -29.563,-9.5 -61.311,6.496 -70.916,35.739" /></g><g
           transform="translate(1110.3848,277.0391)"
           id="g40"><path
             id="path42"
             style="fill:#2c2e2c;fill-opacity:1;fill-rule:nonzero;stroke:none"
             d="M 0,0 C 19.369,0 21.977,19.369 21.977,53.637 V 72.633 C -0.745,59.597 -17.134,39.11 -17.134,18.624 -17.134,5.214 -10.802,0 0,0 m 21.231,204.117 c -4.469,1.118 -8.939,1.862 -15.271,1.862 -25.701,0 -34.641,-26.073 -34.641,-52.519 0,-23.465 2.608,-49.166 26.819,-49.166 12.292,0 23.093,8.939 23.093,25.701 z M -73.005,8.938 c 0,27.193 14.526,46.934 39.109,64.813 -30.169,4.47 -56.988,33.522 -56.988,78.965 0,64.065 40.228,97.589 97.589,97.589 22.349,0 53.264,-4.843 76.358,-14.9 V 90.512 c 0,-9.684 -0.374,-33.151 -1.118,-43.579 -4.097,-56.991 -31.661,-91.63 -87.904,-91.63 -44.697,0 -67.046,20.486 -67.046,53.635" /></g><g
           transform="translate(1313.3809,483.7637)"
           id="g44"><path
             id="path46"
             style="fill:#2c2e2c;fill-opacity:1;fill-rule:nonzero;stroke:none"
             d="m 0,0 c -18.624,0 -30.916,-18.251 -32.033,-43.952 20.113,1.117 46.559,10.429 46.559,28.681 C 14.526,-5.959 8.939,0 0,0 m 68.535,-14.526 c 0,-54.01 -61.086,-64.811 -97.589,-67.046 1.491,-16.761 14.155,-30.543 36.875,-30.543 17.879,0 34.269,7.822 46.188,15.644 l 16.388,-40.972 c -1.862,-1.863 -29.797,-21.232 -71.515,-21.232 -65.556,0 -91.257,39.483 -91.257,96.099 0,54.009 32.033,106.156 95.727,106.156 39.11,0 65.183,-18.997 65.183,-58.106" /></g><g
           transform="translate(1507.0645,425.2852)"
           id="g48"><path
             id="path50"
             style="fill:#2c2e2c;fill-opacity:1;fill-rule:nonzero;stroke:none"
             d="m 0,0 c 0,37.992 -6.333,57.361 -25.329,57.361 -17.506,0 -25.328,-19.741 -25.328,-50.656 0,-32.034 3.352,-61.459 25.328,-61.459 C -7.077,-54.754 0,-36.503 0,0 m -22.722,102.059 c 29.798,0 87.16,-8.94 87.16,-96.472 0,-70.025 -40.972,-105.783 -92.375,-105.783 -53.263,0 -86.042,32.033 -86.042,99.823 0,78.22 50.658,102.432 91.257,102.432" /></g><g
           transform="translate(1599.0635,331.0488)"
           id="g52"><path
             id="path54"
             style="fill:#2c2e2c;fill-opacity:1;fill-rule:nonzero;stroke:none"
             d="m 0,0 v 152.342 l -4.47,38.366 h 51.402 l 4.097,-20.114 c 11.547,15.644 26.819,25.701 51.402,25.701 21.603,0 39.11,-7.45 49.167,-24.584 11.174,15.271 27.19,24.584 51.029,24.584 36.503,0 58.853,-20.486 58.853,-65.929 V 0 h -62.206 v 119.564 c 0,16.762 -2.234,29.054 -17.133,29.054 -14.527,0 -20.487,-11.547 -20.487,-27.564 V 0 H 99.451 v 119.564 c 0,16.39 -1.49,29.054 -16.762,29.054 -14.898,0 -20.486,-11.547 -20.486,-27.936 L 62.203,0 Z" /></g><g
           transform="translate(1999.4736,480.7837)"
           id="g56"><path
             id="path58"
             style="fill:#2c2e2c;fill-opacity:1;fill-rule:nonzero;stroke:none"
             d="m 0,0 c -4.098,1.49 -10.43,2.607 -17.135,2.607 -24.211,0 -32.405,-29.053 -32.405,-61.086 0,-28.68 5.215,-52.519 26.818,-52.519 14.527,0 22.722,10.43 22.722,21.231 z m 61.83,-109.508 4.098,-40.227 H 13.036 l -2.607,17.506 -2.235,0.373 c -11.174,-17.507 -28.68,-23.467 -48.049,-23.467 -56.989,0 -71.516,45.815 -71.516,92.375 0,65.555 33.15,109.508 100.941,109.508 13.409,0 42.09,-3.352 72.26,-14.899 z" /></g><g
           transform="translate(2162.9863,589.9199)"
           id="g60"><path
             id="path62"
             style="fill:#2c2e2c;fill-opacity:1;fill-rule:nonzero;stroke:none"
             d="m 0,0 v -68.163 h 46.56 v -48.795 H 0 v -75.24 c 0,-20.487 9.685,-25.701 22.349,-25.701 7.077,0 13.781,2.607 20.113,5.96 l 13.409,-39.11 c -11.547,-7.45 -32.033,-13.782 -52.892,-13.782 -63.32,0 -65.927,36.875 -65.927,74.123 V 0 Z" /></g><path
           id="path64"
           style="fill:#2c2e2c;fill-opacity:1;fill-rule:nonzero;stroke:none"
           d="m 2240.457,521.757 h 62.576 V 331.049 h -62.576 z m 31.288,85.297 c 19.741,0 33.151,-13.783 33.151,-30.916 0,-17.879 -13.41,-30.915 -33.151,-30.915 -20.485,0 -33.15,13.036 -33.15,30.915 0,17.133 12.665,30.916 33.15,30.916" /><g
           transform="translate(2469.5254,389.5273)"
           id="g66"><path
             id="path68"
             style="fill:#2c2e2c;fill-opacity:1;fill-rule:nonzero;stroke:none"
             d="m 0,0 21.977,-42.09 c -17.134,-13.409 -40.6,-21.976 -70.026,-21.976 -55.871,0 -90.884,33.896 -90.884,98.706 0,73.751 47.304,103.176 92.001,103.176 26.819,0 54.01,-8.939 73.006,-38.737 L -11.918,66.673 c -8.939,12.292 -18.625,21.976 -32.406,21.976 -20.487,0 -32.033,-18.251 -32.033,-51.401 0,-33.151 12.292,-52.147 37.248,-52.147 13.037,0 23.838,4.097 39.109,14.899" /></g><g
           transform="translate(2611.8125,425.2852)"
           id="g70"><path
             id="path72"
             style="fill:#2c2e2c;fill-opacity:1;fill-rule:nonzero;stroke:none"
             d="m 0,0 c 0,37.992 -6.333,57.361 -25.329,57.361 -17.507,0 -25.328,-19.741 -25.328,-50.656 0,-32.034 3.352,-61.459 25.328,-61.459 C -7.078,-54.754 0,-36.503 0,0 m -22.722,102.059 c 29.798,0 87.16,-8.94 87.16,-96.472 0,-70.025 -40.973,-105.783 -92.375,-105.783 -53.263,0 -86.042,32.033 -86.042,99.823 0,78.22 50.657,102.432 91.257,102.432" /></g></g></g></g></svg>
