<?xml version="1.0" encoding="UTF-8" standalone="no"?>
<svg
   width="944.33679pt"
   height="270.36716pt"
   viewBox="0 0 994.03873 284.59701"
   version="1.1"
   id="svg20"
   xmlns="http://www.w3.org/2000/svg"
   xmlns:svg="http://www.w3.org/2000/svg">
  <defs
     id="defs20" />
  <g
     id="g20"
     transform="translate(-110.55373,-128.30753)">
    <g
       id="#00bec5ff">
      <path
         fill="#00bec5"
         opacity="1"
         d="m 256.05,136.14 c 18.74,-1.86 37.92,-0.15 55.89,5.67 21.92,7.01 42,19.78 57.64,36.63 21.5,22.96 34.66,53.71 35.97,85.14 1.46,24.8 -4.27,50.06 -16.26,71.86 -16.69,30.7 -45.72,54.48 -79.22,64.51 -20.05,6.14 -41.49,7.4 -62.12,3.96 -27.04,-4.45 -52.54,-17.55 -72.06,-36.75 -20.2,-19.77 -34.07,-46.08 -38.62,-74.03 -4.73,-28.21 -0.43,-57.89 12.51,-83.44 16.68,-33.22 47.56,-59.02 83.4,-69.05 7.45,-2.23 15.14,-3.61 22.87,-4.5 m -3.47,14.64 c -39.4,5.54 -74.91,32.11 -91.69,68.13 -16.46,34.17 -15.39,76.11 2.83,109.38 10.87,20.22 27.59,37.23 47.63,48.42 16.36,9.22 34.93,14.5 53.69,15.3 2.79,-0.33 5.8,0.94 8.37,-0.63 3.35,-1.78 3.48,-7.2 0.27,-9.2 -2.92,-1.75 -6.45,-0.51 -9.62,-1.04 -24,-1.4 -47.45,-10.92 -65.56,-26.73 -25.62,-21.77 -40.32,-55.82 -38.25,-89.39 1.04,-22.79 9.65,-45.1 23.88,-62.9 20.55,-26.22 53.53,-42.17 86.86,-41.86 6.03,0.04 6.8,-9.62 0.91,-10.72 -6.46,-0.25 -12.93,0.33 -19.32,1.24 m 16.58,25.73 c -1.42,0.69 -2.77,1.76 -3.4,3.25 -7.17,20.35 -13.64,40.97 -21.05,61.22 -2.2,2.5 -5.6,2.92 -8.54,4.14 -17.72,5.98 -35.42,11.98 -53.11,18.02 -2.81,0.72 -5.07,3.57 -4.76,6.51 -0.05,2.6 1.74,5.17 4.23,5.98 20.17,6.94 40.42,13.64 60.56,20.67 4.06,4.66 4.38,11.27 6.95,16.75 3.56,11.27 7.85,22.33 11.16,33.68 0.43,-0.06 1.3,-0.2 1.73,-0.27 -0.35,0.17 -1.03,0.5 -1.38,0.66 1.23,3.6 2.46,7.2 3.65,10.82 0.76,2.89 3.62,5.4 6.75,4.78 2.55,0.3 4.91,-1.63 5.8,-3.93 6.97,-20.24 13.57,-40.62 20.8,-60.77 l -0.43,-0.65 0.96,0.14 c 2.07,-2.19 5.23,-2.42 7.89,-3.54 17.98,-6.11 35.95,-12.24 53.94,-18.3 2.71,-0.85 4.25,-3.77 4.14,-6.51 -0.17,-2.34 -1.45,-4.7 -3.7,-5.6 -20.43,-7.09 -41.03,-13.72 -61.37,-21.02 -2.97,-3.16 -3.25,-7.73 -4.96,-11.55 -1.75,-5.14 -3.47,-10.32 -5.25,-15.42 -0.25,-0.3 -0.75,-0.9 -1,-1.2 0.08,-0.53 0.23,-1.59 0.3,-2.12 -0.52,0.1 -1.55,0.31 -2.07,0.42 0.39,-0.18 1.15,-0.54 1.53,-0.72 -3.52,-10.59 -7.12,-21.16 -10.77,-31.71 -1.08,-3.46 -5.42,-4.96 -8.6,-3.73 m -48.23,43.28 0.11,1.08 c 3.3,3.11 6.22,6.82 9.86,9.44 l 1.34,-0.39 c -2.79,-3.98 -6.81,-7.17 -10.25,-10.67 l -1.06,0.54 m 90,10.03 c 0.5,0.13 1.49,0.4 1.99,0.53 3.29,-3.08 6.46,-6.31 9.59,-9.56 l 0.03,-1.27 -1.3,-0.05 c -3.51,3.37 -6.99,6.79 -10.31,10.35 m -80.11,79.92 c -3.13,3.25 -6.36,6.41 -9.56,9.59 -0.06,0.49 -0.17,1.47 -0.22,1.96 0.4,-0.13 1.2,-0.4 1.6,-0.53 3.03,-3.08 6.12,-6.11 9.16,-9.19 1.76,-0.5 -0.05,-3.95 -0.98,-1.83 m 80.22,-0.83 c -0.02,0.48 -0.06,1.44 -0.08,1.92 3.76,3.46 7.01,7.65 11.13,10.61 l 0.62,-1.43 c -3.26,-3.64 -6.89,-6.94 -10.27,-10.47 -0.35,-0.16 -1.05,-0.47 -1.4,-0.63 z"
         id="path1" />
      <path
         fill="#00bec5"
         opacity="1"
         d="m 268.64,270.57 c 2.19,-1.99 4.15,-5.53 7.59,-4.8 0.5,4.42 -4.17,7.22 -7.36,9.46 -2.72,0.04 -1.77,-3.6 -0.23,-4.66 z"
         id="path2" />
    </g>
    <g
       id="#ffffffff">
      <path
         fill="#ffffff"
         opacity="1"
         d="m 252.58,150.78 c 6.39,-0.91 12.86,-1.49 19.32,-1.24 5.89,1.1 5.12,10.76 -0.91,10.72 -33.33,-0.31 -66.31,15.64 -86.86,41.86 -14.23,17.8 -22.84,40.11 -23.88,62.9 -2.07,33.57 12.63,67.62 38.25,89.39 18.11,15.81 41.56,25.33 65.56,26.73 3.17,0.53 6.7,-0.71 9.62,1.04 3.21,2 3.08,7.42 -0.27,9.2 -2.57,1.57 -5.58,0.3 -8.37,0.63 -18.76,-0.8 -37.33,-6.08 -53.69,-15.3 -20.04,-11.19 -36.76,-28.2 -47.63,-48.42 -18.22,-33.27 -19.29,-75.21 -2.83,-109.38 16.78,-36.02 52.29,-62.59 91.69,-68.13 z"
         id="path3" />
      <path
         fill="#ffffff"
         opacity="1"
         d="m 265.76,179.76 c 0.63,-1.49 1.98,-2.56 3.4,-3.25 0.55,0.24 1.65,0.71 2.21,0.95 -0.05,10.24 -0.01,20.48 0,30.72 -0.03,1.81 -0.23,3.72 0.66,5.38 -0.28,1.07 -0.78,2.11 -0.69,3.25 0.14,14.52 -0.21,29.05 0.15,43.56 2.61,0.86 5.1,2 7.48,3.37 3.73,-3.16 7.6,-6.25 10.54,-10.21 3.56,-3.59 7.79,-6.59 10.47,-10.99 20.34,7.3 40.94,13.93 61.37,21.02 2.25,0.9 3.53,3.26 3.7,5.6 -16.4,0.54 -32.83,0.06 -49.23,0.26 -0.86,-0.01 -1.59,0.45 -2.34,0.77 -2.05,-1.29 -4.51,-0.6 -6.78,-0.8 -1.42,0.11 -3.26,-0.6 -4.2,0.86 -3.38,-1.63 -7.52,-1.06 -11.08,-0.25 -3.32,-1.11 -6.88,-0.41 -10.3,-0.91 -0.18,2.98 -0.43,6.07 -3.09,7.93 1.05,3 3.92,5.08 6.39,6.99 4.52,4.49 8.46,9.63 13.7,13.36 l 0.43,0.65 c -7.23,20.15 -13.83,40.53 -20.8,60.77 -0.89,2.3 -3.25,4.23 -5.8,3.93 -0.25,-27.68 0.22,-55.38 -0.18,-83.05 -2.6,-0.69 -6.86,-0.32 -7.49,-3.69 -0.27,-0.03 -0.81,-0.08 -1.07,-0.1 -2.74,2.36 -4.69,5.5 -7.63,7.62 -4.28,4.15 -7.94,8.92 -12.49,12.8 -20.14,-7.03 -40.39,-13.73 -60.56,-20.67 -2.49,-0.81 -4.28,-3.38 -4.23,-5.98 14.31,0.17 28.62,0.14 42.93,0.11 0.94,0.17 1.7,-0.35 2.34,-0.98 1.59,1.4 3.77,0.94 5.71,0.99 1.77,-0.14 3.8,0.45 5.23,-0.93 0.87,0.45 1.72,1.04 2.77,0.89 7.99,-0.07 15.99,0 23.98,0 1.36,-2.7 3.05,-5.2 4.54,-7.82 -4.03,-4.39 -8.18,-9.01 -12.89,-12.85 -2.26,-3.19 -5.69,-5.15 -8.2,-8.08 7.41,-20.25 13.88,-40.87 21.05,-61.22 m 2.88,90.81 c -1.54,1.06 -2.49,4.7 0.23,4.66 3.19,-2.24 7.86,-5.04 7.36,-9.46 -3.44,-0.73 -5.4,2.81 -7.59,4.8 z"
         id="path4" />
      <path
         fill="#ffffff"
         opacity="1"
         d="m 220.93,219.79 1.06,-0.54 c 3.44,3.5 7.46,6.69 10.25,10.67 l -1.34,0.39 c -3.64,-2.62 -6.56,-6.33 -9.86,-9.44 z"
         id="path5" />
      <path
         fill="#ffffff"
         opacity="1"
         d="m 310.93,229.82 c 3.32,-3.56 6.8,-6.98 10.31,-10.35 l 1.3,0.05 -0.03,1.27 c -3.13,3.25 -6.3,6.48 -9.59,9.56 -0.5,-0.13 -1.49,-0.4 -1.99,-0.53 z"
         id="path6" />
      <path
         fill="#ffffff"
         opacity="1"
         d="m 230.82,309.74 c 0.93,-2.12 2.74,1.33 0.98,1.83 -3.04,3.08 -6.13,6.11 -9.16,9.19 -0.4,0.13 -1.2,0.4 -1.6,0.53 0.05,-0.49 0.16,-1.47 0.22,-1.96 3.2,-3.18 6.43,-6.34 9.56,-9.59 z"
         id="path7" />
      <path
         fill="#ffffff"
         opacity="1"
         d="m 311.04,308.91 c 0.35,0.16 1.05,0.47 1.4,0.63 3.38,3.53 7.01,6.83 10.27,10.47 l -0.62,1.43 c -4.12,-2.96 -7.37,-7.15 -11.13,-10.61 0.02,-0.48 0.06,-1.44 0.08,-1.92 z"
         id="path8" />
    </g>
    <g
       id="#383836ff">
      <path
         fill="#383836"
         opacity="1"
         d="m 891.77,153.01 c 7.99,0 15.99,-0.06 23.99,0.03 -0.01,21.14 -0.03,42.28 0.01,63.42 11.01,0.05 22.03,0.07 33.05,-0.01 0.4,8.14 0.08,16.36 0.17,24.54 -11.08,0.04 -22.15,-0.02 -33.22,0.03 -0.04,22.98 -0.01,45.97 -0.02,68.95 -0.18,11.51 0.36,23.18 -0.27,34.59 -7.9,-0.15 -15.82,0.02 -23.72,-0.09 -0.02,-34.47 -0.02,-68.95 0,-103.42 -11.58,-0.13 -23.17,0 -34.75,-0.06 0.09,-8.18 -0.25,-16.41 0.18,-24.54 11.52,0.07 23.05,0.09 34.58,-0.01 -0.04,-21.14 -0.04,-42.29 0,-63.43 z"
         id="path9" />
      <path
         fill="#383836"
         opacity="1"
         d="m 460.77,216.77 c 7.65,-0.04 15.31,-0.05 22.97,0.01 0.03,42.47 0,84.94 0.01,127.41 -7.65,0.13 -15.32,0.05 -22.98,0.04 -0.05,-42.48 -0.03,-84.97 0,-127.46 z"
         id="path10" />
      <path
         fill="#383836"
         opacity="1"
         d="m 539.13,221.25 c 15.95,-6.08 34.37,-5.64 49.85,1.69 4.35,1.88 8.11,4.8 12.28,6.99 -3.54,7.34 -7.29,14.58 -10.64,22.01 -1.6,-0.36 -2.73,-1.76 -4.08,-2.61 -8.12,-6.79 -19.22,-9.71 -29.65,-8.16 -10.83,1.42 -20.9,7.61 -27.17,16.53 -5.83,8.04 -8.35,18.38 -6.97,28.19 1.71,12.92 10.16,24.82 22,30.36 14.72,7.58 34.23,4.32 45.49,-7.87 3.96,7.29 7.23,15.04 10.82,22.55 -0.4,1.33 -2.34,0.93 -3.16,1.93 -12.58,9.14 -28.66,13.03 -44.04,10.96 -13.31,-1.66 -26.03,-7.68 -35.73,-16.94 -10.98,-10.4 -18.07,-24.86 -19.41,-39.94 -1.25,-12.91 1.24,-26.26 7.71,-37.57 7.11,-12.87 18.97,-22.92 32.7,-28.12 z"
         id="path11" />
      <path
         fill="#383836"
         opacity="1"
         d="m 710.75,216.53 c 7.78,3.02 15.48,6.25 23.24,9.32 -0.07,39.56 0.19,79.15 -0.13,118.7 -7.7,-0.24 -15.49,0.27 -23.13,-0.25 0.03,-4.59 0.01,-9.17 0.01,-13.75 -10.53,8.71 -24.01,14.11 -37.75,13.95 -13.64,0.51 -27.29,-4.25 -38,-12.63 -10.6,-8.23 -18.35,-19.98 -21.93,-32.9 -3.95,-14.41 -3.11,-30.23 2.98,-43.94 5.4,-12.32 14.76,-22.92 26.54,-29.48 21.17,-12.35 49.77,-9.66 68.24,6.47 -0.16,-5.17 -0.04,-10.33 -0.07,-15.49 m -43.34,25.04 c -15.24,1.81 -28.47,13.51 -32.68,28.18 -5.01,16.01 1.55,34.64 15.27,44.23 8.24,5.98 18.96,8.47 28.95,6.48 12.35,-2.26 23.08,-11.06 28.26,-22.43 7.67,-15.91 3.01,-36.46 -10.65,-47.62 -7.94,-6.8 -18.77,-10.18 -29.15,-8.84 z"
         id="path12" />
      <path
         fill="#383836"
         opacity="1"
         d="m 811.6,222.5 c 9.06,-3.85 19.18,-5.67 28.96,-5.02 -0.14,7.91 0,15.83 -0.08,23.75 -17.56,0.35 -35.4,9.98 -43.69,25.76 -3.29,6.46 -4.76,13.77 -4.54,20.99 0.01,18.75 -0.02,37.49 0.02,56.24 -8.11,0.66 -16.53,0.12 -24.75,0.26 -0.04,-41.98 -0.04,-83.98 0,-125.96 7.9,0.04 15.85,-0.19 23.74,0.1 -0.04,7.24 0.04,14.47 -0.05,21.71 4.86,-7.79 11.88,-14.23 20.39,-17.83 z"
         id="path13" />
      <path
         fill="#383836"
         opacity="1"
         d="m 1008.53,217.76 c 20.83,-3.49 42.95,5.14 56.28,21.46 15.62,18.27 19.23,45.45 9.67,67.39 -7.93,18.75 -25.45,33.26 -45.61,36.75 -15.22,2.74 -31.52,-0.3 -44.44,-8.9 -10.49,-6.8 -18.82,-16.83 -23.63,-28.35 -5.91,-14 -6.66,-30.09 -2.2,-44.61 6.61,-22.43 26.63,-40.45 49.93,-43.74 m -0.01,23.92 c -10.16,2.5 -19.11,9.3 -24.37,18.32 -7.05,11.66 -7.6,26.98 -1.26,39.06 6.49,13.44 21.22,22.44 36.18,21.76 12.44,-0.25 24.41,-7.23 31.15,-17.63 6.48,-9.59 8.49,-22.05 5.35,-33.19 -2.83,-10.73 -10.35,-20.12 -20.22,-25.19 -8.18,-4.25 -17.9,-5.45 -26.83,-3.13 z"
         id="path14" />
    </g>
    <g
       id="#ccf2f3ff">
      <path
         fill="#ccf2f3"
         opacity="1"
         d="m 269.16,176.51 c 3.18,-1.23 7.52,0.27 8.6,3.73 3.65,10.55 7.25,21.12 10.77,31.71 -0.38,0.18 -1.14,0.54 -1.53,0.72 0.52,-0.11 1.55,-0.32 2.07,-0.42 -0.07,0.53 -0.22,1.59 -0.3,2.12 0.25,0.3 0.75,0.9 1,1.2 1.78,5.1 3.5,10.28 5.25,15.42 1.71,3.82 1.99,8.39 4.96,11.55 -2.68,4.4 -6.91,7.4 -10.47,10.99 -2.94,3.96 -6.81,7.05 -10.54,10.21 -2.38,-1.37 -4.87,-2.51 -7.48,-3.37 -0.36,-14.51 -0.01,-29.04 -0.15,-43.56 -0.09,-1.14 0.41,-2.18 0.69,-3.25 -0.89,-1.66 -0.69,-3.57 -0.66,-5.38 -0.01,-10.24 -0.05,-20.48 0,-30.72 -0.56,-0.24 -1.66,-0.71 -2.21,-0.95 z"
         id="path15" />
      <path
         fill="#ccf2f3"
         opacity="1"
         d="m 236.17,245.12 c 2.94,-1.22 6.34,-1.64 8.54,-4.14 2.51,2.93 5.94,4.89 8.2,8.08 4.71,3.84 8.86,8.46 12.89,12.85 -1.49,2.62 -3.18,5.12 -4.54,7.82 -7.99,0 -15.99,-0.07 -23.98,0 -1.05,0.15 -1.9,-0.44 -2.77,-0.89 -1.43,1.38 -3.46,0.79 -5.23,0.93 -1.94,-0.05 -4.12,0.41 -5.71,-0.99 -0.64,0.63 -1.4,1.15 -2.34,0.98 -14.31,0.03 -28.62,0.06 -42.93,-0.11 -0.31,-2.94 1.95,-5.79 4.76,-6.51 17.69,-6.04 35.39,-12.04 53.11,-18.02 z"
         id="path16" />
      <path
         fill="#ccf2f3"
         opacity="1"
         d="m 281.12,269.09 c 3.42,0.5 6.98,-0.2 10.3,0.91 3.56,-0.81 7.7,-1.38 11.08,0.25 0.94,-1.46 2.78,-0.75 4.2,-0.86 2.27,0.2 4.73,-0.49 6.78,0.8 0.75,-0.32 1.48,-0.78 2.34,-0.77 16.4,-0.2 32.83,0.28 49.23,-0.26 0.11,2.74 -1.43,5.66 -4.14,6.51 -17.99,6.06 -35.96,12.19 -53.94,18.3 -2.66,1.12 -5.82,1.35 -7.89,3.54 l -0.96,-0.14 c -5.24,-3.73 -9.18,-8.87 -13.7,-13.36 -2.47,-1.91 -5.34,-3.99 -6.39,-6.99 2.66,-1.86 2.91,-4.95 3.09,-7.93 z"
         id="path17" />
      <path
         fill="#ccf2f3"
         opacity="1"
         d="m 255.58,283.5 c 2.94,-2.12 4.89,-5.26 7.63,-7.62 0.26,0.02 0.8,0.07 1.07,0.1 0.63,3.37 4.89,3 7.49,3.69 0.4,27.67 -0.07,55.37 0.18,83.05 -3.13,0.62 -5.99,-1.89 -6.75,-4.78 -1.19,-3.62 -2.42,-7.22 -3.65,-10.82 0.35,-0.16 1.03,-0.49 1.38,-0.66 -0.43,0.07 -1.3,0.21 -1.73,0.27 -3.31,-11.35 -7.6,-22.41 -11.16,-33.68 -2.57,-5.48 -2.89,-12.09 -6.95,-16.75 4.55,-3.88 8.21,-8.65 12.49,-12.8 m 6.58,40.7 0.03,0.67 0.67,-0.02 -0.03,-0.68 -0.67,0.03 m 0.02,10.93 v 0.68 h 0.68 v -0.68 z"
         id="path18" />
    </g>
    <g
       id="#69d3d7ff">
      <path
         fill="#69d3d7"
         opacity="1"
         d="m 262.16,324.2 0.67,-0.03 0.03,0.68 -0.67,0.02 z"
         id="path19" />
      <path
         fill="#69d3d7"
         opacity="1"
         d="m 262.18,335.13 h 0.68 v 0.68 h -0.68 z"
         id="path20" />
    </g>
  </g>
</svg>
