<?xml version="1.0" encoding="UTF-8" standalone="no"?>
<svg
   width="400pt"
   height="163pt"
   viewBox="0 0 400 163"
   version="1.1"
   id="svg20"
   xmlns="http://www.w3.org/2000/svg"
   xmlns:svg="http://www.w3.org/2000/svg">
  <defs
     id="defs20" />
  <path
     fill="#a50017"
     opacity="1"
     d="m 98.34,45.35 c 5.83,-5.78 14.68,-4 21.97,-3 0.06,4.31 -0.55,8.59 -1.19,12.83 -3,-0.27 -5.97,-3.11 -8.9,-0.99 -2.84,2.8 -1.92,7.16 -2.12,10.75 3.71,0.07 7.41,0.16 11.11,0.21 0.14,3.89 0.14,7.79 0,11.68 -3.71,-0.04 -7.42,-0.05 -11.12,-0.06 -0.36,13.31 -0.07,26.62 -0.26,39.92 -4.79,-0.16 -9.6,0.15 -14.38,-0.17 l -0.44,-0.49 c -0.19,-13.12 -0.1,-26.26 0.1,-39.38 -3.25,0.03 -6.5,0.06 -9.73,-0.24 0.2,-3.85 0.19,-7.71 0.29,-11.57 3.15,-0.02 6.29,-0.01 9.44,-0.01 -0.09,-6.7 -0.35,-14.68 5.23,-19.48 z"
     id="path1" />
  <path
     fill="#a50017"
     opacity="1"
     d="m 11.49,43.69 c 4.3,-1.45 9.64,-0.16 11.79,4.11 2.79,4.98 -0.66,12.05 -6.4,12.65 C 11.74,61.62 6.16,57.43 6.19,52.1 5.78,48.44 8.37,45.21 11.49,43.69 Z"
     id="path2" />
  <path
     fill="#a50017"
     opacity="1"
     d="m 271.58,46.5 c 3.1,-2.91 7.69,-3.08 11.7,-2.69 0.02,22.73 -0.19,45.46 -0.07,68.2 -0.01,1.96 0.03,3.93 -0.24,5.88 -4.82,0.45 -9.69,0.07 -14.51,-0.15 -0.22,-20.91 -0.03,-41.83 0.11,-62.73 0,-3.05 0.56,-6.43 3.01,-8.51 z"
     id="path3" />
  <path
     fill="#a50017"
     opacity="1"
     d="m 45.68,70.08 c 5.87,-6.96 16.69,-8.39 24.71,-4.62 6.48,3.16 8.86,10.85 9,17.58 0.06,11.12 0.02,22.24 -0.02,33.35 -4.99,0 -9.98,0.01 -14.97,-0.1 0.17,-10.07 0.33,-20.15 -0.05,-30.22 -0.23,-3.39 -0.52,-7.74 -3.99,-9.46 -3.19,-2.01 -7.28,-0.42 -9.75,1.99 -3.07,3.7 -3.77,8.75 -3.83,13.4 -0.01,8.06 -0.03,16.12 0,24.17 -4.91,0.08 -9.82,0.02 -14.73,-0.02 -0.33,-17.11 0.16,-34.23 0.13,-51.34 5.05,-0.58 10.79,0.49 13.5,5.27 z"
     id="path4" />
  <path
     fill="#a50017"
     opacity="1"
     d="m 143.97,65.86 c 3.45,-2.07 7.65,-1.62 11.46,-1.08 -0.23,5.03 0.38,10.11 -0.35,15.1 -3.41,-0.46 -7.13,-2.02 -10.4,-0.17 -3.75,2.32 -4.82,7.06 -5.31,11.14 -0.96,8.66 -0.26,17.38 -0.52,26.07 -4.86,-0.11 -9.72,-0.06 -14.58,-0.08 -0.09,-15.6 -0.03,-31.2 0.08,-46.8 0.25,-1.39 -0.53,-3.27 0.62,-4.33 5.02,-0.8 11.22,0.44 13.15,5.79 1.61,-2.19 3.41,-4.34 5.85,-5.64 z"
     id="path5" />
  <path
     fill="#a50017"
     opacity="1"
     d="m 8.43,69.4 c 2.44,-4.45 8.82,-5.76 13.1,-4.07 0.17,16.86 -0.09,33.75 0.07,50.62 -4.85,0.27 -9.72,0.09 -14.58,0.13 C 6.95,103.38 7.14,90.68 7.07,77.98 7.14,75.1 6.8,71.95 8.43,69.4 Z"
     id="path6" />
  <path
     fill="#a50017"
     opacity="1"
     d="m 161.69,68.15 c 8.81,-3.49 18.69,-4.8 27.96,-2.52 5.21,1.24 9.58,5.35 11.17,10.47 2.07,6.49 1.08,13.39 1.53,20.08 0.07,7.07 0.24,14.15 0.53,21.22 -4.41,0.03 -8.83,-0.11 -13.24,0 -0.16,-1.85 -0.29,-3.71 -0.39,-5.56 -7.06,8.57 -21.4,8.73 -29.12,1.01 -4.42,-4.29 -4.69,-11.19 -2.93,-16.75 1.92,-5.8 7.81,-9.27 13.56,-10.3 5.83,-1.06 11.81,-1.33 17.73,-0.93 -0.49,-2.99 -1.3,-6.73 -4.62,-7.76 -7.24,-2.55 -15.23,0.33 -21.07,4.81 -1.9,-4.28 -0.8,-9.21 -1.11,-13.77 m 11.44,28.96 c -2.76,1.79 -3.55,6.34 -0.64,8.38 3.58,2.31 8.77,1.76 11.92,-1.09 2.85,-2.41 3.61,-6.26 4.09,-9.77 -5.16,0.01 -10.84,-0.49 -15.37,2.48 z"
     id="path7" />
  <path
     fill="#a50017"
     opacity="1"
     d="m 224.82,71.99 c 7.48,-10.54 25.87,-9.05 32.42,1.81 4.78,7.48 4.9,16.86 3.97,25.4 -0.96,8.17 -6.07,16.38 -14.25,18.84 -7.27,1.69 -15.89,1.34 -21.28,-4.53 0.13,8.04 0,16.08 -0.01,24.11 -4.88,-0.08 -9.75,-0.12 -14.62,-0.01 0.13,-23.81 -0.13,-47.63 0.17,-71.44 3.13,0.08 6.47,-0.15 9.35,1.33 1.91,0.95 2.98,2.89 4.25,4.49 m 9.58,5.47 c -5.16,1.32 -7.5,6.99 -8.16,11.78 -0.52,5.31 0.27,11.38 4.22,15.3 3.56,3.5 10.1,2.98 12.75,-1.37 4.03,-6.44 3.91,-15.08 0.39,-21.72 -1.68,-3.21 -5.7,-5.07 -9.2,-3.99 z"
     id="path8" />
  <path
     fill="#a50017"
     opacity="1"
     d="m 295.18,69.22 c 8.52,-3.62 18.19,-4.66 27.26,-2.72 5.54,1.12 10.15,5.52 11.82,10.88 1.91,5.69 0.96,11.76 1.24,17.64 -0.02,7.8 0.42,15.57 0.94,23.35 -4.52,0.11 -9.04,0.06 -13.55,0.01 -0.16,-1.79 -0.29,-3.57 -0.41,-5.36 -7.22,8.34 -21.61,8.56 -29.15,0.6 -6.66,-6.91 -4.49,-19.86 3.94,-24.39 7.57,-4 16.46,-3.36 24.74,-3.33 -0.7,-2.87 -1.24,-6.47 -4.4,-7.68 -7.53,-3.06 -15.67,0.46 -21.92,4.77 -0.61,-4.56 -0.59,-9.18 -0.51,-13.77 m 11.01,29.02 c -2.59,1.85 -3.31,6.02 -0.64,8.14 3.96,2.76 10.03,1.89 13.13,-1.82 2.27,-2.38 2.6,-5.82 3.35,-8.88 -5.31,0.07 -11.27,-0.77 -15.84,2.56 z"
     id="path9" />
  <path
     fill="#a50017"
     opacity="1"
     d="m 358.08,72.52 c 2.82,-2.73 6.01,-5.44 10.02,-6.09 6.04,-0.91 13.21,-1.08 17.9,3.52 4.52,3.98 5.96,10.23 5.88,16.03 0.02,10.92 0.07,21.85 -0.05,32.77 -4.86,-0.09 -9.73,-0.1 -14.6,-0.04 -0.29,-9.57 0.05,-19.15 -0.17,-28.72 -0.28,-3.49 -0.23,-7.53 -2.79,-10.26 -3.17,-3.01 -8.53,-1.94 -11.18,1.23 -2.36,2.9 -3.5,6.66 -3.71,10.36 -0.31,8.88 0.19,17.79 -0.28,26.67 l -0.4,0.51 c -4.77,0.19 -9.55,0.12 -14.31,-0.13 0.38,-17.11 0.02,-34.23 0.27,-51.34 3.04,0.2 6.31,-0.26 9.12,1.2 1.9,0.87 3.05,2.7 4.3,4.29 z"
     id="path10" />
</svg>
