<?xml version="1.0" encoding="UTF-8" standalone="no"?>
<!-- Created with Inkscape (http://www.inkscape.org/) -->

<svg
   width="95.957901mm"
   height="108.08176mm"
   viewBox="0 0 47.978951 54.040878"
   version="1.1"
   id="svg1"
   inkscape:version="1.4 (e7c3feb100, 2024-10-09)"
   sodipodi:docname="logo_geocamp_sotm_2025_web.svg"
   xmlns:inkscape="http://www.inkscape.org/namespaces/inkscape"
   xmlns:sodipodi="http://sodipodi.sourceforge.net/DTD/sodipodi-0.dtd"
   xmlns="http://www.w3.org/2000/svg"
   xmlns:svg="http://www.w3.org/2000/svg">
  <path
     d="m 4.8459356,29.830931 q -1.2235472,0 -1.773582,0.684737 -0.5388096,0.673512 -0.5388096,1.852158 0,0.572485 0.1347024,1.043943 0.1347024,0.460234 0.4041072,0.79699 0.2694048,0.336756 0.673512,0.527584 0.404107,0.179603 0.942917,0.179603 0.291855,0 0.493909,-0.01122 0.213278,-0.01123 0.370431,-0.0449 v -2.705273 h 1.751131 v 3.850244 q -0.314305,0.123477 -1.010268,0.258179 -0.695962,0.145928 -1.717455,0.145928 -0.8755658,0 -1.5939786,-0.269405 -0.7071876,-0.269405 -1.2123215,-0.785764 -0.505134,-0.516359 -0.78576396,-1.268448 -0.2694048,-0.752088 -0.2694048,-1.717455 0,-0.976593 0.30308036,-1.728681 0.3030804,-0.752088 0.8306648,-1.268447 0.5275843,-0.527585 1.2347719,-0.79699 0.7184128,-0.269404 1.5266268,-0.269404 0.550035,0 0.987818,0.07858 0.449008,0.06735 0.763314,0.168378 0.32553,0.0898 0.527584,0.190828 0.213279,0.101027 0.30308,0.157153 l -0.505134,1.40315 q -0.359206,-0.190838 -0.830664,-0.325541 -0.460234,-0.145927 -1.010268,-0.145927 z m 2.991509,3.524712 q 0,-0.785764 0.23573,-1.369474 0.246954,-0.594936 0.639836,-0.987817 0.392882,-0.392882 0.898016,-0.594936 0.5163594,-0.202054 1.0551694,-0.202054 1.257222,0 1.98686,0.774539 0.729638,0.763314 0.729638,2.256265 0,0.145928 -0.01122,0.325531 -0.01122,0.168378 -0.02245,0.30308 H 9.5549066 q 0.05613,0.51636 0.4826834,0.81944 0.426558,0.30308 1.144971,0.30308 0.460233,0 0.898016,-0.07858 0.449008,-0.0898 0.729638,-0.213279 l 0.224504,1.358249 q -0.134703,0.06735 -0.359207,0.134703 -0.224504,0.06735 -0.505134,0.112252 -0.269404,0.05613 -0.58371,0.0898 -0.314306,0.03368 -0.628611,0.03368 -0.796989,0 -1.3919254,-0.235729 -0.58371,-0.235729 -0.976592,-0.639837 -0.381657,-0.415332 -0.572485,-0.976592 -0.179604,-0.56126 -0.179604,-1.212322 z m 3.9288204,-0.639836 q -0.01122,-0.213279 -0.07858,-0.415332 -0.05613,-0.202054 -0.190829,-0.359207 -0.123477,-0.157153 -0.32553,-0.258179 -0.190829,-0.101027 -0.482684,-0.101027 -0.28063,0 -0.482684,0.101027 -0.202053,0.0898 -0.3367564,0.246954 -0.134702,0.157153 -0.213278,0.370432 -0.06735,0.202053 -0.101027,0.415332 z m 7.728544,0.58371 q 0,0.695963 -0.202053,1.279673 -0.202054,0.572485 -0.583711,0.987818 -0.381656,0.404107 -0.920466,0.628611 -0.527584,0.224504 -1.189871,0.224504 -0.651062,0 -1.189871,-0.224504 -0.527585,-0.224504 -0.909242,-0.628611 -0.381656,-0.415333 -0.594935,-0.987818 -0.213279,-0.58371 -0.213279,-1.279673 0,-0.695962 0.213279,-1.268447 0.224504,-0.572485 0.606161,-0.976593 0.392882,-0.404107 0.920466,-0.628611 0.53881,-0.224504 1.167421,-0.224504 0.639836,0 1.167421,0.224504 0.538809,0.224504 0.920466,0.628611 0.381657,0.404108 0.594935,0.976593 0.213279,0.572485 0.213279,1.268447 z m -1.70623,0 q 0,-0.774538 -0.314306,-1.212321 -0.30308,-0.449008 -0.875565,-0.449008 -0.572485,0 -0.886791,0.449008 -0.314306,0.437783 -0.314306,1.212321 0,0.774539 0.314306,1.234772 0.314306,0.449008 0.886791,0.449008 0.572485,0 0.875565,-0.449008 0.314306,-0.460233 0.314306,-1.234772 z m 5.95497,3.120606 q -1.897059,0 -2.896102,-1.055169 -0.987817,-1.055169 -0.987817,-2.997128 0,-0.965367 0.30308,-1.717456 0.30308,-0.763313 0.830665,-1.279672 0.527584,-0.527585 1.257222,-0.79699 0.729638,-0.269404 1.582753,-0.269404 0.493909,0 0.898016,0.07858 0.404107,0.06735 0.707188,0.168378 0.30308,0.0898 0.505134,0.190828 0.202053,0.101027 0.291855,0.157153 l -0.505134,1.414375 q -0.359206,-0.190828 -0.84189,-0.32553 -0.471458,-0.134703 -1.077619,-0.134703 -0.404107,0 -0.796989,0.134703 -0.381657,0.134702 -0.684737,0.437782 -0.291856,0.291856 -0.471459,0.763314 -0.179603,0.471458 -0.179603,1.14497 0,0.53881 0.112252,1.010268 0.123477,0.460233 0.381657,0.796989 0.269405,0.336756 0.695962,0.53881 0.426558,0.190828 1.032718,0.190828 0.381657,0 0.684738,-0.0449 0.30308,-0.0449 0.538809,-0.101027 0.235729,-0.06735 0.415333,-0.145928 0.179603,-0.07858 0.32553,-0.145927 l 0.482684,1.40315 q -0.370432,0.224504 -1.043944,0.404107 -0.673512,0.179603 -1.560302,0.179603 z m 5.281466,-1.324574 q 0.246954,0 0.471458,-0.01122 0.224504,-0.01123 0.359207,-0.03368 v -1.268448 q -0.101027,-0.02245 -0.303081,-0.0449 -0.202053,-0.02245 -0.370431,-0.02245 -0.23573,0 -0.449008,0.03368 -0.202054,0.02245 -0.359207,0.101027 -0.157153,0.07858 -0.246954,0.213279 -0.0898,0.134702 -0.0898,0.336756 0,0.392882 0.25818,0.550035 0.269405,0.145927 0.729638,0.145927 z m -0.134703,-4.894187 q 0.740864,0 1.234772,0.168378 0.493909,0.168378 0.785764,0.482684 0.303081,0.314305 0.426558,0.763313 0.123477,0.449008 0.123477,0.999043 v 3.479812 q -0.359206,0.07858 -0.999043,0.179603 -0.639836,0.112252 -1.549077,0.112252 -0.572485,0 -1.043944,-0.101026 -0.460233,-0.101027 -0.796989,-0.325531 -0.336756,-0.235729 -0.516359,-0.606161 -0.179603,-0.370432 -0.179603,-0.909241 0,-0.516359 0.202053,-0.875566 0.213279,-0.359206 0.56126,-0.572485 0.347981,-0.213279 0.796989,-0.30308 0.449008,-0.101027 0.931692,-0.101027 0.325531,0 0.572485,0.03368 0.25818,0.02245 0.415333,0.06735 v -0.157153 q 0,-0.426558 -0.25818,-0.684737 -0.25818,-0.25818 -0.898016,-0.25818 -0.426558,0 -0.84189,0.06735 -0.415332,0.05613 -0.718413,0.168378 l -0.213279,-1.347026 q 0.145928,-0.0449 0.359207,-0.0898 0.224504,-0.05613 0.482683,-0.0898 0.25818,-0.0449 0.53881,-0.06735 0.291855,-0.03368 0.58371,-0.03368 z m 6.628471,2.929777 q 0,-0.808214 -0.213278,-1.14497 -0.202054,-0.336756 -0.707188,-0.336756 -0.157153,0 -0.325531,0.02245 -0.168378,0.01123 -0.325531,0.03368 v 4.557431 h -1.672554 v -5.702401 q 0.213278,-0.05613 0.493908,-0.112252 0.291856,-0.06735 0.606161,-0.112252 0.325531,-0.05613 0.662287,-0.07858 0.336756,-0.03368 0.662287,-0.03368 0.639836,0 1.032718,0.168378 0.404107,0.157153 0.662287,0.381657 0.359206,-0.25818 0.819439,-0.404108 0.471459,-0.145927 0.864341,-0.145927 0.707187,0 1.156195,0.202053 0.460234,0.190829 0.729638,0.550035 0.269405,0.359206 0.370432,0.853115 0.101027,0.493909 0.101027,1.10007 v 3.333884 h -1.672555 v -3.131831 q 0,-0.808214 -0.213279,-1.14497 -0.202053,-0.336756 -0.707187,-0.336756 -0.134703,0 -0.381657,0.06735 -0.235729,0.06735 -0.392882,0.168378 0.07858,0.25818 0.101027,0.550035 0.02245,0.28063 0.02245,0.606161 v 3.221632 h -1.672555 z m 9.513353,0.224504 q 0,-0.774538 -0.347982,-1.234772 -0.347981,-0.471458 -1.032718,-0.471458 -0.224504,0 -0.415332,0.02245 -0.190829,0.01123 -0.314306,0.03368 v 3.019579 q 0.157153,0.101027 0.404107,0.168378 0.25818,0.06735 0.516359,0.06735 1.189872,0 1.189872,-1.605204 z m 1.70623,-0.0449 q 0,0.684737 -0.168378,1.245997 -0.168378,0.56126 -0.493909,0.965367 -0.325531,0.404107 -0.808214,0.628611 -0.482684,0.224504 -1.111295,0.224504 -0.347981,0 -0.651062,-0.06735 -0.30308,-0.06735 -0.58371,-0.190828 v 2.222588 h -1.672555 v -7.779063 q 0.224504,-0.06735 0.516359,-0.123477 0.291856,-0.06735 0.606161,-0.112252 0.325531,-0.0449 0.651062,-0.06735 0.336756,-0.03368 0.639836,-0.03368 0.729638,0 1.302123,0.224504 0.572485,0.213279 0.965367,0.617386 0.392882,0.392882 0.594936,0.965367 0.213279,0.572485 0.213279,1.279673 z"
     id="text4"
     style="-inkscape-font-specification:'Ubuntu, Bold';display:inline;fill:#333333;stroke-width:1.05833;stroke-linecap:round;stroke-linejoin:round;paint-order:stroke fill markers"
     inkscape:label="geocamp"
     aria-label="GeoCamp" />
  <sodipodi:namedview
     id="namedview1"
     pagecolor="#ffffff"
     bordercolor="#000000"
     borderopacity="0.25"
     inkscape:showpageshadow="2"
     inkscape:pageopacity="0.0"
     inkscape:pagecheckerboard="0"
     inkscape:deskcolor="#d1d1d1"
     inkscape:document-units="mm"
     inkscape:zoom="1"
     inkscape:cx="41.5"
     inkscape:cy="77.5"
     inkscape:window-width="2560"
     inkscape:window-height="1364"
     inkscape:window-x="0"
     inkscape:window-y="0"
     inkscape:window-maximized="1"
     inkscape:current-layer="svg1" />
  <defs
     id="defs1">
    <clipPath
       clipPathUnits="userSpaceOnUse"
       id="clipPath299">
      <path
         d="M 0,595.276 H 841.89 V 0 H 0 Z"
         transform="matrix(1.3333333,0,0,-1.3333333,0,793.70133)"
         id="path299" />
    </clipPath>
    <clipPath
       clipPathUnits="userSpaceOnUse"
       id="clipPath240">
      <path
         d="m 109.556,208.221 h 96.039 v -72.586 h -96.039 z"
         transform="matrix(1.3333333,0,0,-1.3333333,0,793.70133)"
         id="path240" />
    </clipPath>
    <clipPath
       clipPathUnits="userSpaceOnUse"
       id="clipPath239">
      <path
         d="m 202.924,192.395 h 2.16 v -2.16 h -2.16 z"
         transform="translate(-205.08361,-191.31601)"
         id="path239" />
    </clipPath>
    <clipPath
       clipPathUnits="userSpaceOnUse"
       id="clipPath242">
      <path
         d="m 109.556,208.221 h 96.039 v -72.586 h -96.039 z"
         transform="matrix(1.3333333,0,0,-1.3333333,0,793.70133)"
         id="path242" />
    </clipPath>
    <clipPath
       clipPathUnits="userSpaceOnUse"
       id="clipPath241">
      <path
         d="m 201.846,196.881 h 2.409 v -2.409 h -2.409 z"
         transform="translate(-203.04991,-196.8809)"
         id="path241" />
    </clipPath>
    <clipPath
       clipPathUnits="userSpaceOnUse"
       id="clipPath244">
      <path
         d="m 109.556,208.221 h 96.039 v -72.586 h -96.039 z"
         transform="matrix(1.3333333,0,0,-1.3333333,0,793.70133)"
         id="path244" />
    </clipPath>
    <clipPath
       clipPathUnits="userSpaceOnUse"
       id="clipPath243">
      <path
         d="m 198.486,200.502 h 2.658 v -2.658 h -2.658 z"
         transform="translate(-199.8138,-200.50171)"
         id="path243" />
    </clipPath>
    <clipPath
       clipPathUnits="userSpaceOnUse"
       id="clipPath246">
      <path
         d="m 109.556,208.221 h 96.039 v -72.586 h -96.039 z"
         transform="matrix(1.3333333,0,0,-1.3333333,0,793.70133)"
         id="path246" />
    </clipPath>
    <clipPath
       clipPathUnits="userSpaceOnUse"
       id="clipPath245">
      <path
         d="m 193.586,202.528 h 2.907 v -2.907 h -2.907 z"
         transform="translate(-195.0384,-202.52801)"
         id="path245" />
    </clipPath>
    <clipPath
       clipPathUnits="userSpaceOnUse"
       id="clipPath248">
      <path
         d="m 109.556,208.221 h 96.039 v -72.586 h -96.039 z"
         transform="matrix(1.3333333,0,0,-1.3333333,0,793.70133)"
         id="path248" />
    </clipPath>
    <clipPath
       clipPathUnits="userSpaceOnUse"
       id="clipPath247">
      <path
         d="m 187.972,202.263 h 3.156 v -3.156 h -3.156 z"
         transform="translate(-189.54891,-202.26311)"
         id="path247" />
    </clipPath>
    <clipPath
       clipPathUnits="userSpaceOnUse"
       id="clipPath250">
      <path
         d="m 109.556,208.221 h 96.039 v -72.586 h -96.039 z"
         transform="matrix(1.3333333,0,0,-1.3333333,0,793.70133)"
         id="path250" />
    </clipPath>
    <clipPath
       clipPathUnits="userSpaceOnUse"
       id="clipPath249">
      <path
         d="m 182.71,199.545 h 3.405 v -3.405 h -3.405 z"
         transform="translate(-184.41141,-199.5454)"
         id="path249" />
    </clipPath>
    <clipPath
       clipPathUnits="userSpaceOnUse"
       id="clipPath252">
      <path
         d="m 109.556,208.221 h 96.039 v -72.586 h -96.039 z"
         transform="matrix(1.3333333,0,0,-1.3333333,0,793.70133)"
         id="path252" />
    </clipPath>
    <clipPath
       clipPathUnits="userSpaceOnUse"
       id="clipPath251">
      <path
         d="m 178.595,194.837 h 3.655 v -3.655 h -3.655 z"
         transform="translate(-180.4209,-194.83681)"
         id="path251" />
    </clipPath>
    <clipPath
       clipPathUnits="userSpaceOnUse"
       id="clipPath254">
      <path
         d="m 109.556,208.221 h 96.039 v -72.586 h -96.039 z"
         transform="matrix(1.3333333,0,0,-1.3333333,0,793.70133)"
         id="path254" />
    </clipPath>
    <clipPath
       clipPathUnits="userSpaceOnUse"
       id="clipPath253">
      <path
         d="m 175.953,188.811 h 3.904 v -3.904 h -3.904 z"
         transform="translate(-177.90321,-188.8112)"
         id="path253" />
    </clipPath>
    <clipPath
       clipPathUnits="userSpaceOnUse"
       id="clipPath256">
      <path
         d="m 109.556,208.221 h 96.039 v -72.586 h -96.039 z"
         transform="matrix(1.3333333,0,0,-1.3333333,0,793.70133)"
         id="path256" />
    </clipPath>
    <clipPath
       clipPathUnits="userSpaceOnUse"
       id="clipPath255">
      <path
         d="m 174.61,181.974 h 4.153 v -4.154 h -4.153 z"
         transform="translate(-176.6851,-181.9735)"
         id="path255" />
    </clipPath>
    <clipPath
       clipPathUnits="userSpaceOnUse"
       id="clipPath258">
      <path
         d="m 109.556,208.221 h 96.039 v -72.586 h -96.039 z"
         transform="matrix(1.3333333,0,0,-1.3333333,0,793.70133)"
         id="path258" />
    </clipPath>
    <clipPath
       clipPathUnits="userSpaceOnUse"
       id="clipPath257">
      <path
         d="m 173.018,174.805 h 4.403 v -4.403 h -4.403 z"
         transform="translate(-175.2177,-174.8048)"
         id="path257" />
    </clipPath>
    <clipPath
       clipPathUnits="userSpaceOnUse"
       id="clipPath260">
      <path
         d="m 109.556,208.221 h 96.039 v -72.586 h -96.039 z"
         transform="matrix(1.3333333,0,0,-1.3333333,0,793.70133)"
         id="path260" />
    </clipPath>
    <clipPath
       clipPathUnits="userSpaceOnUse"
       id="clipPath259">
      <path
         d="m 170.457,167.45 h 4.651 v -4.652 h -4.651 z"
         transform="translate(-172.7808,-167.44981)"
         id="path259" />
    </clipPath>
    <clipPath
       clipPathUnits="userSpaceOnUse"
       id="clipPath262">
      <path
         d="m 109.556,208.221 h 96.039 v -72.586 h -96.039 z"
         transform="matrix(1.3333333,0,0,-1.3333333,0,793.70133)"
         id="path262" />
    </clipPath>
    <clipPath
       clipPathUnits="userSpaceOnUse"
       id="clipPath261">
      <path
         d="m 166.501,160.202 h 4.901 v -4.901 h -4.901 z"
         transform="translate(-168.9499,-160.20211)"
         id="path261" />
    </clipPath>
    <clipPath
       clipPathUnits="userSpaceOnUse"
       id="clipPath264">
      <path
         d="m 109.556,208.221 h 96.039 v -72.586 h -96.039 z"
         transform="matrix(1.3333333,0,0,-1.3333333,0,793.70133)"
         id="path264" />
    </clipPath>
    <clipPath
       clipPathUnits="userSpaceOnUse"
       id="clipPath263">
      <path
         d="m 160.908,153.532 h 5.15 v -5.15 h -5.15 z"
         transform="translate(-163.4812,-153.5317)"
         id="path263" />
    </clipPath>
    <clipPath
       clipPathUnits="userSpaceOnUse"
       id="clipPath266">
      <path
         d="m 109.556,208.221 h 96.039 v -72.586 h -96.039 z"
         transform="matrix(1.3333333,0,0,-1.3333333,0,793.70133)"
         id="path266" />
    </clipPath>
    <clipPath
       clipPathUnits="userSpaceOnUse"
       id="clipPath265">
      <path
         d="m 153.746,147.807 h 5.399 v -5.399 h -5.399 z"
         transform="translate(-156.44331,-147.8071)"
         id="path265" />
    </clipPath>
    <clipPath
       clipPathUnits="userSpaceOnUse"
       id="clipPath268">
      <path
         d="m 109.556,208.221 h 96.039 v -72.586 h -96.039 z"
         transform="matrix(1.3333333,0,0,-1.3333333,0,793.70133)"
         id="path268" />
    </clipPath>
    <clipPath
       clipPathUnits="userSpaceOnUse"
       id="clipPath267">
      <path
         d="m 145.112,143.553 h 5.649 v -5.648 h -5.649 z"
         transform="translate(-147.93441,-143.55301)"
         id="path267" />
    </clipPath>
    <clipPath
       clipPathUnits="userSpaceOnUse"
       id="clipPath270">
      <path
         d="m 109.556,208.221 h 96.039 v -72.586 h -96.039 z"
         transform="matrix(1.3333333,0,0,-1.3333333,0,793.70133)"
         id="path270" />
    </clipPath>
    <clipPath
       clipPathUnits="userSpaceOnUse"
       id="clipPath269">
      <path
         d="m 135.223,141.533 h 5.898 v -5.898 h -5.898 z"
         transform="translate(-138.1698,-141.5326)"
         id="path269" />
    </clipPath>
    <clipPath
       clipPathUnits="userSpaceOnUse"
       id="clipPath272">
      <path
         d="m 109.556,208.221 h 96.039 v -72.586 h -96.039 z"
         transform="matrix(1.3333333,0,0,-1.3333333,0,793.70133)"
         id="path272" />
    </clipPath>
    <clipPath
       clipPathUnits="userSpaceOnUse"
       id="clipPath271">
      <path
         d="m 124.562,142.184 h 6.147 v -6.147 h -6.147 z"
         transform="translate(-127.6333,-142.1836)"
         id="path271" />
    </clipPath>
    <clipPath
       clipPathUnits="userSpaceOnUse"
       id="clipPath274">
      <path
         d="m 109.556,208.221 h 96.039 v -72.586 h -96.039 z"
         transform="matrix(1.3333333,0,0,-1.3333333,0,793.70133)"
         id="path274" />
    </clipPath>
    <clipPath
       clipPathUnits="userSpaceOnUse"
       id="clipPath273">
      <path
         d="m 114.909,147.67 h 6.396 v -6.396 h -6.396 z"
         transform="translate(-118.1049,-147.67)"
         id="path273" />
    </clipPath>
    <clipPath
       clipPathUnits="userSpaceOnUse"
       id="clipPath276">
      <path
         d="m 109.556,208.221 h 96.039 v -72.586 h -96.039 z"
         transform="matrix(1.3333333,0,0,-1.3333333,0,793.70133)"
         id="path276" />
    </clipPath>
    <clipPath
       clipPathUnits="userSpaceOnUse"
       id="clipPath275">
      <path
         d="m 115.228,208.221 h 90.367 v -68.373 h -90.367 z"
         transform="translate(-195.03771,-203.39191)"
         id="path275" />
    </clipPath>
    <clipPath
       clipPathUnits="userSpaceOnUse"
       id="clipPath278">
      <path
         d="m 109.556,208.221 h 96.039 v -72.586 h -96.039 z"
         transform="matrix(1.3333333,0,0,-1.3333333,0,793.70133)"
         id="path278" />
    </clipPath>
    <clipPath
       clipPathUnits="userSpaceOnUse"
       id="clipPath277">
      <path
         d="m 109.556,155.694 h 6.449 v -4.909 h -6.449 z"
         transform="translate(-109.9585,-155.6938)"
         id="path277" />
    </clipPath>
    <clipPath
       clipPathUnits="userSpaceOnUse"
       id="clipPath301">
      <path
         d="M 0,595.276 H 841.89 V 0 H 0 Z"
         transform="translate(-126.80031,-153.2587)"
         id="path301" />
    </clipPath>
    <clipPath
       clipPathUnits="userSpaceOnUse"
       id="clipPath303">
      <path
         d="M 0,595.276 H 841.89 V 0 H 0 Z"
         transform="translate(-110.8651,-115.80421)"
         id="path303" />
    </clipPath>
    <clipPath
       clipPathUnits="userSpaceOnUse"
       id="clipPath305">
      <path
         d="M 0,595.276 H 841.89 V 0 H 0 Z"
         transform="translate(-128.5776,-124.81651)"
         id="path305" />
    </clipPath>
    <clipPath
       clipPathUnits="userSpaceOnUse"
       id="clipPath307">
      <path
         d="M 0,595.276 H 841.89 V 0 H 0 Z"
         transform="translate(-141.8694,-128.1706)"
         id="path307" />
    </clipPath>
    <clipPath
       clipPathUnits="userSpaceOnUse"
       id="clipPath309">
      <path
         d="M 0,595.276 H 841.89 V 0 H 0 Z"
         transform="translate(-166.99011,-116.8834)"
         id="path309" />
    </clipPath>
    <clipPath
       clipPathUnits="userSpaceOnUse"
       id="clipPath311">
      <path
         d="M 0,595.276 H 841.89 V 0 H 0 Z"
         transform="translate(-175.25271,-118.2833)"
         id="path311" />
    </clipPath>
    <clipPath
       clipPathUnits="userSpaceOnUse"
       id="clipPath313">
      <path
         d="M 0,595.276 H 841.89 V 0 H 0 Z"
         transform="translate(-195.6049,-126.79981)"
         id="path313" />
    </clipPath>
    <clipPath
       clipPathUnits="userSpaceOnUse"
       id="clipPath315">
      <path
         d="M 0,595.276 H 841.89 V 0 H 0 Z"
         transform="translate(-222.09691,-123.227)"
         id="path315" />
    </clipPath>
    <clipPath
       clipPathUnits="userSpaceOnUse"
       id="clipPath476">
      <path
         d="M 0,595.276 H 841.89 V 0 H 0 Z"
         transform="translate(-213.3514,-178.9856)"
         id="path476" />
    </clipPath>
    <clipPath
       clipPathUnits="userSpaceOnUse"
       id="clipPath478">
      <path
         d="M 0,595.276 H 841.89 V 0 H 0 Z"
         transform="translate(-186.17181,-169.9394)"
         id="path478" />
    </clipPath>
    <clipPath
       clipPathUnits="userSpaceOnUse"
       id="clipPath480">
      <path
         d="M 0,595.276 H 841.89 V 0 H 0 Z"
         transform="translate(-195.2179,-142.75981)"
         id="path480" />
    </clipPath>
    <clipPath
       clipPathUnits="userSpaceOnUse"
       id="clipPath482">
      <path
         d="M 0,595.276 H 841.89 V 0 H 0 Z"
         transform="translate(-222.3976,-151.8059)"
         id="path482" />
    </clipPath>
    <clipPath
       clipPathUnits="userSpaceOnUse"
       id="clipPath303-2">
      <path
         d="M 0,595.276 H 841.89 V 0 H 0 Z"
         transform="translate(-110.8651,-115.80421)"
         id="path303-4" />
    </clipPath>
    <clipPath
       clipPathUnits="userSpaceOnUse"
       id="clipPath305-7">
      <path
         d="M 0,595.276 H 841.89 V 0 H 0 Z"
         transform="translate(-128.5776,-124.81651)"
         id="path305-4" />
    </clipPath>
    <clipPath
       clipPathUnits="userSpaceOnUse"
       id="clipPath307-1">
      <path
         d="M 0,595.276 H 841.89 V 0 H 0 Z"
         transform="translate(-141.8694,-128.1706)"
         id="path307-6" />
    </clipPath>
    <clipPath
       clipPathUnits="userSpaceOnUse"
       id="clipPath309-1">
      <path
         d="M 0,595.276 H 841.89 V 0 H 0 Z"
         transform="translate(-166.99011,-116.8834)"
         id="path309-6" />
    </clipPath>
    <clipPath
       clipPathUnits="userSpaceOnUse"
       id="clipPath311-8">
      <path
         d="M 0,595.276 H 841.89 V 0 H 0 Z"
         transform="translate(-175.25271,-118.2833)"
         id="path311-7" />
    </clipPath>
    <clipPath
       clipPathUnits="userSpaceOnUse"
       id="clipPath313-0">
      <path
         d="M 0,595.276 H 841.89 V 0 H 0 Z"
         transform="translate(-195.6049,-126.79981)"
         id="path313-4" />
    </clipPath>
    <clipPath
       clipPathUnits="userSpaceOnUse"
       id="clipPath315-9">
      <path
         d="M 0,595.276 H 841.89 V 0 H 0 Z"
         transform="translate(-222.09691,-123.227)"
         id="path315-6" />
    </clipPath>
  </defs>
  <path
     d="m 19.506467,49.811904 q -0.123926,0.144581 -0.289161,0.351124 -0.160071,0.206544 -0.345961,0.454396 -0.185889,0.242689 -0.382105,0.521523 -0.191053,0.27367 -0.382106,0.557668 -0.185889,0.278834 -0.356288,0.552504 -0.165235,0.27367 -0.299488,0.516359 h 2.106745 v 0.304652 h -2.488851 v -0.263344 q 0.113599,-0.222034 0.268507,-0.485377 0.160071,-0.268507 0.340797,-0.54734 0.180726,-0.283998 0.376942,-0.567995 0.196217,-0.283998 0.387269,-0.542177 0.191053,-0.263343 0.361452,-0.485378 0.175562,-0.222034 0.320142,-0.382105 h -1.957 v -0.304652 h 2.339106 z m 1.279328,3.015537 q 0.196216,0 0.340797,-0.01033 0.149744,-0.01549 0.253015,-0.03614 v -0.939774 q -0.0568,-0.02582 -0.180725,-0.05164 -0.123926,-0.03098 -0.340797,-0.03098 -0.123926,0 -0.25818,0.02065 -0.134253,0.01549 -0.247852,0.07745 -0.113599,0.0568 -0.185889,0.160071 -0.07229,0.103272 -0.07229,0.27367 0,0.149745 0.04647,0.253016 0.05164,0.103272 0.139417,0.165235 0.09294,0.06196 0.216871,0.09295 0.129089,0.02582 0.289161,0.02582 z m -0.03098,-2.488851 q 0.263343,0 0.444069,0.07745 0.185889,0.07229 0.299488,0.206544 0.113599,0.12909 0.165235,0.309815 0.05164,0.180726 0.05164,0.392433 v 1.683331 q -0.05164,0.01549 -0.149744,0.03614 -0.09811,0.01549 -0.227198,0.03615 -0.12909,0.02065 -0.289161,0.03098 -0.154908,0.01549 -0.320143,0.01549 -0.211707,0 -0.392433,-0.04647 -0.175562,-0.04647 -0.309815,-0.144581 -0.12909,-0.103272 -0.206544,-0.258179 -0.07229,-0.160072 -0.07229,-0.38727 0,-0.21687 0.08262,-0.371778 0.08262,-0.154908 0.232362,-0.253016 0.149744,-0.103272 0.356288,-0.149744 0.206543,-0.04647 0.449232,-0.04647 0.07229,0 0.149744,0.01033 0.08262,0.0052 0.154908,0.02065 0.07745,0.01033 0.12909,0.02582 0.0568,0.01033 0.07745,0.02066 V 51.38164 q 0,-0.139417 -0.02065,-0.268507 -0.02065,-0.134253 -0.09295,-0.237525 -0.06713,-0.108436 -0.196216,-0.170399 -0.123926,-0.06713 -0.33047,-0.06713 -0.294324,0 -0.438905,0.04131 -0.14458,0.04131 -0.211707,0.06713 l -0.04647,-0.294325 q 0.08778,-0.04131 0.268506,-0.07745 0.18589,-0.03615 0.444069,-0.03615 z m 2.461797,0.01033 q 0.165235,0 0.309815,0.02582 0.149744,0.02582 0.206544,0.05164 l -0.06713,0.289161 q -0.04131,-0.02065 -0.170398,-0.04131 -0.123927,-0.02582 -0.33047,-0.02582 -0.216871,0 -0.351124,0.03098 -0.12909,0.03098 -0.170399,0.05164 v 2.339107 h -0.335633 v -2.54565 q 0.12909,-0.0568 0.356288,-0.113599 0.227198,-0.06196 0.552504,-0.06196 z m 1.599475,2.478523 q 0.196217,0 0.340797,-0.01033 0.149744,-0.01549 0.253016,-0.03614 v -0.939774 q -0.0568,-0.02582 -0.180726,-0.05164 -0.123926,-0.03098 -0.340797,-0.03098 -0.123926,0 -0.258179,0.02065 -0.134253,0.01549 -0.247852,0.07745 -0.113599,0.0568 -0.18589,0.160071 -0.07229,0.103272 -0.07229,0.27367 0,0.149745 0.04647,0.253016 0.05164,0.103272 0.139417,0.165235 0.09295,0.06196 0.216871,0.09295 0.12909,0.02582 0.289161,0.02582 z m -0.03098,-2.488851 q 0.263343,0 0.444068,0.07745 0.18589,0.07229 0.299489,0.206544 0.113599,0.12909 0.165235,0.309815 0.05163,0.180726 0.05163,0.392433 v 1.683331 q -0.05163,0.01549 -0.149744,0.03614 -0.09811,0.01549 -0.227198,0.03615 -0.129089,0.02065 -0.289161,0.03098 -0.154907,0.01549 -0.320142,0.01549 -0.211707,0 -0.392433,-0.04647 -0.175562,-0.04647 -0.309816,-0.144581 -0.129089,-0.103272 -0.206543,-0.258179 -0.07229,-0.160072 -0.07229,-0.38727 0,-0.21687 0.08262,-0.371778 0.08262,-0.154908 0.232362,-0.253016 0.149744,-0.103272 0.356287,-0.149744 0.206544,-0.04647 0.449233,-0.04647 0.07229,0 0.149744,0.01033 0.08262,0.0052 0.154907,0.02065 0.07745,0.01033 0.12909,0.02582 0.0568,0.01033 0.07745,0.02066 v -0.165235 q 0,-0.139417 -0.02065,-0.268507 -0.02066,-0.134253 -0.09295,-0.237525 -0.06713,-0.108436 -0.196216,-0.170399 -0.123926,-0.06713 -0.33047,-0.06713 -0.294325,0 -0.438905,0.04131 -0.144581,0.04131 -0.211707,0.06713 l -0.04647,-0.294325 q 0.08778,-0.04131 0.268507,-0.07745 0.185889,-0.03615 0.444069,-0.03615 z m 3.293134,2.421724 q -0.03098,0.02582 -0.09294,0.06196 -0.06196,0.03098 -0.154908,0.06713 -0.08778,0.03614 -0.206544,0.06196 -0.113599,0.02065 -0.258179,0.02065 -0.232362,0 -0.449232,-0.07229 -0.216871,-0.07229 -0.382106,-0.227198 -0.160071,-0.154908 -0.25818,-0.397596 -0.09811,-0.247853 -0.09811,-0.598977 0,-0.283997 0.08778,-0.526686 0.08778,-0.242689 0.247853,-0.418251 0.165234,-0.180725 0.397596,-0.278834 0.237525,-0.103271 0.53185,-0.103271 0.371778,0 0.593813,0.05164 0.227198,0.04647 0.371778,0.09294 v 2.437215 q 0,0.598976 -0.309815,0.851992 -0.309816,0.258179 -0.93461,0.258179 -0.25818,0 -0.469887,-0.04131 -0.206543,-0.03614 -0.356287,-0.08778 l 0.06713,-0.304652 q 0.123926,0.0568 0.335634,0.09811 0.21687,0.04131 0.433741,0.04131 0.47505,0 0.686758,-0.185889 0.21687,-0.180726 0.21687,-0.624795 z m -0.0052,-2.034454 q -0.08778,-0.02582 -0.227198,-0.04647 -0.139417,-0.02582 -0.397597,-0.02582 -0.21687,0 -0.387269,0.07745 -0.165235,0.07229 -0.283997,0.211708 -0.118763,0.134253 -0.180726,0.325306 -0.06196,0.185889 -0.06196,0.413087 0,0.263343 0.07229,0.454396 0.07229,0.185889 0.185889,0.304652 0.118763,0.118762 0.268507,0.175562 0.149744,0.05164 0.304652,0.05164 0.227198,0 0.413087,-0.06713 0.191053,-0.06713 0.294325,-0.154908 z m 3.23633,1.012063 q 0,0.314979 -0.09294,0.573159 -0.08778,0.258179 -0.253016,0.438905 -0.160071,0.180726 -0.382106,0.283997 -0.222034,0.09811 -0.490541,0.09811 -0.268506,0 -0.490541,-0.09811 -0.222034,-0.103271 -0.387269,-0.283997 -0.160071,-0.180726 -0.253016,-0.438905 -0.08778,-0.25818 -0.08778,-0.573159 0,-0.314979 0.08778,-0.573158 0.09295,-0.25818 0.253016,-0.438905 0.165235,-0.185889 0.387269,-0.283998 0.222035,-0.103272 0.490541,-0.103272 0.268507,0 0.490541,0.103272 0.222035,0.09811 0.382106,0.283998 0.165235,0.180725 0.253016,0.438905 0.09294,0.258179 0.09294,0.573158 z m -0.356287,0 q 0,-0.500868 -0.232362,-0.795192 -0.232361,-0.299489 -0.629958,-0.299489 -0.397596,0 -0.629958,0.299489 -0.232361,0.294324 -0.232361,0.795192 0,0.500869 0.232361,0.795193 0.232362,0.294325 0.629958,0.294325 0.397597,0 0.629958,-0.294325 0.232362,-0.294324 0.232362,-0.795193 z m 2.43081,-1.063699 q -0.118762,0.134253 -0.309815,0.371778 -0.191053,0.237525 -0.407924,0.53185 -0.21687,0.289161 -0.428577,0.609304 -0.211708,0.314979 -0.371779,0.598976 h 1.564568 v 0.283998 H 31.47853 v -0.242689 q 0.134253,-0.253016 0.33047,-0.557668 0.20138,-0.304652 0.413087,-0.598976 0.211707,-0.299489 0.413087,-0.557668 0.20138,-0.263343 0.340797,-0.428578 h -1.419987 v -0.283997 h 1.82791 z m 1.269004,2.153217 q 0.196216,0 0.340797,-0.01033 0.149744,-0.01549 0.253015,-0.03614 v -0.939774 q -0.0568,-0.02582 -0.180725,-0.05164 -0.123926,-0.03098 -0.340797,-0.03098 -0.123926,0 -0.25818,0.02065 -0.134253,0.01549 -0.247852,0.07745 -0.113599,0.0568 -0.185889,0.160071 -0.07229,0.103272 -0.07229,0.27367 0,0.149745 0.04647,0.253016 0.05164,0.103272 0.139417,0.165235 0.09294,0.06196 0.216871,0.09295 0.129089,0.02582 0.289161,0.02582 z m -0.03098,-2.488851 q 0.263343,0 0.444069,0.07745 0.185889,0.07229 0.299488,0.206544 0.113599,0.12909 0.165235,0.309815 0.05164,0.180726 0.05164,0.392433 v 1.683331 q -0.05164,0.01549 -0.149744,0.03614 -0.09811,0.01549 -0.227198,0.03615 -0.12909,0.02065 -0.289161,0.03098 -0.154908,0.01549 -0.320143,0.01549 -0.211707,0 -0.392433,-0.04647 -0.175562,-0.04647 -0.309815,-0.144581 -0.12909,-0.103272 -0.206544,-0.258179 -0.07229,-0.160072 -0.07229,-0.38727 0,-0.21687 0.08262,-0.371778 0.08262,-0.154908 0.232362,-0.253016 0.149744,-0.103272 0.356288,-0.149744 0.206543,-0.04647 0.449232,-0.04647 0.07229,0 0.149744,0.01033 0.08262,0.0052 0.154908,0.02065 0.07745,0.01033 0.12909,0.02582 0.0568,0.01033 0.07745,0.02066 v -0.165235 q 0,-0.139417 -0.02065,-0.268507 -0.02065,-0.134253 -0.09295,-0.237525 -0.06713,-0.108436 -0.196216,-0.170399 -0.123926,-0.06713 -0.33047,-0.06713 -0.294324,0 -0.438905,0.04131 -0.14458,0.04131 -0.211707,0.06713 l -0.04647,-0.294325 q 0.08778,-0.04131 0.268506,-0.07745 0.18589,-0.03615 0.444069,-0.03615 z m 4.376252,0.04131 q 0,0.20138 -0.07229,0.382106 -0.07229,0.175562 -0.196217,0.340797 -0.118762,0.165235 -0.27367,0.320142 -0.154908,0.154908 -0.314979,0.309816 -0.134253,0.12909 -0.263343,0.263343 -0.123926,0.12909 -0.227198,0.263343 -0.09811,0.12909 -0.160071,0.258179 -0.0568,0.123927 -0.0568,0.247853 v 0.01033 h 1.688494 v 0.294325 h -2.06024 q 0,-0.01033 -0.0052,-0.03615 0,-0.03098 0,-0.08778 0,-0.242688 0.08778,-0.449232 0.08778,-0.211707 0.222035,-0.397596 0.139416,-0.18589 0.304651,-0.345961 0.170399,-0.160071 0.325306,-0.309815 0.12909,-0.123926 0.242689,-0.237525 0.118763,-0.118763 0.206544,-0.242689 0.08778,-0.123926 0.139417,-0.263343 0.05164,-0.139417 0.05164,-0.304652 0,-0.361451 -0.196217,-0.516359 -0.191053,-0.160071 -0.485377,-0.160071 -0.165235,0 -0.294325,0.04131 -0.12909,0.04131 -0.227198,0.09811 -0.09294,0.05164 -0.160071,0.108435 -0.06713,0.0568 -0.09811,0.08778 l -0.175527,-0.232366 q 0.03098,-0.03615 0.108435,-0.103272 0.08262,-0.07229 0.20138,-0.139417 0.123926,-0.06713 0.283997,-0.113599 0.160072,-0.05164 0.356288,-0.05164 0.521523,0 0.784866,0.258179 0.263343,0.253016 0.263343,0.707412 z m 0.597731,0.903628 q 0,-0.908791 0.299488,-1.389005 0.299489,-0.480214 0.851993,-0.480214 0.54734,0 0.846828,0.480214 0.304652,0.480214 0.304652,1.389005 0,0.903629 -0.304652,1.383843 -0.299488,0.480213 -0.846828,0.480213 -0.547341,0 -0.851993,-0.480213 -0.299488,-0.480214 -0.299488,-1.383843 z m 1.936346,0 q 0,-0.309815 -0.04131,-0.588649 -0.03614,-0.283997 -0.12909,-0.500868 -0.09295,-0.216871 -0.242689,-0.345961 -0.149744,-0.129089 -0.371778,-0.129089 -0.227198,0 -0.376942,0.129089 -0.149744,0.12909 -0.242689,0.345961 -0.08778,0.216871 -0.12909,0.500868 -0.03614,0.278834 -0.03614,0.588649 0,0.309816 0.03614,0.593813 0.04131,0.278834 0.12909,0.495705 0.09295,0.211707 0.242689,0.340797 0.149744,0.12909 0.376942,0.12909 0.222034,0 0.371778,-0.12909 0.149744,-0.12909 0.242689,-0.340797 0.09295,-0.216871 0.12909,-0.495705 0.04131,-0.283997 0.04131,-0.593813 z m 2.761278,-0.903628 q 0,0.20138 -0.07229,0.382106 -0.07229,0.175562 -0.196217,0.340797 -0.118762,0.165235 -0.27367,0.320142 -0.154908,0.154908 -0.314979,0.309816 -0.134253,0.12909 -0.263343,0.263343 -0.123926,0.12909 -0.227198,0.263343 -0.09811,0.12909 -0.160071,0.258179 -0.0568,0.123927 -0.0568,0.247853 v 0.01033 h 1.688494 v 0.294325 h -2.060272 q 0,-0.01033 -0.0052,-0.03615 0,-0.03098 0,-0.08778 0,-0.242688 0.08778,-0.449232 0.08778,-0.211707 0.222034,-0.397596 0.139417,-0.18589 0.304652,-0.345961 0.170399,-0.160071 0.325306,-0.309815 0.12909,-0.123926 0.242689,-0.237525 0.118763,-0.118763 0.206544,-0.242689 0.08778,-0.123926 0.139417,-0.263343 0.05164,-0.139417 0.05164,-0.304652 0,-0.361451 -0.196216,-0.516359 -0.191053,-0.160071 -0.485377,-0.160071 -0.165235,0 -0.294325,0.04131 -0.12909,0.04131 -0.227198,0.09811 -0.09295,0.05164 -0.160071,0.108435 -0.06713,0.0568 -0.09811,0.08778 l -0.175497,-0.232366 q 0.03098,-0.03615 0.108436,-0.103272 0.08262,-0.07229 0.20138,-0.139417 0.123926,-0.06713 0.283997,-0.113599 0.160072,-0.05164 0.356288,-0.05164 0.521523,0 0.784866,0.258179 0.263343,0.253016 0.263343,0.707412 z m 1.527179,2.457869 q 0.25818,0 0.428578,-0.0568 0.175562,-0.06196 0.278834,-0.165235 0.103272,-0.103272 0.14458,-0.237525 0.04647,-0.139417 0.04647,-0.299489 0,-0.206543 -0.06713,-0.371778 -0.06713,-0.165235 -0.237525,-0.278834 -0.170398,-0.113599 -0.45956,-0.170398 -0.289161,-0.06196 -0.733229,-0.06196 0.03098,-0.263343 0.05164,-0.480213 0.02065,-0.222035 0.03614,-0.423415 0.01549,-0.206543 0.02065,-0.397596 0.01033,-0.196217 0.01549,-0.40276 h 1.61104 v 0.294324 h -1.316716 q -0.0052,0.09811 -0.01549,0.253016 -0.01033,0.154908 -0.02065,0.320143 -0.01033,0.160071 -0.02582,0.309815 -0.01549,0.149744 -0.02582,0.237525 0.397597,0.01033 0.686758,0.09811 0.289161,0.08778 0.47505,0.237525 0.185889,0.149744 0.27367,0.361451 0.09295,0.211707 0.09295,0.469887 0,0.227198 -0.07745,0.423414 -0.07229,0.196217 -0.227198,0.340797 -0.154907,0.144581 -0.392433,0.227198 -0.237525,0.08262 -0.562831,0.08262 -0.165235,0 -0.309815,-0.02582 -0.139417,-0.02065 -0.253016,-0.05163 -0.108436,-0.03098 -0.185889,-0.06196 -0.07745,-0.03098 -0.113599,-0.05164 l 0.08778,-0.299489 q 0.03098,0.02066 0.103271,0.05164 0.07745,0.03098 0.175562,0.06196 0.103272,0.02582 0.227198,0.04647 0.12909,0.02065 0.268507,0.02065 z"
     id="text3"
     style="-inkscape-font-specification:'Ubuntu, Light';fill:#347b56;stroke-width:1.05833;stroke-linecap:round;stroke-linejoin:round;paint-order:stroke fill markers"
     inkscape:label="zaragoza 2025"
     aria-label="Zaragoza 2025" />
  <g
     inkscape:groupmode="layer"
     id="layer2"
     inkscape:label="sotmes"
     transform="translate(-6.1085244,-5.1717677)">
    <g
       id="g1"
       transform="matrix(0.29897178,0,0,0.29897178,7.1154441,34.256356)"
       style="fill:#347b56;fill-opacity:1;stroke-width:3.3448">
      <g
         id="g27"
         style="fill:#347b56;fill-opacity:1;stroke-width:3.3448"
         transform="matrix(0.26458333,0,0,0.26458333,-66.346123,-51.525223)">
        <circle
           fill="#40CBCF"
           cx="342.92599"
           cy="351.88199"
           r="34.554001"
           id="circle26"
           style="fill:#347b56;fill-opacity:1;stroke-width:3.3448" />
      </g>
      <g
         id="g32"
         style="fill:#347b56;fill-opacity:1;stroke-width:3.3448"
         transform="matrix(0.26458333,0,0,0.26458333,-66.346123,-51.525223)">
        <g
           id="g29"
           style="fill:#347b56;fill-opacity:1;stroke-width:3.3448">
          <g
             id="g28"
             style="fill:#347b56;fill-opacity:1;stroke-width:3.3448">
            <path
               fill="#6ECC8E"
               d="m 342.926,398.227 c -11.09,0 -21.266,-3.9 -29.243,-10.396 l -7.43,7.43 0.956,5.773 -28.99,29.029 2.783,1.081 27.286,-10.383 27.245,10.383 27.245,-10.383 10.383,-27.245 -1.894,-4.977 c -7.837,6.067 -17.664,9.688 -28.341,9.688 z"
               id="path27"
               style="fill:#347b56;fill-opacity:1;stroke-width:3.3448" />
          </g>
        </g>
        <g
           id="g31"
           style="fill:#347b56;fill-opacity:1;stroke-width:3.3448">
          <g
             id="g30"
             style="fill:#347b56;fill-opacity:1;stroke-width:3.3448">
            <path
               fill="#6ECC8E"
               d="m 300.979,389.529 7.105,-7.104 c -7.156,-8.157 -11.503,-18.839 -11.503,-30.543 0,-15.345 7.463,-28.942 18.951,-37.376 l -7.244,-2.765 -27.286,10.382 -27.245,-10.382 10.382,27.245 -10.382,27.245 10.382,27.286 -10.382,27.245 6.395,2.451 34.597,-34.638 z"
               id="path29"
               style="fill:#347b56;fill-opacity:1;stroke-width:3.3448" />
          </g>
        </g>
      </g>
      <g
         id="text4-4"
         style="font-weight:bold;font-size:12.7px;font-family:Ubuntu;-inkscape-font-specification:'Ubuntu, Bold';text-align:center;letter-spacing:-0.79375px;text-anchor:middle;fill:#333333;stroke-width:1.05833;stroke-linecap:round;stroke-linejoin:round;paint-order:stroke fill markers"
         inkscape:label="sotm"
         transform="matrix(3.3447973,0,0,3.3447973,-23.799718,-114.58057)"
         aria-label="SotMes">
        <path
           d="m 21.301656,51.004401 q 0.4191,0 0.6858,-0.0635 0.2794,-0.0762 0.4445,-0.1905 0.1651,-0.127 0.2286,-0.2921 0.0635,-0.1651 0.0635,-0.3683 0,-0.4318 -0.4064,-0.7112 -0.4064,-0.2921 -1.397,-0.6223 -0.4318,-0.1524 -0.8636,-0.3429 -0.4318,-0.2032 -0.7747,-0.4953 -0.3429,-0.3048 -0.5588,-0.7239 -0.2159,-0.4318 -0.2159,-1.0414 0,-0.6096 0.2286,-1.0922 0.2286,-0.4953 0.6477,-0.8382 0.4191,-0.3429 1.016,-0.5207 0.5969,-0.1905 1.3462,-0.1905 0.889,0 1.5367,0.1905 0.6477,0.1905 1.0668,0.4191 l -0.5715,1.5621 q -0.3683,-0.1905 -0.8255,-0.3302 -0.4445,-0.1524 -1.0795,-0.1524 -0.7112,0 -1.0287,0.2032 -0.3048,0.1905 -0.3048,0.5969 0,0.2413 0.1143,0.4064 0.1143,0.1651 0.3175,0.3048 0.2159,0.127 0.4826,0.2413 0.2794,0.1016 0.6096,0.2159 0.6858,0.254 1.1938,0.508 0.508,0.2413 0.8382,0.5715 0.3429,0.3302 0.508,0.7747 0.1651,0.4445 0.1651,1.0795 0,1.2319 -0.8636,1.9177 -0.8636,0.6731 -2.6035,0.6731 -0.5842,0 -1.0541,-0.0762 -0.4699,-0.0635 -0.8382,-0.1651 -0.3556,-0.1016 -0.6223,-0.2159 -0.254,-0.1143 -0.4318,-0.2159 l 0.5588,-1.5748 q 0.3937,0.2159 0.9652,0.3937 0.5842,0.1651 1.4224,0.1651 z m 10.318759,-1.8415 q 0,0.7874 -0.2286,1.4478 -0.2286,0.6477 -0.6604,1.1176 -0.4318,0.4572 -1.0414,0.7112 -0.5969,0.254 -1.3462,0.254 -0.7366,0 -1.3462,-0.254 -0.5969,-0.254 -1.0287,-0.7112 -0.4318,-0.4699 -0.6731,-1.1176 -0.2413,-0.6604 -0.2413,-1.4478 0,-0.7874 0.2413,-1.4351 0.254,-0.6477 0.6858,-1.1049 0.4445,-0.4572 1.0414,-0.7112 0.6096,-0.254 1.3208,-0.254 0.7239,0 1.3208,0.254 0.6096,0.254 1.0414,0.7112 0.4318,0.4572 0.6731,1.1049 0.2413,0.6477 0.2413,1.4351 z m -1.9304,0 q 0,-0.8763 -0.3556,-1.3716 -0.3429,-0.508 -0.9906,-0.508 -0.6477,0 -1.0033,0.508 -0.3556,0.4953 -0.3556,1.3716 0,0.8763 0.3556,1.397 0.3556,0.508 1.0033,0.508 0.6477,0 0.9906,-0.508 0.3556,-0.5207 0.3556,-1.397 z m 2.533654,-4.9911 1.8923,-0.3048 v 1.9685 h 2.2733 v 1.5748 h -2.2733 v 2.3495 q 0,0.5969 0.2032,0.9525 0.2159,0.3556 0.8509,0.3556 0.3048,0 0.6223,-0.0508 0.3302,-0.0635 0.5969,-0.1651 l 0.2667,1.4732 q -0.3429,0.1397 -0.762,0.2413 -0.4191,0.1016 -1.0287,0.1016 -0.7747,0 -1.2827,-0.2032 -0.508,-0.2159 -0.8128,-0.5842 -0.3048,-0.381 -0.4318,-0.9144 -0.1143,-0.5334 -0.1143,-1.1811 z m 7.372353,-0.4572 q 0.2286,0.4191 0.5207,1.0414 0.3048,0.6096 0.6223,1.3335 0.3302,0.7112 0.6477,1.4605 0.3175,0.7493 0.5969,1.4097 0.2794,-0.6604 0.5969,-1.4097 0.3175,-0.7493 0.635,-1.4605 0.3302,-0.7239 0.6223,-1.3335 0.3048,-0.6223 0.5334,-1.0414 h 1.8034 q 0.127,0.8763 0.2286,1.9685 0.1143,1.0795 0.1905,2.2606 0.0889,1.1684 0.1524,2.3495 0.0762,1.1811 0.127,2.2225 h -1.9304 q -0.0381,-1.2827 -0.1016,-2.794 -0.0635,-1.5113 -0.1905,-3.048 -0.2286,0.5334 -0.508,1.1811 -0.2794,0.6477 -0.5588,1.2954 -0.2667,0.6477 -0.5207,1.2446 -0.254,0.5842 -0.4318,1.0033 h -1.3843 q -0.1778,-0.4191 -0.4318,-1.0033 -0.254,-0.5969 -0.5334,-1.2446 -0.2667,-0.6477 -0.5461,-1.2954 -0.2794,-0.6477 -0.508,-1.1811 -0.127,1.5367 -0.1905,3.048 -0.0635,1.5113 -0.1016,2.794 h -1.9304 q 0.0508,-1.0414 0.1143,-2.2225 0.0762,-1.1811 0.1524,-2.3495 0.0889,-1.1811 0.1905,-2.2606 0.1143,-1.0922 0.2413,-1.9685 z"
           id="path5" />
        <path
           d="m 47.127115,50.871051 q 0,-0.4445 0.13335,-0.7747 0.1397,-0.33655 0.36195,-0.5588 0.22225,-0.22225 0.508,-0.33655 0.2921,-0.1143 0.5969,-0.1143 0.7112,0 1.12395,0.43815 0.41275,0.4318 0.41275,1.27635 0,0.08255 -0.0063,0.18415 -0.0064,0.09525 -0.0127,0.17145 h -2.1463 q 0.03175,0.2921 0.27305,0.46355 0.2413,0.17145 0.6477,0.17145 0.26035,0 0.508,-0.04445 0.254,-0.0508 0.41275,-0.12065 l 0.127,0.76835 q -0.0762,0.0381 -0.2032,0.0762 -0.127,0.0381 -0.28575,0.0635 -0.1524,0.03175 -0.3302,0.0508 -0.1778,0.01905 -0.3556,0.01905 -0.45085,0 -0.7874,-0.13335 -0.3302,-0.13335 -0.55245,-0.36195 -0.2159,-0.23495 -0.32385,-0.55245 -0.1016,-0.3175 -0.1016,-0.6858 z m 2.2225,-0.36195 q -0.0063,-0.12065 -0.04445,-0.23495 -0.03175,-0.1143 -0.10795,-0.2032 -0.06985,-0.0889 -0.18415,-0.14605 -0.10795,-0.05715 -0.27305,-0.05715 -0.15875,0 -0.27305,0.05715 -0.1143,0.0508 -0.1905,0.1397 -0.0762,0.0889 -0.12065,0.20955 -0.0381,0.1143 -0.05715,0.23495 z m 2.206623,1.32715 q 0.26035,0 0.3683,-0.0508 0.10795,-0.0508 0.10795,-0.19685 0,-0.1143 -0.1397,-0.19685 -0.1397,-0.0889 -0.42545,-0.19685 -0.22225,-0.08255 -0.4064,-0.17145 -0.1778,-0.0889 -0.3048,-0.20955 -0.127,-0.127 -0.19685,-0.29845 -0.06985,-0.17145 -0.06985,-0.41275 0,-0.4699 0.34925,-0.74295 0.34925,-0.27305 0.95885,-0.27305 0.3048,0 0.5842,0.05715 0.2794,0.0508 0.4445,0.1143 l -0.1651,0.7366 q -0.1651,-0.05715 -0.36195,-0.1016 -0.1905,-0.04445 -0.4318,-0.04445 -0.4445,0 -0.4445,0.24765 0,0.05715 0.01905,0.1016 0.01905,0.04445 0.0762,0.0889 0.05715,0.0381 0.1524,0.0889 0.1016,0.04445 0.254,0.1016 0.31115,0.1143 0.51435,0.2286 0.2032,0.10795 0.3175,0.2413 0.12065,0.127 0.1651,0.28575 0.0508,0.15875 0.0508,0.3683 0,0.4953 -0.37465,0.7493 -0.3683,0.254 -1.04775,0.254 -0.4445,0 -0.74295,-0.0762 -0.2921,-0.0762 -0.4064,-0.127 l 0.15875,-0.76835 q 0.2413,0.09525 0.4953,0.1524 0.254,0.0508 0.50165,0.0508 z"
           id="path6" />
      </g>
    </g>
  </g>
  <g
     inkscape:label="geocamp zgz"
     inkscape:groupmode="layer"
     id="layer1"
     transform="translate(-79.76368,-44.169701)"
     style="display:inline">
    <g
       id="g299"
       clip-path="url(#clipPath299)"
       transform="matrix(0.26458333,0,0,0.26458333,46.638799,-88.854089)"
       style="fill:#333333;fill-opacity:1">
      <g
         clip-path="url(#clipPath240)"
         id="g279"
         style="fill:#333333;fill-opacity:1">
        <path
           d="m 0,0 c 0,-0.596 -0.483,-1.08 -1.079,-1.081 -0.596,0 -1.08,0.483 -1.081,1.079 0,0.597 0.483,1.081 1.079,1.081 C -0.484,1.079 0,0.596 0,0"
           style="fill:#333333;fill-opacity:1;fill-rule:nonzero;stroke:none"
           transform="matrix(1.3333333,0,0,-1.3333333,273.4448,538.61333)"
           clip-path="url(#clipPath239)"
           id="path279" />
      </g>
      <g
         clip-path="url(#clipPath242)"
         id="g280"
         style="fill:#333333;fill-opacity:1">
        <path
           d="m 0,0 c 0.665,0.001 1.205,-0.538 1.205,-1.204 10e-4,-0.665 -0.538,-1.204 -1.203,-1.205 -0.665,0 -1.205,0.538 -1.206,1.204 C -1.204,-0.54 -0.665,0 0,0"
           style="fill:#333333;fill-opacity:1;fill-rule:nonzero;stroke:none"
           transform="matrix(1.3333333,0,0,-1.3333333,270.7332,531.19347)"
           clip-path="url(#clipPath241)"
           id="path280" />
      </g>
      <g
         clip-path="url(#clipPath244)"
         id="g281"
         style="fill:#333333;fill-opacity:1">
        <path
           d="m 0,0 c 0.734,0.001 1.329,-0.594 1.33,-1.328 10e-4,-0.734 -0.594,-1.33 -1.328,-1.33 -0.734,-10e-4 -1.33,0.594 -1.33,1.328 C -1.329,-0.596 -0.734,-0.001 0,0"
           style="fill:#333333;fill-opacity:1;fill-rule:nonzero;stroke:none"
           transform="matrix(1.3333333,0,0,-1.3333333,266.4184,526.36573)"
           clip-path="url(#clipPath243)"
           id="path281" />
      </g>
      <g
         clip-path="url(#clipPath246)"
         id="g282"
         style="fill:#333333;fill-opacity:1">
        <path
           d="m 0,0 c 0.803,0.001 1.454,-0.65 1.455,-1.453 0,-0.802 -0.65,-1.454 -1.453,-1.454 -0.803,-10e-4 -1.454,0.649 -1.455,1.452 0,0.803 0.65,1.454 1.453,1.455"
           style="fill:#333333;fill-opacity:1;fill-rule:nonzero;stroke:none"
           transform="matrix(1.3333333,0,0,-1.3333333,260.0512,523.664)"
           clip-path="url(#clipPath245)"
           id="path282" />
      </g>
      <g
         clip-path="url(#clipPath248)"
         id="g283"
         style="fill:#333333;fill-opacity:1">
        <path
           d="M 0,0 C 0.872,0.001 1.579,-0.705 1.579,-1.577 1.58,-2.449 0.874,-3.156 0.002,-3.156 -0.869,-3.157 -1.576,-2.451 -1.577,-1.579 -1.578,-0.708 -0.872,-0.001 0,0"
           style="fill:#333333;fill-opacity:1;fill-rule:nonzero;stroke:none"
           transform="matrix(1.3333333,0,0,-1.3333333,252.73187,524.0172)"
           clip-path="url(#clipPath247)"
           id="path283" />
      </g>
      <g
         clip-path="url(#clipPath250)"
         id="g284"
         style="fill:#333333;fill-opacity:1">
        <path
           d="m 0,0 c 0.94,0.001 1.703,-0.761 1.704,-1.702 0.001,-0.94 -0.761,-1.703 -1.701,-1.704 -0.941,0 -1.704,0.761 -1.705,1.702 0,0.94 0.762,1.703 1.702,1.704"
           style="fill:#333333;fill-opacity:1;fill-rule:nonzero;stroke:none"
           transform="matrix(1.3333333,0,0,-1.3333333,245.88187,527.6408)"
           clip-path="url(#clipPath249)"
           id="path284" />
      </g>
      <g
         clip-path="url(#clipPath252)"
         id="g285"
         style="fill:#333333;fill-opacity:1">
        <path
           d="M 0,0 C 1.009,0.001 1.828,-0.817 1.829,-1.826 1.83,-2.835 1.012,-3.654 0.003,-3.655 -1.007,-3.656 -1.825,-2.838 -1.826,-1.829 -1.827,-0.82 -1.009,-0.001 0,0"
           style="fill:#333333;fill-opacity:1;fill-rule:nonzero;stroke:none"
           transform="matrix(1.3333333,0,0,-1.3333333,240.5612,533.91893)"
           clip-path="url(#clipPath251)"
           id="path285" />
      </g>
      <g
         clip-path="url(#clipPath254)"
         id="g286"
         style="fill:#333333;fill-opacity:1">
        <path
           d="M 0,0 C 1.078,0.001 1.953,-0.873 1.953,-1.951 1.954,-3.029 1.081,-3.903 0.003,-3.904 -1.075,-3.905 -1.95,-3.032 -1.951,-1.953 -1.951,-0.875 -1.078,-0.001 0,0"
           style="fill:#333333;fill-opacity:1;fill-rule:nonzero;stroke:none"
           transform="matrix(1.3333333,0,0,-1.3333333,237.20427,541.95307)"
           clip-path="url(#clipPath253)"
           id="path286" />
      </g>
      <g
         clip-path="url(#clipPath256)"
         id="g287"
         style="fill:#333333;fill-opacity:1">
        <path
           d="M 0,0 C 1.147,0.001 2.077,-0.928 2.078,-2.075 2.079,-3.222 1.15,-4.152 0.003,-4.153 -1.144,-4.154 -2.074,-3.225 -2.075,-2.078 -2.076,-0.931 -1.147,-0.001 0,0"
           style="fill:#333333;fill-opacity:1;fill-rule:nonzero;stroke:none"
           transform="matrix(1.3333333,0,0,-1.3333333,235.58013,551.07)"
           clip-path="url(#clipPath255)"
           id="path287" />
      </g>
      <g
         clip-path="url(#clipPath258)"
         id="g288"
         style="fill:#333333;fill-opacity:1">
        <path
           d="M 0,0 C 1.216,0.001 2.202,-0.984 2.203,-2.2 2.204,-3.415 1.219,-4.402 0.003,-4.402 -1.212,-4.403 -2.199,-3.419 -2.2,-2.203 -2.2,-0.987 -1.216,-0.001 0,0"
           style="fill:#333333;fill-opacity:1;fill-rule:nonzero;stroke:none"
           transform="matrix(1.3333333,0,0,-1.3333333,233.6236,560.62827)"
           clip-path="url(#clipPath257)"
           id="path288" />
      </g>
      <g
         clip-path="url(#clipPath260)"
         id="g289"
         style="fill:#333333;fill-opacity:1">
        <path
           d="m 0,0 c 1.285,0.001 2.327,-1.04 2.328,-2.324 0,-1.285 -1.04,-2.327 -2.325,-2.328 -1.284,-10e-4 -2.326,1.04 -2.327,2.324 C -2.325,-1.043 -1.285,-0.001 0,0"
           style="fill:#333333;fill-opacity:1;fill-rule:nonzero;stroke:none"
           transform="matrix(1.3333333,0,0,-1.3333333,230.3744,570.43493)"
           clip-path="url(#clipPath259)"
           id="path289" />
      </g>
      <g
         clip-path="url(#clipPath262)"
         id="g290"
         style="fill:#333333;fill-opacity:1">
        <path
           d="M 0,0 C 1.353,0.001 2.451,-1.095 2.452,-2.449 2.453,-3.802 1.357,-4.9 0.004,-4.901 -1.35,-4.902 -2.448,-3.806 -2.449,-2.452 -2.45,-1.099 -1.353,-0.001 0,0"
           style="fill:#333333;fill-opacity:1;fill-rule:nonzero;stroke:none"
           transform="matrix(1.3333333,0,0,-1.3333333,225.26653,580.09853)"
           clip-path="url(#clipPath261)"
           id="path290" />
      </g>
      <g
         clip-path="url(#clipPath264)"
         id="g291"
         style="fill:#333333;fill-opacity:1">
        <path
           d="M 0,0 C 1.422,0.001 2.576,-1.151 2.577,-2.573 2.578,-3.995 1.426,-5.149 0.004,-5.15 -1.418,-5.151 -2.572,-3.999 -2.573,-2.577 -2.574,-1.155 -1.422,-0.001 0,0"
           style="fill:#333333;fill-opacity:1;fill-rule:nonzero;stroke:none"
           transform="matrix(1.3333333,0,0,-1.3333333,217.97493,588.9924)"
           clip-path="url(#clipPath263)"
           id="path291" />
      </g>
      <g
         clip-path="url(#clipPath266)"
         id="g292"
         style="fill:#333333;fill-opacity:1">
        <path
           d="M 0,0 C 1.491,0.001 2.7,-1.207 2.702,-2.698 2.703,-4.189 1.495,-5.398 0.004,-5.399 -1.487,-5.4 -2.697,-4.193 -2.698,-2.702 -2.699,-1.211 -1.491,-0.001 0,0"
           style="fill:#333333;fill-opacity:1;fill-rule:nonzero;stroke:none"
           transform="matrix(1.3333333,0,0,-1.3333333,208.59107,596.6252)"
           clip-path="url(#clipPath265)"
           id="path292" />
      </g>
      <g
         clip-path="url(#clipPath268)"
         id="g293"
         style="fill:#333333;fill-opacity:1">
        <path
           d="M 0,0 C 1.56,0.001 2.825,-1.262 2.826,-2.822 2.827,-4.382 1.564,-5.647 0.004,-5.648 -1.556,-5.65 -2.821,-4.386 -2.822,-2.826 -2.823,-1.267 -1.56,-0.001 0,0"
           style="fill:#333333;fill-opacity:1;fill-rule:nonzero;stroke:none"
           transform="matrix(1.3333333,0,0,-1.3333333,197.24587,602.29733)"
           clip-path="url(#clipPath267)"
           id="path293" />
      </g>
      <g
         clip-path="url(#clipPath270)"
         id="g294"
         style="fill:#333333;fill-opacity:1">
        <path
           d="M 0,0 C 1.629,0.001 2.95,-1.318 2.951,-2.947 2.952,-4.575 1.633,-5.896 0.004,-5.898 -1.624,-5.899 -2.945,-4.58 -2.947,-2.951 -2.948,-1.322 -1.629,-0.001 0,0"
           style="fill:#333333;fill-opacity:1;fill-rule:nonzero;stroke:none"
           transform="matrix(1.3333333,0,0,-1.3333333,184.2264,604.9912)"
           clip-path="url(#clipPath269)"
           id="path294" />
      </g>
      <g
         clip-path="url(#clipPath272)"
         id="g295"
         style="fill:#333333;fill-opacity:1">
        <path
           d="M 0,0 C 1.697,0.001 3.074,-1.374 3.076,-3.071 3.077,-4.769 1.702,-6.146 0.005,-6.147 -1.693,-6.148 -3.07,-4.773 -3.071,-3.076 -3.072,-1.378 -1.697,-0.001 0,0"
           style="fill:#333333;fill-opacity:1;fill-rule:nonzero;stroke:none"
           transform="matrix(1.3333333,0,0,-1.3333333,170.17773,604.1232)"
           clip-path="url(#clipPath271)"
           id="path295" />
      </g>
      <g
         clip-path="url(#clipPath274)"
         id="g296"
         style="fill:#333333;fill-opacity:1">
        <path
           d="M 0,0 C 1.766,0.001 3.199,-1.429 3.2,-3.196 3.202,-4.962 1.771,-6.395 0.005,-6.396 -1.762,-6.397 -3.194,-4.967 -3.196,-3.2 -3.197,-1.434 -1.766,-0.001 0,0"
           style="fill:#333333;fill-opacity:1;fill-rule:nonzero;stroke:none"
           transform="matrix(1.3333333,0,0,-1.3333333,157.4732,596.808)"
           clip-path="url(#clipPath273)"
           id="path296" />
      </g>
      <g
         clip-path="url(#clipPath276)"
         id="g297"
         style="fill:#333333;fill-opacity:1">
        <path
           d="m 0,0 c 1.279,0 2.318,-1.039 2.319,-2.316 0,-0.168 -0.019,-0.334 -0.054,-0.495 0.212,-0.09 0.423,-0.185 0.63,-0.287 0.092,0.154 0.201,0.298 0.33,0.428 0.414,0.415 0.965,0.643 1.55,0.644 1.21,0 2.194,-0.983 2.195,-2.191 0,-0.547 -0.2,-1.062 -0.563,-1.465 0.12,-0.129 0.236,-0.261 0.349,-0.395 0.348,0.268 0.783,0.429 1.255,0.43 1.142,0 2.069,-0.927 2.071,-2.067 0,-0.912 -0.594,-1.688 -1.415,-1.962 0.041,-0.154 0.077,-0.309 0.11,-0.466 0.062,0.006 0.125,0.009 0.188,0.009 0.571,0 1.085,-0.249 1.441,-0.643 0.176,1.011 0.202,2.07 0.061,3.124 C 9.459,-0.957 3.066,3.873 -3.456,4.663 -8.53,5.284 -13.794,4.158 -18.157,1.452 -23.98,-2.1 -28.076,-7.964 -30.42,-14.268 c -1.085,-2.767 -1.596,-5.705 -2.459,-8.535 -1.725,-5.737 -4.502,-11.468 -8.385,-16.079 -6.228,-8.069 -15.993,-13.267 -26.973,-13.267 -3.47,0 -6.818,0.521 -9.972,1.486 l -0.01,-0.029 c -0.306,-0.853 -0.873,-1.562 -1.591,-2.05 0.327,-0.853 0.747,-1.678 1.242,-2.462 0.509,0.224 1.062,0.345 1.635,0.346 2.241,0 4.063,-1.821 4.064,-4.059 0.001,-0.546 -0.109,-1.066 -0.305,-1.542 0.305,-0.183 0.613,-0.356 0.925,-0.514 0.587,-0.31 1.182,-0.588 1.784,-0.836 0.086,0.107 0.178,0.21 0.277,0.309 0.743,0.744 1.731,1.155 2.783,1.156 1.885,0 3.463,-1.33 3.848,-3.099 1.028,-0.088 2.063,-0.117 3.1,-0.093 0.186,0.528 0.486,1.014 0.893,1.422 0.72,0.72 1.677,1.118 2.696,1.119 1.336,0 2.512,-0.692 3.194,-1.734 0.838,0.172 1.672,0.365 2.498,0.578 0.149,0.041 0.297,0.086 0.446,0.128 0.305,1.728 1.812,3.047 3.626,3.048 0.86,0 1.65,-0.298 2.278,-0.792 0.909,0.439 1.802,0.915 2.673,1.425 0,0.018 -0.003,0.036 -0.003,0.055 -10e-4,0.952 0.369,1.847 1.042,2.52 0.673,0.674 1.567,1.045 2.519,1.046 0.455,0 0.89,-0.089 1.29,-0.245 0.812,0.663 1.592,1.357 2.345,2.075 -0.02,0.148 -0.033,0.299 -0.034,0.453 0,0.919 0.357,1.783 1.006,2.433 0.649,0.65 1.512,1.008 2.431,1.009 0.067,0 0.132,-0.007 0.199,-0.011 0.71,0.87 1.385,1.767 2.028,2.687 -0.046,0.218 -0.07,0.445 -0.071,0.677 -0.001,1.555 1.076,2.859 2.521,3.217 0.574,1.017 1.112,2.055 1.615,3.111 -0.114,0.328 -0.18,0.678 -0.18,1.045 -0.001,1.289 0.769,2.4 1.872,2.903 0.389,1.021 0.745,2.054 1.074,3.096 -0.244,0.439 -0.384,0.943 -0.385,1.48 0,0.819 0.318,1.589 0.897,2.168 0.19,0.191 0.402,0.35 0.628,0.482 0.232,0.975 0.437,1.955 0.62,2.938 -0.346,0.481 -0.552,1.069 -0.553,1.706 0,0.785 0.305,1.524 0.86,2.08 0.097,0.097 0.201,0.183 0.309,0.265 0.126,1.082 0.31,2.159 0.55,3.22 -0.238,0.412 -0.376,0.888 -0.376,1.397 -10e-4,0.752 0.292,1.46 0.823,1.992 0.22,0.22 0.471,0.397 0.742,0.531 0.362,0.938 0.774,1.848 1.239,2.72 -0.103,0.284 -0.162,0.589 -0.162,0.908 0,0.718 0.279,1.394 0.787,1.903 0.479,0.48 1.108,0.754 1.782,0.784 0.496,0.592 1.029,1.148 1.593,1.668 -0.03,0.155 -0.047,0.314 -0.047,0.478 -10e-4,1.415 1.15,2.567 2.565,2.568 0.5,0 0.966,-0.146 1.361,-0.394 0.435,0.211 0.88,0.404 1.341,0.576 -0.001,0.031 -0.005,0.061 -0.005,0.092 -0.001,1.347 1.094,2.443 2.441,2.444 1.03,0 1.911,-0.641 2.27,-1.543 0.32,0.018 0.642,0.02 0.964,0.011 C -2.018,-0.77 -1.098,-0.001 0,0"
           style="fill:#333333;fill-opacity:1;fill-rule:nonzero;stroke:none"
           transform="matrix(1.3333333,0,0,-1.3333333,260.05027,522.51213)"
           clip-path="url(#clipPath275)"
           id="path297" />
      </g>
      <g
         clip-path="url(#clipPath278)"
         id="g298"
         style="fill:#333333;fill-opacity:1">
        <path
           d="m 0,0 c -0.257,-0.472 -0.403,-1.013 -0.402,-1.588 0.001,-1.835 1.49,-3.322 3.325,-3.32 1.441,0.001 2.664,0.922 3.123,2.205 C 3.931,-1.996 1.908,-1.088 0,0"
           style="fill:#333333;fill-opacity:1;fill-rule:nonzero;stroke:none"
           transform="matrix(1.3333333,0,0,-1.3333333,146.61133,586.1096)"
           clip-path="url(#clipPath277)"
           id="path298" />
      </g>
    </g>
    <path
       id="path300"
       d="m 0,0 c -17.666,0 -32.039,14.373 -32.039,32.039 0,6.337 1.85,12.251 5.037,17.229 l -0.375,-1.58 0.165,-5.607 5.03,-4.041 3.628,-1.567 -1.814,-4.37 -0.412,-3.051 3.463,-6.68 2.721,-1.154 2.887,-14.926 4.186,-2.986 0.679,0.595 -2.202,3.853 4.144,3.108 2.681,5.363 4.118,1.365 4.535,10.885 -9.236,3.38 -2.226,3.959 -10.308,4.123 -2.886,-2.309 -2.968,1.154 0.164,2.886 -1.979,1.32 6.185,1.154 -1.292,1.363 -7.119,-1.775 0.412,3.875 4.041,1.155 1.719,0.621 0.416,-1.604 6.688,7.168 8.494,2.473 -2.639,3.958 2.226,0.825 -0.333,1.6 c 0.741,0.098 1.49,0.169 2.245,0.215 l 0.232,-2.227 1.897,-0.66 3.603,2.726 C 6.872,63.49 9.843,62.68 12.613,61.489 l -1.316,-1.185 1.897,-1.979 2.556,0.578 -0.495,-1.32 1.97,-2.1 -2.246,0.033 1.431,-2.963 1.814,-0.577 0.742,1.072 0.495,2.474 4.618,-3.546 0.879,0.129 c 0.514,-0.639 1.004,-1.296 1.469,-1.973 l -3.915,2.421 -4.278,-0.715 -1.624,-1.657 -1.317,-5.188 0.432,-4.572 4.573,-5.562 6.673,0.124 0.989,-5.19 -0.371,-7.106 -1.73,-7.292 -1.112,-2.657 0.617,-0.249 C 19.5,4.898 10.312,0 0,0 m 0,64.942 c -18.143,0 -32.903,-14.76 -32.903,-32.903 0,-18.143 14.76,-32.903 32.903,-32.903 18.143,0 32.903,14.76 32.903,32.903 0,18.143 -14.76,32.903 -32.903,32.903"
       style="fill:#333333;fill-opacity:1;fill-rule:nonzero;stroke:none"
       transform="matrix(0.35277776,0,0,-0.35277776,91.371127,67.079794)"
       clip-path="url(#clipPath301)" />
    <path
       id="path475"
       d="M 0,0 H -1.564 L -9.067,7.503 -16.569,0 H -27.18 v -8.343 h 14.066 l 4.047,4.047 4.047,-4.047 H 0 Z"
       style="fill:#347b56;fill-opacity:1;fill-rule:nonzero;stroke:none"
       transform="matrix(0.35277776,0,0,-0.35277776,121.90444,58.003914)"
       clip-path="url(#clipPath476)" />
    <path
       id="path477"
       d="M 0,0 V -1.564 L -7.503,-9.067 0,-16.569 V -27.18 h 8.343 v 14.066 L 4.296,-9.067 8.343,-5.02 V 0 Z"
       style="fill:#347b56;fill-opacity:1;fill-rule:nonzero;stroke:none"
       transform="matrix(0.35277776,0,0,-0.35277776,112.31608,61.195214)"
       clip-path="url(#clipPath478)" />
    <path
       id="path479"
       d="M 0,0 H 1.564 L 9.067,-7.503 16.569,0 H 27.18 V 8.343 H 13.114 L 9.067,4.296 5.02,8.343 H 0 Z"
       style="fill:#347b56;fill-opacity:1;fill-rule:nonzero;stroke:none"
       transform="matrix(0.35277776,0,0,-0.35277776,115.50734,70.783564)"
       clip-path="url(#clipPath480)" />
    <path
       id="path481"
       d="M 0,0 V 1.564 L 7.503,9.067 0,16.569 V 27.18 H -8.343 V 13.114 L -4.296,9.067 -8.343,5.02 V 0 Z"
       style="fill:#347b56;fill-opacity:1;fill-rule:nonzero;stroke:none"
       transform="matrix(0.35277776,0,0,-0.35277776,125.09574,67.592304)"
       clip-path="url(#clipPath482)" />
  </g>
</svg>
