<?xml version="1.0" encoding="UTF-8"?>
<svg id="Capa_1" data-name="Capa 1" xmlns="http://www.w3.org/2000/svg" width="477.68" height="92.2" viewBox="0 0 477.68 92.2">
  <defs>
    <style>
      .cls-1 {
        fill: #cc2d36;
      }

      .cls-1, .cls-2, .cls-3 {
        stroke-width: 0px;
      }

      .cls-2 {
        fill: #b51f1f;
      }

      .cls-3 {
        fill: #ed2933;
      }
    </style>
  </defs>
  <g id="Capa_1-2" data-name="Capa 1">
    <g>
      <g>
        <path class="cls-2" d="m111.19,70.96l3.05,8.62,3.04-8.62h3.22v11.89h-2.46v-3.25l.24-5.61-3.21,8.86h-1.68l-3.2-8.85.24,5.6v3.25h-2.45v-11.89h3.21Z"/>
        <path class="cls-2" d="m130.58,80.4h-4.3l-.82,2.45h-2.6l4.43-11.89h2.27l4.45,11.89h-2.6l-.82-2.45h0Zm-3.63-1.98h2.97l-1.49-4.45-1.48,4.45h0Z"/>
        <path class="cls-2" d="m138.66,78.66v4.19h-2.45v-11.89h4.64c.89,0,1.68.16,2.36.49.68.33,1.2.79,1.56,1.39s.55,1.29.55,2.05c0,1.17-.4,2.08-1.2,2.76-.8.67-1.9,1.01-3.31,1.01h-2.15Zm0-1.98h2.19c.65,0,1.14-.15,1.48-.46.34-.3.51-.74.51-1.31s-.17-1.05-.51-1.41-.82-.54-1.42-.56h-2.25v3.73h0Z"/>
        <path class="cls-2" d="m150.54,78.66v4.19h-2.45v-11.89h4.64c.89,0,1.68.16,2.36.49.68.33,1.2.79,1.56,1.39s.55,1.29.55,2.05c0,1.17-.4,2.08-1.2,2.76-.8.67-1.9,1.01-3.31,1.01h-2.15Zm0-1.98h2.19c.65,0,1.14-.15,1.48-.46.34-.3.51-.74.51-1.31s-.17-1.05-.51-1.41-.82-.54-1.42-.56h-2.25v3.73h0Z"/>
        <path class="cls-2" d="m162.57,82.85h-2.45v-11.89h2.45v11.89Z"/>
        <path class="cls-2" d="m175.6,82.85h-2.45l-4.77-7.82v7.82h-2.45v-11.89h2.45l4.78,7.84v-7.84h2.44s0,11.89,0,11.89Z"/>
        <path class="cls-2" d="m188.24,81.35c-.44.53-1.06.94-1.87,1.23s-1.7.44-2.68.44c-1.03,0-1.93-.22-2.71-.67-.78-.45-1.37-1.1-1.8-1.96-.42-.85-.64-1.86-.65-3.01v-.81c0-1.19.2-2.21.6-3.08.4-.87.98-1.53,1.73-1.99s1.64-.69,2.65-.69c1.41,0,2.51.34,3.31,1.01.79.67,1.27,1.65,1.41,2.94h-2.38c-.11-.68-.35-1.18-.72-1.49-.37-.32-.89-.47-1.54-.47-.83,0-1.47.31-1.9.94-.44.63-.66,1.56-.66,2.79v.76c0,1.25.24,2.19.71,2.83s1.17.96,2.08.96,1.58-.2,1.97-.59v-2.05h-2.23v-1.8h4.68v4.74-.03Z"/>
        <path class="cls-2" d="m200.07,76.32l2.47-5.36h2.68l-3.9,7.58v4.31h-2.49v-4.31l-3.9-7.58h2.69l2.46,5.36h-.01Z"/>
        <path class="cls-2" d="m216.93,77.17c0,1.17-.21,2.2-.62,3.08-.41.88-1.01,1.56-1.78,2.04s-1.65.72-2.65.72-1.86-.24-2.64-.71c-.77-.47-1.37-1.15-1.8-2.03-.42-.88-.64-1.89-.65-3.03v-.59c0-1.17.21-2.2.63-3.09s1.02-1.57,1.79-2.05c.77-.48,1.65-.71,2.64-.71s1.87.24,2.64.71c.77.48,1.37,1.16,1.79,2.05s.63,1.92.63,3.08v.53h.02Zm-2.48-.54c0-1.25-.22-2.19-.67-2.84-.45-.65-1.08-.97-1.91-.97s-1.46.32-1.9.96c-.45.64-.67,1.58-.68,2.81v.58c0,1.21.22,2.16.67,2.83s1.09,1,1.93,1,1.45-.32,1.89-.97c.44-.64.66-1.59.67-2.82v-.58Z"/>
        <path class="cls-2" d="m228.8,70.96v7.83c0,1.3-.41,2.33-1.22,3.09-.81.76-1.93,1.14-3.34,1.14s-2.49-.37-3.31-1.1c-.82-.73-1.23-1.74-1.25-3.03v-7.92h2.45v7.85c0,.78.19,1.35.56,1.7.37.36.89.54,1.55.54,1.38,0,2.08-.72,2.1-2.17v-7.91h2.46v-.02Z"/>
        <path class="cls-2" d="m236.3,78.5h-1.95v4.35h-2.45v-11.89h4.42c1.4,0,2.49.31,3.25.94.76.63,1.14,1.51,1.14,2.65,0,.81-.18,1.49-.53,2.03s-.88.97-1.6,1.29l2.57,4.86v.11h-2.63l-2.23-4.35h0Zm-1.95-1.98h1.98c.62,0,1.09-.16,1.43-.47s.51-.74.51-1.29-.16-1-.48-1.32c-.32-.32-.81-.48-1.47-.48h-1.97v3.57h0Z"/>
        <path class="cls-2" d="m257.59,79.42l1.6-8.46h2.44l-2.64,11.89h-2.47l-1.94-7.95-1.94,7.95h-2.47l-2.64-11.89h2.44l1.61,8.44,1.96-8.44h2.07l1.95,8.46h.03Z"/>
        <path class="cls-2" d="m273.81,77.17c0,1.17-.21,2.2-.62,3.08-.41.88-1.01,1.56-1.78,2.04s-1.65.72-2.65.72-1.86-.24-2.64-.71c-.77-.47-1.37-1.15-1.8-2.03-.42-.88-.64-1.89-.65-3.03v-.59c0-1.17.21-2.2.63-3.09s1.02-1.57,1.79-2.05c.77-.48,1.65-.71,2.64-.71s1.87.24,2.64.71c.77.48,1.37,1.16,1.79,2.05s.63,1.92.63,3.08v.53h.02Zm-2.48-.54c0-1.25-.22-2.19-.67-2.84-.45-.65-1.08-.97-1.91-.97s-1.46.32-1.9.96c-.45.64-.67,1.58-.68,2.81v.58c0,1.21.22,2.16.67,2.83s1.09,1,1.93,1,1.45-.32,1.89-.97c.44-.64.66-1.59.67-2.82v-.58h0Z"/>
        <path class="cls-2" d="m281.08,78.5h-1.95v4.35h-2.45v-11.89h4.42c1.4,0,2.49.31,3.25.94.76.63,1.14,1.51,1.14,2.65,0,.81-.18,1.49-.53,2.03s-.88.97-1.6,1.29l2.57,4.86v.11h-2.63l-2.23-4.35h.01Zm-1.95-1.98h1.98c.62,0,1.09-.16,1.43-.47s.51-.74.51-1.29-.16-1-.48-1.32-.81-.48-1.47-.48h-1.97v3.57h0Z"/>
        <path class="cls-2" d="m290.89,80.88h5.2v1.97h-7.65v-11.89h2.45v9.92h0Z"/>
        <path class="cls-2" d="m298.58,82.85v-11.89h3.66c1.05,0,1.98.24,2.8.71.83.47,1.47,1.14,1.93,2.01s.69,1.85.69,2.96v.55c0,1.11-.23,2.09-.68,2.95-.45.86-1.1,1.53-1.92,2-.83.47-1.76.71-2.8.72h-3.68Zm2.45-9.9v7.94h1.18c.96,0,1.69-.31,2.2-.94.51-.63.76-1.52.78-2.69v-.63c0-1.21-.25-2.12-.75-2.75-.5-.62-1.23-.93-2.2-.93h-1.21Z"/>
      </g>
      <g>
        <path class="cls-3" d="m131.49,33.52l.23,2.62c1.54-2.02,3.67-3.03,6.37-3.03,2.32,0,4.06.69,5.21,2.08s1.74,3.48,1.78,6.27v14.38h-6.97v-14.09c0-1.13-.23-1.96-.68-2.49s-1.28-.79-2.48-.79c-1.36,0-2.37.54-3.03,1.61v15.76h-6.95v-22.32h6.52,0Z"/>
        <path class="cls-3" d="m160.92,56.25c-3.42,0-6.2-1.02-8.31-3.06-2.12-2.04-3.18-4.7-3.18-7.97v-.58c0-2.28.42-4.3,1.27-6.04s2.08-3.1,3.7-4.05c1.62-.96,3.55-1.43,5.78-1.43,3.14,0,5.61.97,7.43,2.92,1.82,1.95,2.72,4.66,2.72,8.14v2.7h-13.82c.25,1.25.79,2.23,1.63,2.95s1.93,1.07,3.26,1.07c2.2,0,3.92-.77,5.16-2.31l3.18,3.75c-.87,1.2-2.09,2.15-3.68,2.86s-3.3,1.06-5.13,1.06h-.01Zm-.78-17.78c-2.04,0-3.25,1.35-3.63,4.04h7.01v-.54c.03-1.11-.25-1.98-.85-2.59s-1.44-.92-2.54-.92h.01Z"/>
        <path class="cls-3" d="m183.78,39.66l3.24-6.15h7.22l-5.88,10.87,6.17,11.45h-7.26l-3.51-6.6-3.45,6.6h-7.3l6.19-11.45-5.86-10.87h7.3l3.14,6.15h0Z"/>
        <path class="cls-3" d="m211.37,53.42c-1.47,1.88-3.46,2.83-5.96,2.83s-4.3-.71-5.56-2.14c-1.26-1.42-1.89-3.47-1.89-6.14v-14.46h6.95v14.5c0,1.91.93,2.87,2.78,2.87,1.6,0,2.73-.57,3.4-1.71v-15.66h6.99v22.32h-6.52l-.21-2.41h.02Z"/>
        <path class="cls-3" d="m235.16,49.56c0-.59-.31-1.07-.93-1.42s-1.79-.73-3.53-1.11c-1.73-.39-3.16-.89-4.29-1.52s-1.99-1.39-2.58-2.28-.89-1.92-.89-3.07c0-2.05.85-3.74,2.54-5.06,1.69-1.33,3.91-1.99,6.64-1.99,2.94,0,5.31.67,7.1,2,1.79,1.33,2.68,3.09,2.68,5.26h-6.97c0-1.79-.94-2.68-2.83-2.68-.73,0-1.34.2-1.84.61s-.74.91-.74,1.52.3,1.12.91,1.51,1.57.7,2.9.95,2.49.54,3.5.89c3.36,1.16,5.03,3.23,5.03,6.21,0,2.04-.9,3.69-2.71,4.97-1.81,1.28-4.15,1.92-7.02,1.92-1.91,0-3.62-.34-5.12-1.03s-2.67-1.62-3.51-2.81c-.84-1.18-1.26-2.43-1.26-3.73h6.5c.03,1.03.37,1.78,1.03,2.26s1.51.71,2.54.71c.95,0,1.66-.19,2.14-.58s.71-.89.71-1.51v-.02Z"/>
        <path class="cls-3" d="m246.39,44.49c0-3.48.8-6.25,2.41-8.3,1.61-2.06,3.74-3.08,6.4-3.08s4.85.96,6.37,2.89l.19-2.48h3.49v21.78c0,2.89-.86,5.16-2.57,6.83-1.71,1.66-4.01,2.5-6.9,2.5-1.61,0-3.18-.34-4.72-1.03-1.54-.69-2.72-1.63-3.53-2.83l1.98-2.29c1.64,2.02,3.64,3.03,6,3.03,1.86,0,3.3-.52,4.34-1.57s1.56-2.52,1.56-4.41v-1.92c-1.53,1.76-3.61,2.64-6.25,2.64s-4.73-1.05-6.34-3.16c-1.62-2.1-2.42-4.97-2.42-8.6h-.01Zm3.84.43c0,2.52.52,4.49,1.55,5.93s2.48,2.16,4.33,2.16c2.41,0,4.17-1.09,5.3-3.28v-10.19c-1.17-2.13-2.92-3.2-5.26-3.2-1.86,0-3.31.72-4.35,2.17-1.05,1.44-1.57,3.58-1.57,6.42h0Z"/>
        <path class="cls-3" d="m280.63,56.25c-3.03,0-5.49-.99-7.39-2.98-1.9-1.99-2.85-4.64-2.85-7.97v-.7c0-2.21.42-4.19,1.27-5.93.85-1.74,2.03-3.1,3.55-4.08s3.17-1.47,4.94-1.47c2.9,0,5.16.96,6.77,2.87s2.41,4.65,2.41,8.21v1.59h-15.12c.06,2.2.7,3.98,1.93,5.33,1.23,1.35,2.8,2.03,4.69,2.03,1.35,0,2.49-.28,3.42-.83.94-.55,1.75-1.28,2.45-2.19l2.33,1.82c-1.87,2.87-4.68,4.31-8.42,4.31h.02Zm-.47-20.01c-1.54,0-2.83.56-3.88,1.68-1.05,1.12-1.69,2.69-1.94,4.71h11.18v-.29c-.11-1.94-.63-3.44-1.57-4.51-.94-1.07-2.2-1.6-3.8-1.6h.01Z"/>
        <path class="cls-3" d="m293.35,44.47c0-2.19.43-4.15,1.29-5.9.86-1.75,2.06-3.09,3.59-4.04s3.28-1.42,5.25-1.42c3.04,0,5.5,1.05,7.37,3.16,1.88,2.1,2.82,4.9,2.82,8.4v.27c0,2.17-.42,4.12-1.25,5.85s-2.02,3.07-3.57,4.03c-1.55.96-3.32,1.44-5.33,1.44-3.03,0-5.48-1.05-7.35-3.16-1.88-2.1-2.82-4.89-2.82-8.35v-.27h0Zm3.84.45c0,2.48.57,4.46,1.72,5.96s2.69,2.25,4.61,2.25,3.48-.76,4.62-2.28c1.14-1.52,1.71-3.65,1.71-6.38,0-2.45-.58-4.43-1.74-5.95s-2.71-2.28-4.63-2.28-3.4.75-4.56,2.25-1.73,3.64-1.73,6.44h0Z"/>
        <path class="cls-3" d="m317.78,44.49c0-3.48.8-6.25,2.41-8.3,1.61-2.06,3.74-3.08,6.4-3.08s4.85.96,6.37,2.89l.19-2.48h3.49v21.78c0,2.89-.86,5.16-2.57,6.83s-4.01,2.5-6.9,2.5c-1.61,0-3.18-.34-4.72-1.03-1.54-.69-2.72-1.63-3.53-2.83l1.98-2.29c1.64,2.02,3.64,3.03,6,3.03,1.86,0,3.3-.52,4.34-1.57s1.56-2.52,1.56-4.41v-1.92c-1.53,1.76-3.61,2.64-6.25,2.64s-4.73-1.05-6.34-3.16c-1.62-2.1-2.42-4.97-2.42-8.6h0Zm3.84.43c0,2.52.52,4.49,1.55,5.93s2.48,2.16,4.33,2.16c2.41,0,4.17-1.09,5.3-3.28v-10.19c-1.17-2.13-2.92-3.2-5.26-3.2-1.86,0-3.31.72-4.35,2.17-1.05,1.44-1.57,3.58-1.57,6.42h0Z"/>
        <path class="cls-3" d="m353.57,36.94c-.58-.1-1.2-.14-1.88-.14-2.5,0-4.2,1.07-5.1,3.2v15.84h-3.82v-22.32h3.71l.06,2.58c1.25-1.99,3.03-2.99,5.32-2.99.74,0,1.31.1,1.69.29v3.55h.02Z"/>
        <path class="cls-3" d="m370.41,55.84c-.22-.44-.4-1.22-.54-2.35-1.77,1.84-3.89,2.76-6.35,2.76-2.2,0-4.01-.62-5.42-1.87-1.41-1.24-2.11-2.82-2.11-4.73,0-2.32.88-4.13,2.65-5.42s4.25-1.93,7.46-1.93h3.71v-1.75c0-1.33-.4-2.4-1.2-3.19-.8-.79-1.97-1.19-3.53-1.19-1.36,0-2.5.34-3.42,1.03s-1.38,1.52-1.38,2.5h-3.84c0-1.11.4-2.19,1.19-3.23s1.86-1.86,3.22-2.47,2.84-.91,4.47-.91c2.57,0,4.59.64,6.04,1.93s2.21,3.06,2.27,5.31v10.27c0,2.05.26,3.68.78,4.89v.33h-4v.02Zm-6.33-2.91c1.2,0,2.33-.31,3.4-.93s1.85-1.42,2.33-2.41v-4.58h-2.99c-4.68,0-7.01,1.37-7.01,4.11,0,1.2.4,2.13,1.2,2.81.8.67,1.82,1.01,3.07,1.01h0Z"/>
        <path class="cls-3" d="m397.97,44.92c0,3.4-.78,6.13-2.33,8.21-1.55,2.08-3.66,3.11-6.31,3.11s-4.84-.86-6.4-2.58v10.75h-3.82v-30.9h3.49l.19,2.48c1.55-1.93,3.71-2.89,6.48-2.89s4.8,1.01,6.36,3.03,2.34,4.83,2.34,8.44v.35Zm-3.82-.43c0-2.52-.54-4.5-1.61-5.96s-2.54-2.19-4.41-2.19c-2.31,0-4.04,1.02-5.2,3.07v10.67c1.14,2.04,2.89,3.05,5.24,3.05,1.83,0,3.28-.73,4.36-2.18s1.62-3.61,1.62-6.47h0Z"/>
        <path class="cls-3" d="m406.5,36.22c1.69-2.08,3.89-3.11,6.6-3.11,4.72,0,7.1,2.66,7.14,7.98v14.75h-3.82v-14.77c-.01-1.61-.38-2.8-1.1-3.57s-1.85-1.16-3.37-1.16c-1.24,0-2.32.33-3.26.99s-1.66,1.53-2.19,2.6v15.91h-3.82v-31.69h3.82v12.07Z"/>
        <path class="cls-3" d="m425.75,27.59c0-.62.19-1.14.57-1.57s.94-.64,1.68-.64,1.31.21,1.69.64.58.95.58,1.57-.19,1.13-.58,1.55-.95.62-1.69.62-1.3-.21-1.68-.62-.57-.93-.57-1.55Zm4.13,28.24h-3.82v-22.32h3.82v22.32Z"/>
        <path class="cls-3" d="m444.68,53.13c1.36,0,2.55-.41,3.57-1.24,1.02-.83,1.58-1.86,1.69-3.09h3.61c-.07,1.28-.51,2.5-1.32,3.65-.81,1.16-1.89,2.08-3.25,2.76-1.35.69-2.79,1.03-4.3,1.03-3.04,0-5.46-1.01-7.25-3.04-1.79-2.03-2.69-4.8-2.69-8.32v-.64c0-2.17.4-4.11,1.2-5.8.8-1.69,1.94-3,3.43-3.94s3.26-1.4,5.29-1.4c2.5,0,4.58.75,6.24,2.25s2.54,3.45,2.65,5.84h-3.61c-.11-1.44-.66-2.63-1.64-3.56s-2.2-1.39-3.64-1.39c-1.94,0-3.44.7-4.51,2.09-1.07,1.4-1.6,3.41-1.6,6.05v.72c0,2.57.53,4.55,1.59,5.94s2.57,2.08,4.54,2.08h0Z"/>
        <path class="cls-3" d="m471.22,49.92c0-1.03-.39-1.83-1.17-2.4s-2.13-1.06-4.06-1.47-3.47-.91-4.6-1.49-1.97-1.27-2.52-2.06c-.54-.8-.81-1.75-.81-2.85,0-1.83.77-3.38,2.32-4.64,1.55-1.27,3.52-1.9,5.93-1.9,2.53,0,4.58.65,6.16,1.96s2.36,2.98,2.36,5.01h-3.84c0-1.05-.44-1.95-1.33-2.7s-2-1.13-3.35-1.13-2.48.3-3.26.91-1.18,1.4-1.18,2.37c0,.92.36,1.62,1.09,2.08.73.47,2.05.91,3.95,1.34,1.9.43,3.45.94,4.63,1.53s2.06,1.3,2.63,2.14.86,1.85.86,3.04c0,1.99-.8,3.59-2.39,4.8-1.6,1.2-3.67,1.81-6.21,1.81-1.79,0-3.37-.32-4.74-.95s-2.45-1.52-3.23-2.65-1.17-2.36-1.17-3.68h3.82c.07,1.28.58,2.29,1.54,3.04s2.22,1.12,3.79,1.12c1.44,0,2.6-.29,3.48-.88s1.31-1.36,1.31-2.34h-.01Z"/>
      </g>
      <g>
        <path class="cls-2" d="m67.76,89.21c.18.09.38.16.56.24.23.1.46.2.7.28.3.11.61.2.92.28.14.04.27.09.41.12.31.08.63.14.95.19.14.03.29.06.43.08.28.04.56.06.84.09.19.02.37.04.56.05.24.01.47,0,.71,0h.69c.21-.01.41-.04.62-.06.25-.02.5-.05.75-.08.22-.03.43-.08.65-.12s.45-.08.67-.14c.3-.08.59-.17.89-.26.13-.04.26-.07.38-.12.42-.15.84-.32,1.25-.51,3.41-1.59,6-4.42,7.29-7.98,1.29-3.56,1.13-7.39-.46-10.8l-12.78-27.5-12.78,27.5c-1.59,3.41-1.75,7.25-.46,10.8,1.28,3.53,3.85,6.35,7.22,7.95h0Z"/>
        <path class="cls-2" d="m51.49,2.75c-.18-.09-.38-.16-.56-.24-.23-.1-.46-.2-.7-.28-.3-.11-.61-.2-.92-.28-.14-.04-.27-.09-.41-.12-.31-.08-.63-.14-.95-.19-.14-.03-.29-.06-.43-.08-.28-.04-.56-.06-.84-.09-.19-.02-.37-.04-.56-.05-.24,0-.47,0-.71,0h-.69c-.21,0-.41.04-.62.06-.25.02-.5.05-.75.08-.22.03-.43.08-.65.12s-.45.08-.67.14c-.3.08-.59.17-.89.26-.13.04-.26.07-.38.12-.42.15-.84.32-1.25.51-3.41,1.59-6,4.42-7.29,7.98-1.29,3.56-1.13,7.39.46,10.8l12.78,27.5,12.78-27.5c1.59-3.41,1.75-7.25.46-10.8-1.28-3.53-3.85-6.35-7.22-7.95h.01Z"/>
        <g>
          <path class="cls-1" d="m32.87,9.22l-.03.06s.02-.04.03-.06h0Z"/>
          <path class="cls-3" d="m108.03,2.86h0c-1.89-.88-3.9-1.32-5.93-1.33-1.63,0-3.28.29-4.86.86-3.55,1.29-6.39,3.88-7.98,7.29l-15.49,33.27h0l12.78,27.5c1.59,3.41,1.75,7.24.46,10.8-.1.27-.2.53-.31.79l.08-.17c.12-.23.46-.89.46-.89l.81-1.74h0l26.8-57.61c3.29-7.06.23-15.49-6.82-18.79v.02Z"/>
          <path class="cls-3" d="m59.15,11.4h0l-.92-1.88c.18.38.34.77.48,1.17,1.29,3.56,1.13,7.39-.46,10.8l-.21.45h0l-12.57,27.05s7.23,15.59,11.65,25.14h0l.09.19c1.06,2.29,1.96,4.22,2.54,5.48.3.65.6,1.23.77,1.56l.28.59c-.1-.23-.19-.46-.27-.69-1.29-3.56-1.13-7.39.46-10.8l.75-1.62h0l12.03-25.88s-12.11-25.83-14.54-31.37c-.03-.07-.06-.13-.09-.19h0Z"/>
          <path class="cls-3" d="m32.24,10.69c.13-.37.28-.73.45-1.09l-.27.57-.39.78L4.4,70.32c-3.29,7.06-.23,15.49,6.82,18.79h0c1.89.88,3.9,1.32,5.93,1.33,1.63,0,3.28-.29,4.86-.86,3.55-1.29,6.39-3.88,7.98-7.29l15.48-33.28-12.78-27.5c-1.59-3.41-1.75-7.24-.46-10.8v-.02Z"/>
        </g>
      </g>
    </g>
  </g>
</svg>