<?xml version="1.0" encoding="UTF-8" standalone="no"?>
<svg
   width="890.67108pt"
   height="340.59305pt"
   viewBox="0 0 989.63454 378.43672"
   version="1.1"
   id="svg45"
   xmlns="http://www.w3.org/2000/svg"
   xmlns:svg="http://www.w3.org/2000/svg">
  <defs
     id="defs45" />
  <g
     id="g45"
     transform="translate(49.481755,18.921834)">
    <g
       id="#4c9fb3ff"
       transform="translate(-75.951261,-58.057357)">
      <path
         fill="#4c9fb3"
         opacity="1"
         d="m 262.14,58.23 c 17.61,-0.08 35.24,-0.4 52.84,0.11 6.71,0.58 14.42,1.14 19.28,6.4 4.49,5.74 2.91,13.54 3.79,20.29 0.82,31.65 1.03,63.31 1.24,94.97 0.08,41.31 0.34,82.64 -1.14,123.94 -0.45,5.9 -0.37,11.9 -1.64,17.71 -0.38,1.75 -2.29,2.47 -3.77,3.07 -5.37,1.78 -11.1,1.98 -16.71,2.15 -14.27,0.21 -28.65,-0.52 -42.66,-3.44 -2.27,-0.66 -5.4,-0.96 -6.17,-3.64 -3.14,-8.65 -4.08,-17.89 -5.56,-26.92 -6.01,-44.81 -9.38,-89.91 -13.13,-134.94 -1.78,-20.28 -2.64,-40.69 -6.31,-60.75 -1.17,-5.6 -2.27,-11.35 -4.96,-16.46 -0.98,-1.75 -2.9,-4.18 -5.15,-2.86 -2.53,1.66 -3.6,4.66 -5.04,7.18 -9.12,18.11 -17.37,36.65 -25.84,55.08 -16.81,36.73 -33.21,73.66 -50.79,110.04 -3.94,7.71 -7.44,15.74 -12.36,22.9 -1.57,2.44 -3.07,-0.95 -3.87,-2.25 -8.84,-16.74 -16,-34.31 -23.55,-51.65 -10.48,-24.57 -20.64,-49.27 -30.7,-74.01 -1.2,-3.27 -2.8,-6.53 -2.85,-10.08 0.43,-18.35 -0.86,-36.69 -0.65,-55.04 0.32,-5.58 0.63,-11.38 3.1,-16.49 0.97,-2.06 2.91,-3.81 5.34,-3.6 43.75,-0.18 87.51,0.45 131.24,-1.02 15.34,-0.18 30.68,-0.55 46.02,-0.69 z"
         id="path1" />
      <path
         fill="#4c9fb3"
         opacity="1"
         d="m 228.24,137.14 c 2.82,-1.71 7.46,0.12 6.91,3.81 2.42,41.68 4.84,83.35 7.28,125.03 0.89,17.66 2.28,35.32 2.91,52.99 -2.9,3.58 -7.93,4.08 -12.13,5.16 -18.52,3.29 -37.44,3.5 -56.2,3.04 -9.33,-0.55 -18.82,-0.8 -27.87,-3.39 -1.87,-0.6 -5.04,-1.78 -3.67,-4.32 13.67,-40.17 28.27,-80.06 45.02,-119.07 7.62,-17.23 15.34,-34.55 25.61,-50.4 3.39,-4.79 6.78,-10.08 12.14,-12.85 z"
         id="path2" />
      <path
         fill="#4c9fb3"
         opacity="1"
         d="m 78.27,191.99 c 2.11,-2.22 4.76,0.81 6.1,2.51 6.28,8.78 10.24,18.94 14.45,28.82 12.08,29.87 22.06,60.54 31.8,91.24 0.55,1.76 1.16,3.52 1.33,5.37 -1.69,2.11 -4.52,2.71 -6.98,3.49 -10.78,2.67 -21.95,3.47 -33.03,3.26 -4.52,-0.23 -9.27,-0.32 -13.41,-2.36 -1.75,-0.7 -1.52,-2.86 -1.6,-4.39 0.05,-40.98 -0.44,-81.96 0.26,-122.94 0.21,-1.66 -0.25,-3.72 1.08,-5 z"
         id="path3" />
      <path
         fill="#4c9fb3"
         opacity="1"
         d="m 810.21,257.2 c 5.24,-10.07 15.42,-17.61 26.74,-19.09 10.86,-1.49 22.78,0.9 30.99,8.51 -2.18,2.91 -4.26,5.89 -6.26,8.92 -10.4,-8.83 -27.91,-8.39 -37.07,2.04 -5.8,6.4 -6.98,15.86 -4.94,24.01 2.25,8.9 10.4,15.81 19.47,16.88 6.89,0.72 14.16,-0.37 20.1,-4.09 -0.08,-6.37 -0.03,-12.74 -0.03,-19.11 3.94,0 7.9,0 11.85,0 0.09,7.96 -0.03,15.92 0.07,23.88 -5.89,6.57 -14.54,10.05 -23.23,10.7 -11.05,1.31 -22.93,-1.76 -30.91,-9.78 -11.51,-10.66 -13.62,-29.12 -6.78,-42.87 z"
         id="path4" />
      <path
         fill="#4c9fb3"
         opacity="1"
         d="m 915.43,252.07 c 1.81,-7.21 8.71,-11.8 15.59,-13.45 11.35,-2.55 23.76,0.29 32.95,7.39 -2.05,3.02 -4.19,5.97 -6.26,8.98 -5.65,-4.19 -12.68,-6.42 -19.7,-6.31 -3.21,0.16 -6.66,0.88 -9.02,3.2 -3.26,3.43 -2.32,9.9 2.02,12.02 9.03,4.65 20.05,4.44 28.33,10.75 6.37,4.39 7.72,13.14 6.01,20.22 -2.02,7.92 -9.63,13.26 -17.4,14.58 -12.87,2.48 -26.39,-1.97 -36.1,-10.56 2.36,-3.1 4.94,-6.02 7.36,-9.07 5.68,4.59 12.31,8.58 19.78,9.04 4.52,0.35 9.8,-0.14 12.94,-3.83 3.18,-3.76 1.72,-10.14 -2.86,-12.02 -9.28,-4.54 -20.75,-4.12 -28.83,-11.18 -5.64,-4.72 -6.47,-13.01 -4.81,-19.76 z"
         id="path5" />
      <path
         fill="#4c9fb3"
         opacity="1"
         d="m 886.49,239.38 c 3.93,-0.02 7.88,-0.03 11.83,0.04 -0.07,23.28 -0.01,46.56 -0.03,69.85 -3.93,0 -7.85,-0.01 -11.77,0.01 -0.08,-23.3 -0.01,-46.6 -0.03,-69.9 z"
         id="path6" />
    </g>
    <g
       id="#010002ff"
       transform="translate(-75.951261,-58.057357)">
      <path
         fill="#010002"
         opacity="1"
         d="m 654.32,234.36 c 4.6,-3.05 11.44,1.24 10.65,6.71 -0.01,5.11 -6.46,8.43 -10.69,5.64 -4.67,-2.45 -4.61,-9.91 0.04,-12.35 z"
         id="path7" />
      <path
         fill="#010002"
         opacity="1"
         d="m 369.4,265.08 c 5.43,-9.11 17.91,-12.42 27.3,-7.75 3.39,1.59 5.63,4.72 7.44,7.88 3.6,-3.95 7.79,-7.68 13.09,-9.07 7.15,-1.92 15.63,-0.88 21.06,4.53 4.37,4.18 5.67,10.5 5.65,16.34 0.03,10.75 0.01,21.5 0,32.25 -3.76,0.01 -7.52,0.01 -11.27,0 -0.06,-10.05 0.06,-20.11 -0.05,-30.17 -0.1,-4.54 -1.38,-9.77 -5.64,-12.15 -6.13,-3.16 -14.51,-1.23 -18.45,4.5 -1.9,2.78 -2.38,6.23 -2.38,9.53 -0.01,9.43 0.02,18.86 0,28.29 -3.78,0.01 -7.56,0.01 -11.33,-0.01 -0.04,-10.44 0.06,-20.87 -0.04,-31.3 -0.09,-4.26 -1.32,-9.21 -5.4,-11.32 -6.27,-2.87 -14.57,-0.38 -18.04,5.63 -1.51,2.63 -1.91,5.73 -1.89,8.72 0,9.42 0.02,18.85 0,28.28 -3.77,0.01 -7.53,0.01 -11.29,-0.02 0.01,-17.71 0.01,-35.41 0,-53.12 3.76,-0.01 7.52,-0.01 11.28,-0.02 0.02,2.99 0.02,5.98 -0.04,8.98 z"
         id="path8" />
      <path
         fill="#010002"
         opacity="1"
         d="m 459.13,262.92 c 5.43,-4.12 11.9,-7.04 18.76,-7.5 6.79,-0.63 14.26,0.51 19.47,5.25 3.97,3.59 5.21,9.18 5.17,14.34 -0.05,11.43 0.09,22.86 -0.08,34.29 -3.39,-0.04 -6.79,-0.04 -10.18,-0.03 -0.01,-2.12 -0.01,-4.23 -0.03,-6.34 -3.43,2.68 -6.93,5.58 -11.33,6.44 -7.51,1.84 -16.44,0.42 -21.71,-5.63 -5.81,-6.65 -5.26,-19.1 3.14,-23.42 8.91,-4.81 19.41,-2.78 29.09,-3.24 0.03,-4.03 -0.57,-8.96 -4.66,-10.92 -7.52,-3.57 -16.05,-0.32 -22.63,3.82 -1.67,-2.35 -3.35,-4.7 -5.01,-7.06 m 9.07,25.27 c -2.87,3.38 -1.52,9.33 2.69,10.94 6.06,2.6 14.17,1.66 18.46,-3.69 2.32,-2.9 1.84,-6.79 1.96,-10.25 -4.79,-0.09 -9.57,-0.14 -14.35,-0.05 -3.12,0.06 -6.54,0.69 -8.76,3.05 z"
         id="path9" />
      <path
         fill="#010002"
         opacity="1"
         d="m 541,256.01 c 8.76,-2.28 18.59,0.71 24.68,7.4 6.96,7.24 8.1,18.35 5.74,27.74 -3.01,11.72 -15.24,20.78 -27.44,18.67 -5.71,-0.71 -10.41,-4.28 -14.53,-8.04 -0.01,8.92 -0.05,17.84 0.03,26.77 -3.77,0.08 -7.54,0.08 -11.31,0.08 -0.06,-24.17 0,-48.34 -0.03,-72.51 3.76,-0.01 7.52,-0.01 11.29,-0.01 0.01,2.94 0.01,5.88 -0.03,8.83 2.99,-3.93 6.71,-7.58 11.6,-8.93 m -0.46,9.79 c -12.13,3.72 -15.17,21.52 -6.18,29.91 4.02,4.18 10.48,5.2 15.87,3.41 8.05,-2.74 12.56,-11.89 10.7,-20.04 -1.34,-9.2 -11.28,-16.33 -20.39,-13.28 z"
         id="path10" />
      <path
         fill="#010002"
         opacity="1"
         d="m 607.97,256.02 c 8.8,-2.31 18.66,0.71 24.77,7.44 6.93,7.22 8.07,18.29 5.72,27.65 -3.01,11.74 -15.25,20.83 -27.48,18.72 -5.7,-0.71 -10.32,-4.33 -14.51,-7.98 0.02,8.9 -0.04,17.8 0.04,26.7 -3.77,0.08 -7.54,0.08 -11.31,0.07 -0.05,-24.16 -0.01,-48.33 -0.02,-72.5 3.75,0 7.5,0 11.26,-0.03 0.04,2.94 0.04,5.89 -0.02,8.84 2.99,-3.9 6.68,-7.57 11.55,-8.91 m -0.41,9.78 c -6.82,2.12 -11.33,9.16 -11.3,16.17 -0.86,8.59 5.73,17.74 14.71,17.94 9.71,0.96 18.26,-8.35 17.29,-17.9 0.24,-10.35 -10.48,-19.65 -20.7,-16.21 z"
         id="path11" />
      <path
         fill="#010002"
         opacity="1"
         d="m 702.18,256.22 c 7.33,-2.22 16.21,-0.69 21.43,5.23 4.08,4.46 5.04,10.78 4.93,16.61 -0.1,10.42 0.14,20.84 -0.12,31.25 -3.75,-0.03 -7.49,-0.02 -11.22,-0.15 0.1,-9.72 0.03,-19.43 0.06,-29.15 -0.06,-4.44 -0.87,-9.54 -4.66,-12.4 -6.64,-4.52 -17.11,-1.74 -20.42,5.67 -1.31,2.71 -1.44,5.77 -1.41,8.73 0.07,9.06 -0.02,18.13 0.05,27.19 -3.76,0.09 -7.52,0.08 -11.28,0.06 0.01,-17.72 -0.06,-35.45 0.04,-53.17 3.73,0.03 7.48,0.02 11.22,0.03 -0.01,2.98 -0.01,5.95 0.01,8.93 2.86,-3.94 6.61,-7.4 11.37,-8.83 z"
         id="path12" />
      <path
         fill="#010002"
         opacity="1"
         d="m 742.23,271.15 c 3.11,-9.06 11.99,-16.01 21.72,-15.86 7,-0.56 13.57,3.05 17.93,8.34 -0.03,-2.5 -0.04,-5 -0.03,-7.5 3.76,-0.03 7.53,-0.03 11.3,0 -0.03,15.94 0.06,31.89 -0.04,47.84 -0.07,8.28 -3.13,17.14 -10.34,21.83 -11.64,7.8 -27.95,5.8 -38.73,-2.61 1.77,-2.86 3.54,-5.71 5.27,-8.6 4.16,2.77 8.68,5.35 13.78,5.76 5.89,0.56 12.64,-0.91 16.34,-5.9 3.51,-4.95 2.93,-11.34 2.9,-17.08 -2.92,3.8 -6.54,7.32 -11.29,8.63 -7.98,2.25 -17.27,0.23 -23.05,-5.88 -7.5,-7.39 -9.1,-19.26 -5.76,-28.97 m 21.25,-6.52 c -8.55,1.57 -13.19,11.43 -11.47,19.44 1.1,7.08 7.59,13.15 14.98,12.51 9.15,0.35 16.05,-8.98 14.78,-17.67 -0.37,-8.98 -9.34,-16.48 -18.29,-14.28 z"
         id="path13" />
      <path
         fill="#010002"
         opacity="1"
         d="m 652.11,256.12 c 3.76,-0.01 7.52,-0.01 11.29,-0.01 0.02,17.72 0.02,35.44 0,53.15 -3.76,0.01 -7.52,0.01 -11.28,0 -0.02,-17.71 0,-35.43 -0.01,-53.14 z"
         id="path14" />
    </g>
    <g
       id="#5c5e60d9"
       transform="translate(-75.951261,-58.057357)">
      <path
         fill="#5c5e60"
         opacity="0.85"
         d="m 296.18,355.21 c 1.66,0.71 3.33,1.41 5,2.13 -2.58,2.5 -5.53,5.05 -9.43,4.29 1.3,-2.26 2.81,-4.38 4.43,-6.42 z"
         id="path15" />
      <path
         fill="#5c5e60"
         opacity="0.85"
         d="m 109.38,363.56 c 6.72,-2.15 14.94,0.15 18.56,6.47 4.38,7.04 1.8,17.37 -5.67,21.18 -7.91,4.53 -19.47,0.71 -22.26,-8.2 -2.83,-7.66 1.49,-17.02 9.37,-19.45 m 1.01,4.85 c -4.64,2.07 -7.02,7.84 -5.45,12.63 1.26,4.69 6.21,8.01 11.04,7.2 6.52,-0.63 10.67,-8.38 8.05,-14.27 -1.9,-5.31 -8.55,-8.08 -13.64,-5.56 z"
         id="path16" />
      <path
         fill="#5c5e60"
         opacity="0.85"
         d="m 242.58,365.6 c 6.3,-4.46 15.83,-3.59 21.01,2.24 -1.13,1.17 -2.26,2.35 -3.4,3.52 -4.46,-4.84 -13.35,-4.79 -16.98,1 -4.13,5.99 0.3,15.53 7.73,15.67 3.43,0.53 6.34,-1.52 8.92,-3.46 1.09,1.14 2.18,2.28 3.27,3.42 -5.54,6.29 -16.08,6.96 -22.15,1.1 -6.89,-6.06 -6.03,-18.4 1.6,-23.49 z"
         id="path17" />
      <path
         fill="#5c5e60"
         opacity="0.85"
         d="m 290.4,363.65 c 8.7,-3.03 19.46,3.05 20.15,12.5 1.51,8.61 -5.84,17.18 -14.54,17.09 -7.75,0.7 -15.41,-5.38 -16.08,-13.2 -1.09,-7.09 3.58,-14.42 10.47,-16.39 m 0.95,4.82 c -4.08,1.69 -6.68,6.24 -6.23,10.61 0.39,5.69 6.06,10.51 11.79,9.33 5.69,-0.76 9.53,-6.9 8.3,-12.38 -0.94,-6.16 -8.14,-10.16 -13.86,-7.56 z"
         id="path18" />
      <path
         fill="#5c5e60"
         opacity="0.85"
         d="m 364.68,367.75 c 5.88,-6.68 17.68,-6.65 23.41,0.2 5.09,5.61 4.82,15.23 -0.59,20.54 -1.7,1.53 -3.61,2.8 -5.28,4.36 3.19,1.65 6.55,0.44 8.95,-1.92 0.96,1.3 1.91,2.62 2.87,3.94 -2.98,2.59 -7,4.65 -11.03,3.41 -2.83,-0.58 -4.78,-2.81 -6.36,-5.06 -3.88,-0.28 -7.91,-1.23 -10.8,-4 -6.17,-5.24 -6.65,-15.58 -1.17,-21.47 m 7.58,0.58 c -4.4,1.91 -7,7.14 -5.89,11.81 0.93,4.82 5.62,8.66 10.6,8.17 6.42,-0.17 11.04,-7.32 9.09,-13.32 -1.38,-5.81 -8.39,-9.24 -13.8,-6.66 z"
         id="path19" />
      <path
         fill="#5c5e60"
         opacity="0.85"
         d="m 549.97,363.82 c 1.69,-0.02 3.39,-0.02 5.1,-0.02 0.12,6.1 -0.26,12.23 0.19,18.33 0.35,3.75 3.92,6.79 7.72,6.26 3.83,-0.09 6.5,-3.76 6.55,-7.37 0.24,-5.74 -0.01,-11.5 0.09,-17.25 1.71,0.01 3.44,0.02 5.17,0.04 -0.17,6.44 0.34,12.91 -0.3,19.34 -0.54,5.7 -5.85,10.19 -11.52,10.09 -6.16,0.68 -12.33,-3.99 -12.86,-10.26 -0.32,-6.38 0.01,-12.78 -0.14,-19.16 z"
         id="path20" />
      <path
         fill="#5c5e60"
         opacity="0.85"
         d="m 609.05,364.09 c 5.3,-2.52 11.7,-1.13 16.44,2.03 -0.87,1.32 -1.74,2.64 -2.61,3.95 -3.44,-1.86 -7.79,-3.68 -11.54,-1.64 -1.81,1.08 -1.73,4.02 0.06,5.08 4.07,2.23 9.27,2.03 12.81,5.3 3.67,3.73 2.34,10.86 -2.49,12.98 -6.05,3.03 -13.2,0.65 -18.28,-3.21 1.04,-1.39 2.13,-2.75 3.23,-4.09 3.35,2.66 7.75,4.76 12.08,3.32 2.21,-0.82 3.13,-4.03 1.05,-5.51 -3.57,-2.23 -8.13,-2.04 -11.67,-4.34 -5.02,-2.95 -4.41,-11.57 0.92,-13.87 z"
         id="path21" />
      <path
         fill="#5c5e60"
         opacity="0.85"
         d="m 904.3,367.3 c 5.53,-5.85 15.58,-5.93 21.62,-0.81 -0.92,1.26 -1.81,2.53 -2.72,3.79 -3.91,-2.8 -9.54,-3.43 -13.62,-0.65 -5.63,3.66 -5.66,13.17 -0.01,16.83 3.58,2.59 8.35,1.75 12.25,0.37 0.07,-2.83 0.15,-5.66 0.29,-8.48 1.61,-0.02 3.23,-0.03 4.86,-0.05 0.07,3.54 0.05,7.08 0.07,10.62 -6.07,5.31 -16.15,5.89 -22.23,0.32 -6.26,-5.45 -6.45,-16.19 -0.51,-21.94 z"
         id="path22" />
      <path
         fill="#5c5e60"
         opacity="0.85"
         d="m 949.31,364.14 c 5.28,-2.63 11.66,-1.12 16.48,1.88 -0.87,1.35 -1.72,2.7 -2.58,4.05 -3.29,-1.76 -7.28,-3.47 -10.98,-1.93 -2.21,0.68 -2.53,3.97 -0.69,5.26 3.64,2.08 8.1,2.11 11.68,4.36 4.71,2.79 4.42,10.67 -0.19,13.45 -6.06,3.87 -13.9,1.46 -19.22,-2.61 1,-1.39 2.03,-2.76 3.08,-4.12 3.53,2.67 8.33,5.11 12.71,3.01 1.99,-0.98 2.19,-4.08 0.39,-5.31 -4.07,-2.32 -9.37,-1.95 -12.92,-5.29 -3.52,-3.62 -2.48,-10.63 2.24,-12.75 z"
         id="path23" />
      <path
         fill="#5c5e60"
         opacity="0.85"
         d="m 76.03,363.8 c 6.53,-0.03 13.07,-0.02 19.6,-0.01 -0.01,1.56 -0.01,3.13 -0.02,4.7 -4.81,0.02 -9.61,0.02 -14.42,0 -0.03,2.59 -0.01,5.18 0.05,7.78 4.29,-0.07 8.57,-0.07 12.86,-0.01 0,1.59 0,3.19 -0.01,4.79 -4.31,0.05 -8.61,0.04 -12.92,0.04 0,3.95 0.01,7.91 -0.01,11.87 -1.7,-0.03 -3.39,-0.05 -5.09,-0.07 -0.2,-9.7 -0.1,-19.4 -0.04,-29.09 z"
         id="path24" />
      <path
         fill="#5c5e60"
         opacity="0.85"
         d="m 136.12,363.8 c 5.84,0.23 11.81,-0.68 17.55,0.65 8.28,2.1 7.71,15.63 -0.12,18.1 2.45,3.46 4.99,6.87 7.4,10.37 -2.21,0.01 -4.43,-0.01 -6.63,-0.06 -2.17,-3.26 -4.5,-6.4 -6.7,-9.63 -2.12,-0.04 -4.24,-0.05 -6.36,-0.05 0.01,3.26 0.01,6.52 -0.02,9.78 -1.7,-0.02 -3.39,-0.04 -5.09,-0.06 -0.06,-9.7 -0.01,-19.4 -0.03,-29.1 m 5.16,4.59 c -0.02,3.4 -0.02,6.8 0,10.2 3.76,-0.18 7.83,0.57 11.33,-1.14 2.52,-2.09 2.51,-7.81 -1.18,-8.65 -3.34,-0.71 -6.78,-0.36 -10.15,-0.41 z"
         id="path25" />
      <path
         fill="#5c5e60"
         opacity="0.85"
         d="m 166.31,363.9 c 2.64,-0.11 5.28,-0.15 7.92,-0.17 2.98,5.95 5.78,11.98 8.68,17.97 3.01,-5.97 5.68,-12.1 8.82,-18 2.57,0.07 5.14,0.09 7.71,0.1 0,9.71 0.05,19.42 -0.03,29.13 -1.68,0.01 -3.37,0.02 -5.06,0.03 -0.17,-7.32 -0.02,-14.64 -0.08,-21.96 -3.6,6.37 -6.54,13.08 -10.03,19.49 -0.76,-0.08 -2.27,-0.24 -3.02,-0.32 -3.11,-6.5 -6.34,-12.94 -9.66,-19.33 -0.09,7.38 0.04,14.76 -0.08,22.15 -1.72,-0.05 -3.43,-0.09 -5.14,-0.14 0.01,-9.65 0.07,-19.3 -0.03,-28.95 z"
         id="path26" />
      <path
         fill="#5c5e60"
         opacity="0.85"
         d="m 215.9,363.81 c 1.79,-0.03 3.58,-0.06 5.38,-0.09 4.4,9.69 8.69,19.44 12.87,29.23 -1.7,-0.01 -3.41,0.06 -5.1,-0.1 -1.63,-1.8 -2.18,-4.38 -3.29,-6.53 -4.77,0.02 -9.54,0 -14.31,0.02 -0.94,2.17 -1.88,4.34 -2.78,6.52 -1.86,0.03 -3.72,0.04 -5.58,0.04 4.22,-9.72 8.5,-19.42 12.81,-29.09 m -2.12,17.81 c 3.31,-0.01 6.62,-0.02 9.94,-0.02 -1.69,-3.85 -3.4,-7.69 -5.07,-11.54 -1.66,3.83 -3.54,7.58 -4.87,11.56 z"
         id="path27" />
      <path
         fill="#5c5e60"
         opacity="0.85"
         d="m 268.83,363.78 c 1.71,0 3.43,0.01 5.14,0.02 0.09,9.7 0.1,19.42 -0.07,29.12 -1.69,0.01 -3.38,0.02 -5.06,0.03 -0.03,-9.72 -0.01,-19.45 -0.01,-29.17 z"
         id="path28" />
      <path
         fill="#5c5e60"
         opacity="0.85"
         d="m 316.34,392.85 c 0.12,-9.72 -0.18,-19.45 0.16,-29.17 1.74,0.05 3.48,0.11 5.22,0.18 5.39,7.06 10.8,14.09 16.37,21.01 0.1,-7.02 0.02,-14.04 0.05,-21.07 1.71,-0.01 3.42,-0.02 5.14,-0.02 -0.01,9.71 0.03,19.43 -0.02,29.15 -1.8,0.01 -3.6,0.02 -5.4,0.04 -5.54,-6.89 -10.78,-14.03 -16.37,-20.88 0.06,6.97 0.07,13.93 -0.01,20.89 -1.72,-0.05 -3.43,-0.08 -5.14,-0.13 z"
         id="path29" />
      <path
         fill="#5c5e60"
         opacity="0.85"
         d="m 397.08,363.8 c 1.68,-0.01 3.36,-0.02 5.05,-0.02 0.06,5.41 -0.1,10.83 0.05,16.24 0.06,2.74 0.98,5.76 3.4,7.32 2.88,1.77 7.17,1.38 9.35,-1.34 1.55,-1.97 1.91,-4.57 1.89,-7 0.02,-5.07 -0.04,-10.15 0,-15.22 1.69,0 3.4,0.01 5.11,0.02 -0.05,5.73 0.1,11.46 -0.05,17.2 -0.08,3.35 -1.18,6.85 -3.74,9.14 -3.5,3.25 -8.84,3.82 -13.26,2.41 -4.45,-1.46 -7.48,-5.86 -7.69,-10.47 -0.29,-6.09 -0.02,-12.19 -0.11,-18.28 z"
         id="path30" />
      <path
         fill="#5c5e60"
         opacity="0.85"
         d="m 429.71,363.79 c 6.87,-0.01 13.75,-0.01 20.63,-0.01 -0.01,1.57 -0.01,3.14 0,4.71 -5.13,0.01 -10.25,0.03 -15.37,-0.02 -0.1,2.47 -0.14,4.95 -0.13,7.43 4.62,0.02 9.25,0.02 13.88,0.01 0.01,1.56 0.03,3.12 0.05,4.68 -4.6,0.27 -9.29,-0.44 -13.84,0.31 -0.18,2.39 -0.1,4.79 -0.08,7.19 5.34,0.04 10.69,-0.02 16.03,0.06 0,1.58 0,3.16 0.01,4.75 -7.06,0.09 -14.11,0.03 -21.17,0.04 -0.04,-9.72 -0.01,-19.44 -0.01,-29.15 z"
         id="path31" />
      <path
         fill="#5c5e60"
         opacity="0.85"
         d="m 467.93,363.8 c 1.72,-0.01 3.44,-0.02 5.18,-0.02 0,9.72 0.01,19.45 -0.01,29.18 -1.72,-0.03 -3.43,-0.06 -5.14,-0.08 -0.08,-9.7 -0.02,-19.39 -0.03,-29.08 z"
         id="path32" />
      <path
         fill="#5c5e60"
         opacity="0.85"
         d="m 480.9,363.78 c 2.65,0 5.31,0 7.96,0.03 2.93,5.86 5.4,11.96 8.71,17.62 2.87,-5.87 5.65,-11.78 8.52,-17.65 2.65,0 5.31,0 7.97,0.02 -0.05,9.7 0.13,19.39 -0.1,29.09 -1.71,0.02 -3.4,0.04 -5.09,0.07 -0.06,-7.4 0.05,-14.8 -0.07,-22.2 -3.35,6.47 -6.57,13.01 -9.85,19.52 -0.75,0.03 -2.24,0.09 -2.99,0.13 -3.29,-6.49 -6.57,-12.98 -9.71,-19.54 -0.35,7.33 -0.07,14.68 -0.18,22.02 -1.73,0.02 -3.45,0.03 -5.16,0.05 -0.02,-9.72 -0.01,-19.44 -0.01,-29.16 z"
         id="path33" />
      <path
         fill="#5c5e60"
         opacity="0.85"
         d="m 521.94,363.8 c 5.55,0.23 11.27,-0.71 16.71,0.72 6.82,1.83 8.03,11.31 4.25,16.4 -3.98,4.34 -10.44,3.39 -15.74,3.49 -0.03,2.85 -0.03,5.71 -0.04,8.56 -1.73,-0.04 -3.44,-0.07 -5.16,-0.11 -0.06,-9.69 -0.02,-19.37 -0.02,-29.06 m 5.22,4.56 c -0.04,3.82 -0.04,7.64 -0.02,11.46 3.49,-0.17 7.33,0.63 10.53,-1.16 2.83,-2.28 2.94,-8.03 -0.75,-9.53 -3.12,-1.13 -6.52,-0.67 -9.76,-0.77 z"
         id="path34" />
      <path
         fill="#5c5e60"
         opacity="0.85"
         d="m 582.51,363.74 c 1.73,0.04 3.47,0.09 5.21,0.16 -0.1,8.03 -0.03,16.06 -0.04,24.1 4.39,0 8.8,-0.03 13.2,0.04 0,1.62 0,3.23 0.01,4.86 -6.11,0.09 -12.22,0.01 -18.33,0.06 -0.13,-9.74 -0.04,-19.48 -0.05,-29.22 z"
         id="path35" />
      <path
         fill="#5c5e60"
         opacity="0.85"
         d="m 640.91,363.81 c 1.77,-0.04 3.54,-0.07 5.33,-0.11 4.47,9.65 8.67,19.42 12.9,29.18 -1.78,0.04 -3.54,0.09 -5.3,0.14 -1.06,-2.22 -2.08,-4.46 -3.09,-6.69 -4.77,0 -9.53,0 -14.29,0.01 -0.95,2.15 -1.88,4.31 -2.77,6.49 -1.87,0.05 -3.73,0.09 -5.58,0.12 4.15,-9.76 8.49,-19.45 12.8,-29.14 m 2.68,6.25 c -1.59,3.85 -3.46,7.59 -4.83,11.54 3.32,0.01 6.63,0 9.96,0 -1.7,-3.86 -3.38,-7.72 -5.13,-11.54 z"
         id="path36" />
      <path
         fill="#5c5e60"
         opacity="0.85"
         d="m 671.75,363.79 c 7.58,-0.01 15.17,-0.02 22.76,0 -0.01,1.52 -0.01,3.05 -0.01,4.58 -2.97,-0.02 -5.94,0 -8.9,0.14 0.12,8.12 0.02,16.24 0.06,24.36 -1.68,0.04 -3.36,0.06 -5.03,0.1 -0.07,-8.19 0,-16.38 -0.04,-24.57 -2.95,-0.02 -5.9,-0.02 -8.84,-0.02 -0.01,-1.54 -0.01,-3.07 0,-4.59 z"
         id="path37" />
      <path
         fill="#5c5e60"
         opacity="0.85"
         d="m 699.1,363.8 c 1.67,-0.01 3.35,-0.02 5.05,-0.02 0.09,5.74 -0.18,11.5 0.12,17.24 0.13,3.65 2.81,7.37 6.73,7.38 3.94,0.5 7.36,-2.79 7.66,-6.62 0.42,-5.99 0.04,-12 0.17,-18 1.72,0 3.45,0.01 5.18,0.02 -0.1,6.93 0.52,13.94 -0.61,20.8 -1.9,8.87 -14.38,11.44 -20.57,5.48 -2.8,-2.5 -3.76,-6.4 -3.74,-10.02 -0.04,-5.42 0.03,-10.84 0.01,-16.26 z"
         id="path38" />
      <path
         fill="#5c5e60"
         opacity="0.85"
         d="m 742.6,363.79 c 5.52,0.26 11.2,-0.71 16.6,0.73 6.95,1.87 8.13,11.72 3.98,16.7 -4.02,4.02 -10.25,3.04 -15.4,3.23 -0.02,2.81 -0.02,5.62 -0.03,8.44 -1.72,0.02 -3.43,0.05 -5.12,0.08 -0.07,-9.73 -0.03,-19.46 -0.03,-29.18 m 5.17,4.62 c 0.22,3.73 -0.52,7.72 0.32,11.32 3.46,0.1 7.42,0.7 10.49,-1.3 2.49,-2.55 2.43,-8.39 -1.55,-9.48 -3,-0.88 -6.18,-0.51 -9.26,-0.54 z"
         id="path39" />
      <path
         fill="#5c5e60"
         opacity="0.85"
         d="m 771.19,363.81 c 6.9,-0.06 13.81,-0.02 20.72,-0.03 0,1.56 0,3.13 0,4.7 -5.17,0.02 -10.34,0.05 -15.5,-0.02 -0.06,2.49 -0.07,4.99 -0.01,7.5 4.6,-0.07 9.21,-0.04 13.82,-0.04 0.02,1.55 0.04,3.1 0.07,4.66 -4.64,0.05 -9.29,0.03 -13.93,0.04 -0.01,2.48 -0.01,4.97 -0.01,7.47 5.34,0.05 10.69,-0.05 16.04,0.08 -0.01,1.56 0,3.13 0.02,4.7 -7.07,0.14 -14.14,0.1 -21.21,0.02 -0.03,-9.7 0,-19.39 -0.01,-29.08 z"
         id="path40" />
      <path
         fill="#5c5e60"
         opacity="0.85"
         d="m 798.18,363.85 c 6.05,0.18 12.3,-0.86 18.2,0.81 5.09,1.5 6.13,7.8 4.79,12.26 -0.65,2.82 -3.29,4.33 -5.52,5.81 2.57,3.32 5.02,6.73 7.37,10.22 -2.23,-0.01 -4.44,-0.04 -6.65,-0.13 -2.15,-3.27 -4.47,-6.41 -6.7,-9.61 -2.11,-0.02 -4.21,-0.02 -6.31,-0.01 0.01,3.25 0.01,6.51 -0.02,9.76 -1.72,-0.03 -3.42,-0.05 -5.13,-0.08 -0.04,-9.68 0.03,-19.35 -0.03,-29.03 m 5.2,4.55 c -0.02,3.39 -0.02,6.78 0,10.18 3.75,-0.13 7.76,0.52 11.29,-1.08 2.64,-2.17 2.51,-8.13 -1.43,-8.76 -3.25,-0.63 -6.58,-0.3 -9.86,-0.34 z"
         id="path41" />
      <path
         fill="#5c5e60"
         opacity="0.85"
         d="m 828.48,363.79 c 6.52,-0.02 13.04,-0.01 19.57,0 -0.05,1.58 -0.08,3.17 -0.12,4.77 -4.77,-0.09 -9.52,-0.07 -14.28,-0.04 -0.02,2.56 -0.01,5.12 0,7.68 4.28,0.03 8.57,0.01 12.86,0.06 0.01,1.54 0.02,3.09 0.05,4.64 -4.3,0.28 -8.61,0.19 -12.91,0.18 -0.02,3.93 -0.01,7.86 -0.01,11.79 -1.71,0.04 -3.43,0.07 -5.11,0.11 -0.13,-9.73 -0.04,-19.46 -0.05,-29.19 z"
         id="path42" />
      <path
         fill="#5c5e60"
         opacity="0.85"
         d="m 853.9,363.78 c 1.71,0 3.44,0.01 5.18,0.02 0,9.69 0,19.38 -0.01,29.08 -1.73,0.02 -3.45,0.05 -5.16,0.07 -0.03,-9.72 -0.02,-19.45 -0.01,-29.17 z"
         id="path43" />
      <path
         fill="#5c5e60"
         opacity="0.85"
         d="m 866.81,363.78 c 1.7,0 3.4,0.01 5.12,0.02 0.02,8.06 -0.04,16.11 0.03,24.17 4.37,0.04 8.75,0.03 13.13,0.03 -0.02,1.64 -0.01,3.29 0,4.94 -6.09,0 -12.18,0.01 -18.26,0 -0.04,-9.72 -0.02,-19.44 -0.02,-29.16 z"
         id="path44" />
      <path
         fill="#5c5e60"
         opacity="0.85"
         d="m 933.24,363.9 c 1.73,-0.06 3.46,-0.12 5.21,-0.17 0,9.75 0.05,19.49 -0.03,29.24 -1.72,-0.03 -3.42,-0.05 -5.12,-0.08 -0.06,-9.66 0.05,-19.33 -0.06,-28.99 z"
         id="path45" />
    </g>
  </g>
</svg>
