<?xml version="1.0" encoding="UTF-8" standalone="no"?>
<svg
   id="maptilerLogo"
   width="160.27817"
   height="40.5574"
   viewBox="0 0 210.68011 53.110881"
   fill="none"
   version="1.1"
   sodipodi:docname="maptiler-logo.svg"
   inkscape:version="1.4 (e7c3feb100, 2024-10-09)"
   xmlns:inkscape="http://www.inkscape.org/namespaces/inkscape"
   xmlns:sodipodi="http://sodipodi.sourceforge.net/DTD/sodipodi-0.dtd"
   xmlns="http://www.w3.org/2000/svg"
   xmlns:svg="http://www.w3.org/2000/svg">
  <defs
     id="defs17" />
  <sodipodi:namedview
     id="namedview17"
     pagecolor="#ffffff"
     bordercolor="#000000"
     borderopacity="0.25"
     inkscape:showpageshadow="2"
     inkscape:pageopacity="0.0"
     inkscape:pagecheckerboard="0"
     inkscape:deskcolor="#d1d1d1"
     inkscape:zoom="3.4559748"
     inkscape:cx="157.84258"
     inkscape:cy="20.544131"
     inkscape:window-width="1920"
     inkscape:window-height="1003"
     inkscape:window-x="0"
     inkscape:window-y="0"
     inkscape:window-maximized="1"
     inkscape:current-layer="maptilerLogo" />
  <path
     d="m 14.14011,43.314195 c 2.7049,2.6627 9.9035,9.8863 9.9002,9.8931 -0.0259,0.0469 7.1522,-7.0474 10.0109,-9.8599 l -9.9728,-9.8164 z"
     fill="#3a1888"
     id="path1" />
  <path
     d="m 24.07811,33.531295 9.9728,9.8163 c 0.0148,-0.0161 0.0328,-0.0355 0.0492,-0.0492 l 9.9634,-9.8071 -9.9724,-9.8167 z"
     fill="#03a1c4"
     id="path2" />
  <path
     d="m 44.06321,33.491395 0.0255,-0.0262 c 5.5107,-5.4247 5.5148,-14.2165 0.0164,-19.6481 l -10.0138,9.8576 z"
     fill="#05d0df"
     id="path3" />
  <path
     d="m 14.06471,23.674595 -9.9358001,9.7812 c 0.00246,0.0028 0.00369,0.0068 0.00738,0.0089 l 9.9879201,9.8333 c 0.0054,0.0052 0.0107,0.0101 0.0164,0.0161 l 9.9379,-9.7828 z"
     fill="#761fe8"
     id="path4" />
  <path
     d="m 24.07811,13.817395 10.013,9.8576 10.0138,-9.8576 c -0.0082,-0.0056 -0.0111,-0.0101 -0.0164,-0.0165 l -9.9884,-9.8321401 c -0.002,-0.00323 -0.0057,-0.00525 -0.0086,-0.00808 z"
     fill="#ffaa01"
     id="path5" />
  <path
     d="m 4.0860299,13.851295 c -5.461885,5.4312 -5.448346,14.1906 0.04267,19.6048 l 9.9358101,-9.7812 z"
     fill="#f1175d"
     id="path6" />
  <path
     d="M 24.07821,13.817495 14.09891,3.9938849 4.1359899,13.800895 c -0.01723,0.0166 -0.03241,0.0348 -0.05005,0.0505 l 9.9784701,9.8237 z"
     fill="#fb3a1b"
     id="path7" />
  <path
     d="m 34.09141,3.9604249 c -5.5177,-5.421892 -14.4537,-5.418661 -19.9677,0.00808 l -0.0246,0.02504 9.9793,9.8236501 z"
     fill="#fbc935"
     id="path8" />
  <path
     d="m 75.39581,35.948795 v -10.0454 c 0,-2.4732 -1.3149,-4.7179 -3.9057,-4.7179 -2.5519,0 -4.0575,2.2447 -4.0575,4.7179 v 10.0454 h -4.7148 v -18.7963 h 4.3668 l 0.348,2.2843 c 1.0051,-1.9039 3.2078,-2.5884 5.0229,-2.5884 2.2823,0 4.5621,0.9143 5.6448,3.5003 1.7006,-2.6631 3.9058,-3.424 6.3772,-3.424 5.4127,0 8.079,3.2713 8.079,8.9036 v 10.1205 h -4.7164 v -10.1205 c 0,-2.4728 -1.0434,-4.5673 -3.5923,-4.5673 -2.5531,0 -4.1376,2.1692 -4.1376,4.6424 v 10.0454 z"
     fill="currentColor"
     id="path9" />
  <path
     d="m 112.46211,17.191595 h 4.523 v 18.7567 h -4.446 l -0.232,-2.7382 c -1.081,2.2059 -4.057,3.2697 -6.184,3.3089 -5.641,0.0396 -9.8174,-3.3864 -9.8174,-9.9694 0,-6.4671 4.3694,-9.8527 9.9354,-9.8152 2.55,0 4.984,1.1793 6.066,3.044 z m -11.44,9.3584 c 0,3.5762 2.512,5.7078 5.643,5.7078 7.42,0 7.42,-11.3761 0,-11.3761 -3.131,0 -5.643,2.0925 -5.643,5.6683 z"
     fill="currentColor"
     id="path10" />
  <path
     d="m 120.96711,43.789795 v -26.5978 h 4.408 l 0.306,2.5868 c 1.47,-2.0933 4.022,-3.0056 6.186,-3.0056 5.873,0 9.78,4.2995 9.78,9.8163 0,5.4789 -3.519,9.8164 -9.626,9.8164 -2.008,0 -4.986,-0.6103 -6.34,-2.6635 v 10.047 h -4.714 z m 15.965,-17.2003 c 0,-2.9292 -2.011,-5.3282 -5.412,-5.3282 -3.402,0 -5.413,2.399 -5.413,5.3282 0,2.9281 2.204,5.3282 5.413,5.3282 3.209,0 5.412,-2.3997 5.412,-5.3282 z"
     fill="currentColor"
     id="path11" />
  <path
     d="m 150.07311,11.484095 v 5.6683 h 6.494 v 1.5597 h -6.494 v 11.4528 c 0,2.5492 0.542,4.3383 3.518,4.3383 0.927,0 1.971,-0.3049 2.937,-0.7613 l 0.657,1.5198 c -1.199,0.5743 -2.398,0.9535 -3.594,0.9535 -4.058,0 -5.373,-2.3594 -5.373,-6.0499 v -11.4528 h -4.059 v -1.5597 h 4.059 v -5.4785 z"
     fill="currentColor"
     id="path12" />
  <path
     d="m 163.44811,11.026995 c 0,1.9785 -3.054,1.9785 -3.054,0 0,-1.9777401 3.054,-1.9777401 3.054,0 z m -2.512,6.0499 v 18.8726 h 1.892 v -18.8726 z"
     fill="currentColor"
     id="path13" />
  <path
     d="M 170.13411,9.3161949 V 35.949095 h -1.894 V 9.3161949 Z"
     fill="currentColor"
     id="path14" />
  <path
     d="m 200.16711,17.152695 0.077,3.3501 c 1.199,-2.5512 3.905,-3.5395 6.34,-3.5395 1.431,-0.0383 2.819,0.3417 4.096,1.1042 l -0.851,1.5214 c -1.002,-0.6087 -2.126,-0.876 -3.245,-0.876 -3.558,0.0391 -6.302,2.8537 -6.302,6.2789 v 10.9576 h -1.894 v -18.7967 z"
     fill="currentColor"
     id="path15" />
  <path
     d="m 176.57511,29.737395 c 0.001,0.0017 0.003,0.0041 0.003,0.0057 l 15.459,-4.0281 c -0.001,-0.0061 -0.002,-0.0114 -0.002,-0.017 z"
     fill="currentColor"
     id="path16" />
  <path
     d="m 184.03311,34.818795 c -3.365,0 -6.248,-2.0755 -7.454,-5.0233 h -0.011 l 0.009,-0.0016 c 0,-0.0012 -0.001,-0.0032 -0.002,-0.0045 l 15.459,-4.0398 c 0,0.0068 0.001,0.0121 0.002,0.0182 l 1.646,-0.429 c -0.665,-4.7611 -4.731,-8.425 -9.649,-8.425 -5.382,0 -9.743,4.3872 -9.743,9.799 0,5.4118 4.361,9.8006 9.743,9.8006 4.025,0 7.48,-2.4563 8.966,-5.9578 l -1.551,-0.6636 c -1.228,2.8953 -4.086,4.9268 -7.415,4.9268 z m -8.059,-8.1064 c 0,-4.476 3.608,-8.1056 8.059,-8.1056 3.48,0 6.445,2.218 7.574,5.327 l -15.532,4.0572 c -0.066,-0.4168 -0.101,-0.8428 -0.101,-1.2786 z"
     fill="currentColor"
     id="path17" />
</svg>
