<?xml version="1.0" encoding="UTF-8" standalone="no"?>
<!-- Created with Inkscape (http://www.inkscape.org/) -->

<svg
   width="128.4084mm"
   height="39.4851mm"
   viewBox="0 0 128.4084 39.4851"
   version="1.1"
   id="svg1012"
   inkscape:version="1.4 (e7c3feb100, 2024-10-09)"
   sodipodi:docname="qgis_esp.svg"
   inkscape:export-filename="/home/miguel/nextcloud/cloud.montera34.org/Design/00_own_designs/qgis_es/Q-ESP.png"
   inkscape:export-xdpi="142.52238"
   inkscape:export-ydpi="142.52238"
   xmlns:inkscape="http://www.inkscape.org/namespaces/inkscape"
   xmlns:sodipodi="http://sodipodi.sourceforge.net/DTD/sodipodi-0.dtd"
   xmlns="http://www.w3.org/2000/svg"
   xmlns:svg="http://www.w3.org/2000/svg"
   xmlns:rdf="http://www.w3.org/1999/02/22-rdf-syntax-ns#"
   xmlns:cc="http://creativecommons.org/ns#"
   xmlns:dc="http://purl.org/dc/elements/1.1/">
  <defs
     id="defs1006">
    <inkscape:path-effect
       effect="powerclip"
       message=""
       id="path-effect9"
       is_visible="true"
       lpeversion="1"
       inverse="true"
       flatten="false"
       hide_clip="false" />
    <inkscape:path-effect
       effect="powerclip"
       message=""
       id="path-effect8"
       is_visible="true"
       lpeversion="1"
       inverse="true"
       flatten="false"
       hide_clip="false" />
    <inkscape:path-effect
       effect="powermask"
       id="path-effect24"
       is_visible="true"
       lpeversion="1"
       uri="#mask-powermask-path-effect24"
       invert="false"
       hide_mask="false"
       background="true"
       background_color="#ffffffff" />
    <inkscape:path-effect
       effect="powermask"
       id="path-effect21"
       is_visible="true"
       lpeversion="1"
       uri="#mask-powermask-path-effect21"
       invert="false"
       hide_mask="false"
       background="true"
       background_color="#ffffffff" />
    <linearGradient
       gradientTransform="matrix(0.26458333,0,0,0.26458333,26.21187,80.533849)"
       id="SVGID_5_-3"
       gradientUnits="userSpaceOnUse"
       x1="188.7529"
       y1="250.2354"
       x2="186.5125"
       y2="102.9362">
      <stop
         offset="0"
         style="stop-color:#589632"
         id="stop36-6" />
      <stop
         offset="1"
         style="stop-color:#93B023"
         id="stop38-7" />
    </linearGradient>
    <linearGradient
       id="SVGID_4_"
       gradientUnits="userSpaceOnUse"
       x1="234.4702"
       y1="250.03419"
       x2="232.211"
       y2="101.4977"
       gradientTransform="translate(7.5590552,7.5590552)">
      <stop
         offset="0"
         style="stop-color:#589632"
         id="stop27" />
      <stop
         offset="1"
         style="stop-color:#93B023"
         id="stop29" />
    </linearGradient>
    <filter
       id="mask-powermask-path-effect19_inverse"
       inkscape:label="filtermask-powermask-path-effect19"
       style="color-interpolation-filters:sRGB"
       height="100"
       width="100"
       x="-50"
       y="-50">
      <feColorMatrix
         id="mask-powermask-path-effect19_primitive1"
         values="1"
         type="saturate"
         result="fbSourceGraphic" />
      <feColorMatrix
         id="mask-powermask-path-effect19_primitive2"
         values="-1 0 0 0 1 0 -1 0 0 1 0 0 -1 0 1 0 0 0 1 0 "
         in="fbSourceGraphic" />
    </filter>
    <clipPath
       clipPathUnits="userSpaceOnUse"
       id="clipPath8">
      <path
         id="path8"
         style="font-weight:600;font-size:6.45227px;line-height:1.25;font-family:Trueno;-inkscape-font-specification:'Trueno, Semi-Bold';letter-spacing:0px;word-spacing:0px;display:none;fill:#000000;stroke-width:0.264583px"
         d="m 224.26785,196.95837 -12.32813,12.3281 9.18359,9.18558 2.3086,-2.30665 -6.51758,-6.5176 2.73047,-2.73045 5.70703,5.70701 2.30664,-2.30664 -5.70703,-5.70701 2.67773,-2.67772 6.33008,6.33199 2.3086,-2.30661 z m 10.89257,13.11326 c -1.23833,-0.0113 -2.41204,0.45502 -3.39062,1.43362 -4.36786,4.36788 3.28576,9.30988 0.96093,11.63474 -0.75733,0.75731 -1.83813,0.52127 -2.93554,-0.57615 -1.24933,-1.24932 -2.24951,-3.69245 -2.33789,-6.03519 l -3.33594,1.20707 c 0.15375,2.5138 1.32211,5.2303 3.26367,7.17184 2.61688,2.61687 5.92891,3.32308 8.3418,0.91019 4.45401,-4.42261 -3.10989,-9.45067 -0.83789,-11.72266 0.66926,-0.66928 1.61105,-0.39677 2.50586,0.49803 0.94546,0.94545 1.93772,2.92494 2.41211,4.94922 l 3.33789,-1.27733 c -0.37164,-1.992 -1.49781,-4.17555 -3.15235,-5.83008 -1.53847,-1.53849 -3.23988,-2.3475 -4.83203,-2.3633 z m 11.14063,8.91991 -12.32813,12.32814 2.66602,2.66797 3.52344,-3.52342 2.3457,2.34765 c 3.00521,3.00521 6.38309,3.07185 9.2539,0.20107 2.72992,-2.72992 2.55795,-6.00261 -0.44726,-9.00782 z m 0.35935,4.97462 2.2129,2.21095 c 1.48571,1.48569 1.64328,3.01685 0.26951,4.39064 -1.40899,1.40897 -2.95764,1.26909 -4.44336,-0.21695 l -2.21289,-2.21095 z" />
      <path
         id="lpe_path-effect8"
         style="font-weight:600;font-size:6.45227px;line-height:1.25;font-family:Trueno;-inkscape-font-specification:'Trueno, Semi-Bold';letter-spacing:0px;word-spacing:0px;fill:#000000;stroke-width:0.264583px"
         class="powerclip"
         d="m 199,184 h 70 v 69 h -70 z m 25.26785,12.95837 -12.32813,12.3281 9.18359,9.18558 2.3086,-2.30665 -6.51758,-6.5176 2.73047,-2.73045 5.70703,5.70701 2.30664,-2.30664 -5.70703,-5.70701 2.67773,-2.67772 6.33008,6.33199 2.3086,-2.30661 z m 10.89257,13.11326 c -1.23833,-0.0113 -2.41204,0.45502 -3.39062,1.43362 -4.36786,4.36788 3.28576,9.30988 0.96093,11.63474 -0.75733,0.75731 -1.83813,0.52127 -2.93554,-0.57615 -1.24933,-1.24932 -2.24951,-3.69245 -2.33789,-6.03519 l -3.33594,1.20707 c 0.15375,2.5138 1.32211,5.2303 3.26367,7.17184 2.61688,2.61687 5.92891,3.32308 8.3418,0.91019 4.45401,-4.42261 -3.10989,-9.45067 -0.83789,-11.72266 0.66926,-0.66928 1.61105,-0.39677 2.50586,0.49803 0.94546,0.94545 1.93772,2.92494 2.41211,4.94922 l 3.33789,-1.27733 c -0.37164,-1.992 -1.49781,-4.17555 -3.15235,-5.83008 -1.53847,-1.53849 -3.23988,-2.3475 -4.83203,-2.3633 z m 11.14063,8.91991 -12.32813,12.32814 2.66602,2.66797 3.52344,-3.52342 2.3457,2.34765 c 3.00521,3.00521 6.38309,3.07185 9.2539,0.20107 2.72992,-2.72992 2.55795,-6.00261 -0.44726,-9.00782 z m 0.35935,4.97462 -4.17384,4.17369 2.21289,2.21095 c 1.48572,1.48604 3.03437,1.62592 4.44336,0.21695 1.37377,-1.37379 1.2162,-2.90495 -0.26951,-4.39064 z" />
    </clipPath>
    <clipPath
       clipPathUnits="userSpaceOnUse"
       id="clipPath9">
      <path
         id="path9"
         style="font-weight:600;font-size:6.45227px;line-height:1.25;font-family:Trueno;-inkscape-font-specification:'Trueno, Semi-Bold';letter-spacing:0px;word-spacing:0px;display:none;fill:#000000;stroke-width:0.264583px"
         d="m 83.549405,130.64575 -3.261817,3.26181 2.429824,2.43035 0.610818,-0.6103 -1.724444,-1.72445 0.722437,-0.72243 1.509985,1.50998 0.610299,-0.6103 -1.509985,-1.50998 0.708483,-0.70848 1.674833,1.67534 0.610817,-0.61029 z m 2.881993,3.46955 c -0.327642,-0.003 -0.638186,0.12039 -0.897102,0.37931 -1.155663,1.15567 0.869358,2.46324 0.254246,3.07836 -0.200377,0.20037 -0.486338,0.13792 -0.776695,-0.15244 -0.330552,-0.33055 -0.595183,-0.97696 -0.618566,-1.59681 l -0.882635,0.31937 c 0.04068,0.66511 0.349809,1.38385 0.863513,1.89755 0.692383,0.69238 1.568691,0.87923 2.207101,0.24082 1.178457,-1.17015 -0.822825,-2.50049 -0.221691,-3.10162 0.177075,-0.17708 0.426257,-0.10498 0.663008,0.13177 0.250153,0.25015 0.512689,0.77389 0.638205,1.30948 l 0.88315,-0.33796 c -0.09833,-0.52705 -0.396296,-1.10478 -0.83406,-1.54254 -0.407053,-0.40706 -0.857218,-0.62111 -1.278474,-0.62529 z m 2.947625,2.36006 -3.261818,3.26182 0.705385,0.7059 0.932243,-0.93224 0.620633,0.62115 c 0.795129,0.79513 1.688859,0.81276 2.448428,0.0532 0.722291,-0.72229 0.676791,-1.58819 -0.118338,-2.38332 z m 0.09508,1.3162 0.585496,0.58498 c 0.393094,0.39309 0.434785,0.79821 0.07131,1.16169 -0.372795,0.37279 -0.782542,0.33578 -1.175639,-0.0574 l -0.585494,-0.58498 z" />
      <path
         id="lpe_path-effect9"
         style="font-weight:600;font-size:6.45227px;line-height:1.25;font-family:Trueno;-inkscape-font-specification:'Trueno, Semi-Bold';letter-spacing:0px;word-spacing:0px;fill:#000000;stroke-width:0.264583px"
         class="powerclip"
         d="M 65.778537,116.39635 H 99.06187 v 32.75417 H 65.778537 Z m 17.770868,14.2494 -3.261817,3.26181 2.429824,2.43035 0.610818,-0.6103 -1.724444,-1.72445 0.722437,-0.72243 1.509985,1.50998 0.610299,-0.6103 -1.509985,-1.50998 0.708483,-0.70848 1.674833,1.67534 0.610817,-0.61029 z m 2.881993,3.46955 c -0.327642,-0.003 -0.638186,0.12039 -0.897102,0.37931 -1.155663,1.15567 0.869358,2.46324 0.254246,3.07836 -0.200377,0.20037 -0.486338,0.13792 -0.776695,-0.15244 -0.330552,-0.33055 -0.595183,-0.97696 -0.618566,-1.59681 l -0.882635,0.31937 c 0.04068,0.66511 0.349809,1.38385 0.863513,1.89755 0.692383,0.69238 1.568691,0.87923 2.207101,0.24082 1.178457,-1.17015 -0.822825,-2.50049 -0.221691,-3.10162 0.177075,-0.17708 0.426257,-0.10498 0.663008,0.13177 0.250153,0.25015 0.512689,0.77389 0.638205,1.30948 l 0.88315,-0.33796 c -0.09833,-0.52705 -0.396296,-1.10478 -0.83406,-1.54254 -0.407053,-0.40706 -0.857218,-0.62111 -1.278474,-0.62529 z m 2.947625,2.36006 -3.261818,3.26182 0.705385,0.7059 0.932243,-0.93224 0.620633,0.62115 c 0.795129,0.79513 1.688859,0.81276 2.448428,0.0532 0.722291,-0.72229 0.676791,-1.58819 -0.118338,-2.38332 z m 0.09508,1.3162 -1.104327,1.10429 0.585494,0.58498 c 0.393097,0.39318 0.802844,0.43019 1.175639,0.0574 0.363475,-0.36348 0.321784,-0.7686 -0.07131,-1.16169 z" />
    </clipPath>
  </defs>
  <sodipodi:namedview
     id="base"
     pagecolor="#ffffff"
     bordercolor="#666666"
     borderopacity="1.0"
     inkscape:pageopacity="0.0"
     inkscape:pageshadow="2"
     inkscape:zoom="1.9529226"
     inkscape:cx="58.630075"
     inkscape:cy="78.088091"
     inkscape:document-units="mm"
     inkscape:current-layer="layer1"
     showgrid="false"
     fit-margin-top="2"
     fit-margin-left="2"
     fit-margin-bottom="2"
     fit-margin-right="2"
     inkscape:window-width="2560"
     inkscape:window-height="1364"
     inkscape:window-x="0"
     inkscape:window-y="0"
     inkscape:window-maximized="1"
     inkscape:pagecheckerboard="0"
     inkscape:showpageshadow="2"
     inkscape:deskcolor="#d1d1d1"
     showguides="true" />
  <metadata
     id="metadata1009">
    <rdf:RDF>
      <cc:Work
         rdf:about="">
        <dc:format>image/svg+xml</dc:format>
        <dc:type
           rdf:resource="http://purl.org/dc/dcmitype/StillImage" />
      </cc:Work>
    </rdf:RDF>
  </metadata>
  <g
     inkscape:label="Layer 1"
     inkscape:groupmode="layer"
     id="layer1"
     transform="translate(-53.56157,-104.66542)">
    <polygon
       transform="matrix(0.26458333,0,0,0.26458333,24.21187,78.533849)"
       style="display:inline;fill:#ee7913"
       points="195,202.37 195,180 216.513,180 198.306,162 176,162 176,183.433 "
       id="polygon3" />
    <polygon
       transform="matrix(0.26458333,0,0,0.26458333,24.21187,78.533849)"
       style="display:inline;fill:url(#SVGID_4_)"
       points="225.617,189 204,189 204,211.34 240.782,248 264,248 264,226.946 "
       id="polygon31"
       mask="none"
       clip-path="url(#clipPath8)"
       inkscape:path-effect="#path-effect8"
       d="M 225.617,189 H 204 v 22.34 L 240.782,248 H 264 v -21.054 z" />
    <polygon
       transform="matrix(0.26458333,0,0,0.26458333,24.21187,78.533849)"
       style="display:inline;fill:#f0e64a"
       points="204,211.34 204,189 225.617,189 216.513,180 195,180 195,202.37 "
       id="polygon33" />
    <path
       inkscape:connector-curvature="0"
       style="display:inline;fill:url(#SVGID_5_-3);stroke-width:0.264583"
       d="m 76.613128,135.91245 c -0.862277,0.19844 -1.75895,0.30613 -2.683933,0.30613 -6.615906,0 -12.242536,-5.44037 -12.242536,-12.49416 0,-7.05379 5.564717,-12.3743 12.242536,-12.3743 6.677819,0 11.99515,5.32024 11.99515,12.3743 0,1.14723 -0.142875,2.25107 -0.407194,3.29671 l 6.123517,6.12246 c 1.578769,-2.76622 2.461948,-5.9825 2.461948,-9.46627 0,-10.87173 -8.675952,-19.0119 -20.297246,-19.0119 -11.568113,0 -20.2438,8.08673 -20.2438,19.0119 0,10.97863 8.675952,19.22621 20.2438,19.22621 2.986352,0 5.777177,-0.54927 8.277225,-1.54887 z"
       id="path40" />
    <path
       d="m 70.778537,121.39635 23.283333,22.75417 v -5.57072 l -10.155452,-10.0397 -2.408639,-2.38125 -4.817277,-4.7625 z"
       id="polygon4174"
       style="display:inline;fill:#ffffff;fill-opacity:0.172549;stroke-width:0.264583"
       inkscape:connector-curvature="0"
       sodipodi:nodetypes="ccccccc"
       mask="none"
       clip-path="url(#clipPath9)"
       inkscape:path-effect="#path-effect9"
       inkscape:original-d="m 70.778537,121.39635 23.283333,22.75417 v -5.57072 l -10.155452,-10.0397 -2.408639,-2.38125 -4.817277,-4.7625 z" />
    <g
       aria-label="Asociación"
       transform="matrix(1.6759585,0,0,1.7483458,-68.490933,-78.598821)"
       id="text4170-2-0"
       style="font-weight:200;font-size:6.10737px;line-height:0%;font-family:Trueno;-inkscape-font-specification:'Trueno, Ultra-Light';letter-spacing:0px;word-spacing:0px;display:inline;fill:#5b9731;fill-opacity:1;stroke-width:0.297324px">
      <path
         d="m 99.500428,112.14051 h 0.280939 l 0.549663,-1.21537 h 2.49791 l 0.55577,1.21537 h 0.28094 l -1.95435,-4.26905 h -0.27484 z m 0.940532,-1.47188 1.12987,-2.50402 1.14207,2.50402 z"
         style="line-height:1.25;fill:#5b9731;fill-opacity:1;stroke-width:0.297324px"
         id="path42931" />
      <path
         d="m 103.88552,111.70689 c 0.29315,0.28094 0.72067,0.43973 1.16651,0.43973 0.57409,0 1.10543,-0.26262 1.10543,-0.85503 0,-1.12376 -1.85664,-0.70235 -1.85664,-1.55738 0,-0.37866 0.34812,-0.54967 0.79396,-0.54967 0.30537,0 0.58631,0.0855 0.80617,0.22598 l 0.10993,-0.20765 c -0.2504,-0.15269 -0.55577,-0.25041 -0.90999,-0.25041 -0.56188,0 -1.04436,0.2443 -1.04436,0.80007 0,1.09322 1.88106,0.68402 1.85664,1.58181 -0.0183,0.40308 -0.40309,0.5802 -0.84893,0.5802 -0.40309,0 -0.78785,-0.14658 -1.06268,-0.40309 z"
         style="line-height:1.25;fill:#5b9731;fill-opacity:1;stroke-width:0.297324px"
         id="path42933" />
      <path
         d="m 106.67658,110.54649 c 0,0.94053 0.6657,1.60013 1.56959,1.60013 0.91,0 1.56959,-0.6596 1.56959,-1.60013 0,-0.92832 -0.65959,-1.59403 -1.56959,-1.59403 -0.90389,0 -1.56959,0.66571 -1.56959,1.59403 z m 0.2504,0.006 c 0,-0.80006 0.55577,-1.35583 1.31919,-1.35583 0.76953,0 1.31919,0.55577 1.31919,1.35583 0,0.80007 -0.54966,1.35584 -1.31919,1.35584 -0.76342,0 -1.31919,-0.55577 -1.31919,-1.35584 z"
         style="line-height:1.25;fill:#5b9731;fill-opacity:1;stroke-width:0.297324px"
         id="path42935" />
      <path
         d="m 110.40206,110.55259 c 0,0.93443 0.6596,1.59403 1.55738,1.59403 0.4947,0 0.91611,-0.18933 1.19705,-0.51913 l -0.15269,-0.1649 c -0.24429,0.28705 -0.61073,0.44584 -1.03825,0.44584 -0.76342,0 -1.31308,-0.55577 -1.31308,-1.36194 0,-0.79396 0.54966,-1.34973 1.31308,-1.34973 0.39698,0 0.72678,0.14658 0.98329,0.38476 l 0.14657,-0.18322 c -0.28093,-0.28094 -0.67791,-0.44584 -1.13597,-0.44584 -0.89778,0 -1.55738,0.66571 -1.55738,1.60013 z"
         style="line-height:1.25;fill:#5b9731;fill-opacity:1;stroke-width:0.297324px"
         id="path42937" />
      <path
         d="m 114.07258,108.04247 c 0,0.12825 0.0977,0.22597 0.21376,0.22597 0.11604,0 0.21376,-0.0977 0.21376,-0.22597 0,-0.12215 -0.0977,-0.21987 -0.21376,-0.21987 -0.11604,0 -0.21376,0.0977 -0.21376,0.21987 z m 0.0855,4.09804 h 0.2504 v -3.18194 h -0.2504 z"
         style="line-height:1.25;fill:#5b9731;fill-opacity:1;stroke-width:0.297324px"
         id="path42939" />
      <path
         d="m 115.40398,111.21219 c 0,0.53745 0.42141,0.93443 1.05046,0.93443 0.54967,0 1.00161,-0.19544 1.27034,-0.63517 l 0.006,0.62906 h 0.25041 l -0.0122,-2.11315 c -0.006,-0.6596 -0.4153,-1.0749 -1.16651,-1.0749 -0.48248,0 -0.84892,0.17712 -1.22758,0.45195 l 0.12215,0.19543 c 0.33591,-0.2565 0.67181,-0.4153 1.06879,-0.4153 0.63517,0 0.94664,0.32369 0.95275,0.86114 v 0.31148 h -1.12986 c -0.73289,0 -1.18483,0.32369 -1.18483,0.85503 z m 0.24429,-0.006 c 0,-0.40919 0.34201,-0.62295 0.96497,-0.62295 h 1.11154 v 0.51913 c -0.19544,0.55577 -0.64128,0.81228 -1.23369,0.81228 -0.51913,0 -0.84282,-0.28705 -0.84282,-0.70846 z"
         style="line-height:1.25;fill:#5b9731;fill-opacity:1;stroke-width:0.297324px"
         id="path42941" />
      <path
         d="m 118.80578,110.55259 c 0,0.93443 0.65959,1.59403 1.55738,1.59403 0.49469,0 0.9161,-0.18933 1.19704,-0.51913 l -0.15268,-0.1649 c -0.2443,0.28705 -0.61074,0.44584 -1.03825,0.44584 -0.76343,0 -1.31309,-0.55577 -1.31309,-1.36194 0,-0.79396 0.54966,-1.34973 1.31309,-1.34973 0.39697,0 0.72677,0.14658 0.98328,0.38476 l 0.14658,-0.18322 c -0.28094,-0.28094 -0.67792,-0.44584 -1.13597,-0.44584 -0.89779,0 -1.55738,0.66571 -1.55738,1.60013 z"
         style="line-height:1.25;fill:#5b9731;fill-opacity:1;stroke-width:0.297324px"
         id="path42943" />
      <path
         d="m 122.4763,108.04247 c 0,0.12825 0.0977,0.22597 0.21376,0.22597 0.11604,0 0.21375,-0.0977 0.21375,-0.22597 0,-0.12215 -0.0977,-0.21987 -0.21375,-0.21987 -0.11604,0 -0.21376,0.0977 -0.21376,0.21987 z m 0.0855,4.09804 h 0.2504 v -3.18194 h -0.2504 z"
         style="line-height:1.25;fill:#5b9731;fill-opacity:1;stroke-width:0.297324px"
         id="path42945" />
      <path
         d="m 123.74662,110.54649 c 0,0.94053 0.6657,1.60013 1.56959,1.60013 0.91,0 1.5696,-0.6596 1.5696,-1.60013 0,-0.92832 -0.6596,-1.59403 -1.5696,-1.59403 -0.90389,0 -1.56959,0.66571 -1.56959,1.59403 z m 0.2504,0.006 c 0,-0.80006 0.55577,-1.35583 1.31919,-1.35583 0.76953,0 1.31919,0.55577 1.31919,1.35583 0,0.80007 -0.54966,1.35584 -1.31919,1.35584 -0.76342,0 -1.31919,-0.55577 -1.31919,-1.35584 z m 1.081,-2.19865 h 0.28705 l 0.78174,-0.62906 -0.2504,-0.12215 z"
         style="line-height:1.25;fill:#5b9731;fill-opacity:1;stroke-width:0.297324px"
         id="path42947" />
      <path
         d="m 127.81412,112.14051 h 0.25651 v -1.72228 c 0.055,-0.73288 0.50691,-1.19093 1.23979,-1.20926 0.65349,0 1.03826,0.38477 1.03826,1.03826 v 1.89328 h 0.25651 v -1.94214 c 0,-0.77564 -0.45806,-1.24591 -1.23369,-1.24591 -0.63517,0.0122 -1.08711,0.29316 -1.30087,0.81839 v -0.81228 h -0.25651 z"
         style="line-height:1.25;fill:#5b9731;fill-opacity:1;stroke-width:0.297324px"
         id="path42949" />
    </g>
    <g
       aria-label="España"
       transform="matrix(1.1560853,0,0,1.2060184,25.735633,-28.694716)"
       id="text4170-2-0-8"
       style="font-weight:200;font-size:9.34078px;line-height:0%;font-family:Trueno;-inkscape-font-specification:'Trueno, Ultra-Light';letter-spacing:0px;word-spacing:0px;display:inline;fill:#5b9731;fill-opacity:1;stroke-width:0.659222px">
      <path
         d="m 100.33643,134.5103 h 4.33412 v -0.38297 h -3.94181 v -2.76487 h 3.40005 v -0.39232 h -3.40005 v -2.60607 h 3.82038 v -0.38298 h -4.21269 z"
         style="line-height:1.25;fill:#5b9731;fill-opacity:1;stroke-width:0.659222px"
         id="path42952" />
      <path
         d="m 105.52056,133.8471 c 0.44836,0.42968 1.10221,0.67254 1.78409,0.67254 0.87803,0 1.69068,-0.40165 1.69068,-1.30771 0,-1.7187 -2.8396,-1.07419 -2.8396,-2.3819 0,-0.57913 0.53243,-0.84067 1.2143,-0.84067 0.46704,0 0.89672,0.13077 1.23299,0.34561 l 0.16813,-0.31759 c -0.38297,-0.23352 -0.85001,-0.38297 -1.39178,-0.38297 -0.85935,0 -1.59727,0.37363 -1.59727,1.22364 0,1.672 2.87696,1.04617 2.8396,2.41927 -0.028,0.61649 -0.61649,0.88737 -1.29837,0.88737 -0.61649,0 -1.20496,-0.22418 -1.6253,-0.61649 z"
         style="line-height:1.25;fill:#5b9731;fill-opacity:1;stroke-width:0.659222px"
         id="path42954" />
      <path
         d="m 110.35907,136.32241 h 0.39231 v -3.08246 c 0.36429,0.78463 1.11155,1.27969 2.06431,1.27969 1.3731,0 2.34454,-1.01814 2.34454,-2.43794 0,-1.42914 -0.98078,-2.44729 -2.34454,-2.44729 -0.95276,0 -1.70002,0.49506 -2.06431,1.28903 v -1.27969 h -0.39231 z m 0.39231,-4.24071 c 0,-1.20496 0.84067,-2.083 2.00827,-2.083 1.17694,0 2.01761,0.87804 2.01761,2.083 0,1.20496 -0.84067,2.07365 -2.01761,2.07365 -1.1676,0 -2.00827,-0.86869 -2.00827,-2.07365 z"
         style="line-height:1.25;fill:#5b9731;fill-opacity:1;stroke-width:0.659222px"
         id="path42956" />
      <path
         d="m 116.15035,133.0905 c 0,0.82199 0.64451,1.42914 1.60661,1.42914 0.84067,0 1.53189,-0.2989 1.94288,-0.97144 l 0.009,0.9621 h 0.38298 l -0.0187,-3.23191 c -0.009,-1.0088 -0.63517,-1.64398 -1.78408,-1.64398 -0.73793,0 -1.29837,0.27089 -1.8775,0.69122 l 0.18681,0.29891 c 0.51375,-0.39232 1.02749,-0.63518 1.63464,-0.63518 0.97144,0 1.44782,0.49506 1.45716,1.31705 v 0.47638 h -1.72804 c -1.1209,0 -1.81211,0.49506 -1.81211,1.30771 z m 0.37363,-0.009 c 0,-0.62583 0.52308,-0.95276 1.47584,-0.95276 h 1.70002 v 0.79397 c -0.2989,0.85001 -0.98078,1.24232 -1.88683,1.24232 -0.79397,0 -1.28903,-0.43902 -1.28903,-1.08353 z"
         style="line-height:1.25;fill:#5b9731;fill-opacity:1;stroke-width:0.659222px"
         id="path42958" />
      <path
         d="m 121.87624,134.5103 h 0.39231 v -2.6341 c 0.0841,-1.12089 0.77529,-1.82145 1.89618,-1.84947 0.99946,0 1.58793,0.58846 1.58793,1.58793 v 2.89564 h 0.39232 v -2.97037 c 0,-1.18628 -0.70056,-1.90552 -1.88684,-1.90552 -0.97144,0.0187 -1.66266,0.44836 -1.98959,1.25167 v -1.24233 h -0.39231 z m 0.86869,-5.95008 h 0.29891 c 0,-0.33627 0.14945,-0.53242 0.43901,-0.53242 0.39232,0 0.6165,0.61649 1.15826,0.61649 0.43902,0 0.69122,-0.30825 0.69122,-0.85935 h -0.29891 c 0,0.33627 -0.14945,0.53242 -0.43901,0.53242 -0.38298,0 -0.68188,-0.61649 -1.15826,-0.61649 -0.43902,0 -0.69122,0.30825 -0.69122,0.85935 z"
         style="line-height:1.25;fill:#5b9731;fill-opacity:1;stroke-width:0.659222px"
         id="path42960" />
      <path
         d="m 127.49938,133.0905 c 0,0.82199 0.64451,1.42914 1.60661,1.42914 0.84067,0 1.53189,-0.2989 1.94288,-0.97144 l 0.009,0.9621 h 0.38297 l -0.0187,-3.23191 c -0.009,-1.0088 -0.63518,-1.64398 -1.78409,-1.64398 -0.73792,0 -1.29837,0.27089 -1.8775,0.69122 l 0.18682,0.29891 c 0.51374,-0.39232 1.02748,-0.63518 1.63463,-0.63518 0.97144,0 1.44782,0.49506 1.45716,1.31705 v 0.47638 h -1.72804 c -1.12089,0 -1.81211,0.49506 -1.81211,1.30771 z m 0.37363,-0.009 c 0,-0.62583 0.52308,-0.95276 1.47584,-0.95276 h 1.70002 v 0.79397 c -0.2989,0.85001 -0.98078,1.24232 -1.88683,1.24232 -0.79397,0 -1.28903,-0.43902 -1.28903,-1.08353 z"
         style="line-height:1.25;fill:#5b9731;fill-opacity:1;stroke-width:0.659222px"
         id="path42962" />
    </g>
    <g
       aria-label="QGIS"
       transform="matrix(1.276594,0,0,1.3317321,-30.341494,-31.877004)"
       id="text4170-2-0-7"
       style="font-weight:200;font-size:13.2136px;line-height:0%;font-family:Trueno;-inkscape-font-specification:'Trueno, Ultra-Light';letter-spacing:0px;word-spacing:0px;display:inline;fill:#5b9731;fill-opacity:1;stroke-width:0.844508px">
      <path
         d="m 100.14916,119.5047 c 0,2.56344 2.1406,4.63798 4.78332,4.63798 h 0.22464 c 0.96459,1.13637 1.92918,1.71776 2.88056,1.71776 0.73996,0 1.49314,-0.33034 2.20667,-1.00423 l -0.27748,-0.40962 c -0.64747,0.5814 -1.28172,0.89852 -1.88955,0.89852 -0.71353,0 -1.45349,-0.43604 -2.28595,-1.28171 2.2331,-0.3832 3.92444,-2.27274 3.92444,-4.5587 0,-2.56344 -2.14061,-4.62476 -4.78333,-4.62476 -2.64272,0 -4.78332,2.06132 -4.78332,4.62476 z m 0.56819,0 c 0,-2.25952 1.90275,-4.083 4.21513,-4.083 2.31238,0 4.21514,1.82348 4.21514,4.083 0,2.25953 -1.90276,4.09622 -4.21514,4.09622 -2.31238,0 -4.21513,-1.83669 -4.21513,-4.09622 z"
         style="line-height:1.25;fill:#5b9731;fill-opacity:1;stroke-width:0.844508px"
         id="path42965" />
      <path
         d="m 111.11642,119.5047 c 0,2.56344 2.14061,4.63798 4.77011,4.63798 1.22887,0 2.41809,-0.46248 3.27698,-1.20244 v -3.34304 h -0.50212 v 3.06555 c -0.75318,0.59462 -1.73098,0.95138 -2.74843,0.95138 -2.33881,0 -4.24156,-1.83669 -4.24156,-4.10943 0,-2.25952 1.90275,-4.09621 4.24156,-4.09621 1.10994,0 2.15382,0.40962 2.92021,1.09673 l 0.33034,-0.40963 c -0.85889,-0.75317 -2.00847,-1.21565 -3.25055,-1.21565 -2.64272,0 -4.79654,2.06132 -4.79654,4.62476 z"
         style="line-height:1.25;fill:#5b9731;fill-opacity:1;stroke-width:0.844508px"
         id="path42967" />
      <path
         d="m 122.11013,124.12946 h 0.55497 v -9.2363 h -0.55497 z"
         style="line-height:1.25;fill:#5b9731;fill-opacity:1;stroke-width:0.844508px"
         id="path42969" />
      <path
         d="m 124.75285,122.8081 c 0.80603,0.79282 2.06132,1.33458 3.29018,1.33458 1.92919,0 3.21091,-0.92496 3.21091,-2.35202 0.0264,-3.40911 -5.40436,-1.95562 -5.40436,-4.77011 0,-0.9646 0.95138,-1.57242 2.41808,-1.57242 0.79282,0 1.73099,0.22463 2.41809,0.67389 l 0.25106,-0.50212 c -0.68711,-0.44926 -1.70455,-0.75317 -2.64272,-0.75317 -1.82347,0 -3.03913,0.85888 -3.03913,2.19346 0,3.32982 5.43079,1.8499 5.40437,4.74368 0,1.08351 -1.01745,1.77062 -2.60308,1.77062 -1.08352,0 -2.25953,-0.47569 -3.0127,-1.25529 z"
         style="line-height:1.25;fill:#5b9731;fill-opacity:1;stroke-width:0.844508px"
         id="path42971" />
    </g>
  </g>
</svg>
