<?xml version="1.0" encoding="UTF-8" standalone="no"?>
<svg
   xmlns:dc="http://purl.org/dc/elements/1.1/"
   xmlns:cc="http://creativecommons.org/ns#"
   xmlns:rdf="http://www.w3.org/1999/02/22-rdf-syntax-ns#"
   xmlns:svg="http://www.w3.org/2000/svg"
   xmlns="http://www.w3.org/2000/svg"
   xmlns:sodipodi="http://sodipodi.sourceforge.net/DTD/sodipodi-0.dtd"
   xmlns:inkscape="http://www.inkscape.org/namespaces/inkscape"
   width="126.99828mm"
   height="22.770039mm"
   viewBox="0 0 126.99827 22.770039"
   version="1.1"
   id="svg1355"
   inkscape:version="1.0.2 (e86c870879, 2021-01-15)"
   sodipodi:docname="TEconecta-Soastel-h-a.svg"
   inkscape:export-filename="/home/alejandro/Nextcloud/Imagenes/LOGOScombinado/TEconecta-Soastel-h-a.png"
   inkscape:export-xdpi="406.04236"
   inkscape:export-ydpi="406.04236">
  <defs
     id="defs1349" />
  <sodipodi:namedview
     id="base"
     pagecolor="#ffffff"
     bordercolor="#666666"
     borderopacity="1.0"
     inkscape:pageopacity="0.0"
     inkscape:pageshadow="2"
     inkscape:zoom="1.979899"
     inkscape:cx="279.48306"
     inkscape:cy="53.693019"
     inkscape:document-units="mm"
     inkscape:current-layer="layer1"
     showgrid="false"
     fit-margin-top="1"
     fit-margin-left="1"
     fit-margin-right="1"
     fit-margin-bottom="1"
     inkscape:window-width="1918"
     inkscape:window-height="1038"
     inkscape:window-x="1920"
     inkscape:window-y="20"
     inkscape:window-maximized="1"
     inkscape:document-rotation="0" />
  <metadata
     id="metadata1352">
    <rdf:RDF>
      <cc:Work
         rdf:about="">
        <dc:format>image/svg+xml</dc:format>
        <dc:type
           rdf:resource="http://purl.org/dc/dcmitype/StillImage" />
        <dc:title />
      </cc:Work>
    </rdf:RDF>
  </metadata>
  <g
     inkscape:label="Layer 1"
     inkscape:groupmode="layer"
     id="layer1"
     transform="translate(-42.874134,-116.1661)">
    <g
       id="g28"
       transform="matrix(0.35277777,0,0,-0.35277777,88.603496,122.70429)">
      <path
         d="m 0,0 -4.032,0.002 c -0.254,0 -0.494,-0.075 -0.723,-0.228 -0.227,-0.151 -0.367,-0.329 -0.418,-0.531 l -0.419,-1.749 c -0.052,-0.203 -0.007,-0.38 0.132,-0.532 0.14,-0.152 0.349,-0.229 0.628,-0.229 l 4.033,-0.002 z"
         style="fill:#81868a;fill-opacity:1;fill-rule:nonzero;stroke:none"
         id="path30"
         inkscape:connector-curvature="0" />
    </g>
    <g
       id="g44"
       transform="matrix(0.35277777,0,0,-0.35277777,88.287901,123.85752)">
      <path
         d="m 0,0 4.032,-0.002 c 0.254,0 0.494,0.075 0.723,0.228 0.227,0.151 0.367,0.329 0.418,0.531 L 5.592,2.506 C 5.644,2.709 5.599,2.886 5.46,3.038 5.32,3.19 5.111,3.267 4.832,3.267 L 0.799,3.269 Z"
         style="fill:#81868a;fill-opacity:1;fill-rule:nonzero;stroke:none"
         id="path46"
         inkscape:connector-curvature="0" />
    </g>
    <g
       id="g48"
       transform="matrix(0.35277777,0,0,-0.35277777,87.002555,118.61168)">
      <path
         d="m 0,0 12.946,-0.011 c 0.006,0.015 0.02,0.028 0.042,0.028 l 6.741,-0.019 c 0,0.154 -0.004,0.302 -0.017,0.441 -0.063,0.685 -0.31,1.236 -0.74,1.655 -0.431,0.418 -1.058,0.717 -1.881,0.895 -0.823,0.178 -1.857,0.267 -3.098,0.268 L 0.535,3.269 C 0.277,3.27 0.029,3.265 -0.214,3.257 l -0.931,-3.803 c 0.068,0.142 0.138,0.25 0.213,0.319 C -0.767,-0.075 -0.456,0 0,0"
         style="fill:#81868a;fill-opacity:1;fill-rule:nonzero;stroke:none"
         id="path50"
         inkscape:connector-curvature="0" />
    </g>
    <g
       id="g652"
       transform="matrix(0.23110375,0,0,-0.23110375,52.221594,132.05261)">
      <path
         d="m 0,0 c -3.564,3.248 -9.345,8.382 -9.302,14.914 0.095,14.195 14.665,22.532 33.781,22.532 0.431,0 0.844,0.019 1.272,0.009 l 0.022,7.988 C 25.488,45.448 25.185,45.428 24.911,45.431 4.009,45.66 -13.907,32.953 -13.909,19.376 -13.909,10.151 -6.628,4.294 0,0"
         style="fill:#00a1e3;fill-opacity:1;fill-rule:nonzero;stroke:none"
         id="path654"
         inkscape:connector-curvature="0" />
    </g>
    <g
       id="g660"
       transform="matrix(0.23110375,0,0,-0.23110375,55.930322,129.67647)">
      <path
         d="m 0,0 c -1.928,1.579 -4.301,2.903 -4.28,6.676 0.025,4.647 3.964,9.119 13.458,9.119 0.214,0 0.515,0.026 0.728,0.02 L 9.818,20.452 C 9.816,20.454 9.815,20.456 9.814,20.458 -0.875,20.485 -9.65,14.904 -8.36,7.714 -7.635,3.667 -3.028,1.038 0,0"
         style="fill:#00a1e3;fill-opacity:1;fill-rule:nonzero;stroke:none"
         id="path662"
         inkscape:connector-curvature="0" />
    </g>
    <g
       id="g664"
       transform="matrix(0.23110375,0,0,-0.23110375,60.786434,128.34582)">
      <path
         d="m 0,0 c 0,4.438 -5.035,8.033 -11.245,8.033 -6.209,0 -11.244,-3.595 -11.244,-8.033 0,-2.208 1.25,-4.209 3.269,-5.66 -0.009,0.197 -0.008,0.393 0.003,0.592 0.032,0.609 0.119,1.201 0.264,1.789 0.322,1.3 0.932,2.421 1.783,3.388 0.696,0.795 1.499,1.433 2.427,1.881 0.738,0.359 1.51,0.576 2.306,0.734 0.439,0.087 0.708,0.126 0.991,0.128 0.455,0.002 0.697,-0.008 1.418,-0.109 1.299,-0.181 2.454,-0.71 3.526,-1.536 0.703,-0.542 1.319,-1.18 1.826,-1.94 0.533,-0.8 0.928,-1.675 1.159,-2.631 0.182,-0.755 0.28,-1.52 0.247,-2.296 C -1.25,-4.209 0,-2.208 0,0"
         style="fill:#00a1e3;fill-opacity:1;fill-rule:nonzero;stroke:none"
         id="path666"
         inkscape:connector-curvature="0" />
    </g>
    <g
       id="g676"
       transform="matrix(0.23110375,0,0,-0.23110375,57.806442,137.50274)">
      <path
         d="m 0,0 c 0,-0.93 0.754,-1.685 1.685,-1.685 0.929,0 1.684,0.755 1.684,1.685 0,0.93 -0.755,1.684 -1.684,1.684 C 0.754,1.684 0,0.93 0,0"
         style="fill:#00a1e3;fill-opacity:1;fill-rule:nonzero;stroke:none"
         id="path678"
         inkscape:connector-curvature="0" />
    </g>
    <g
       id="g680"
       transform="matrix(0.23110375,0,0,-0.23110375,60.418564,129.67647)">
      <path
         d="m 0,0 c 1.928,1.579 4.301,2.903 4.28,6.676 -0.024,4.647 -3.963,9.119 -13.458,9.119 -0.214,0 -0.515,0.026 -0.728,0.02 l 0.089,4.637 c 10e-4,0.002 0.002,0.004 0.003,0.006 C 0.875,20.485 9.65,14.904 8.36,7.714 7.635,3.667 3.029,1.038 0,0"
         style="fill:#00a1e3;fill-opacity:1;fill-rule:nonzero;stroke:none"
         id="path682"
         inkscape:connector-curvature="0" />
    </g>
    <g
       id="g684"
       transform="matrix(0.23110375,0,0,-0.23110375,64.10042,132.05261)">
      <path
         d="m 0,0 c 3.564,3.248 9.345,8.382 9.302,14.914 -0.095,14.195 -14.664,22.532 -33.78,22.532 -0.432,0 -0.845,0.019 -1.273,0.009 l -0.022,7.988 c 0.285,0.005 0.588,-0.015 0.862,-0.012 C -4.009,45.66 13.908,32.953 13.909,19.376 13.909,10.151 6.628,4.294 0,0"
         style="fill:#00a1e3;fill-opacity:1;fill-rule:nonzero;stroke:none"
         id="path686"
         inkscape:connector-curvature="0" />
    </g>
    <g
       id="g688"
       transform="matrix(0.23110375,0,0,-0.23110375,58.151527,134.29211)">
      <path
         d="M 0,0 C -0.034,-0.001 -0.066,-0.003 -0.1,-0.003 V 0.001 C -0.066,0 -0.034,0 0,0"
         style="fill:#00a1e3;fill-opacity:1;fill-rule:nonzero;stroke:none"
         id="path690"
         inkscape:connector-curvature="0" />
    </g>
    <g
       id="g692"
       transform="matrix(0.23110375,0,0,-0.23110375,69.770804,128.79222)">
      <path
         d="m 0,0 c -0.002,-17.957 -21.955,-36.032 -49.102,-35.413 -0.327,0.008 -0.814,-0.008 -1.175,-0.003 -0.043,0.002 -0.084,0.003 -0.123,0.005 l 10e-4,0.618 c 0.07,-0.006 0.141,-0.009 0.212,-0.009 0.011,0 0.021,0 0.032,10e-4 1.691,0.015 3.059,1.393 3.059,3.089 0,1.701 -1.374,3.08 -3.073,3.09 h -0.018 c -0.067,0 -0.133,-0.001 -0.199,-0.007 l 0.003,1.721 c 0.059,-0.113 0.117,-0.226 0.178,-0.339 0.012,-0.022 0.021,-0.042 0.033,-0.06 0.14,-0.24 0.225,-0.218 0.373,0.068 0.49,0.949 0.978,1.903 1.454,2.865 0.093,0.186 0.184,0.372 0.275,0.557 23.937,0.183 42.109,11.102 42.228,29.717 0.054,8.64 -7.275,15.43 -11.795,19.725 C -9.231,19.946 0.001,12.2 0,0"
         style="fill:#00a1e3;fill-opacity:1;fill-rule:nonzero;stroke:none"
         id="path694"
         inkscape:connector-curvature="0" />
    </g>
    <g
       id="g696"
       transform="matrix(0.23110375,0,0,-0.23110375,59.61624,132.15395)">
      <path
         d="m 0,0 c 0.21,0.544 0.415,1.092 0.613,1.644 0.502,1.399 0.963,2.823 1.335,4.292 0.122,0.481 0.23,0.967 0.319,1.457 10.121,1.811 14.458,7.281 14.492,12.921 0.034,5.607 -3.877,7.575 -7.053,9.921 4.991,-1.542 12.58,-5.448 13.776,-11.463 C 25.343,9.417 14.662,1.372 0,0"
         style="fill:#00a1e3;fill-opacity:1;fill-rule:nonzero;stroke:none"
         id="path698"
         inkscape:connector-curvature="0" />
    </g>
    <g
       id="g700"
       transform="matrix(0.23110375,0,0,-0.23110375,72.657359,127.19481)">
      <path
         d="m 0,0 c 0,-11.151 -5.745,-21.339 -15.242,-29.163 5.238,6.161 8.263,13.43 8.263,21.203 0,22.302 -24.872,40.382 -55.553,40.382 -30.683,0 -55.554,-18.08 -55.554,-40.382 0,-8.277 3.422,-15.973 9.295,-22.372 -10.375,7.961 -16.715,18.618 -16.715,30.332 0,24.658 28.094,44.648 62.753,44.648 C -28.094,44.648 0,24.658 0,0"
         style="fill:#00a1e3;fill-opacity:1;fill-rule:nonzero;stroke:none"
         id="path702"
         inkscape:connector-curvature="0" />
    </g>
    <g
       id="g704"
       transform="matrix(0.23110375,0,0,-0.23110375,58.179979,136.97586)">
      <path
         d="m 0,0 c -0.039,-0.001 -0.08,-0.003 -0.123,-0.004 -0.361,-0.006 -0.848,0.01 -1.177,0.003 -27.146,-0.62 -49.1,17.456 -49.101,35.412 0,12.2 9.231,19.946 17.636,25.625 -4.519,-4.295 -11.849,-11.085 -11.795,-19.724 0.121,-18.757 18.569,-29.699 42.775,-29.72 0.177,-0.359 0.354,-0.718 0.532,-1.078 0.332,-0.677 0.675,-1.344 1.024,-2.008 V 8.503 C -0.17,8.391 -0.111,8.277 -0.051,8.165 -0.039,8.143 -0.029,8.122 -0.018,8.104 L -0.015,6.79 H -0.032 C -0.1,6.79 -0.166,6.788 -0.231,6.782 -1.846,6.68 -3.122,5.338 -3.122,3.699 c 0,-1.635 1.268,-2.972 2.877,-3.081 0.07,-0.006 0.141,-0.009 0.213,-0.009 0.011,0 0.02,0 0.031,0.001 z"
         style="fill:#00a1e3;fill-opacity:1;fill-rule:nonzero;stroke:none"
         id="path706"
         inkscape:connector-curvature="0" />
    </g>
    <g
       id="g708"
       transform="matrix(0.23110375,0,0,-0.23110375,52.198345,132.04483)">
      <path
         d="m 0,0 c -3.563,3.248 -9.345,8.382 -9.301,14.914 0.095,14.195 14.664,22.532 33.78,22.532 0.432,0 0.845,0.019 1.273,0.01 l 0.022,7.987 C 25.489,45.448 25.186,45.428 24.912,45.431 4.01,45.661 -13.907,32.953 -13.908,19.376 -13.908,10.151 -6.628,4.294 0,0"
         style="fill:#00a1e3;fill-opacity:1;fill-rule:nonzero;stroke:none"
         id="path710"
         inkscape:connector-curvature="0" />
    </g>
    <g
       id="g712"
       transform="matrix(0.23110375,0,0,-0.23110375,56.545773,131.41234)">
      <path
         d="m 0,0 c 0.354,-1.107 0.756,-2.186 1.173,-3.257 -14.951,1.216 -25.931,9.345 -24.045,18.82 1.196,6.015 8.784,9.921 13.774,11.463 -3.175,-2.346 -7.086,-4.314 -7.051,-9.921 C -16.116,11.361 -11.617,5.793 -1.093,4.087 -0.841,2.675 -0.427,1.333 0,0"
         style="fill:#00a1e3;fill-opacity:1;fill-rule:nonzero;stroke:none"
         id="path714"
         inkscape:connector-curvature="0" />
    </g>
    <g
       id="g716"
       transform="matrix(0.23110375,0,0,-0.23110375,55.907302,129.66857)">
      <path
         d="m 0,0 c -1.928,1.579 -4.301,2.903 -4.28,6.676 0.024,4.646 3.964,9.119 13.458,9.119 0.214,0 0.515,0.026 0.728,0.02 L 9.817,20.451 C 9.816,20.454 9.815,20.455 9.814,20.458 -0.875,20.485 -9.65,14.904 -8.36,7.713 -7.635,3.666 -3.029,1.038 0,0"
         style="fill:#00a1e3;fill-opacity:1;fill-rule:nonzero;stroke:none"
         id="path718"
         inkscape:connector-curvature="0" />
    </g>
    <g
       id="g720"
       transform="matrix(0.23110375,0,0,-0.23110375,60.763184,128.33803)">
      <path
         d="m 0,0 c 0,4.438 -5.034,8.034 -11.244,8.034 -6.209,0 -11.244,-3.596 -11.244,-8.034 0,-2.208 1.249,-4.209 3.269,-5.66 -0.01,0.197 -0.008,0.393 0.002,0.593 0.033,0.608 0.12,1.201 0.265,1.788 0.321,1.3 0.932,2.421 1.783,3.388 0.695,0.795 1.499,1.433 2.427,1.882 0.737,0.359 1.509,0.575 2.306,0.733 0.438,0.087 0.707,0.126 0.99,0.128 0.455,0.002 0.698,-0.008 1.419,-0.109 1.298,-0.181 2.454,-0.71 3.526,-1.536 0.703,-0.542 1.319,-1.18 1.825,-1.94 0.534,-0.8 0.928,-1.674 1.16,-2.631 0.182,-0.755 0.28,-1.52 0.247,-2.296 C -1.249,-4.209 0,-2.208 0,0"
         style="fill:#00a1e3;fill-opacity:1;fill-rule:nonzero;stroke:none"
         id="path722"
         inkscape:connector-curvature="0" />
    </g>
    <g
       id="g724"
       transform="matrix(0.23110375,0,0,-0.23110375,58.128514,134.29177)">
      <path
         d="M 0,0 C 0.033,-0.001 0.065,-0.001 0.1,-0.001 0.065,-0.003 0.033,-0.004 0,-0.004 Z"
         style="fill:#00a1e3;fill-opacity:1;fill-rule:nonzero;stroke:none"
         id="path726"
         inkscape:connector-curvature="0" />
    </g>
    <g
       id="g728"
       transform="matrix(0.23110375,0,0,-0.23110375,57.783429,137.49495)">
      <path
         d="m 0,0 c 0,-0.93 0.754,-1.684 1.685,-1.684 0.929,0 1.683,0.754 1.683,1.684 0,0.93 -0.754,1.684 -1.683,1.684 C 0.754,1.684 0,0.93 0,0"
         style="fill:#00a1e3;fill-opacity:1;fill-rule:nonzero;stroke:none"
         id="path730"
         inkscape:connector-curvature="0" />
    </g>
    <g
       id="g732"
       transform="matrix(0.23110375,0,0,-0.23110375,60.395543,129.66857)">
      <path
         d="m 0,0 c 1.928,1.579 4.301,2.903 4.28,6.676 -0.024,4.646 -3.964,9.119 -13.458,9.119 -0.214,0 -0.515,0.026 -0.728,0.02 l 0.088,4.636 c 0.002,0.003 0.003,0.004 0.004,0.007 C 0.875,20.485 9.65,14.904 8.36,7.713 7.635,3.666 3.029,1.038 0,0"
         style="fill:#00a1e3;fill-opacity:1;fill-rule:nonzero;stroke:none"
         id="path734"
         inkscape:connector-curvature="0" />
    </g>
    <g
       id="g736"
       transform="matrix(0.23110375,0,0,-0.23110375,64.0774,132.04483)">
      <path
         d="m 0,0 c 3.564,3.248 9.345,8.382 9.302,14.914 -0.095,14.195 -14.665,22.532 -33.781,22.532 -0.431,0 -0.844,0.019 -1.272,0.01 l -0.022,7.987 c 0.285,0.005 0.588,-0.015 0.862,-0.012 C -4.009,45.661 13.907,32.953 13.908,19.376 13.909,10.151 6.628,4.294 0,0"
         style="fill:#00a1e3;fill-opacity:1;fill-rule:nonzero;stroke:none"
         id="path738"
         inkscape:connector-curvature="0" />
    </g>
    <g
       id="g368"
       transform="matrix(0.37520544,0,0,-0.37520544,101.61919,135.09873)">
      <path
         d="M 0,0 C -0.169,0.036 -0.324,0.1 -0.467,0.193 -0.608,0.287 -0.73,0.4 -0.833,0.533 -0.936,0.667 -1.015,0.815 -1.073,0.979 -1.131,1.144 -1.159,1.315 -1.159,1.493 v 3.024 c 0,0.205 0.044,0.394 0.133,0.566 0.089,0.174 0.204,0.323 0.346,0.447 0.143,0.124 0.307,0.222 0.493,0.293 C 0,5.894 0.19,5.93 0.387,5.93 H 3.385 C 3.58,5.93 3.762,5.89 3.931,5.81 4.1,5.73 4.248,5.621 4.377,5.483 4.506,5.346 4.608,5.188 4.684,5.01 4.759,4.833 4.797,4.65 4.797,4.464 V 1.292 C 4.797,1.106 4.755,0.933 4.67,0.773 4.586,0.613 4.473,0.473 4.331,0.353 4.188,0.233 4.03,0.14 3.857,0.073 3.685,0.007 3.509,-0.026 3.331,-0.026 H 0.16 c 0,0 -0.022,0.002 -0.067,0.006 C 0.049,-0.016 0.018,-0.009 0,0 m -0.413,-2.265 c 0.044,-0.009 0.12,-0.02 0.226,-0.033 0.107,-0.014 0.169,-0.02 0.187,-0.02 h 3.531 c 0.08,0 0.204,0.017 0.373,0.053 0.169,0.036 0.293,0.062 0.373,0.08 0.649,0.178 1.206,0.484 1.672,0.919 0.467,0.435 0.802,0.977 1.007,1.626 0.035,0.124 0.066,0.253 0.093,0.386 0.026,0.133 0.04,0.262 0.04,0.387 V 4.664 C 7.089,4.851 7.058,5.046 6.995,5.25 6.934,5.455 6.871,5.646 6.809,5.823 6.693,6.161 6.524,6.476 6.303,6.769 6.081,7.062 5.825,7.315 5.536,7.529 5.248,7.742 4.933,7.911 4.591,8.035 4.248,8.16 3.896,8.222 3.531,8.222 H 0.213 C 0.195,8.222 0.153,8.217 0.087,8.208 0.02,8.2 -0.026,8.195 -0.054,8.195 -0.098,8.186 -0.176,8.173 -0.287,8.155 -0.397,8.137 -0.467,8.124 -0.493,8.115 -0.812,8.035 -1.124,7.922 -1.426,7.775 -1.728,7.629 -2.001,7.449 -2.245,7.236 -2.489,7.022 -2.703,6.778 -2.885,6.503 -3.067,6.228 -3.202,5.925 -3.291,5.597 -3.327,5.446 -3.362,5.286 -3.398,5.117 -3.434,4.948 -3.451,4.788 -3.451,4.637 V 1.346 c 0,-0.018 0.002,-0.062 0.007,-0.133 0.004,-0.071 0.01,-0.116 0.019,-0.133 0,-0.027 0.007,-0.067 0.021,-0.121 0.012,-0.053 0.024,-0.11 0.033,-0.173 0.009,-0.062 0.019,-0.118 0.033,-0.166 0.013,-0.049 0.02,-0.082 0.02,-0.1 0.089,-0.355 0.222,-0.687 0.4,-0.993 0.178,-0.306 0.391,-0.582 0.64,-0.826 0.248,-0.244 0.53,-0.451 0.845,-0.62 0.316,-0.168 0.656,-0.284 1.02,-0.346 m -14.951,1.079 c 0,-0.124 0.022,-0.253 0.066,-0.386 0.045,-0.134 0.11,-0.256 0.194,-0.367 0.084,-0.111 0.184,-0.202 0.299,-0.273 0.117,-0.071 0.241,-0.106 0.373,-0.106 h 6.05 c 0.178,0 0.362,0.024 0.554,0.073 0.19,0.049 0.375,0.109 0.553,0.18 0.781,0.284 1.385,0.732 1.812,1.346 0.426,0.613 0.639,1.337 0.639,2.172 v 0.306 c -0.044,0.204 -0.128,0.387 -0.253,0.546 -0.124,0.16 -0.288,0.276 -0.493,0.347 l -7.342,2.452 V 5.13 c 0,0.08 0.038,0.158 0.113,0.233 0.075,0.076 0.164,0.147 0.267,0.214 0.101,0.066 0.206,0.124 0.312,0.173 0.108,0.049 0.192,0.082 0.254,0.1 0.053,0.018 0.138,0.038 0.253,0.06 0.115,0.022 0.178,0.033 0.187,0.033 h 5.797 L -5.65,5.97 c 0.053,0.017 0.088,0.031 0.107,0.04 0.231,0.097 0.408,0.238 0.532,0.42 0.125,0.182 0.187,0.397 0.187,0.646 0,0.133 -0.025,0.269 -0.073,0.406 -0.049,0.138 -0.116,0.26 -0.2,0.367 -0.085,0.106 -0.189,0.195 -0.313,0.266 -0.124,0.071 -0.262,0.107 -0.413,0.107 h -5.876 c -0.178,0 -0.363,-0.022 -0.554,-0.067 -0.19,-0.044 -0.37,-0.097 -0.539,-0.16 -0.835,-0.275 -1.473,-0.735 -1.912,-1.379 -0.441,-0.644 -0.66,-1.397 -0.66,-2.259 0,-0.257 0.069,-0.488 0.207,-0.692 0.137,-0.205 0.335,-0.352 0.593,-0.44 L -7.302,0.8 -7.249,0.773 C -7.329,0.595 -7.455,0.442 -7.629,0.313 -7.802,0.185 -7.981,0.098 -8.168,0.053 -8.222,0.036 -8.297,0.016 -8.395,-0.006 -8.492,-0.029 -8.546,-0.04 -8.555,-0.04 h -5.809 c -0.019,0 -0.058,-0.009 -0.12,-0.026 -0.063,-0.018 -0.107,-0.032 -0.134,-0.04 -0.231,-0.089 -0.413,-0.231 -0.546,-0.427 -0.134,-0.196 -0.2,-0.413 -0.2,-0.653"
         style="fill:#009ee2;fill-opacity:1;fill-rule:nonzero;stroke:none"
         id="path370"
         inkscape:connector-curvature="0" />
    </g>
    <g
       id="g372"
       transform="matrix(0.37520544,0,0,-0.37520544,88.98818,132.70582)">
      <path
         d="m 0,0 2.583,-9.641 c -1.148,-0.307 -2.263,-0.099 -3.34,0.625 -1.077,0.725 -1.794,1.752 -2.15,3.083 -0.353,1.315 -0.244,2.556 0.327,3.722 C -2.009,-1.045 -1.149,-0.308 0,0"
         style="fill:#00639b;fill-opacity:1;fill-rule:nonzero;stroke:none"
         id="path374"
         inkscape:connector-curvature="0" />
    </g>
    <g
       id="g376"
       transform="matrix(0.37520544,0,0,-0.37520544,91.459236,131.25997)">
      <path
         d="m 0,0 3.627,-13.538 c -1.612,-0.432 -3.176,-0.139 -4.689,0.877 -1.513,1.018 -2.519,2.46 -3.02,4.33 -0.495,1.847 -0.342,3.589 0.46,5.227 C -2.82,-1.468 -1.612,-0.433 0,0"
         style="fill:#2a398d;fill-opacity:1;fill-rule:nonzero;stroke:none"
         id="path378"
         inkscape:connector-curvature="0" />
    </g>
    <g
       id="g380"
       transform="matrix(0.37520544,0,0,-0.37520544,87.088328,133.74022)">
      <path
         d="m 0,0 1.884,-7.028 c -0.838,-0.224 -1.65,-0.072 -2.435,0.456 -0.786,0.528 -1.307,1.277 -1.568,2.247 -0.257,0.959 -0.177,1.863 0.239,2.714 C -1.464,-0.762 -0.837,-0.224 0,0"
         style="fill:#009ee2;fill-opacity:1;fill-rule:nonzero;stroke:none"
         id="path382"
         inkscape:connector-curvature="0" />
    </g>
    <g
       id="g384"
       transform="matrix(0.37520544,0,0,-0.37520544,109.26363,135.54373)">
      <path
         d="M 0,0 C 0,-0.124 0.022,-0.253 0.066,-0.386 0.111,-0.52 0.176,-0.642 0.26,-0.753 0.345,-0.864 0.444,-0.955 0.56,-1.026 0.676,-1.097 0.8,-1.132 0.933,-1.132 h 6.049 c 0.178,0 0.363,0.024 0.553,0.073 0.192,0.049 0.376,0.109 0.554,0.18 0.781,0.284 1.386,0.733 1.811,1.346 0.427,0.613 0.64,1.337 0.64,2.172 V 2.945 C 10.496,3.149 10.411,3.332 10.287,3.491 10.163,3.651 9.998,3.767 9.794,3.838 L 2.452,6.29 v 0.026 c 0,0.08 0.038,0.158 0.113,0.233 0.076,0.076 0.164,0.147 0.267,0.214 0.102,0.066 0.206,0.124 0.313,0.173 0.107,0.049 0.191,0.082 0.253,0.1 0.053,0.018 0.138,0.038 0.253,0.06 0.116,0.022 0.178,0.033 0.187,0.033 h 5.797 l 0.079,0.027 c 0.054,0.017 0.089,0.031 0.107,0.04 0.231,0.097 0.408,0.238 0.533,0.42 0.125,0.182 0.186,0.397 0.186,0.646 0,0.133 -0.024,0.269 -0.073,0.406 -0.049,0.138 -0.115,0.26 -0.199,0.367 C 10.183,9.141 10.078,9.23 9.954,9.301 9.83,9.372 9.692,9.408 9.541,9.408 H 3.665 C 3.487,9.408 3.303,9.386 3.111,9.341 2.921,9.297 2.741,9.244 2.572,9.181 1.737,8.906 1.1,8.446 0.66,7.802 0.22,7.158 0,6.405 0,5.543 0,5.286 0.069,5.055 0.207,4.851 0.345,4.646 0.542,4.5 0.8,4.411 L 8.062,1.986 8.115,1.959 C 8.035,1.781 7.909,1.628 7.735,1.5 7.562,1.371 7.383,1.284 7.195,1.239 7.143,1.222 7.067,1.202 6.97,1.18 6.871,1.157 6.818,1.146 6.81,1.146 H 1 C 0.981,1.146 0.941,1.137 0.88,1.12 0.817,1.102 0.773,1.088 0.746,1.08 0.516,0.991 0.333,0.849 0.2,0.653 0.066,0.458 0,0.24 0,0 m -2.491,-1.132 c 0.186,0 0.368,0.04 0.546,0.119 0.177,0.08 0.315,0.205 0.413,0.373 0.017,0.045 0.049,0.109 0.094,0.194 0.043,0.084 0.066,0.157 0.066,0.219 v 6.184 c 0,0.097 -0.018,0.226 -0.054,0.386 -0.035,0.16 -0.061,0.289 -0.08,0.386 -0.178,0.631 -0.502,1.164 -0.973,1.6 C -2.949,8.764 -3.491,9.07 -4.104,9.248 -4.255,9.292 -4.41,9.33 -4.57,9.361 -4.73,9.392 -4.886,9.408 -5.036,9.408 h -3.318 c -0.018,0 -0.089,-0.007 -0.213,-0.02 -0.125,-0.013 -0.209,-0.025 -0.254,-0.034 -0.701,-0.124 -1.31,-0.417 -1.825,-0.879 -0.516,-0.462 -0.875,-1.035 -1.08,-1.719 -0.045,-0.16 -0.087,-0.326 -0.127,-0.5 -0.04,-0.173 -0.059,-0.344 -0.059,-0.513 v -5.876 c 0,-0.151 0.035,-0.289 0.106,-0.413 0.072,-0.124 0.16,-0.229 0.267,-0.313 0.106,-0.085 0.228,-0.151 0.366,-0.2 0.138,-0.049 0.274,-0.073 0.406,-0.073 0.249,0 0.464,0.062 0.647,0.186 0.182,0.125 0.322,0.302 0.42,0.533 0.009,0.018 0.022,0.054 0.04,0.107 0.017,0.053 0.026,0.079 0.026,0.079 v 5.824 c 0,0.008 0.011,0.067 0.033,0.173 0.023,0.106 0.042,0.187 0.061,0.24 0.088,0.311 0.246,0.573 0.473,0.786 0.226,0.213 0.508,0.32 0.845,0.32 h 3.038 c 0.108,0 0.221,-0.016 0.34,-0.047 0.12,-0.031 0.23,-0.069 0.327,-0.113 0.205,-0.089 0.362,-0.189 0.473,-0.3 0.111,-0.111 0.193,-0.238 0.246,-0.38 0.054,-0.142 0.087,-0.295 0.101,-0.459 0.012,-0.165 0.019,-0.344 0.019,-0.54 h -4.476 c -0.019,0 -0.059,-0.006 -0.12,-0.02 C -8.337,5.244 -8.381,5.228 -8.408,5.21 -8.639,5.122 -8.821,4.981 -8.954,4.791 -9.088,4.6 -9.154,4.384 -9.154,4.145 c 0,-0.223 0.057,-0.434 0.174,-0.634 0.115,-0.199 0.279,-0.34 0.492,-0.419 0.036,-0.018 0.089,-0.038 0.16,-0.06 0.071,-0.023 0.106,-0.033 0.106,-0.033 h 4.572 v -3.132 c 0,-0.018 0.008,-0.058 0.026,-0.12 0.018,-0.062 0.031,-0.106 0.04,-0.133 0.098,-0.24 0.242,-0.425 0.433,-0.553 0.191,-0.129 0.411,-0.193 0.66,-0.193"
         style="fill:#00639b;fill-opacity:1;fill-rule:nonzero;stroke:none"
         id="path386"
         inkscape:connector-curvature="0" />
    </g>
    <g
       id="g388"
       transform="matrix(0.37520544,0,0,-0.37520544,123.09273,132.01391)">
      <path
         d="M 0,0 C -0.124,0 -0.253,-0.024 -0.386,-0.073 -0.52,-0.122 -0.64,-0.191 -0.746,-0.28 -0.853,-0.369 -0.941,-0.475 -1.013,-0.6 -1.084,-0.724 -1.119,-0.857 -1.119,-1 v -8.541 c 0,-0.115 0.026,-0.231 0.08,-0.346 0.054,-0.116 0.124,-0.222 0.213,-0.32 0.089,-0.098 0.189,-0.178 0.3,-0.24 0.111,-0.062 0.224,-0.093 0.339,-0.093 h 8.702 c 0,0 0.013,0.002 0.04,0.006 0.027,0.005 0.049,0.012 0.067,0.02 0.009,0 0.024,0.005 0.046,0.014 0.022,0.009 0.033,0.013 0.033,0.013 0.232,0.098 0.409,0.238 0.533,0.42 0.125,0.182 0.187,0.398 0.187,0.646 0,0.249 -0.065,0.469 -0.193,0.66 -0.128,0.191 -0.313,0.335 -0.553,0.433 -0.027,0.009 -0.071,0.022 -0.133,0.04 -0.063,0.017 -0.103,0.026 -0.12,0.026 H 1.159 v 7.329 c 0,0 -0.011,0.036 -0.033,0.107 -0.022,0.071 -0.042,0.124 -0.06,0.16 C 0.978,-0.444 0.833,-0.277 0.633,-0.167 0.434,-0.056 0.223,0 0,0 m -10.273,-5.263 c 0,0.133 0.024,0.266 0.073,0.399 0.049,0.134 0.118,0.254 0.207,0.36 0.089,0.107 0.192,0.193 0.312,0.26 0.12,0.067 0.256,0.1 0.407,0.1 h 5.783 c 0.151,0 0.289,-0.033 0.413,-0.1 0.125,-0.067 0.229,-0.155 0.313,-0.267 0.084,-0.111 0.152,-0.235 0.201,-0.373 0.048,-0.137 0.073,-0.273 0.073,-0.406 0,-0.249 -0.063,-0.462 -0.187,-0.64 -0.125,-0.177 -0.302,-0.315 -0.533,-0.413 0,-0.009 -0.011,-0.015 -0.033,-0.02 -0.023,-0.004 -0.038,-0.006 -0.047,-0.006 -0.018,-0.009 -0.04,-0.016 -0.066,-0.02 -0.027,-0.005 -0.04,-0.007 -0.04,-0.007 h -5.944 c -0.133,0 -0.258,0.036 -0.373,0.106 -0.115,0.072 -0.215,0.163 -0.3,0.274 -0.084,0.111 -0.148,0.233 -0.193,0.366 -0.044,0.133 -0.066,0.262 -0.066,0.387 m 7.782,4.117 c 0,0.133 -0.025,0.269 -0.073,0.407 -0.049,0.137 -0.117,0.26 -0.201,0.366 -0.084,0.106 -0.188,0.195 -0.313,0.267 C -3.202,-0.036 -3.34,0 -3.491,0 h -5.876 c -0.018,0 -0.06,-0.004 -0.127,-0.013 -0.067,-0.009 -0.113,-0.013 -0.14,-0.013 -0.044,-0.01 -0.122,-0.023 -0.233,-0.04 -0.111,-0.018 -0.18,-0.032 -0.206,-0.04 -0.321,-0.081 -0.631,-0.194 -0.933,-0.34 -0.303,-0.147 -0.575,-0.327 -0.82,-0.54 -0.244,-0.213 -0.457,-0.457 -0.639,-0.733 -0.182,-0.275 -0.318,-0.577 -0.407,-0.906 -0.035,-0.151 -0.07,-0.311 -0.107,-0.48 -0.035,-0.168 -0.052,-0.329 -0.052,-0.479 v -3.291 c 0,-0.152 0.017,-0.312 0.052,-0.48 0.037,-0.169 0.072,-0.32 0.107,-0.454 0.169,-0.621 0.476,-1.166 0.92,-1.632 0.444,-0.466 0.977,-0.788 1.598,-0.966 0.098,-0.018 0.227,-0.044 0.387,-0.08 0.16,-0.035 0.289,-0.053 0.387,-0.053 h 6.183 c 0,0 0.013,0.002 0.04,0.006 0.026,0.005 0.048,0.012 0.066,0.02 0.009,0 0.024,0.005 0.047,0.014 0.022,0.009 0.033,0.013 0.033,0.013 0.231,0.098 0.408,0.238 0.533,0.42 0.124,0.182 0.187,0.398 0.187,0.646 0,0.249 -0.065,0.469 -0.194,0.66 -0.128,0.191 -0.313,0.335 -0.552,0.433 -0.028,0.009 -0.072,0.022 -0.134,0.04 -0.063,0.017 -0.102,0.026 -0.12,0.026 h -5.93 c 0,0 -0.035,0.007 -0.106,0.02 -0.072,0.014 -0.124,0.029 -0.161,0.047 -0.31,0.089 -0.563,0.273 -0.758,0.553 -0.196,0.28 -0.293,0.584 -0.293,0.913 v 3.024 c 0,0.338 0.106,0.625 0.319,0.86 0.213,0.236 0.476,0.393 0.786,0.473 0.054,0.018 0.138,0.038 0.253,0.06 0.116,0.022 0.178,0.034 0.187,0.034 h 5.797 c 0,0 0.026,0.008 0.08,0.026 0.052,0.018 0.088,0.031 0.106,0.04 0.231,0.098 0.408,0.238 0.533,0.42 0.124,0.182 0.187,0.397 0.187,0.646 m -22.453,0.014 c 0,-0.125 0.022,-0.254 0.066,-0.387 0.045,-0.133 0.109,-0.255 0.193,-0.366 0.085,-0.112 0.185,-0.202 0.3,-0.274 0.115,-0.07 0.24,-0.106 0.373,-0.106 h 8.701 c 0,0 0.014,0.004 0.04,0.013 0.028,0.009 0.049,0.013 0.068,0.013 0.009,0.01 0.024,0.016 0.046,0.02 0.022,0.005 0.033,0.007 0.033,0.007 0.231,0.107 0.409,0.249 0.533,0.426 0.125,0.178 0.187,0.391 0.187,0.64 0,0.133 -0.025,0.269 -0.074,0.407 -0.048,0.137 -0.115,0.26 -0.199,0.366 -0.085,0.106 -0.189,0.195 -0.313,0.267 C -15.114,-0.036 -15.252,0 -15.403,0 h -8.542 c -0.151,0 -0.286,-0.036 -0.407,-0.106 -0.12,-0.072 -0.223,-0.161 -0.312,-0.267 -0.089,-0.106 -0.158,-0.227 -0.207,-0.36 -0.049,-0.133 -0.073,-0.267 -0.073,-0.399 m 5.263,-1.626 c -0.133,0 -0.266,-0.025 -0.4,-0.074 -0.133,-0.048 -0.253,-0.117 -0.359,-0.206 -0.107,-0.089 -0.194,-0.195 -0.26,-0.32 -0.067,-0.124 -0.1,-0.258 -0.1,-0.4 v -5.783 c 0,-0.151 0.033,-0.289 0.1,-0.413 0.066,-0.124 0.155,-0.229 0.266,-0.313 0.112,-0.085 0.234,-0.151 0.367,-0.2 0.133,-0.049 0.266,-0.073 0.4,-0.073 0.195,0 0.379,0.04 0.553,0.12 0.173,0.08 0.308,0.204 0.406,0.373 0.026,0.044 0.06,0.109 0.1,0.193 0.04,0.084 0.06,0.158 0.06,0.22 v 5.929 c 0,0.143 -0.036,0.271 -0.107,0.387 -0.071,0.115 -0.162,0.215 -0.273,0.3 -0.111,0.084 -0.233,0.149 -0.366,0.193 -0.134,0.045 -0.263,0.067 -0.387,0.067"
         style="fill:#2a398d;fill-opacity:1;fill-rule:nonzero;stroke:none"
         id="path390"
         inkscape:connector-curvature="0" />
    </g>
    <g
       id="g392"
       transform="matrix(0.37520544,0,0,-0.37520544,76.507565,133.9934)">
      <path
         d="m 0,0 c -0.524,0 -0.821,-0.29 -0.821,-0.899 v -2.183 c 0,-0.609 0.297,-0.899 0.813,-0.899 0.508,0 0.821,0.29 0.821,0.899 V -2.62 H 0.18 c -0.203,0 -0.313,0.196 -0.313,0.399 0,0.196 0.11,0.399 0.313,0.399 h 1.329 c 0.204,0 0.321,-0.157 0.321,-0.329 v -0.931 c 0,-1.305 -0.806,-1.79 -1.838,-1.79 -1.032,0 -1.83,0.485 -1.83,1.79 v 2.183 c 0,1.306 0.806,1.791 1.799,1.791 1.079,0 1.869,-0.564 1.869,-1.502 0,-0.391 -0.172,-0.485 -0.509,-0.485 -0.273,0 -0.5,0.078 -0.508,0.321 C 0.79,-0.407 0.665,0 0,0"
         style="fill:#2a398d;fill-opacity:1;fill-rule:nonzero;stroke:none"
         id="path394"
         inkscape:connector-curvature="0" />
    </g>
    <g
       id="g396"
       transform="matrix(0.37520544,0,0,-0.37520544,77.87796,133.9934)">
      <path
         d="m 0,0 v -1.666 h 0.86 c 0.508,0 0.836,0.211 0.836,0.829 C 1.696,-0.219 1.368,0 0.86,0 Z m -1.017,0.579 c 0,0.164 0.133,0.313 0.329,0.313 H 0.86 c 1.025,0 1.853,-0.392 1.853,-1.635 0,-0.9 -0.438,-1.384 -1.025,-1.564 l 1.025,-1.901 c 0.032,-0.039 0.04,-0.093 0.04,-0.125 0,-0.258 -0.337,-0.531 -0.634,-0.531 -0.14,0 -0.273,0.086 -0.352,0.242 L 0.656,-2.463 H 0 v -2.042 c 0,-0.211 -0.251,-0.32 -0.509,-0.32 -0.25,0 -0.508,0.109 -0.508,0.32 z"
         style="fill:#2a398d;fill-opacity:1;fill-rule:nonzero;stroke:none"
         id="path398"
         inkscape:connector-curvature="0" />
    </g>
    <g
       id="g400"
       transform="matrix(0.37520544,0,0,-0.37520544,80.187086,133.7763)">
      <path
         d="M 0,0 C 0,0.219 0.25,0.313 0.509,0.313 0.759,0.313 1.017,0.219 1.017,0 v -3.66 c 0,-1.306 -0.83,-1.791 -1.877,-1.791 -1.056,0 -1.877,0.485 -1.877,1.791 V 0 c 0,0.219 0.25,0.313 0.508,0.313 0.25,0 0.508,-0.094 0.508,-0.313 v -3.66 c 0,-0.61 0.322,-0.9 0.861,-0.9 0.54,0 0.86,0.29 0.86,0.9 z"
         style="fill:#2a398d;fill-opacity:1;fill-rule:nonzero;stroke:none"
         id="path402"
         inkscape:connector-curvature="0" />
    </g>
    <g
       id="g404"
       transform="matrix(0.37520544,0,0,-0.37520544,81.293268,133.9934)">
      <path
         d="m 0,0 v -1.893 h 0.876 c 0.508,0 0.821,0.289 0.821,0.9 v 0.094 C 1.697,-0.29 1.384,0 0.876,0 Z m -1.017,0.579 c 0,0.164 0.149,0.313 0.383,0.313 h 1.572 c 0.994,0 1.776,-0.477 1.776,-1.76 V -0.915 C 2.714,-2.198 1.908,-2.69 0.876,-2.69 H 0 v -1.815 c 0,-0.211 -0.258,-0.32 -0.508,-0.32 -0.259,0 -0.509,0.109 -0.509,0.32 z"
         style="fill:#2a398d;fill-opacity:1;fill-rule:nonzero;stroke:none"
         id="path406"
         inkscape:connector-curvature="0" />
    </g>
    <g
       id="g408"
       transform="matrix(0.37520544,0,0,-0.37520544,83.517369,134.33085)">
      <path
         d="M 0,0 C 0,0.618 -0.312,0.899 -0.821,0.899 -1.337,0.899 -1.635,0.618 -1.635,0 v -2.182 c 0,-0.618 0.298,-0.9 0.814,-0.9 0.509,0 0.821,0.282 0.821,0.9 z M -2.651,-2.182 V 0 c 0,1.306 0.797,1.791 1.83,1.791 1.032,0 1.838,-0.485 1.838,-1.791 v -2.182 c 0,-1.306 -0.806,-1.791 -1.838,-1.791 -1.033,0 -1.83,0.485 -1.83,1.791"
         style="fill:#2a398d;fill-opacity:1;fill-rule:nonzero;stroke:none"
         id="path410"
         inkscape:connector-curvature="0" />
    </g>
    <g
       id="g576"
       transform="matrix(0.69438892,0,0,-0.69438892,79.969757,118.66541)">
      <path
         d="m 0,0 3.778,-0.002 c 0.142,0 0.268,0.038 0.377,0.116 0.11,0.077 0.178,0.167 0.203,0.271 l 0.234,0.89 C 4.617,1.378 4.588,1.468 4.505,1.546 4.421,1.624 4.308,1.662 4.166,1.662 L 0.407,1.665 Z"
         style="fill:#006080;fill-opacity:1;fill-rule:nonzero;stroke:none"
         id="path578"
         inkscape:connector-curvature="0" />
    </g>
    <g
       id="g580"
       transform="matrix(0.69438892,0,0,-0.69438892,84.222881,128.1282)">
      <path
         d="m 0,0 c 0.025,0.104 0.003,0.194 -0.068,0.271 -0.071,0.078 -0.177,0.117 -0.32,0.117 l -8.033,0.004 c -0.231,0.001 -0.374,0.039 -0.426,0.117 -0.051,0.077 -0.045,0.244 0.021,0.503 l 1.668,6.813 h 0.013 l 0.175,0.712 c 10e-4,0.005 0.003,0.008 0.006,0.01 -10e-4,0.004 -0.002,0.007 -10e-4,0.012 l 0.228,0.93 H -6.77 l 1.339,5.419 c 0.026,0.103 0.003,0.194 -0.068,0.271 -0.07,0.078 -0.177,0.116 -0.319,0.116 l -2.033,0.002 c -0.142,0 -0.267,-0.039 -0.378,-0.116 -0.109,-0.077 -0.176,-0.168 -0.203,-0.271 L -9.771,9.491 h -0.017 c 0.006,-0.005 0.009,-0.012 0.007,-0.022 l -0.402,-1.643 h 0.025 l -1.553,-6.348 c -0.181,-0.697 -0.255,-1.236 -0.224,-1.616 0.033,-0.381 0.162,-0.658 0.387,-0.833 0.226,-0.174 0.555,-0.278 0.987,-0.31 0.433,-0.032 0.971,-0.049 1.617,-0.049 l 8.149,-0.005 c 0.142,0 0.268,0.048 0.378,0.145 0.109,0.097 0.177,0.196 0.203,0.3 z"
         style="fill:#006080;fill-opacity:1;fill-rule:nonzero;stroke:none"
         id="path582"
         inkscape:connector-curvature="0" />
    </g>
    <g
       id="g584"
       transform="matrix(0.69438892,0,0,-0.69438892,88.496988,122.72966)">
      <path
         d="m 0,0 -2.053,0.001 c -0.129,0 -0.252,-0.038 -0.367,-0.116 -0.116,-0.077 -0.187,-0.167 -0.214,-0.27 l -0.213,-0.891 c -0.026,-0.103 -0.004,-0.193 0.068,-0.271 0.07,-0.078 0.176,-0.116 0.319,-0.116 l 2.054,-0.002 z"
         style="fill:#006080;fill-opacity:1;fill-rule:nonzero;stroke:none"
         id="path586"
         inkscape:connector-curvature="0" />
    </g>
    <g
       id="g588"
       transform="matrix(0.69438892,0,0,-0.69438892,95.251035,127.97321)">
      <path
         d="m 0,0 c -0.071,0.078 -0.178,0.116 -0.319,0.117 l -14.789,0.008 c -0.22,0 -0.358,0.039 -0.416,0.116 -0.058,0.078 -0.055,0.245 0.009,0.504 l 0.924,3.755 c -0.007,0.005 -0.012,0.013 -0.009,0.024 l 1.157,4.729 C -13.896,9.237 -14.298,9.194 -14.648,9.125 -15.106,9.036 -15.497,8.884 -15.819,8.671 -16.143,8.458 -16.403,8.178 -16.604,7.83 -16.805,7.481 -16.969,7.043 -17.099,6.514 l -1.299,-5.303 c -0.129,-0.529 -0.178,-0.968 -0.146,-1.316 0.031,-0.349 0.157,-0.629 0.377,-0.842 0.219,-0.214 0.538,-0.365 0.958,-0.456 0.419,-0.091 0.945,-0.136 1.577,-0.137 l 14.886,-0.008 c 0.129,0 0.252,0.039 0.368,0.116 0.115,0.078 0.187,0.167 0.213,0.271 l 0.232,0.89 C 0.093,-0.168 0.07,-0.077 0,0"
         style="fill:#006080;fill-opacity:1;fill-rule:nonzero;stroke:none"
         id="path590"
         inkscape:connector-curvature="0" />
    </g>
    <g
       id="g592"
       transform="matrix(0.69438892,0,0,-0.69438892,78.690823,117.51634)">
      <path
         d="m 0,0 -3.777,0.002 c -0.142,0 -0.268,-0.038 -0.377,-0.116 -0.111,-0.077 -0.178,-0.167 -0.204,-0.271 l -0.233,-0.89 c -0.025,-0.103 0.003,-0.193 0.087,-0.271 0.084,-0.078 0.197,-0.116 0.339,-0.116 l 3.759,-0.003 z"
         style="fill:#006080;fill-opacity:1;fill-rule:nonzero;stroke:none"
         id="path594"
         inkscape:connector-curvature="0" />
    </g>
    <g
       id="g596"
       transform="matrix(0.69438892,0,0,-0.69438892,85.409518,123.6187)">
      <path
         d="M 0,0 C -0.006,0.09 0.011,0.213 0.05,0.37 L 0.974,4.125 C 0.967,4.13 0.962,4.139 0.965,4.149 L 2.12,8.878 C 1.668,8.862 1.267,8.82 0.916,8.751 0.458,8.661 0.067,8.51 -0.255,8.297 -0.578,8.084 -0.84,7.804 -1.04,7.455 -1.24,7.107 -1.405,6.668 -1.534,6.139 l -1.3,-5.303 c -0.13,-0.529 -0.178,-0.967 -0.145,-1.316 0.031,-0.349 0.157,-0.629 0.376,-0.842 0.219,-0.213 0.539,-0.365 0.957,-0.456 0.329,-0.071 0.722,-0.113 1.18,-0.129 z"
         style="fill:#006080;fill-opacity:1;fill-rule:nonzero;stroke:none"
         id="path598"
         inkscape:connector-curvature="0" />
    </g>
    <g
       id="g600"
       transform="matrix(0.69438892,0,0,-0.69438892,88.21764,123.87812)">
      <path
         d="m 0,0 2.053,-0.001 c 0.129,0 0.252,0.039 0.368,0.116 0.116,0.077 0.186,0.168 0.213,0.271 l 0.213,0.89 C 2.873,1.379 2.851,1.47 2.779,1.547 2.709,1.625 2.603,1.664 2.46,1.664 L 0.406,1.665 Z"
         style="fill:#006080;fill-opacity:1;fill-rule:nonzero;stroke:none"
         id="path602"
         inkscape:connector-curvature="0" />
    </g>
    <g
       id="g604"
       transform="matrix(0.69438892,0,0,-0.69438892,86.895305,118.62035)">
      <path
         d="m 0,0 6.592,-0.006 c 0.004,0.008 0.011,0.015 0.021,0.014 l 3.433,-0.009 c 0,0.078 -0.002,0.154 -0.009,0.225 C 10.005,0.572 9.88,0.853 9.66,1.066 9.441,1.279 9.122,1.431 8.702,1.521 8.283,1.612 7.757,1.658 7.125,1.659 L 0.272,1.665 c -0.13,0 -0.256,-0.003 -0.38,-0.006 l -0.474,-1.937 c 0.034,0.072 0.07,0.127 0.108,0.162 C -0.39,-0.039 -0.231,0 0,0"
         style="fill:#006080;fill-opacity:1;fill-rule:nonzero;stroke:none"
         id="path606"
         inkscape:connector-curvature="0" />
    </g>
    <g
       id="g608"
       transform="matrix(0.69438892,0,0,-0.69438892,80.770598,118.66541)">
      <path
         d="m 0,0 3.777,-0.002 c 0.142,0 0.268,0.038 0.377,0.116 0.11,0.077 0.178,0.167 0.204,0.271 l 0.233,0.89 C 4.616,1.378 4.588,1.468 4.504,1.546 4.42,1.624 4.307,1.662 4.165,1.662 L 0.406,1.665 Z"
         style="fill:#006080;fill-opacity:1;fill-rule:nonzero;stroke:none"
         id="path610"
         inkscape:connector-curvature="0" />
    </g>
    <g
       id="g612"
       transform="matrix(0.69438892,0,0,-0.69438892,95.754873,127.43582)">
      <path
         d="M 0,0 C -0.064,-0.258 -0.067,-0.426 -0.01,-0.503 0.049,-0.581 0.187,-0.62 0.406,-0.62 l 8.067,-0.019 c 0.141,0 0.254,-0.024 0.325,-0.102 0.07,-0.077 0.093,-0.174 0.067,-0.29 L 8.633,-1.921 C 8.606,-2.025 8.539,-2.112 8.429,-2.183 8.319,-2.253 8.193,-2.289 8.052,-2.289 l -8.169,0.005 c -0.632,0 -1.155,0.046 -1.568,0.137 -0.413,0.09 -0.729,0.242 -0.948,0.455 -0.22,0.213 -0.348,0.494 -0.387,0.842 -0.039,0.349 0.007,0.787 0.136,1.316 l 1.3,5.264 c 0.13,0.53 0.294,0.968 0.495,1.316 0.2,0.349 0.461,0.629 0.784,0.842 0.323,0.213 0.713,0.364 1.171,0.454 0.458,0.09 1.004,0.136 1.636,0.135 L 14.31,8.47 c 0.142,0 0.252,-0.039 0.329,-0.116 0.078,-0.078 0.103,-0.168 0.078,-0.271 L 14.503,7.192 C 14.464,7.089 14.393,6.999 14.29,6.921 14.187,6.844 14.063,6.806 13.922,6.806 L 2.23,6.812 C 1.998,6.812 1.84,6.774 1.756,6.697 1.672,6.619 1.598,6.451 1.533,6.193 Z"
         style="fill:#00a1e3;fill-opacity:1;fill-rule:nonzero;stroke:none"
         id="path614"
         inkscape:connector-curvature="0" />
    </g>
    <g
       id="g616"
       transform="matrix(0.69438892,0,0,-0.69438892,107.35743,122.5351)">
      <path
         d="m 0,0 c 0.207,0.348 0.472,0.629 0.794,0.841 0.323,0.213 0.714,0.365 1.172,0.454 0.458,0.09 1.01,0.136 1.655,0.135 L 17.693,1.403 c 0.142,0 0.252,-0.043 0.329,-0.126 C 18.1,1.192 18.119,1.099 18.08,0.996 L 17.905,0.145 C 17.88,0.041 17.812,-0.046 17.702,-0.117 17.592,-0.188 17.467,-0.223 17.324,-0.223 L 3.329,-0.234 C 3.098,-0.234 2.936,-0.273 2.846,-0.35 2.755,-0.428 2.678,-0.595 2.613,-0.854 l -1.3,-5.302 C 1.287,-6.26 1.223,-6.35 1.119,-6.427 1.016,-6.505 0.894,-6.543 0.751,-6.543 l -2.032,0.001 c -0.142,0 -0.251,0.039 -0.329,0.116 -0.077,0.078 -0.103,0.168 -0.077,0.271 l 1.183,4.839 C -0.375,-0.787 -0.206,-0.349 0,0 m -8.654,-9.346 c -0.142,0 -0.248,0.041 -0.32,0.126 -0.07,0.083 -0.092,0.177 -0.067,0.281 l 0.243,0.876 c 0.027,0.103 0.091,0.189 0.194,0.261 0.103,0.07 0.226,0.106 0.368,0.106 L 8.087,-7.67 c 0.232,0 0.393,0.038 0.484,0.116 0.09,0.077 0.167,0.244 0.233,0.503 l 1.3,5.225 c 0.025,0.104 0.093,0.194 0.203,0.271 0.109,0.077 0.235,0.117 0.378,0.117 l 1.994,-0.002 c 0.141,0 0.248,-0.039 0.319,-0.116 0.07,-0.078 0.093,-0.168 0.067,-0.271 L 11.901,-6.588 C 11.771,-7.118 11.604,-7.56 11.396,-7.914 11.19,-8.269 10.926,-8.556 10.603,-8.775 10.28,-8.994 9.89,-9.149 9.432,-9.239 8.974,-9.329 8.428,-9.374 7.796,-9.374 Z"
         style="fill:#00a1e3;fill-opacity:1;fill-rule:nonzero;stroke:none"
         id="path618"
         inkscape:connector-curvature="0" />
    </g>
    <g
       id="g620"
       transform="matrix(0.69438892,0,0,-0.69438892,124.57202,129.09111)">
      <path
         d="M 0,0 C -0.129,0 -0.235,0.039 -0.319,0.116 -0.403,0.194 -0.433,0.284 -0.406,0.388 L 1.611,8.555 C 1.676,8.813 1.68,8.981 1.621,9.058 1.563,9.136 1.425,9.174 1.205,9.175 L -5.86,9.179 -8.033,0.392 C -8.059,0.289 -8.123,0.198 -8.227,0.121 -8.33,0.043 -8.446,0.005 -8.575,0.005 l -2.071,0.001 c -0.129,0 -0.236,0.039 -0.32,0.117 -0.084,0.077 -0.113,0.167 -0.087,0.271 L -8.607,10.4 c 0.025,0.103 0.096,0.203 0.212,0.3 0.117,0.096 0.239,0.145 0.368,0.145 L 1.71,10.839 c 0.632,0 1.158,-0.039 1.577,-0.117 0.419,-0.078 0.742,-0.22 0.968,-0.427 C 4.48,10.089 4.612,9.814 4.651,9.473 4.689,9.13 4.644,8.695 4.515,8.166 L 2.904,1.644 6.176,1.642 C 6.317,1.642 6.424,1.603 6.495,1.525 6.565,1.448 6.589,1.357 6.562,1.254 L 6.35,0.384 C 6.323,0.28 6.259,0.19 6.155,0.113 6.052,0.035 5.93,-0.003 5.788,-0.003 Z"
         style="fill:#00a1e3;fill-opacity:1;fill-rule:nonzero;stroke:none"
         id="path622"
         inkscape:connector-curvature="0" />
    </g>
    <g
       id="g624"
       transform="matrix(0.69438892,0,0,-0.69438892,130.47364,127.48159)">
      <path
         d="M 0,0 C -0.065,-0.258 -0.068,-0.426 -0.01,-0.503 0.048,-0.581 0.187,-0.619 0.406,-0.62 l 9.737,-0.005 c 0.141,0 0.248,-0.039 0.319,-0.116 0.07,-0.078 0.093,-0.168 0.067,-0.272 l -0.214,-0.89 C 10.29,-2.006 10.219,-2.096 10.103,-2.174 9.986,-2.251 9.864,-2.29 9.735,-2.29 l -9.853,0.006 c -0.632,0 -1.158,0.046 -1.577,0.137 -0.419,0.09 -0.739,0.242 -0.958,0.455 -0.22,0.213 -0.345,0.494 -0.377,0.842 -0.033,0.349 0.016,0.787 0.146,1.316 l 1.164,4.8 c 0.026,0.103 0.097,0.203 0.213,0.3 0.116,0.097 0.238,0.145 0.368,0.145 L 0.894,5.71 C 1.035,5.71 1.142,5.662 1.213,5.564 1.283,5.468 1.306,5.368 1.28,5.265 Z M 2.711,2.825 C 2.569,2.825 2.463,2.864 2.392,2.941 2.321,3.019 2.299,3.109 2.324,3.212 l 0.214,0.891 c 0.025,0.103 0.097,0.193 0.213,0.27 0.116,0.078 0.238,0.116 0.368,0.116 L 8.81,4.486 9.256,6.228 C 9.32,6.486 9.324,6.653 9.266,6.731 9.208,6.809 9.063,6.847 8.83,6.847 L -4.468,6.855 c -0.142,0 -0.252,0.039 -0.329,0.116 -0.077,0.078 -0.097,0.168 -0.057,0.272 l 0.212,0.89 c 0.027,0.103 0.091,0.193 0.195,0.271 0.102,0.077 0.225,0.116 0.367,0.116 L 9.354,8.512 C 9.986,8.511 10.512,8.466 10.932,8.375 11.351,8.285 11.67,8.133 11.89,7.92 12.108,7.707 12.234,7.426 12.267,7.078 12.298,6.729 12.25,6.291 12.12,5.762 L 11.5,3.207 C 11.474,3.104 11.405,3.013 11.296,2.936 11.187,2.858 11.061,2.82 10.919,2.82 Z"
         style="fill:#00a1e3;fill-opacity:1;fill-rule:nonzero;stroke:none"
         id="path626"
         inkscape:connector-curvature="0" />
    </g>
    <g
       id="g628"
       transform="matrix(0.69438892,0,0,-0.69438892,141.72356,127.46124)">
      <path
         d="M 0,0 C -0.064,-0.258 -0.068,-0.426 -0.01,-0.503 0.048,-0.581 0.187,-0.619 0.406,-0.62 l 8.073,-0.004 c 0.141,0 0.248,-0.039 0.319,-0.116 0.07,-0.078 0.093,-0.175 0.067,-0.291 L 8.632,-1.921 C 8.606,-2.024 8.538,-2.111 8.429,-2.182 8.319,-2.253 8.193,-2.289 8.051,-2.289 l -8.168,0.005 c -0.633,0 -1.155,0.046 -1.569,0.137 -0.413,0.09 -0.728,0.242 -0.948,0.455 -0.219,0.213 -0.347,0.494 -0.387,0.842 -0.038,0.349 0.007,0.787 0.137,1.316 l 1.3,5.265 c 0.129,0.529 0.294,0.967 0.494,1.316 0.2,0.348 0.462,0.629 0.785,0.841 0.323,0.213 0.713,0.364 1.171,0.455 0.458,0.09 1.004,0.135 1.636,0.134 L 14.31,8.47 c 0.141,0 0.252,-0.038 0.329,-0.116 0.077,-0.078 0.103,-0.168 0.077,-0.271 L 14.503,7.192 C 14.464,7.089 14.393,6.999 14.289,6.922 14.186,6.844 14.063,6.806 13.922,6.806 L 2.23,6.812 C 1.998,6.812 1.84,6.774 1.756,6.697 1.672,6.619 1.598,6.452 1.533,6.193 Z"
         style="fill:#00a1e3;fill-opacity:1;fill-rule:nonzero;stroke:none"
         id="path630"
         inkscape:connector-curvature="0" />
    </g>
    <g
       id="g632"
       transform="matrix(0.69438892,0,0,-0.69438892,157.13032,121.64984)">
      <path
         d="m 0,0 c 0.077,-0.078 0.104,-0.168 0.077,-0.271 l -0.232,-0.91 c -0.027,-0.103 -0.094,-0.194 -0.203,-0.271 -0.111,-0.077 -0.237,-0.116 -0.378,-0.116 l -3.814,0.003 -1.649,-6.774 c -0.065,-0.259 -0.074,-0.426 -0.03,-0.504 0.046,-0.077 0.185,-0.116 0.417,-0.116 l 3.291,-0.002 c 0.141,0 0.251,-0.039 0.329,-0.116 0.077,-0.078 0.103,-0.168 0.077,-0.271 l -0.213,-0.891 c -0.026,-0.103 -0.101,-0.203 -0.223,-0.3 -0.123,-0.096 -0.249,-0.145 -0.378,-0.145 l -3.426,0.002 c -0.877,0.001 -1.539,0.053 -1.984,0.157 -0.445,0.103 -0.745,0.264 -0.9,0.484 -0.155,0.219 -0.199,0.51 -0.135,0.871 0.064,0.361 0.155,0.794 0.272,1.297 l 1.552,6.309 -2.032,0.002 c -0.143,0 -0.252,0.038 -0.329,0.116 -0.077,0.077 -0.097,0.167 -0.058,0.271 l 0.213,0.909 c 0.026,0.103 0.094,0.194 0.203,0.271 0.111,0.078 0.236,0.116 0.378,0.116 l 2.032,-0.001 1.32,5.419 c 0.026,0.104 0.094,0.194 0.204,0.271 0.109,0.078 0.235,0.116 0.377,0.116 l 2.071,-0.001 c 0.104,0 0.193,-0.029 0.271,-0.088 0.078,-0.058 0.116,-0.119 0.116,-0.183 L -4.123,0.118 -0.31,0.116 C -0.181,0.116 -0.077,0.077 0,0"
         style="fill:#00a1e3;fill-opacity:1;fill-rule:nonzero;stroke:none"
         id="path634"
         inkscape:connector-curvature="0" />
    </g>
    <g
       id="g636"
       transform="matrix(0.69438892,0,0,-0.69438892,164.20981,129.07348)">
      <path
         d="M 0,0 C -0.13,0 -0.232,0.039 -0.31,0.116 -0.388,0.194 -0.413,0.284 -0.388,0.387 L 1.611,8.535 C 1.676,8.768 1.679,8.922 1.621,9 1.563,9.077 1.424,9.116 1.205,9.116 l -9.04,0.006 c -0.142,0 -0.248,0.038 -0.319,0.116 -0.071,0.077 -0.094,0.174 -0.068,0.29 l 0.233,0.89 c 0.026,0.103 0.091,0.19 0.194,0.262 0.104,0.07 0.219,0.106 0.349,0.106 L 1.709,10.781 C 2.342,10.78 2.867,10.734 3.287,10.644 3.706,10.554 4.025,10.402 4.245,10.189 4.464,9.976 4.593,9.695 4.631,9.347 4.67,8.998 4.624,8.559 4.495,8.03 L 2.942,1.624 6.427,1.622 C 6.556,1.622 6.659,1.583 6.736,1.506 6.814,1.428 6.84,1.338 6.813,1.235 L 6.581,0.344 C 6.555,0.241 6.487,0.151 6.378,0.074 6.268,-0.004 6.142,-0.042 6,-0.042 Z m -6.134,5.094 c -0.232,0 -0.39,-0.038 -0.473,-0.115 C -6.692,4.901 -6.767,4.733 -6.831,4.475 L -7.84,0.411 -8.479,0.005 -14.092,-0.011 c -0.142,0 -0.249,0.038 -0.319,0.116 -0.071,0.078 -0.094,0.167 -0.068,0.271 l 0.213,0.89 c 0.027,0.103 0.094,0.194 0.203,0.271 0.111,0.077 0.237,0.116 0.378,0.116 l 3.174,-0.002 0.544,2.362 c 0.129,0.529 0.301,0.967 0.514,1.316 0.213,0.348 0.48,0.628 0.804,0.841 0.322,0.213 0.712,0.364 1.171,0.454 0.457,0.09 1.003,0.135 1.636,0.135 l 4.084,-0.003 c 0.142,0 0.248,-0.038 0.32,-0.116 0.07,-0.078 0.092,-0.168 0.067,-0.271 L -1.585,5.479 C -1.61,5.375 -1.679,5.285 -1.788,5.208 -1.897,5.13 -2.023,5.092 -2.165,5.092 Z"
         style="fill:#00a1e3;fill-opacity:1;fill-rule:nonzero;stroke:none"
         id="path638"
         inkscape:connector-curvature="0" />
    </g>
  </g>
</svg>
