<?xml version="1.0" encoding="UTF-8" standalone="no"?>
<svg
   width="576.22247pt"
   height="110.94613pt"
   viewBox="0 0 576.22247 110.94613"
   version="1.1"
   id="svg12"
   xmlns="http://www.w3.org/2000/svg"
   xmlns:svg="http://www.w3.org/2000/svg">
  <defs
     id="defs12" />
  <g
     id="#e50c00ff"
     transform="translate(-111.71637,-244.44387)">
    <path
       fill="#e50c00"
       opacity="1"
       d="m 142.21,245.23 c 8.21,-1.69 16.99,-0.65 24.52,3.07 9.9,4.79 17.54,14.05 20.26,24.72 3.3,12.02 0.03,25.49 -8.2,34.81 -9.74,11.44 -26.52,16 -40.74,11.17 -11.92,-3.82 -21.58,-13.9 -24.88,-25.97 -2.72,-9.27 -1.55,-19.51 2.9,-28.04 5.23,-10.02 15.04,-17.53 26.14,-19.76 m 2.13,18.34 c -7.31,2.12 -13.09,8.74 -14.08,16.31 -1.24,7.85 2.87,16.14 9.76,20.04 6.43,3.82 15,3.52 21.13,-0.76 7.11,-4.65 10.5,-14.13 7.92,-22.23 -2.86,-10.17 -14.61,-16.69 -24.73,-13.36 z"
       id="path5" />
    <path
       fill="#e50c00"
       opacity="1"
       d="m 135.33,329.94 c 9.77,-0.17 19.53,0.11 29.3,0.15 -4.85,8.45 -9.69,16.91 -14.64,25.3 -4.96,-8.43 -9.9,-16.9 -14.66,-25.45 z"
       id="path6" />
  </g>
  <g
     id="#ffffffff"
     transform="translate(-111.71637,-244.44387)"
     style="fill:#000000">
    <path
       fill="#ffffff"
       opacity="1"
       d="m 467.66,264.42 c 5.5,-3.81 10.97,-7.64 16.52,-11.37 0.05,8.97 0.01,17.94 0.03,26.91 10,0.1 20.01,-0.19 30.01,0.16 -2.9,4.82 -5.71,9.71 -8.34,14.69 -7.22,0.29 -14.45,0.05 -21.67,0.13 0.02,8.7 -0.07,17.39 0.03,26.09 -0.08,5.1 4.88,9.18 9.77,9.21 3.9,0.09 7.81,-0.04 11.72,0.06 3.17,5.5 6.34,11 9.56,16.47 -7.12,0.06 -14.24,0.06 -21.35,0.01 -8.66,0.06 -16.85,-4.9 -21.76,-11.87 -3.79,-5.49 -4.77,-12.37 -4.52,-18.9 0.01,-6.78 0.02,-13.55 0,-20.32 -3.46,0 -6.92,0 -10.37,0 -0.01,-5.5 -0.01,-10.99 0,-16.49 3.45,0 6.91,0 10.38,0 0,-4.93 0,-9.85 -0.01,-14.78 z"
       id="path7"
       style="fill:#000000" />
    <path
       fill="#ffffff"
       opacity="1"
       d="m 225.33,264.37 c 5.48,-3.75 10.94,-7.52 16.37,-11.34 0.16,8.97 0.03,17.94 0.07,26.91 10.02,0.1 20.04,-0.09 30.05,0.11 -2.74,4.9 -5.7,9.69 -8.23,14.72 -7.26,0.4 -14.54,0.06 -21.81,0.18 0.02,8.68 -0.07,17.36 0.03,26.05 0.04,4.88 4.48,8.87 9.2,9.19 4.11,0.2 8.24,0 12.35,0.08 3.17,5.51 6.34,11.02 9.58,16.5 -6.95,0.07 -13.9,0.04 -20.85,0.02 -13.16,0.28 -25.49,-10.66 -26.55,-23.84 -0.54,-9.07 -0.08,-18.17 -0.24,-27.26 -3.48,0 -6.96,0.01 -10.44,-0.03 0,-5.48 -0.01,-10.96 0.01,-16.43 3.47,-0.04 6.95,-0.04 10.43,-0.03 0.02,-4.94 -0.02,-9.89 0.03,-14.83 z"
       id="path8"
       style="fill:#000000" />
    <path
       fill="#ffffff"
       opacity="1"
       d="m 354.29,302.25 c 0.84,-14.98 16.2,-26.45 30.78,-24.17 5.5,0.68 10.55,3.32 14.83,6.74 6.37,-5.28 14.98,-8.28 23.23,-6.52 11.98,1.87 22.1,12.55 22.46,24.83 0.13,14.53 0.02,29.07 0.05,43.6 -5.48,0.01 -10.97,0.01 -16.45,0 -0.01,-13.59 0.01,-27.18 0,-40.77 0.2,-5.51 -4.51,-10.75 -10.09,-10.74 -5.84,-0.46 -11.25,4.88 -10.9,10.72 0.02,13.56 -0.05,27.12 0.04,40.69 -5.52,0.23 -11.05,0.06 -16.57,0.1 -0.05,-13.83 0.05,-27.66 -0.05,-41.48 -0.07,-5.48 -5.15,-10.31 -10.63,-10.04 -5.67,-0.15 -10.68,5.15 -10.33,10.79 0.01,13.57 0.01,27.15 0,40.73 -5.48,0.01 -10.96,0.01 -16.44,0.01 0.04,-14.83 -0.11,-29.67 0.07,-44.49 z"
       id="path9"
       style="fill:#000000" />
    <path
       fill="#ffffff"
       opacity="1"
       d="m 620.06,278.12 c 7.92,-1.33 16.09,1.6 22.14,6.71 6.28,-5.14 14.65,-8.17 22.78,-6.63 12.09,1.7 22.56,12.37 22.92,24.76 0.08,14.59 0.01,29.19 0.02,43.78 -5.47,-0.01 -10.94,0 -16.4,-0.01 -0.02,-13.59 0,-27.19 -0.01,-40.78 0.32,-5.67 -4.79,-10.96 -10.48,-10.74 -5.76,-0.23 -10.84,5.13 -10.52,10.85 -0.02,13.56 0.01,27.11 -0.01,40.67 -5.46,0.01 -10.91,0 -16.37,0.01 -0.05,-13.64 0.09,-27.28 -0.06,-40.91 0.05,-5.44 -4.53,-10.52 -10.04,-10.6 -5.45,-0.5 -10.84,4.16 -10.91,9.67 -0.11,13.93 0.01,27.87 -0.06,41.8 -5.51,0.07 -11.02,0.03 -16.52,0.03 0.01,-14.55 -0.07,-29.1 0.03,-43.64 0.38,-12.64 11.11,-23.5 23.49,-24.97 z"
       id="path10"
       style="fill:#000000" />
    <path
       fill="#ffffff"
       opacity="1"
       d="m 300.54,278.82 c 16.83,-4.21 35.44,6.55 40.38,23.12 5.39,15.73 -2.7,34.4 -17.74,41.39 -14.45,7.35 -33.62,2.59 -42.9,-10.71 -7,-9.47 -8.56,-22.6 -3.94,-33.44 4.16,-10.16 13.47,-18.01 24.2,-20.36 m 2.67,16.35 c -7.75,2.07 -13.44,9.87 -13,17.89 0.16,8.52 7.25,16.24 15.74,17.1 7.4,1.04 15.07,-3.19 18.27,-9.92 2.86,-5.91 2.24,-13.49 -1.85,-18.69 -4.3,-5.76 -12.26,-8.49 -19.16,-6.38 z"
       id="path11"
       style="fill:#000000" />
    <path
       fill="#ffffff"
       opacity="1"
       d="m 539.47,279.78 c 10.07,-3.45 21.7,-1.86 30.44,4.22 13.62,8.93 18.96,28.12 11.82,42.78 -6.44,14.65 -23.91,23.12 -39.41,19.04 -14.81,-3.4 -26.33,-17.61 -26.19,-32.87 -0.6,-14.62 9.48,-28.68 23.34,-33.17 m 4.89,15.77 c -5.45,1.98 -9.83,6.76 -11.25,12.39 -3.14,10.63 5.82,22.41 16.86,22.34 11,0.71 20.56,-10.53 18.11,-21.28 -1.74,-10.45 -13.82,-17.44 -23.72,-13.45 z"
       id="path12"
       style="fill:#000000" />
  </g>
</svg>
