<?xml version="1.0" encoding="UTF-8" standalone="no"?>
<!-- Created with Inkscape (http://www.inkscape.org/) -->

<svg
   width="90"
   height="50"
   viewBox="0 0 23.8125 13.229167"
   version="1.1"
   id="svg1"
   sodipodi:docname="logo_geocamp_90x50_dark.svg"
   inkscape:version="1.1.2 (0a00cf5339, 2022-02-04)"
   xmlns:inkscape="http://www.inkscape.org/namespaces/inkscape"
   xmlns:sodipodi="http://sodipodi.sourceforge.net/DTD/sodipodi-0.dtd"
   xmlns="http://www.w3.org/2000/svg"
   xmlns:svg="http://www.w3.org/2000/svg">
  <sodipodi:namedview
     id="namedview982"
     pagecolor="#ffffff"
     bordercolor="#000000"
     borderopacity="0.25"
     inkscape:pageshadow="2"
     inkscape:pageopacity="0.0"
     inkscape:pagecheckerboard="0"
     showgrid="false"
     inkscape:zoom="19.033333"
     inkscape:cx="45"
     inkscape:cy="25.008757"
     inkscape:window-width="2560"
     inkscape:window-height="1376"
     inkscape:window-x="0"
     inkscape:window-y="27"
     inkscape:window-maximized="1"
     inkscape:current-layer="svg1" />
  <defs
     id="defs1">
    <clipPath
       clipPathUnits="userSpaceOnUse"
       id="clipPath299">
      <path
         d="M 0,595.276 H 841.89 V 0 H 0 Z"
         transform="matrix(1.3333333,0,0,-1.3333333,0,793.70133)"
         id="path299" />
    </clipPath>
    <clipPath
       clipPathUnits="userSpaceOnUse"
       id="clipPath240">
      <path
         d="m 109.556,208.221 h 96.039 v -72.586 h -96.039 z"
         transform="matrix(1.3333333,0,0,-1.3333333,0,793.70133)"
         id="path240" />
    </clipPath>
    <clipPath
       clipPathUnits="userSpaceOnUse"
       id="clipPath239">
      <path
         d="m 202.924,192.395 h 2.16 v -2.16 h -2.16 z"
         transform="translate(-205.08361,-191.31601)"
         id="path239" />
    </clipPath>
    <clipPath
       clipPathUnits="userSpaceOnUse"
       id="clipPath242">
      <path
         d="m 109.556,208.221 h 96.039 v -72.586 h -96.039 z"
         transform="matrix(1.3333333,0,0,-1.3333333,0,793.70133)"
         id="path242" />
    </clipPath>
    <clipPath
       clipPathUnits="userSpaceOnUse"
       id="clipPath241">
      <path
         d="m 201.846,196.881 h 2.409 v -2.409 h -2.409 z"
         transform="translate(-203.04991,-196.8809)"
         id="path241" />
    </clipPath>
    <clipPath
       clipPathUnits="userSpaceOnUse"
       id="clipPath244">
      <path
         d="m 109.556,208.221 h 96.039 v -72.586 h -96.039 z"
         transform="matrix(1.3333333,0,0,-1.3333333,0,793.70133)"
         id="path244" />
    </clipPath>
    <clipPath
       clipPathUnits="userSpaceOnUse"
       id="clipPath243">
      <path
         d="m 198.486,200.502 h 2.658 v -2.658 h -2.658 z"
         transform="translate(-199.8138,-200.50171)"
         id="path243" />
    </clipPath>
    <clipPath
       clipPathUnits="userSpaceOnUse"
       id="clipPath246">
      <path
         d="m 109.556,208.221 h 96.039 v -72.586 h -96.039 z"
         transform="matrix(1.3333333,0,0,-1.3333333,0,793.70133)"
         id="path246" />
    </clipPath>
    <clipPath
       clipPathUnits="userSpaceOnUse"
       id="clipPath245">
      <path
         d="m 193.586,202.528 h 2.907 v -2.907 h -2.907 z"
         transform="translate(-195.0384,-202.52801)"
         id="path245" />
    </clipPath>
    <clipPath
       clipPathUnits="userSpaceOnUse"
       id="clipPath248">
      <path
         d="m 109.556,208.221 h 96.039 v -72.586 h -96.039 z"
         transform="matrix(1.3333333,0,0,-1.3333333,0,793.70133)"
         id="path248" />
    </clipPath>
    <clipPath
       clipPathUnits="userSpaceOnUse"
       id="clipPath247">
      <path
         d="m 187.972,202.263 h 3.156 v -3.156 h -3.156 z"
         transform="translate(-189.54891,-202.26311)"
         id="path247" />
    </clipPath>
    <clipPath
       clipPathUnits="userSpaceOnUse"
       id="clipPath250">
      <path
         d="m 109.556,208.221 h 96.039 v -72.586 h -96.039 z"
         transform="matrix(1.3333333,0,0,-1.3333333,0,793.70133)"
         id="path250" />
    </clipPath>
    <clipPath
       clipPathUnits="userSpaceOnUse"
       id="clipPath249">
      <path
         d="m 182.71,199.545 h 3.405 v -3.405 h -3.405 z"
         transform="translate(-184.41141,-199.5454)"
         id="path249" />
    </clipPath>
    <clipPath
       clipPathUnits="userSpaceOnUse"
       id="clipPath252">
      <path
         d="m 109.556,208.221 h 96.039 v -72.586 h -96.039 z"
         transform="matrix(1.3333333,0,0,-1.3333333,0,793.70133)"
         id="path252" />
    </clipPath>
    <clipPath
       clipPathUnits="userSpaceOnUse"
       id="clipPath251">
      <path
         d="m 178.595,194.837 h 3.655 v -3.655 h -3.655 z"
         transform="translate(-180.4209,-194.83681)"
         id="path251" />
    </clipPath>
    <clipPath
       clipPathUnits="userSpaceOnUse"
       id="clipPath254">
      <path
         d="m 109.556,208.221 h 96.039 v -72.586 h -96.039 z"
         transform="matrix(1.3333333,0,0,-1.3333333,0,793.70133)"
         id="path254" />
    </clipPath>
    <clipPath
       clipPathUnits="userSpaceOnUse"
       id="clipPath253">
      <path
         d="m 175.953,188.811 h 3.904 v -3.904 h -3.904 z"
         transform="translate(-177.90321,-188.8112)"
         id="path253" />
    </clipPath>
    <clipPath
       clipPathUnits="userSpaceOnUse"
       id="clipPath256">
      <path
         d="m 109.556,208.221 h 96.039 v -72.586 h -96.039 z"
         transform="matrix(1.3333333,0,0,-1.3333333,0,793.70133)"
         id="path256" />
    </clipPath>
    <clipPath
       clipPathUnits="userSpaceOnUse"
       id="clipPath255">
      <path
         d="m 174.61,181.974 h 4.153 v -4.154 h -4.153 z"
         transform="translate(-176.6851,-181.9735)"
         id="path255" />
    </clipPath>
    <clipPath
       clipPathUnits="userSpaceOnUse"
       id="clipPath258">
      <path
         d="m 109.556,208.221 h 96.039 v -72.586 h -96.039 z"
         transform="matrix(1.3333333,0,0,-1.3333333,0,793.70133)"
         id="path258" />
    </clipPath>
    <clipPath
       clipPathUnits="userSpaceOnUse"
       id="clipPath257">
      <path
         d="m 173.018,174.805 h 4.403 v -4.403 h -4.403 z"
         transform="translate(-175.2177,-174.8048)"
         id="path257" />
    </clipPath>
    <clipPath
       clipPathUnits="userSpaceOnUse"
       id="clipPath260">
      <path
         d="m 109.556,208.221 h 96.039 v -72.586 h -96.039 z"
         transform="matrix(1.3333333,0,0,-1.3333333,0,793.70133)"
         id="path260" />
    </clipPath>
    <clipPath
       clipPathUnits="userSpaceOnUse"
       id="clipPath259">
      <path
         d="m 170.457,167.45 h 4.651 v -4.652 h -4.651 z"
         transform="translate(-172.7808,-167.44981)"
         id="path259" />
    </clipPath>
    <clipPath
       clipPathUnits="userSpaceOnUse"
       id="clipPath262">
      <path
         d="m 109.556,208.221 h 96.039 v -72.586 h -96.039 z"
         transform="matrix(1.3333333,0,0,-1.3333333,0,793.70133)"
         id="path262" />
    </clipPath>
    <clipPath
       clipPathUnits="userSpaceOnUse"
       id="clipPath261">
      <path
         d="m 166.501,160.202 h 4.901 v -4.901 h -4.901 z"
         transform="translate(-168.9499,-160.20211)"
         id="path261" />
    </clipPath>
    <clipPath
       clipPathUnits="userSpaceOnUse"
       id="clipPath264">
      <path
         d="m 109.556,208.221 h 96.039 v -72.586 h -96.039 z"
         transform="matrix(1.3333333,0,0,-1.3333333,0,793.70133)"
         id="path264" />
    </clipPath>
    <clipPath
       clipPathUnits="userSpaceOnUse"
       id="clipPath263">
      <path
         d="m 160.908,153.532 h 5.15 v -5.15 h -5.15 z"
         transform="translate(-163.4812,-153.5317)"
         id="path263" />
    </clipPath>
    <clipPath
       clipPathUnits="userSpaceOnUse"
       id="clipPath266">
      <path
         d="m 109.556,208.221 h 96.039 v -72.586 h -96.039 z"
         transform="matrix(1.3333333,0,0,-1.3333333,0,793.70133)"
         id="path266" />
    </clipPath>
    <clipPath
       clipPathUnits="userSpaceOnUse"
       id="clipPath265">
      <path
         d="m 153.746,147.807 h 5.399 v -5.399 h -5.399 z"
         transform="translate(-156.44331,-147.8071)"
         id="path265" />
    </clipPath>
    <clipPath
       clipPathUnits="userSpaceOnUse"
       id="clipPath268">
      <path
         d="m 109.556,208.221 h 96.039 v -72.586 h -96.039 z"
         transform="matrix(1.3333333,0,0,-1.3333333,0,793.70133)"
         id="path268" />
    </clipPath>
    <clipPath
       clipPathUnits="userSpaceOnUse"
       id="clipPath267">
      <path
         d="m 145.112,143.553 h 5.649 v -5.648 h -5.649 z"
         transform="translate(-147.93441,-143.55301)"
         id="path267" />
    </clipPath>
    <clipPath
       clipPathUnits="userSpaceOnUse"
       id="clipPath270">
      <path
         d="m 109.556,208.221 h 96.039 v -72.586 h -96.039 z"
         transform="matrix(1.3333333,0,0,-1.3333333,0,793.70133)"
         id="path270" />
    </clipPath>
    <clipPath
       clipPathUnits="userSpaceOnUse"
       id="clipPath269">
      <path
         d="m 135.223,141.533 h 5.898 v -5.898 h -5.898 z"
         transform="translate(-138.1698,-141.5326)"
         id="path269" />
    </clipPath>
    <clipPath
       clipPathUnits="userSpaceOnUse"
       id="clipPath272">
      <path
         d="m 109.556,208.221 h 96.039 v -72.586 h -96.039 z"
         transform="matrix(1.3333333,0,0,-1.3333333,0,793.70133)"
         id="path272" />
    </clipPath>
    <clipPath
       clipPathUnits="userSpaceOnUse"
       id="clipPath271">
      <path
         d="m 124.562,142.184 h 6.147 v -6.147 h -6.147 z"
         transform="translate(-127.6333,-142.1836)"
         id="path271" />
    </clipPath>
    <clipPath
       clipPathUnits="userSpaceOnUse"
       id="clipPath274">
      <path
         d="m 109.556,208.221 h 96.039 v -72.586 h -96.039 z"
         transform="matrix(1.3333333,0,0,-1.3333333,0,793.70133)"
         id="path274" />
    </clipPath>
    <clipPath
       clipPathUnits="userSpaceOnUse"
       id="clipPath273">
      <path
         d="m 114.909,147.67 h 6.396 v -6.396 h -6.396 z"
         transform="translate(-118.1049,-147.67)"
         id="path273" />
    </clipPath>
    <clipPath
       clipPathUnits="userSpaceOnUse"
       id="clipPath276">
      <path
         d="m 109.556,208.221 h 96.039 v -72.586 h -96.039 z"
         transform="matrix(1.3333333,0,0,-1.3333333,0,793.70133)"
         id="path276" />
    </clipPath>
    <clipPath
       clipPathUnits="userSpaceOnUse"
       id="clipPath275">
      <path
         d="m 115.228,208.221 h 90.367 v -68.373 h -90.367 z"
         transform="translate(-195.03771,-203.39191)"
         id="path275" />
    </clipPath>
    <clipPath
       clipPathUnits="userSpaceOnUse"
       id="clipPath278">
      <path
         d="m 109.556,208.221 h 96.039 v -72.586 h -96.039 z"
         transform="matrix(1.3333333,0,0,-1.3333333,0,793.70133)"
         id="path278" />
    </clipPath>
    <clipPath
       clipPathUnits="userSpaceOnUse"
       id="clipPath277">
      <path
         d="m 109.556,155.694 h 6.449 v -4.909 h -6.449 z"
         transform="translate(-109.9585,-155.6938)"
         id="path277" />
    </clipPath>
    <clipPath
       clipPathUnits="userSpaceOnUse"
       id="clipPath301">
      <path
         d="M 0,595.276 H 841.89 V 0 H 0 Z"
         transform="translate(-126.80031,-153.2587)"
         id="path301" />
    </clipPath>
    <clipPath
       clipPathUnits="userSpaceOnUse"
       id="clipPath476">
      <path
         d="M 0,595.276 H 841.89 V 0 H 0 Z"
         transform="translate(-213.3514,-178.9856)"
         id="path476" />
    </clipPath>
    <clipPath
       clipPathUnits="userSpaceOnUse"
       id="clipPath478">
      <path
         d="M 0,595.276 H 841.89 V 0 H 0 Z"
         transform="translate(-186.17181,-169.9394)"
         id="path478" />
    </clipPath>
    <clipPath
       clipPathUnits="userSpaceOnUse"
       id="clipPath480">
      <path
         d="M 0,595.276 H 841.89 V 0 H 0 Z"
         transform="translate(-195.2179,-142.75981)"
         id="path480" />
    </clipPath>
    <clipPath
       clipPathUnits="userSpaceOnUse"
       id="clipPath482">
      <path
         d="M 0,595.276 H 841.89 V 0 H 0 Z"
         transform="translate(-222.3976,-151.8059)"
         id="path482" />
    </clipPath>
  </defs>
  <g
     id="g1"
     transform="matrix(0.46021745,0,0,0.46021745,-22.950179,-53.593495)"
     style="stroke-width:2.17288;fill:#ffffff">
    <g
       id="g299"
       clip-path="url(#clipPath299)"
       transform="matrix(0.20793926,0,0,0.20793926,30.852173,14.782064)"
       style="display:inline;fill:#ffffff;fill-opacity:1;stroke-width:5.52958">
      <g
         clip-path="url(#clipPath240)"
         id="g279"
         style="fill:#ffffff;fill-opacity:1;stroke-width:5.52958">
        <path
           d="m 0,0 c 0,-0.596 -0.483,-1.08 -1.079,-1.081 -0.596,0 -1.08,0.483 -1.081,1.079 0,0.597 0.483,1.081 1.079,1.081 C -0.484,1.079 0,0.596 0,0"
           style="fill:#ffffff;fill-opacity:1;fill-rule:nonzero;stroke:none;stroke-width:5.52958"
           transform="matrix(1.3333333,0,0,-1.3333333,273.4448,538.61333)"
           clip-path="url(#clipPath239)"
           id="path279" />
      </g>
      <g
         clip-path="url(#clipPath242)"
         id="g280"
         style="fill:#ffffff;fill-opacity:1;stroke-width:5.52958">
        <path
           d="m 0,0 c 0.665,0.001 1.205,-0.538 1.205,-1.204 10e-4,-0.665 -0.538,-1.204 -1.203,-1.205 -0.665,0 -1.205,0.538 -1.206,1.204 C -1.204,-0.54 -0.665,0 0,0"
           style="fill:#ffffff;fill-opacity:1;fill-rule:nonzero;stroke:none;stroke-width:5.52958"
           transform="matrix(1.3333333,0,0,-1.3333333,270.7332,531.19347)"
           clip-path="url(#clipPath241)"
           id="path280" />
      </g>
      <g
         clip-path="url(#clipPath244)"
         id="g281"
         style="fill:#ffffff;fill-opacity:1;stroke-width:5.52958">
        <path
           d="m 0,0 c 0.734,0.001 1.329,-0.594 1.33,-1.328 10e-4,-0.734 -0.594,-1.33 -1.328,-1.33 -0.734,-10e-4 -1.33,0.594 -1.33,1.328 C -1.329,-0.596 -0.734,-0.001 0,0"
           style="fill:#ffffff;fill-opacity:1;fill-rule:nonzero;stroke:none;stroke-width:5.52958"
           transform="matrix(1.3333333,0,0,-1.3333333,266.4184,526.36573)"
           clip-path="url(#clipPath243)"
           id="path281" />
      </g>
      <g
         clip-path="url(#clipPath246)"
         id="g282"
         style="fill:#ffffff;fill-opacity:1;stroke-width:5.52958">
        <path
           d="m 0,0 c 0.803,0.001 1.454,-0.65 1.455,-1.453 0,-0.802 -0.65,-1.454 -1.453,-1.454 -0.803,-10e-4 -1.454,0.649 -1.455,1.452 0,0.803 0.65,1.454 1.453,1.455"
           style="fill:#ffffff;fill-opacity:1;fill-rule:nonzero;stroke:none;stroke-width:5.52958"
           transform="matrix(1.3333333,0,0,-1.3333333,260.0512,523.664)"
           clip-path="url(#clipPath245)"
           id="path282" />
      </g>
      <g
         clip-path="url(#clipPath248)"
         id="g283"
         style="fill:#ffffff;fill-opacity:1;stroke-width:5.52958">
        <path
           d="M 0,0 C 0.872,0.001 1.579,-0.705 1.579,-1.577 1.58,-2.449 0.874,-3.156 0.002,-3.156 -0.869,-3.157 -1.576,-2.451 -1.577,-1.579 -1.578,-0.708 -0.872,-0.001 0,0"
           style="fill:#ffffff;fill-opacity:1;fill-rule:nonzero;stroke:none;stroke-width:5.52958"
           transform="matrix(1.3333333,0,0,-1.3333333,252.73187,524.0172)"
           clip-path="url(#clipPath247)"
           id="path283" />
      </g>
      <g
         clip-path="url(#clipPath250)"
         id="g284"
         style="fill:#ffffff;fill-opacity:1;stroke-width:5.52958">
        <path
           d="m 0,0 c 0.94,0.001 1.703,-0.761 1.704,-1.702 0.001,-0.94 -0.761,-1.703 -1.701,-1.704 -0.941,0 -1.704,0.761 -1.705,1.702 0,0.94 0.762,1.703 1.702,1.704"
           style="fill:#ffffff;fill-opacity:1;fill-rule:nonzero;stroke:none;stroke-width:5.52958"
           transform="matrix(1.3333333,0,0,-1.3333333,245.88187,527.6408)"
           clip-path="url(#clipPath249)"
           id="path284" />
      </g>
      <g
         clip-path="url(#clipPath252)"
         id="g285"
         style="fill:#ffffff;fill-opacity:1;stroke-width:5.52958">
        <path
           d="M 0,0 C 1.009,0.001 1.828,-0.817 1.829,-1.826 1.83,-2.835 1.012,-3.654 0.003,-3.655 -1.007,-3.656 -1.825,-2.838 -1.826,-1.829 -1.827,-0.82 -1.009,-0.001 0,0"
           style="fill:#ffffff;fill-opacity:1;fill-rule:nonzero;stroke:none;stroke-width:5.52958"
           transform="matrix(1.3333333,0,0,-1.3333333,240.5612,533.91893)"
           clip-path="url(#clipPath251)"
           id="path285" />
      </g>
      <g
         clip-path="url(#clipPath254)"
         id="g286"
         style="fill:#ffffff;fill-opacity:1;stroke-width:5.52958">
        <path
           d="M 0,0 C 1.078,0.001 1.953,-0.873 1.953,-1.951 1.954,-3.029 1.081,-3.903 0.003,-3.904 -1.075,-3.905 -1.95,-3.032 -1.951,-1.953 -1.951,-0.875 -1.078,-0.001 0,0"
           style="fill:#ffffff;fill-opacity:1;fill-rule:nonzero;stroke:none;stroke-width:5.52958"
           transform="matrix(1.3333333,0,0,-1.3333333,237.20427,541.95307)"
           clip-path="url(#clipPath253)"
           id="path286" />
      </g>
      <g
         clip-path="url(#clipPath256)"
         id="g287"
         style="fill:#ffffff;fill-opacity:1;stroke-width:5.52958">
        <path
           d="M 0,0 C 1.147,0.001 2.077,-0.928 2.078,-2.075 2.079,-3.222 1.15,-4.152 0.003,-4.153 -1.144,-4.154 -2.074,-3.225 -2.075,-2.078 -2.076,-0.931 -1.147,-0.001 0,0"
           style="fill:#ffffff;fill-opacity:1;fill-rule:nonzero;stroke:none;stroke-width:5.52958"
           transform="matrix(1.3333333,0,0,-1.3333333,235.58013,551.07)"
           clip-path="url(#clipPath255)"
           id="path287" />
      </g>
      <g
         clip-path="url(#clipPath258)"
         id="g288"
         style="fill:#ffffff;fill-opacity:1;stroke-width:5.52958">
        <path
           d="M 0,0 C 1.216,0.001 2.202,-0.984 2.203,-2.2 2.204,-3.415 1.219,-4.402 0.003,-4.402 -1.212,-4.403 -2.199,-3.419 -2.2,-2.203 -2.2,-0.987 -1.216,-0.001 0,0"
           style="fill:#ffffff;fill-opacity:1;fill-rule:nonzero;stroke:none;stroke-width:5.52958"
           transform="matrix(1.3333333,0,0,-1.3333333,233.6236,560.62827)"
           clip-path="url(#clipPath257)"
           id="path288" />
      </g>
      <g
         clip-path="url(#clipPath260)"
         id="g289"
         style="fill:#ffffff;fill-opacity:1;stroke-width:5.52958">
        <path
           d="m 0,0 c 1.285,0.001 2.327,-1.04 2.328,-2.324 0,-1.285 -1.04,-2.327 -2.325,-2.328 -1.284,-10e-4 -2.326,1.04 -2.327,2.324 C -2.325,-1.043 -1.285,-0.001 0,0"
           style="fill:#ffffff;fill-opacity:1;fill-rule:nonzero;stroke:none;stroke-width:5.52958"
           transform="matrix(1.3333333,0,0,-1.3333333,230.3744,570.43493)"
           clip-path="url(#clipPath259)"
           id="path289" />
      </g>
      <g
         clip-path="url(#clipPath262)"
         id="g290"
         style="fill:#ffffff;fill-opacity:1;stroke-width:5.52958">
        <path
           d="M 0,0 C 1.353,0.001 2.451,-1.095 2.452,-2.449 2.453,-3.802 1.357,-4.9 0.004,-4.901 -1.35,-4.902 -2.448,-3.806 -2.449,-2.452 -2.45,-1.099 -1.353,-0.001 0,0"
           style="fill:#ffffff;fill-opacity:1;fill-rule:nonzero;stroke:none;stroke-width:5.52958"
           transform="matrix(1.3333333,0,0,-1.3333333,225.26653,580.09853)"
           clip-path="url(#clipPath261)"
           id="path290" />
      </g>
      <g
         clip-path="url(#clipPath264)"
         id="g291"
         style="fill:#ffffff;fill-opacity:1;stroke-width:5.52958">
        <path
           d="M 0,0 C 1.422,0.001 2.576,-1.151 2.577,-2.573 2.578,-3.995 1.426,-5.149 0.004,-5.15 -1.418,-5.151 -2.572,-3.999 -2.573,-2.577 -2.574,-1.155 -1.422,-0.001 0,0"
           style="fill:#ffffff;fill-opacity:1;fill-rule:nonzero;stroke:none;stroke-width:5.52958"
           transform="matrix(1.3333333,0,0,-1.3333333,217.97493,588.9924)"
           clip-path="url(#clipPath263)"
           id="path291" />
      </g>
      <g
         clip-path="url(#clipPath266)"
         id="g292"
         style="fill:#ffffff;fill-opacity:1;stroke-width:5.52958">
        <path
           d="M 0,0 C 1.491,0.001 2.7,-1.207 2.702,-2.698 2.703,-4.189 1.495,-5.398 0.004,-5.399 -1.487,-5.4 -2.697,-4.193 -2.698,-2.702 -2.699,-1.211 -1.491,-0.001 0,0"
           style="fill:#ffffff;fill-opacity:1;fill-rule:nonzero;stroke:none;stroke-width:5.52958"
           transform="matrix(1.3333333,0,0,-1.3333333,208.59107,596.6252)"
           clip-path="url(#clipPath265)"
           id="path292" />
      </g>
      <g
         clip-path="url(#clipPath268)"
         id="g293"
         style="fill:#ffffff;fill-opacity:1;stroke-width:5.52958">
        <path
           d="M 0,0 C 1.56,0.001 2.825,-1.262 2.826,-2.822 2.827,-4.382 1.564,-5.647 0.004,-5.648 -1.556,-5.65 -2.821,-4.386 -2.822,-2.826 -2.823,-1.267 -1.56,-0.001 0,0"
           style="fill:#ffffff;fill-opacity:1;fill-rule:nonzero;stroke:none;stroke-width:5.52958"
           transform="matrix(1.3333333,0,0,-1.3333333,197.24587,602.29733)"
           clip-path="url(#clipPath267)"
           id="path293" />
      </g>
      <g
         clip-path="url(#clipPath270)"
         id="g294"
         style="fill:#ffffff;fill-opacity:1;stroke-width:5.52958">
        <path
           d="M 0,0 C 1.629,0.001 2.95,-1.318 2.951,-2.947 2.952,-4.575 1.633,-5.896 0.004,-5.898 -1.624,-5.899 -2.945,-4.58 -2.947,-2.951 -2.948,-1.322 -1.629,-0.001 0,0"
           style="fill:#ffffff;fill-opacity:1;fill-rule:nonzero;stroke:none;stroke-width:5.52958"
           transform="matrix(1.3333333,0,0,-1.3333333,184.2264,604.9912)"
           clip-path="url(#clipPath269)"
           id="path294" />
      </g>
      <g
         clip-path="url(#clipPath272)"
         id="g295"
         style="fill:#ffffff;fill-opacity:1;stroke-width:5.52958">
        <path
           d="M 0,0 C 1.697,0.001 3.074,-1.374 3.076,-3.071 3.077,-4.769 1.702,-6.146 0.005,-6.147 -1.693,-6.148 -3.07,-4.773 -3.071,-3.076 -3.072,-1.378 -1.697,-0.001 0,0"
           style="fill:#ffffff;fill-opacity:1;fill-rule:nonzero;stroke:none;stroke-width:5.52958"
           transform="matrix(1.3333333,0,0,-1.3333333,170.17773,604.1232)"
           clip-path="url(#clipPath271)"
           id="path295" />
      </g>
      <g
         clip-path="url(#clipPath274)"
         id="g296"
         style="fill:#ffffff;fill-opacity:1;stroke-width:5.52958">
        <path
           d="M 0,0 C 1.766,0.001 3.199,-1.429 3.2,-3.196 3.202,-4.962 1.771,-6.395 0.005,-6.396 -1.762,-6.397 -3.194,-4.967 -3.196,-3.2 -3.197,-1.434 -1.766,-0.001 0,0"
           style="fill:#ffffff;fill-opacity:1;fill-rule:nonzero;stroke:none;stroke-width:5.52958"
           transform="matrix(1.3333333,0,0,-1.3333333,157.4732,596.808)"
           clip-path="url(#clipPath273)"
           id="path296" />
      </g>
      <g
         clip-path="url(#clipPath276)"
         id="g297"
         style="fill:#ffffff;fill-opacity:1;stroke-width:5.52958">
        <path
           d="m 0,0 c 1.279,0 2.318,-1.039 2.319,-2.316 0,-0.168 -0.019,-0.334 -0.054,-0.495 0.212,-0.09 0.423,-0.185 0.63,-0.287 0.092,0.154 0.201,0.298 0.33,0.428 0.414,0.415 0.965,0.643 1.55,0.644 1.21,0 2.194,-0.983 2.195,-2.191 0,-0.547 -0.2,-1.062 -0.563,-1.465 0.12,-0.129 0.236,-0.261 0.349,-0.395 0.348,0.268 0.783,0.429 1.255,0.43 1.142,0 2.069,-0.927 2.071,-2.067 0,-0.912 -0.594,-1.688 -1.415,-1.962 0.041,-0.154 0.077,-0.309 0.11,-0.466 0.062,0.006 0.125,0.009 0.188,0.009 0.571,0 1.085,-0.249 1.441,-0.643 0.176,1.011 0.202,2.07 0.061,3.124 C 9.459,-0.957 3.066,3.873 -3.456,4.663 -8.53,5.284 -13.794,4.158 -18.157,1.452 -23.98,-2.1 -28.076,-7.964 -30.42,-14.268 c -1.085,-2.767 -1.596,-5.705 -2.459,-8.535 -1.725,-5.737 -4.502,-11.468 -8.385,-16.079 -6.228,-8.069 -15.993,-13.267 -26.973,-13.267 -3.47,0 -6.818,0.521 -9.972,1.486 l -0.01,-0.029 c -0.306,-0.853 -0.873,-1.562 -1.591,-2.05 0.327,-0.853 0.747,-1.678 1.242,-2.462 0.509,0.224 1.062,0.345 1.635,0.346 2.241,0 4.063,-1.821 4.064,-4.059 0.001,-0.546 -0.109,-1.066 -0.305,-1.542 0.305,-0.183 0.613,-0.356 0.925,-0.514 0.587,-0.31 1.182,-0.588 1.784,-0.836 0.086,0.107 0.178,0.21 0.277,0.309 0.743,0.744 1.731,1.155 2.783,1.156 1.885,0 3.463,-1.33 3.848,-3.099 1.028,-0.088 2.063,-0.117 3.1,-0.093 0.186,0.528 0.486,1.014 0.893,1.422 0.72,0.72 1.677,1.118 2.696,1.119 1.336,0 2.512,-0.692 3.194,-1.734 0.838,0.172 1.672,0.365 2.498,0.578 0.149,0.041 0.297,0.086 0.446,0.128 0.305,1.728 1.812,3.047 3.626,3.048 0.86,0 1.65,-0.298 2.278,-0.792 0.909,0.439 1.802,0.915 2.673,1.425 0,0.018 -0.003,0.036 -0.003,0.055 -10e-4,0.952 0.369,1.847 1.042,2.52 0.673,0.674 1.567,1.045 2.519,1.046 0.455,0 0.89,-0.089 1.29,-0.245 0.812,0.663 1.592,1.357 2.345,2.075 -0.02,0.148 -0.033,0.299 -0.034,0.453 0,0.919 0.357,1.783 1.006,2.433 0.649,0.65 1.512,1.008 2.431,1.009 0.067,0 0.132,-0.007 0.199,-0.011 0.71,0.87 1.385,1.767 2.028,2.687 -0.046,0.218 -0.07,0.445 -0.071,0.677 -0.001,1.555 1.076,2.859 2.521,3.217 0.574,1.017 1.112,2.055 1.615,3.111 -0.114,0.328 -0.18,0.678 -0.18,1.045 -0.001,1.289 0.769,2.4 1.872,2.903 0.389,1.021 0.745,2.054 1.074,3.096 -0.244,0.439 -0.384,0.943 -0.385,1.48 0,0.819 0.318,1.589 0.897,2.168 0.19,0.191 0.402,0.35 0.628,0.482 0.232,0.975 0.437,1.955 0.62,2.938 -0.346,0.481 -0.552,1.069 -0.553,1.706 0,0.785 0.305,1.524 0.86,2.08 0.097,0.097 0.201,0.183 0.309,0.265 0.126,1.082 0.31,2.159 0.55,3.22 -0.238,0.412 -0.376,0.888 -0.376,1.397 -10e-4,0.752 0.292,1.46 0.823,1.992 0.22,0.22 0.471,0.397 0.742,0.531 0.362,0.938 0.774,1.848 1.239,2.72 -0.103,0.284 -0.162,0.589 -0.162,0.908 0,0.718 0.279,1.394 0.787,1.903 0.479,0.48 1.108,0.754 1.782,0.784 0.496,0.592 1.029,1.148 1.593,1.668 -0.03,0.155 -0.047,0.314 -0.047,0.478 -10e-4,1.415 1.15,2.567 2.565,2.568 0.5,0 0.966,-0.146 1.361,-0.394 0.435,0.211 0.88,0.404 1.341,0.576 -0.001,0.031 -0.005,0.061 -0.005,0.092 -0.001,1.347 1.094,2.443 2.441,2.444 1.03,0 1.911,-0.641 2.27,-1.543 0.32,0.018 0.642,0.02 0.964,0.011 C -2.018,-0.77 -1.098,-0.001 0,0"
           style="fill:#ffffff;fill-opacity:1;fill-rule:nonzero;stroke:none;stroke-width:5.52958"
           transform="matrix(1.3333333,0,0,-1.3333333,260.05027,522.51213)"
           clip-path="url(#clipPath275)"
           id="path297" />
      </g>
      <g
         clip-path="url(#clipPath278)"
         id="g298"
         style="fill:#ffffff;fill-opacity:1;stroke-width:5.52958">
        <path
           d="m 0,0 c -0.257,-0.472 -0.403,-1.013 -0.402,-1.588 0.001,-1.835 1.49,-3.322 3.325,-3.32 1.441,0.001 2.664,0.922 3.123,2.205 C 3.931,-1.996 1.908,-1.088 0,0"
           style="fill:#ffffff;fill-opacity:1;fill-rule:nonzero;stroke:none;stroke-width:5.52958"
           transform="matrix(1.3333333,0,0,-1.3333333,146.61133,586.1096)"
           clip-path="url(#clipPath277)"
           id="path298" />
      </g>
    </g>
    <path
       id="path300"
       d="m 0,0 c -17.666,0 -32.039,14.373 -32.039,32.039 0,6.337 1.85,12.251 5.037,17.229 l -0.375,-1.58 0.165,-5.607 5.03,-4.041 3.628,-1.567 -1.814,-4.37 -0.412,-3.051 3.463,-6.68 2.721,-1.154 2.887,-14.926 4.186,-2.986 0.679,0.595 -2.202,3.853 4.144,3.108 2.681,5.363 4.118,1.365 4.535,10.885 -9.236,3.38 -2.226,3.959 -10.308,4.123 -2.886,-2.309 -2.968,1.154 0.164,2.886 -1.979,1.32 6.185,1.154 -1.292,1.363 -7.119,-1.775 0.412,3.875 4.041,1.155 1.719,0.621 0.416,-1.604 6.688,7.168 8.494,2.473 -2.639,3.958 2.226,0.825 -0.333,1.6 c 0.741,0.098 1.49,0.169 2.245,0.215 l 0.232,-2.227 1.897,-0.66 3.603,2.726 C 6.872,63.49 9.843,62.68 12.613,61.489 l -1.316,-1.185 1.897,-1.979 2.556,0.578 -0.495,-1.32 1.97,-2.1 -2.246,0.033 1.431,-2.963 1.814,-0.577 0.742,1.072 0.495,2.474 4.618,-3.546 0.879,0.129 c 0.514,-0.639 1.004,-1.296 1.469,-1.973 l -3.915,2.421 -4.278,-0.715 -1.624,-1.657 -1.317,-5.188 0.432,-4.572 4.573,-5.562 6.673,0.124 0.989,-5.19 -0.371,-7.106 -1.73,-7.292 -1.112,-2.657 0.617,-0.249 C 19.5,4.898 10.312,0 0,0 m 0,64.942 c -18.143,0 -32.903,-14.76 -32.903,-32.903 0,-18.143 14.76,-32.903 32.903,-32.903 18.143,0 32.903,14.76 32.903,32.903 0,18.143 -14.76,32.903 -32.903,32.903"
       style="display:inline;fill:#ffffff;fill-opacity:1;fill-rule:nonzero;stroke:none;stroke-width:5.52958"
       transform="matrix(0.27725234,0,0,-0.27725234,66.007855,137.33241)"
       clip-path="url(#clipPath301)" />
    <path
       id="path475"
       d="M 0,0 H -1.564 L -9.067,7.503 -16.569,0 H -27.18 v -8.343 h 14.066 l 4.047,4.047 4.047,-4.047 H 0 Z"
       style="display:inline;fill:#ffffff;fill-opacity:1;fill-rule:nonzero;stroke:none;stroke-width:5.52958"
       transform="matrix(0.27725234,0,0,-0.27725234,90.004358,130.19956)"
       clip-path="url(#clipPath476)" />
    <path
       id="path477"
       d="M 0,0 V -1.564 L -7.503,-9.067 0,-16.569 V -27.18 h 8.343 v 14.066 L 4.296,-9.067 8.343,-5.02 V 0 Z"
       style="display:inline;fill:#ffffff;fill-opacity:1;fill-rule:nonzero;stroke:none;stroke-width:5.52958"
       transform="matrix(0.27725234,0,0,-0.27725234,82.468748,132.70764)"
       clip-path="url(#clipPath478)" />
    <path
       id="path479"
       d="M 0,0 H 1.564 L 9.067,-7.503 16.569,0 H 27.18 V 8.343 H 13.114 L 9.067,4.296 5.02,8.343 H 0 Z"
       style="display:inline;fill:#ffffff;fill-opacity:1;fill-rule:nonzero;stroke:none;stroke-width:5.52958"
       transform="matrix(0.27725234,0,0,-0.27725234,84.976799,140.24324)"
       clip-path="url(#clipPath480)" />
    <path
       id="path481"
       d="M 0,0 V 1.564 L 7.503,9.067 0,16.569 V 27.18 H -8.343 V 13.114 L -4.296,9.067 -8.343,5.02 V 0 Z"
       style="display:inline;fill:#ffffff;fill-opacity:1;fill-rule:nonzero;stroke:none;stroke-width:5.52958"
       transform="matrix(0.27725234,0,0,-0.27725234,92.512439,137.73519)"
       clip-path="url(#clipPath482)" />
  </g>
</svg>
